<?xml version="1.0" encoding="utf-8"?>
<svg xmlns="http://www.w3.org/2000/svg" xmlns:xlink="http://www.w3.org/1999/xlink" width="700" height="700" viewBox="0 0 2800 2800">
<defs>
  <clipPath id="clip260">
    <rect x="0" y="0" width="2800" height="2800"/>
  </clipPath>
</defs>
<path clip-path="url(#clip260)" d="
M0 2800 L2800 2800 L2800 0 L0 0  Z
  " fill="#ffffff" fill-rule="evenodd" fill-opacity="1"/>
<defs>
  <clipPath id="clip261">
    <rect x="560" y="280" width="1961" height="1961"/>
  </clipPath>
</defs>
<path clip-path="url(#clip260)" d="
M731.966 2226.91 L2731.5 2226.91 L2731.5 68.5039 L731.966 68.5039  Z
  " fill="#ffffff" fill-rule="evenodd" fill-opacity="1"/>
<defs>
  <clipPath id="clip262">
    <rect x="731" y="68" width="2001" height="2159"/>
  </clipPath>
</defs>
<polyline clip-path="url(#clip262)" style="stroke:#000000; stroke-linecap:round; stroke-linejoin:round; stroke-width:2.9; stroke-opacity:0.1; fill:none" points="
  1116.62,2226.91 1116.62,68.5039 
  "/>
<polyline clip-path="url(#clip262)" style="stroke:#000000; stroke-linecap:round; stroke-linejoin:round; stroke-width:2.9; stroke-opacity:0.1; fill:none" points="
  1526.69,2226.91 1526.69,68.5039 
  "/>
<polyline clip-path="url(#clip262)" style="stroke:#000000; stroke-linecap:round; stroke-linejoin:round; stroke-width:2.9; stroke-opacity:0.1; fill:none" points="
  1936.77,2226.91 1936.77,68.5039 
  "/>
<polyline clip-path="url(#clip262)" style="stroke:#000000; stroke-linecap:round; stroke-linejoin:round; stroke-width:2.9; stroke-opacity:0.1; fill:none" points="
  2346.84,2226.91 2346.84,68.5039 
  "/>
<polyline clip-path="url(#clip260)" style="stroke:#000000; stroke-linecap:round; stroke-linejoin:round; stroke-width:5.8; stroke-opacity:1; fill:none" points="
  731.966,2226.91 2731.5,2226.91 
  "/>
<polyline clip-path="url(#clip260)" style="stroke:#000000; stroke-linecap:round; stroke-linejoin:round; stroke-width:5.8; stroke-opacity:1; fill:none" points="
  1116.62,2226.91 1116.62,2208.01 
  "/>
<polyline clip-path="url(#clip260)" style="stroke:#000000; stroke-linecap:round; stroke-linejoin:round; stroke-width:5.8; stroke-opacity:1; fill:none" points="
  1526.69,2226.91 1526.69,2208.01 
  "/>
<polyline clip-path="url(#clip260)" style="stroke:#000000; stroke-linecap:round; stroke-linejoin:round; stroke-width:5.8; stroke-opacity:1; fill:none" points="
  1936.77,2226.91 1936.77,2208.01 
  "/>
<polyline clip-path="url(#clip260)" style="stroke:#000000; stroke-linecap:round; stroke-linejoin:round; stroke-width:5.8; stroke-opacity:1; fill:none" points="
  2346.84,2226.91 2346.84,2208.01 
  "/>
<path clip-path="url(#clip260)" d="M1099 2264.97 L1132.27 2264.97 L1132.27 2272.1 L1106.76 2272.1 L1106.76 2287.46 Q1108.6 2286.83 1110.45 2286.53 Q1112.3 2286.2 1114.14 2286.2 Q1124.63 2286.2 1130.76 2291.94 Q1136.88 2297.69 1136.88 2307.51 Q1136.88 2317.62 1130.59 2323.24 Q1124.29 2328.82 1112.84 2328.82 Q1108.9 2328.82 1104.79 2328.15 Q1100.72 2327.48 1096.35 2326.14 L1096.35 2317.62 Q1100.13 2319.68 1104.16 2320.68 Q1108.18 2321.69 1112.67 2321.69 Q1119.93 2321.69 1124.17 2317.87 Q1128.41 2314.06 1128.41 2307.51 Q1128.41 2300.97 1124.17 2297.15 Q1119.93 2293.33 1112.67 2293.33 Q1109.27 2293.33 1105.88 2294.08 Q1102.52 2294.84 1099 2296.43 L1099 2264.97 Z" fill="#000000" fill-rule="evenodd" fill-opacity="1" /><path clip-path="url(#clip260)" d="M1480.81 2320.47 L1494.66 2320.47 L1494.66 2272.69 L1479.6 2275.71 L1479.6 2267.99 L1494.58 2264.97 L1503.05 2264.97 L1503.05 2320.47 L1516.9 2320.47 L1516.9 2327.61 L1480.81 2327.61 L1480.81 2320.47 Z" fill="#000000" fill-rule="evenodd" fill-opacity="1" /><path clip-path="url(#clip260)" d="M1552.14 2270.55 Q1545.59 2270.55 1542.28 2277.01 Q1539.01 2283.43 1539.01 2296.35 Q1539.01 2309.23 1542.28 2315.69 Q1545.59 2322.11 1552.14 2322.11 Q1558.73 2322.11 1562 2315.69 Q1565.31 2309.23 1565.31 2296.35 Q1565.31 2283.43 1562 2277.01 Q1558.73 2270.55 1552.14 2270.55 M1552.14 2263.83 Q1562.67 2263.83 1568.21 2272.18 Q1573.79 2280.49 1573.79 2296.35 Q1573.79 2312.17 1568.21 2320.52 Q1562.67 2328.82 1552.14 2328.82 Q1541.61 2328.82 1536.03 2320.52 Q1530.49 2312.17 1530.49 2296.35 Q1530.49 2280.49 1536.03 2272.18 Q1541.61 2263.83 1552.14 2263.83 Z" fill="#000000" fill-rule="evenodd" fill-opacity="1" /><path clip-path="url(#clip260)" d="M1891.79 2320.47 L1905.64 2320.47 L1905.64 2272.69 L1890.58 2275.71 L1890.58 2267.99 L1905.55 2264.97 L1914.03 2264.97 L1914.03 2320.47 L1927.87 2320.47 L1927.87 2327.61 L1891.79 2327.61 L1891.79 2320.47 Z" fill="#000000" fill-rule="evenodd" fill-opacity="1" /><path clip-path="url(#clip260)" d="M1945.08 2264.97 L1978.35 2264.97 L1978.35 2272.1 L1952.84 2272.1 L1952.84 2287.46 Q1954.68 2286.83 1956.53 2286.53 Q1958.38 2286.2 1960.22 2286.2 Q1970.71 2286.2 1976.84 2291.94 Q1982.96 2297.69 1982.96 2307.51 Q1982.96 2317.62 1976.67 2323.24 Q1970.38 2328.82 1958.92 2328.82 Q1954.98 2328.82 1950.87 2328.15 Q1946.8 2327.48 1942.43 2326.14 L1942.43 2317.62 Q1946.21 2319.68 1950.24 2320.68 Q1954.26 2321.69 1958.75 2321.69 Q1966.01 2321.69 1970.25 2317.87 Q1974.49 2314.06 1974.49 2307.51 Q1974.49 2300.97 1970.25 2297.15 Q1966.01 2293.33 1958.75 2293.33 Q1955.36 2293.33 1951.96 2294.08 Q1948.6 2294.84 1945.08 2296.43 L1945.08 2264.97 Z" fill="#000000" fill-rule="evenodd" fill-opacity="1" /><path clip-path="url(#clip260)" d="M2308.37 2320.47 L2337.95 2320.47 L2337.95 2327.61 L2298.18 2327.61 L2298.18 2320.47 Q2303 2315.48 2311.31 2307.09 Q2319.66 2298.66 2321.8 2296.22 Q2325.87 2291.65 2327.46 2288.5 Q2329.1 2285.32 2329.1 2282.25 Q2329.1 2277.26 2325.57 2274.11 Q2322.09 2270.97 2316.47 2270.97 Q2312.48 2270.97 2308.04 2272.35 Q2303.63 2273.74 2298.6 2276.55 L2298.6 2267.99 Q2303.71 2265.93 2308.16 2264.88 Q2312.61 2263.83 2316.3 2263.83 Q2326.03 2263.83 2331.82 2268.7 Q2337.61 2273.57 2337.61 2281.71 Q2337.61 2285.57 2336.15 2289.05 Q2334.72 2292.49 2330.9 2297.19 Q2329.85 2298.41 2324.23 2304.24 Q2318.61 2310.03 2308.37 2320.47 Z" fill="#000000" fill-rule="evenodd" fill-opacity="1" /><path clip-path="url(#clip260)" d="M2373.86 2270.55 Q2367.32 2270.55 2364 2277.01 Q2360.73 2283.43 2360.73 2296.35 Q2360.73 2309.23 2364 2315.69 Q2367.32 2322.11 2373.86 2322.11 Q2380.45 2322.11 2383.72 2315.69 Q2387.04 2309.23 2387.04 2296.35 Q2387.04 2283.43 2383.72 2277.01 Q2380.45 2270.55 2373.86 2270.55 M2373.86 2263.83 Q2384.4 2263.83 2389.93 2272.18 Q2395.51 2280.49 2395.51 2296.35 Q2395.51 2312.17 2389.93 2320.52 Q2384.4 2328.82 2373.86 2328.82 Q2363.33 2328.82 2357.75 2320.52 Q2352.22 2312.17 2352.22 2296.35 Q2352.22 2280.49 2357.75 2272.18 Q2363.33 2263.83 2373.86 2263.83 Z" fill="#000000" fill-rule="evenodd" fill-opacity="1" /><path clip-path="url(#clip260)" d="M1592.76 2380.41 L1604.62 2380.41 L1604.62 2416.35 L1647.74 2416.35 L1647.74 2380.41 L1659.6 2380.41 L1659.6 2468.1 L1647.74 2468.1 L1647.74 2426.34 L1604.62 2426.34 L1604.62 2468.1 L1592.76 2468.1 L1592.76 2380.41 Z" fill="#000000" fill-rule="evenodd" fill-opacity="1" /><path clip-path="url(#clip260)" d="M1708.24 2409.89 Q1699.54 2409.89 1694.49 2416.71 Q1689.44 2423.46 1689.44 2435.27 Q1689.44 2447.07 1694.43 2453.89 Q1699.48 2460.64 1708.24 2460.64 Q1716.87 2460.64 1721.92 2453.83 Q1726.97 2447.02 1726.97 2435.27 Q1726.97 2423.58 1721.92 2416.77 Q1716.87 2409.89 1708.24 2409.89 M1708.24 2400.73 Q1722.33 2400.73 1730.38 2409.89 Q1738.43 2419.06 1738.43 2435.27 Q1738.43 2451.42 1730.38 2460.64 Q1722.33 2469.81 1708.24 2469.81 Q1694.08 2469.81 1686.03 2460.64 Q1678.04 2451.42 1678.04 2435.27 Q1678.04 2419.06 1686.03 2409.89 Q1694.08 2400.73 1708.24 2400.73 Z" fill="#000000" fill-rule="evenodd" fill-opacity="1" /><path clip-path="url(#clip260)" d="M1755.23 2442.14 L1755.23 2402.32 L1766.03 2402.32 L1766.03 2441.73 Q1766.03 2451.07 1769.68 2455.77 Q1773.32 2460.41 1780.6 2460.41 Q1789.35 2460.41 1794.4 2454.83 Q1799.51 2449.25 1799.51 2439.61 L1799.51 2402.32 L1810.32 2402.32 L1810.32 2468.1 L1799.51 2468.1 L1799.51 2458 Q1795.58 2463.99 1790.35 2466.93 Q1785.18 2469.81 1778.31 2469.81 Q1766.97 2469.81 1761.1 2462.76 Q1755.23 2455.71 1755.23 2442.14 M1782.42 2400.73 L1782.42 2400.73 Z" fill="#000000" fill-rule="evenodd" fill-opacity="1" /><path clip-path="url(#clip260)" d="M1870.71 2412.42 Q1868.88 2411.36 1866.71 2410.89 Q1864.6 2410.36 1862.01 2410.36 Q1852.85 2410.36 1847.91 2416.35 Q1843.04 2422.29 1843.04 2433.45 L1843.04 2468.1 L1832.17 2468.1 L1832.17 2402.32 L1843.04 2402.32 L1843.04 2412.54 Q1846.45 2406.55 1851.91 2403.67 Q1857.37 2400.73 1865.18 2400.73 Q1866.3 2400.73 1867.65 2400.91 Q1869 2401.02 1870.65 2401.32 L1870.71 2412.42 Z" fill="#000000" fill-rule="evenodd" fill-opacity="1" /><polyline clip-path="url(#clip262)" style="stroke:#000000; stroke-linecap:round; stroke-linejoin:round; stroke-width:2.9; stroke-opacity:0.1; fill:none" points="
  731.966,1826.45 2731.5,1826.45 
  "/>
<polyline clip-path="url(#clip262)" style="stroke:#000000; stroke-linecap:round; stroke-linejoin:round; stroke-width:2.9; stroke-opacity:0.1; fill:none" points="
  731.966,1402.23 2731.5,1402.23 
  "/>
<polyline clip-path="url(#clip262)" style="stroke:#000000; stroke-linecap:round; stroke-linejoin:round; stroke-width:2.9; stroke-opacity:0.1; fill:none" points="
  731.966,978.02 2731.5,978.02 
  "/>
<polyline clip-path="url(#clip262)" style="stroke:#000000; stroke-linecap:round; stroke-linejoin:round; stroke-width:2.9; stroke-opacity:0.1; fill:none" points="
  731.966,553.805 2731.5,553.805 
  "/>
<polyline clip-path="url(#clip262)" style="stroke:#000000; stroke-linecap:round; stroke-linejoin:round; stroke-width:2.9; stroke-opacity:0.1; fill:none" points="
  731.966,129.591 2731.5,129.591 
  "/>
<polyline clip-path="url(#clip260)" style="stroke:#000000; stroke-linecap:round; stroke-linejoin:round; stroke-width:5.8; stroke-opacity:1; fill:none" points="
  731.966,2226.91 731.966,68.5039 
  "/>
<polyline clip-path="url(#clip260)" style="stroke:#000000; stroke-linecap:round; stroke-linejoin:round; stroke-width:5.8; stroke-opacity:1; fill:none" points="
  731.966,1826.45 750.863,1826.45 
  "/>
<polyline clip-path="url(#clip260)" style="stroke:#000000; stroke-linecap:round; stroke-linejoin:round; stroke-width:5.8; stroke-opacity:1; fill:none" points="
  731.966,1402.23 750.863,1402.23 
  "/>
<polyline clip-path="url(#clip260)" style="stroke:#000000; stroke-linecap:round; stroke-linejoin:round; stroke-width:5.8; stroke-opacity:1; fill:none" points="
  731.966,978.02 750.863,978.02 
  "/>
<polyline clip-path="url(#clip260)" style="stroke:#000000; stroke-linecap:round; stroke-linejoin:round; stroke-width:5.8; stroke-opacity:1; fill:none" points="
  731.966,553.805 750.863,553.805 
  "/>
<polyline clip-path="url(#clip260)" style="stroke:#000000; stroke-linecap:round; stroke-linejoin:round; stroke-width:5.8; stroke-opacity:1; fill:none" points="
  731.966,129.591 750.863,129.591 
  "/>
<path clip-path="url(#clip260)" d="M548.155 1850.64 L577.734 1850.64 L577.734 1857.77 L537.96 1857.77 L537.96 1850.64 Q542.785 1845.64 551.092 1837.25 Q559.441 1828.82 561.581 1826.39 Q565.651 1821.81 567.245 1818.67 Q568.881 1815.48 568.881 1812.41 Q568.881 1807.42 565.357 1804.28 Q561.875 1801.13 556.252 1801.13 Q552.267 1801.13 547.819 1802.51 Q543.414 1803.9 538.379 1806.71 L538.379 1798.15 Q543.498 1796.09 547.945 1795.04 Q552.393 1794 556.085 1794 Q565.818 1794 571.608 1798.86 Q577.398 1803.73 577.398 1811.87 Q577.398 1815.73 575.93 1819.21 Q574.503 1822.65 570.685 1827.35 Q569.636 1828.57 564.014 1834.4 Q558.392 1840.19 548.155 1850.64 Z" fill="#000000" fill-rule="evenodd" fill-opacity="1" /><path clip-path="url(#clip260)" d="M613.648 1800.71 Q607.103 1800.71 603.788 1807.17 Q600.516 1813.59 600.516 1826.51 Q600.516 1839.39 603.788 1845.85 Q607.103 1852.27 613.648 1852.27 Q620.235 1852.27 623.508 1845.85 Q626.822 1839.39 626.822 1826.51 Q626.822 1813.59 623.508 1807.17 Q620.235 1800.71 613.648 1800.71 M613.648 1794 Q624.179 1794 629.717 1802.35 Q635.297 1810.65 635.297 1826.51 Q635.297 1842.33 629.717 1850.68 Q624.179 1858.99 613.648 1858.99 Q603.117 1858.99 597.537 1850.68 Q591.999 1842.33 591.999 1826.51 Q591.999 1810.65 597.537 1802.35 Q603.117 1794 613.648 1794 Z" fill="#000000" fill-rule="evenodd" fill-opacity="1" /><path clip-path="url(#clip260)" d="M668.316 1800.71 Q661.771 1800.71 658.457 1807.17 Q655.184 1813.59 655.184 1826.51 Q655.184 1839.39 658.457 1845.85 Q661.771 1852.27 668.316 1852.27 Q674.903 1852.27 678.176 1845.85 Q681.49 1839.39 681.49 1826.51 Q681.49 1813.59 678.176 1807.17 Q674.903 1800.71 668.316 1800.71 M668.316 1794 Q678.847 1794 684.385 1802.35 Q689.966 1810.65 689.966 1826.51 Q689.966 1842.33 684.385 1850.68 Q678.847 1858.99 668.316 1858.99 Q657.785 1858.99 652.205 1850.68 Q646.667 1842.33 646.667 1826.51 Q646.667 1810.65 652.205 1802.35 Q657.785 1794 668.316 1794 Z" fill="#000000" fill-rule="evenodd" fill-opacity="1" /><path clip-path="url(#clip260)" d="M564.14 1378.3 L542.743 1411.74 L564.14 1411.74 L564.14 1378.3 M561.916 1370.91 L572.573 1370.91 L572.573 1411.74 L581.51 1411.74 L581.51 1418.79 L572.573 1418.79 L572.573 1433.55 L564.14 1433.55 L564.14 1418.79 L535.862 1418.79 L535.862 1410.6 L561.916 1370.91 Z" fill="#000000" fill-rule="evenodd" fill-opacity="1" /><path clip-path="url(#clip260)" d="M613.648 1376.49 Q607.103 1376.49 603.788 1382.96 Q600.516 1389.37 600.516 1402.3 Q600.516 1415.18 603.788 1421.64 Q607.103 1428.06 613.648 1428.06 Q620.235 1428.06 623.508 1421.64 Q626.822 1415.18 626.822 1402.3 Q626.822 1389.37 623.508 1382.96 Q620.235 1376.49 613.648 1376.49 M613.648 1369.78 Q624.179 1369.78 629.717 1378.13 Q635.297 1386.44 635.297 1402.3 Q635.297 1418.11 629.717 1426.46 Q624.179 1434.77 613.648 1434.77 Q603.117 1434.77 597.537 1426.46 Q591.999 1418.11 591.999 1402.3 Q591.999 1386.44 597.537 1378.13 Q603.117 1369.78 613.648 1369.78 Z" fill="#000000" fill-rule="evenodd" fill-opacity="1" /><path clip-path="url(#clip260)" d="M668.316 1376.49 Q661.771 1376.49 658.457 1382.96 Q655.184 1389.37 655.184 1402.3 Q655.184 1415.18 658.457 1421.64 Q661.771 1428.06 668.316 1428.06 Q674.903 1428.06 678.176 1421.64 Q681.49 1415.18 681.49 1402.3 Q681.49 1389.37 678.176 1382.96 Q674.903 1376.49 668.316 1376.49 M668.316 1369.78 Q678.847 1369.78 684.385 1378.13 Q689.966 1386.44 689.966 1402.3 Q689.966 1418.11 684.385 1426.46 Q678.847 1434.77 668.316 1434.77 Q657.785 1434.77 652.205 1426.46 Q646.667 1418.11 646.667 1402.3 Q646.667 1386.44 652.205 1378.13 Q657.785 1369.78 668.316 1369.78 Z" fill="#000000" fill-rule="evenodd" fill-opacity="1" /><path clip-path="url(#clip260)" d="M560.028 974.642 Q554.322 974.642 550.966 978.544 Q547.652 982.446 547.652 989.243 Q547.652 995.998 550.966 999.942 Q554.322 1003.84 560.028 1003.84 Q565.734 1003.84 569.049 999.942 Q572.405 995.998 572.405 989.243 Q572.405 982.446 569.049 978.544 Q565.734 974.642 560.028 974.642 M576.853 948.084 L576.853 955.804 Q573.664 954.294 570.392 953.497 Q567.161 952.7 563.972 952.7 Q555.581 952.7 551.134 958.364 Q546.728 964.028 546.099 975.482 Q548.575 971.831 552.309 969.901 Q556.043 967.929 560.532 967.929 Q569.972 967.929 575.426 973.677 Q580.922 979.383 580.922 989.243 Q580.922 998.893 575.216 1004.72 Q569.51 1010.56 560.028 1010.56 Q549.162 1010.56 543.414 1002.25 Q537.666 993.9 537.666 978.083 Q537.666 963.23 544.715 954.42 Q551.763 945.567 563.637 945.567 Q566.825 945.567 570.056 946.196 Q573.328 946.826 576.853 948.084 Z" fill="#000000" fill-rule="evenodd" fill-opacity="1" /><path clip-path="url(#clip260)" d="M613.648 952.28 Q607.103 952.28 603.788 958.741 Q600.516 965.16 600.516 978.083 Q600.516 990.963 603.788 997.424 Q607.103 1003.84 613.648 1003.84 Q620.235 1003.84 623.508 997.424 Q626.822 990.963 626.822 978.083 Q626.822 965.16 623.508 958.741 Q620.235 952.28 613.648 952.28 M613.648 945.567 Q624.179 945.567 629.717 953.916 Q635.297 962.224 635.297 978.083 Q635.297 993.9 629.717 1002.25 Q624.179 1010.56 613.648 1010.56 Q603.117 1010.56 597.537 1002.25 Q591.999 993.9 591.999 978.083 Q591.999 962.224 597.537 953.916 Q603.117 945.567 613.648 945.567 Z" fill="#000000" fill-rule="evenodd" fill-opacity="1" /><path clip-path="url(#clip260)" d="M668.316 952.28 Q661.771 952.28 658.457 958.741 Q655.184 965.16 655.184 978.083 Q655.184 990.963 658.457 997.424 Q661.771 1003.84 668.316 1003.84 Q674.903 1003.84 678.176 997.424 Q681.49 990.963 681.49 978.083 Q681.49 965.16 678.176 958.741 Q674.903 952.28 668.316 952.28 M668.316 945.567 Q678.847 945.567 684.385 953.916 Q689.966 962.224 689.966 978.083 Q689.966 993.9 684.385 1002.25 Q678.847 1010.56 668.316 1010.56 Q657.785 1010.56 652.205 1002.25 Q646.667 993.9 646.667 978.083 Q646.667 962.224 652.205 953.916 Q657.785 945.567 668.316 945.567 Z" fill="#000000" fill-rule="evenodd" fill-opacity="1" /><path clip-path="url(#clip260)" d="M558.98 555.379 Q552.938 555.379 549.456 558.609 Q546.015 561.84 546.015 567.504 Q546.015 573.168 549.456 576.399 Q552.938 579.629 558.98 579.629 Q565.021 579.629 568.504 576.399 Q571.986 573.126 571.986 567.504 Q571.986 561.84 568.504 558.609 Q565.063 555.379 558.98 555.379 M550.505 551.77 Q545.05 550.428 541.987 546.694 Q538.967 542.96 538.967 537.589 Q538.967 530.079 544.295 525.716 Q549.665 521.353 558.98 521.353 Q568.336 521.353 573.664 525.716 Q578.992 530.079 578.992 537.589 Q578.992 542.96 575.93 546.694 Q572.909 550.428 567.497 551.77 Q573.622 553.197 577.021 557.351 Q580.461 561.504 580.461 567.504 Q580.461 576.608 574.881 581.475 Q569.343 586.342 558.98 586.342 Q548.616 586.342 543.036 581.475 Q537.498 576.608 537.498 567.504 Q537.498 561.504 540.939 557.351 Q544.379 553.197 550.505 551.77 M547.4 538.387 Q547.4 543.253 550.421 545.981 Q553.483 548.708 558.98 548.708 Q564.434 548.708 567.497 545.981 Q570.601 543.253 570.601 538.387 Q570.601 533.52 567.497 530.793 Q564.434 528.065 558.98 528.065 Q553.483 528.065 550.421 530.793 Q547.4 533.52 547.4 538.387 Z" fill="#000000" fill-rule="evenodd" fill-opacity="1" /><path clip-path="url(#clip260)" d="M613.648 528.065 Q607.103 528.065 603.788 534.527 Q600.516 540.946 600.516 553.868 Q600.516 566.749 603.788 573.21 Q607.103 579.629 613.648 579.629 Q620.235 579.629 623.508 573.21 Q626.822 566.749 626.822 553.868 Q626.822 540.946 623.508 534.527 Q620.235 528.065 613.648 528.065 M613.648 521.353 Q624.179 521.353 629.717 529.702 Q635.297 538.009 635.297 553.868 Q635.297 569.686 629.717 578.035 Q624.179 586.342 613.648 586.342 Q603.117 586.342 597.537 578.035 Q591.999 569.686 591.999 553.868 Q591.999 538.009 597.537 529.702 Q603.117 521.353 613.648 521.353 Z" fill="#000000" fill-rule="evenodd" fill-opacity="1" /><path clip-path="url(#clip260)" d="M668.316 528.065 Q661.771 528.065 658.457 534.527 Q655.184 540.946 655.184 553.868 Q655.184 566.749 658.457 573.21 Q661.771 579.629 668.316 579.629 Q674.903 579.629 678.176 573.21 Q681.49 566.749 681.49 553.868 Q681.49 540.946 678.176 534.527 Q674.903 528.065 668.316 528.065 M668.316 521.353 Q678.847 521.353 684.385 529.702 Q689.966 538.009 689.966 553.868 Q689.966 569.686 684.385 578.035 Q678.847 586.342 668.316 586.342 Q657.785 586.342 652.205 578.035 Q646.667 569.686 646.667 553.868 Q646.667 538.009 652.205 529.702 Q657.785 521.353 668.316 521.353 Z" fill="#000000" fill-rule="evenodd" fill-opacity="1" /><path clip-path="url(#clip260)" d="M487.655 153.778 L501.5 153.778 L501.5 105.991 L486.438 109.012 L486.438 101.292 L501.416 98.2708 L509.891 98.2708 L509.891 153.778 L523.737 153.778 L523.737 160.911 L487.655 160.911 L487.655 153.778 Z" fill="#000000" fill-rule="evenodd" fill-opacity="1" /><path clip-path="url(#clip260)" d="M558.98 103.851 Q552.434 103.851 549.12 110.312 Q545.847 116.731 545.847 129.654 Q545.847 142.534 549.12 148.995 Q552.434 155.415 558.98 155.415 Q565.567 155.415 568.839 148.995 Q572.154 142.534 572.154 129.654 Q572.154 116.731 568.839 110.312 Q565.567 103.851 558.98 103.851 M558.98 97.138 Q569.51 97.138 575.049 105.487 Q580.629 113.794 580.629 129.654 Q580.629 145.471 575.049 153.82 Q569.51 162.128 558.98 162.128 Q548.449 162.128 542.869 153.82 Q537.33 145.471 537.33 129.654 Q537.33 113.794 542.869 105.487 Q548.449 97.138 558.98 97.138 Z" fill="#000000" fill-rule="evenodd" fill-opacity="1" /><path clip-path="url(#clip260)" d="M613.648 103.851 Q607.103 103.851 603.788 110.312 Q600.516 116.731 600.516 129.654 Q600.516 142.534 603.788 148.995 Q607.103 155.415 613.648 155.415 Q620.235 155.415 623.508 148.995 Q626.822 142.534 626.822 129.654 Q626.822 116.731 623.508 110.312 Q620.235 103.851 613.648 103.851 M613.648 97.138 Q624.179 97.138 629.717 105.487 Q635.297 113.794 635.297 129.654 Q635.297 145.471 629.717 153.82 Q624.179 162.128 613.648 162.128 Q603.117 162.128 597.537 153.82 Q591.999 145.471 591.999 129.654 Q591.999 113.794 597.537 105.487 Q603.117 97.138 613.648 97.138 Z" fill="#000000" fill-rule="evenodd" fill-opacity="1" /><path clip-path="url(#clip260)" d="M668.316 103.851 Q661.771 103.851 658.457 110.312 Q655.184 116.731 655.184 129.654 Q655.184 142.534 658.457 148.995 Q661.771 155.415 668.316 155.415 Q674.903 155.415 678.176 148.995 Q681.49 142.534 681.49 129.654 Q681.49 116.731 678.176 110.312 Q674.903 103.851 668.316 103.851 M668.316 97.138 Q678.847 97.138 684.385 105.487 Q689.966 113.794 689.966 129.654 Q689.966 145.471 684.385 153.82 Q678.847 162.128 668.316 162.128 Q657.785 162.128 652.205 153.82 Q646.667 145.471 646.667 129.654 Q646.667 113.794 652.205 105.487 Q657.785 97.138 668.316 97.138 Z" fill="#000000" fill-rule="evenodd" fill-opacity="1" /><path clip-path="url(#clip260)" d="M405.618 1888.72 L382.064 1888.72 L382.064 1908.1 L372.313 1908.1 L372.313 1876.97 L409.965 1876.97 Q414.84 1883.84 417.366 1892.12 Q419.833 1900.41 419.833 1909.8 Q419.833 1930.36 407.85 1941.99 Q395.809 1953.56 374.369 1953.56 Q352.871 1953.56 340.889 1941.99 Q328.847 1930.36 328.847 1909.8 Q328.847 1901.23 330.962 1893.53 Q333.076 1885.78 337.188 1879.26 L349.817 1879.26 Q344.237 1885.84 341.417 1893.24 Q338.598 1900.64 338.598 1908.8 Q338.598 1924.9 347.585 1933 Q356.572 1941.05 374.369 1941.05 Q392.108 1941.05 401.095 1933 Q410.082 1924.9 410.082 1908.8 Q410.082 1902.52 409.025 1897.59 Q407.909 1892.65 405.618 1888.72 Z" fill="#000000" fill-rule="evenodd" fill-opacity="1" /><path clip-path="url(#clip260)" d="M382.534 1799.49 L387.82 1799.49 L387.82 1849.19 Q398.981 1848.48 404.854 1842.49 Q410.669 1836.44 410.669 1825.69 Q410.669 1819.46 409.142 1813.65 Q407.615 1807.78 404.561 1802.02 L414.781 1802.02 Q417.248 1807.83 418.54 1813.94 Q419.833 1820.05 419.833 1826.34 Q419.833 1842.08 410.669 1851.3 Q401.506 1860.46 385.882 1860.46 Q369.729 1860.46 360.272 1851.77 Q350.757 1843.02 350.757 1828.22 Q350.757 1814.94 359.332 1807.25 Q367.849 1799.49 382.534 1799.49 M379.362 1810.3 Q370.493 1810.42 365.206 1815.29 Q359.92 1820.11 359.92 1828.1 Q359.92 1837.14 365.03 1842.61 Q370.14 1848.01 379.421 1848.83 L379.362 1810.3 Z" fill="#000000" fill-rule="evenodd" fill-opacity="1" /><path clip-path="url(#clip260)" d="M378.422 1727.07 L418.129 1727.07 L418.129 1737.88 L378.775 1737.88 Q369.435 1737.88 364.795 1741.52 Q360.155 1745.16 360.155 1752.44 Q360.155 1761.2 365.735 1766.25 Q371.315 1771.3 380.948 1771.3 L418.129 1771.3 L418.129 1782.17 L352.343 1782.17 L352.343 1771.3 L362.563 1771.3 Q356.63 1767.42 353.694 1762.19 Q350.757 1756.91 350.757 1750.04 Q350.757 1738.7 357.805 1732.88 Q364.795 1727.07 378.422 1727.07 Z" fill="#000000" fill-rule="evenodd" fill-opacity="1" /><path clip-path="url(#clip260)" d="M382.534 1649.24 L387.82 1649.24 L387.82 1698.93 Q398.981 1698.23 404.854 1692.24 Q410.669 1686.19 410.669 1675.44 Q410.669 1669.21 409.142 1663.4 Q407.615 1657.52 404.561 1651.77 L414.781 1651.77 Q417.248 1657.58 418.54 1663.69 Q419.833 1669.8 419.833 1676.08 Q419.833 1691.83 410.669 1701.05 Q401.506 1710.21 385.882 1710.21 Q369.729 1710.21 360.272 1701.52 Q350.757 1692.77 350.757 1677.96 Q350.757 1664.69 359.332 1656.99 Q367.849 1649.24 382.534 1649.24 M379.362 1660.05 Q370.493 1660.17 365.206 1665.04 Q359.92 1669.86 359.92 1677.85 Q359.92 1686.89 365.03 1692.35 Q370.14 1697.76 379.421 1698.58 L379.362 1660.05 Z" fill="#000000" fill-rule="evenodd" fill-opacity="1" /><path clip-path="url(#clip260)" d="M362.445 1593.38 Q361.388 1595.2 360.918 1597.38 Q360.39 1599.49 360.39 1602.07 Q360.39 1611.24 366.381 1616.17 Q372.313 1621.05 383.474 1621.05 L418.129 1621.05 L418.129 1631.91 L352.343 1631.91 L352.343 1621.05 L362.563 1621.05 Q356.572 1617.64 353.694 1612.18 Q350.757 1606.71 350.757 1598.9 Q350.757 1597.79 350.933 1596.44 Q351.05 1595.08 351.344 1593.44 L362.445 1593.38 Z" fill="#000000" fill-rule="evenodd" fill-opacity="1" /><path clip-path="url(#clip260)" d="M385.06 1552.15 Q385.06 1565.25 388.055 1570.3 Q391.051 1575.35 398.276 1575.35 Q404.032 1575.35 407.439 1571.59 Q410.787 1567.77 410.787 1561.25 Q410.787 1552.26 404.443 1546.86 Q398.041 1541.4 387.468 1541.4 L385.06 1541.4 L385.06 1552.15 M380.596 1530.59 L418.129 1530.59 L418.129 1541.4 L408.144 1541.4 Q414.135 1545.1 417.013 1550.62 Q419.833 1556.14 419.833 1564.13 Q419.833 1574.23 414.194 1580.22 Q408.496 1586.16 398.981 1586.16 Q387.879 1586.16 382.24 1578.76 Q376.601 1571.3 376.601 1556.55 L376.601 1541.4 L375.544 1541.4 Q368.084 1541.4 364.031 1546.33 Q359.92 1551.21 359.92 1560.08 Q359.92 1565.72 361.271 1571.06 Q362.622 1576.41 365.324 1581.34 L355.338 1581.34 Q353.047 1575.41 351.931 1569.83 Q350.757 1564.25 350.757 1558.96 Q350.757 1544.69 358.158 1537.64 Q365.559 1530.59 380.596 1530.59 Z" fill="#000000" fill-rule="evenodd" fill-opacity="1" /><path clip-path="url(#clip260)" d="M333.664 1497.64 L352.343 1497.64 L352.343 1475.38 L360.742 1475.38 L360.742 1497.64 L396.455 1497.64 Q404.502 1497.64 406.793 1495.46 Q409.084 1493.23 409.084 1486.48 L409.084 1475.38 L418.129 1475.38 L418.129 1486.48 Q418.129 1498.99 413.489 1503.75 Q408.79 1508.5 396.455 1508.5 L360.742 1508.5 L360.742 1516.43 L352.343 1516.43 L352.343 1508.5 L333.664 1508.5 L333.664 1497.64 Z" fill="#000000" fill-rule="evenodd" fill-opacity="1" /><path clip-path="url(#clip260)" d="M382.534 1404.89 L387.82 1404.89 L387.82 1454.58 Q398.981 1453.88 404.854 1447.89 Q410.669 1441.84 410.669 1431.09 Q410.669 1424.86 409.142 1419.05 Q407.615 1413.17 404.561 1407.42 L414.781 1407.42 Q417.248 1413.23 418.54 1419.34 Q419.833 1425.45 419.833 1431.73 Q419.833 1447.48 410.669 1456.7 Q401.506 1465.86 385.882 1465.86 Q369.729 1465.86 360.272 1457.17 Q350.757 1448.42 350.757 1433.61 Q350.757 1420.34 359.332 1412.64 Q367.849 1404.89 382.534 1404.89 M379.362 1415.7 Q370.493 1415.82 365.206 1420.69 Q359.92 1425.51 359.92 1433.5 Q359.92 1442.54 365.03 1448 Q370.14 1453.41 379.421 1454.23 L379.362 1415.7 Z" fill="#000000" fill-rule="evenodd" fill-opacity="1" /><path clip-path="url(#clip260)" d="M362.328 1343.86 L326.733 1343.86 L326.733 1333.05 L418.129 1333.05 L418.129 1343.86 L408.261 1343.86 Q414.135 1347.27 417.013 1352.5 Q419.833 1357.67 419.833 1364.95 Q419.833 1376.87 410.317 1384.39 Q400.801 1391.85 385.295 1391.85 Q369.788 1391.85 360.272 1384.39 Q350.757 1376.87 350.757 1364.95 Q350.757 1357.67 353.635 1352.5 Q356.454 1347.27 362.328 1343.86 M385.295 1380.69 Q397.218 1380.69 404.032 1375.82 Q410.787 1370.88 410.787 1362.31 Q410.787 1353.73 404.032 1348.8 Q397.218 1343.86 385.295 1343.86 Q373.371 1343.86 366.616 1348.8 Q359.802 1353.73 359.802 1362.31 Q359.802 1370.88 366.616 1375.82 Q373.371 1380.69 385.295 1380.69 Z" fill="#000000" fill-rule="evenodd" fill-opacity="1" /><path clip-path="url(#clip260)" d="M330.433 1272.08 L330.433 1216.63 L340.419 1216.63 L340.419 1260.22 L366.381 1260.22 L366.381 1218.46 L376.366 1218.46 L376.366 1260.22 L408.144 1260.22 L408.144 1215.58 L418.129 1215.58 L418.129 1272.08 L330.433 1272.08 Z" fill="#000000" fill-rule="evenodd" fill-opacity="1" /><path clip-path="url(#clip260)" d="M326.733 1196.55 L326.733 1185.74 L418.129 1185.74 L418.129 1196.55 L326.733 1196.55 Z" fill="#000000" fill-rule="evenodd" fill-opacity="1" /><path clip-path="url(#clip260)" d="M382.534 1106.85 L387.82 1106.85 L387.82 1156.55 Q398.981 1155.84 404.854 1149.85 Q410.669 1143.8 410.669 1133.05 Q410.669 1126.82 409.142 1121.01 Q407.615 1115.14 404.561 1109.38 L414.781 1109.38 Q417.248 1115.19 418.54 1121.3 Q419.833 1127.41 419.833 1133.7 Q419.833 1149.44 410.669 1158.66 Q401.506 1167.82 385.882 1167.82 Q369.729 1167.82 360.272 1159.13 Q350.757 1150.38 350.757 1135.58 Q350.757 1122.3 359.332 1114.61 Q367.849 1106.85 382.534 1106.85 M379.362 1117.66 Q370.493 1117.78 365.206 1122.65 Q359.92 1127.47 359.92 1135.46 Q359.92 1144.5 365.03 1149.97 Q370.14 1155.37 379.421 1156.19 L379.362 1117.66 Z" fill="#000000" fill-rule="evenodd" fill-opacity="1" /><path clip-path="url(#clip260)" d="M354.868 1041.77 L364.971 1041.77 Q362.445 1046.35 361.212 1050.99 Q359.92 1055.57 359.92 1060.27 Q359.92 1070.79 366.616 1076.6 Q373.253 1082.42 385.295 1082.42 Q397.336 1082.42 404.032 1076.6 Q410.669 1070.79 410.669 1060.27 Q410.669 1055.57 409.436 1050.99 Q408.144 1046.35 405.618 1041.77 L415.603 1041.77 Q417.718 1046.29 418.775 1051.17 Q419.833 1055.99 419.833 1061.45 Q419.833 1076.31 410.493 1085.06 Q401.154 1093.81 385.295 1093.81 Q369.2 1093.81 359.978 1085 Q350.757 1076.13 350.757 1060.74 Q350.757 1055.75 351.814 1050.99 Q352.812 1046.24 354.868 1041.77 Z" fill="#000000" fill-rule="evenodd" fill-opacity="1" /><path clip-path="url(#clip260)" d="M333.664 1012.28 L352.343 1012.28 L352.343 990.023 L360.742 990.023 L360.742 1012.28 L396.455 1012.28 Q404.502 1012.28 406.793 1010.11 Q409.084 1007.88 409.084 1001.12 L409.084 990.023 L418.129 990.023 L418.129 1001.12 Q418.129 1013.64 413.489 1018.39 Q408.79 1023.15 396.455 1023.15 L360.742 1023.15 L360.742 1031.08 L352.343 1031.08 L352.343 1023.15 L333.664 1023.15 L333.664 1012.28 Z" fill="#000000" fill-rule="evenodd" fill-opacity="1" /><path clip-path="url(#clip260)" d="M362.445 937.688 Q361.388 939.508 360.918 941.682 Q360.39 943.796 360.39 946.381 Q360.39 955.544 366.381 960.478 Q372.313 965.353 383.474 965.353 L418.129 965.353 L418.129 976.22 L352.343 976.22 L352.343 965.353 L362.563 965.353 Q356.572 961.946 353.694 956.484 Q350.757 951.021 350.757 943.209 Q350.757 942.093 350.933 940.742 Q351.05 939.391 351.344 937.746 L362.445 937.688 Z" fill="#000000" fill-rule="evenodd" fill-opacity="1" /><path clip-path="url(#clip260)" d="M352.343 926.351 L352.343 915.543 L418.129 915.543 L418.129 926.351 L352.343 926.351 M326.733 926.351 L326.733 915.543 L340.419 915.543 L340.419 926.351 L326.733 926.351 Z" fill="#000000" fill-rule="evenodd" fill-opacity="1" /><path clip-path="url(#clip260)" d="M354.868 845.586 L364.971 845.586 Q362.445 850.168 361.212 854.808 Q359.92 859.39 359.92 864.089 Q359.92 874.603 366.616 880.418 Q373.253 886.233 385.295 886.233 Q397.336 886.233 404.032 880.418 Q410.669 874.603 410.669 864.089 Q410.669 859.39 409.436 854.808 Q408.144 850.168 405.618 845.586 L415.603 845.586 Q417.718 850.109 418.775 854.984 Q419.833 859.801 419.833 865.263 Q419.833 880.124 410.493 888.876 Q401.154 897.628 385.295 897.628 Q369.2 897.628 359.978 888.817 Q350.757 879.948 350.757 864.559 Q350.757 859.566 351.814 854.808 Q352.812 850.05 354.868 845.586 Z" fill="#000000" fill-rule="evenodd" fill-opacity="1" /><path clip-path="url(#clip260)" d="M352.343 826.79 L352.343 815.982 L418.129 815.982 L418.129 826.79 L352.343 826.79 M326.733 826.79 L326.733 815.982 L340.419 815.982 L340.419 826.79 L326.733 826.79 Z" fill="#000000" fill-rule="evenodd" fill-opacity="1" /><path clip-path="url(#clip260)" d="M333.664 782.678 L352.343 782.678 L352.343 760.416 L360.742 760.416 L360.742 782.678 L396.455 782.678 Q404.502 782.678 406.793 780.504 Q409.084 778.272 409.084 771.517 L409.084 760.416 L418.129 760.416 L418.129 771.517 Q418.129 784.029 413.489 788.786 Q408.79 793.544 396.455 793.544 L360.742 793.544 L360.742 801.474 L352.343 801.474 L352.343 793.544 L333.664 793.544 L333.664 782.678 Z" fill="#000000" fill-rule="evenodd" fill-opacity="1" /><path clip-path="url(#clip260)" d="M424.238 718.829 Q435.986 723.411 439.569 727.758 Q443.152 732.104 443.152 739.388 L443.152 748.022 L434.106 748.022 L434.106 741.678 Q434.106 737.214 431.991 734.747 Q429.877 732.28 422.006 729.285 L417.072 727.346 L352.343 753.955 L352.343 742.501 L403.797 721.942 L352.343 701.384 L352.343 689.93 L424.238 718.829 Z" fill="#000000" fill-rule="evenodd" fill-opacity="1" /><path clip-path="url(#clip260)" d="M326.85 610.81 Q340.36 618.681 353.576 622.499 Q366.792 626.317 380.361 626.317 Q393.929 626.317 407.263 622.499 Q420.537 618.622 433.989 610.81 L433.989 620.208 Q420.185 629.019 406.851 633.424 Q393.518 637.771 380.361 637.771 Q367.262 637.771 353.987 633.424 Q340.712 629.078 326.85 620.208 L326.85 610.81 Z" fill="#000000" fill-rule="evenodd" fill-opacity="1" /><path clip-path="url(#clip260)" d="M330.433 589.371 L330.433 571.69 L390.111 549.311 L330.433 526.814 L330.433 509.134 L418.129 509.134 L418.129 520.706 L341.124 520.706 L401.271 543.32 L401.271 555.244 L341.124 577.858 L418.129 577.858 L418.129 589.371 L330.433 589.371 Z" fill="#000000" fill-rule="evenodd" fill-opacity="1" /><path clip-path="url(#clip260)" d="M330.433 493.392 L330.433 481.41 L404.561 462.966 L330.433 444.581 L330.433 431.248 L404.561 412.804 L330.433 394.419 L330.433 382.377 L418.129 404.404 L418.129 419.324 L342.005 437.826 L418.129 456.505 L418.129 471.424 L330.433 493.392 Z" fill="#000000" fill-rule="evenodd" fill-opacity="1" /><path clip-path="url(#clip260)" d="M326.85 368.809 L326.85 359.411 Q340.712 350.6 353.987 346.254 Q367.262 341.848 380.361 341.848 Q393.518 341.848 406.851 346.254 Q420.185 350.6 433.989 359.411 L433.989 368.809 Q420.537 360.997 407.263 357.179 Q393.929 353.302 380.361 353.302 Q366.792 353.302 353.576 357.179 Q340.36 360.997 326.85 368.809 Z" fill="#000000" fill-rule="evenodd" fill-opacity="1" /><polyline clip-path="url(#clip262)" style="stroke:#88ccee; stroke-linecap:round; stroke-linejoin:round; stroke-width:29; stroke-opacity:1; fill:none" points="
  788.556,1932.5 870.571,1932.5 952.586,1932.5 1034.6,1979.17 1116.62,1932.5 1198.63,1932.5 1280.65,1932.5 1362.66,1932.5 1444.68,1932.5 1526.69,1932.5 
  1608.71,1932.5 1690.72,1932.5 1772.74,1932.5 1854.75,1932.5 1936.77,1932.5 2018.78,1932.5 2100.8,1932.5 2182.81,1932.5 2264.83,1932.5 2346.84,1932.5 
  2428.86,1932.5 2510.88,1932.5 2592.89,1932.5 2674.91,1932.5 
  "/>
<polyline clip-path="url(#clip262)" style="stroke:#44aa99; stroke-linecap:round; stroke-linejoin:round; stroke-width:29; stroke-opacity:1; fill:none" points="
  788.556,1826.45 870.571,1826.45 952.586,1826.45 1034.6,1826.45 1116.62,1826.45 1198.63,1826.45 1280.65,1826.45 1362.66,1826.45 1444.68,1826.45 1526.69,1826.45 
  1608.71,1826.45 1690.72,1826.45 1772.74,1826.45 1854.75,1826.45 1936.77,1826.45 2018.78,1826.45 2100.8,1826.45 2182.81,1826.45 2264.83,1826.45 2346.84,1826.45 
  2428.86,1826.45 2510.88,1826.45 2592.89,1826.45 2674.91,1826.45 
  "/>
<polyline clip-path="url(#clip262)" style="stroke:#117733; stroke-linecap:round; stroke-linejoin:round; stroke-width:29; stroke-opacity:1; fill:none" points="
  788.556,129.591 870.571,129.591 952.586,286.55 1034.6,384.12 1116.62,172.012 1198.63,129.591 1280.65,129.591 1362.66,129.591 1444.68,129.591 1526.69,129.591 
  1608.71,129.591 1690.72,129.591 1772.74,129.591 1854.75,129.591 1936.77,129.591 2018.78,129.591 2100.8,129.591 2182.81,129.591 2264.83,129.591 2346.84,129.591 
  2428.86,129.591 2510.88,129.591 2592.89,129.591 2674.91,129.591 
  "/>
<polyline clip-path="url(#clip262)" style="stroke:#332288; stroke-linecap:round; stroke-linejoin:round; stroke-width:29; stroke-opacity:1; fill:none" points="
  788.556,1540.1 870.571,1813.72 952.586,1911.29 1034.6,1911.29 1116.62,1911.29 1198.63,1563.44 1280.65,1338.6 1362.66,1014.08 1444.68,785.002 1526.69,765.913 
  1608.71,765.913 1690.72,818.939 1772.74,861.361 1854.75,765.913 1936.77,765.913 2018.78,765.913 2100.8,765.913 2182.81,765.913 2264.83,1062.86 2346.84,944.083 
  2428.86,1050.14 2510.88,1164.67 2592.89,1243.15 2674.91,1338.6 
  "/>
<polyline clip-path="url(#clip262)" style="stroke:#ddcc77; stroke-linecap:round; stroke-linejoin:round; stroke-width:29; stroke-opacity:1; fill:none" points="
  788.556,2165.82 870.571,2165.82 952.586,2165.82 1034.6,2165.82 1116.62,2165.82 1198.63,2165.82 1280.65,2165.82 1362.66,2165.82 1444.68,2165.82 1526.69,1928.26 
  1608.71,2134 1690.72,2165.82 1772.74,2165.82 1854.75,1943.11 1936.77,1701.31 2018.78,1529.5 2100.8,1325.88 2182.81,1264.36 2264.83,1900.69 2346.84,2165.82 
  2428.86,2165.82 2510.88,2165.82 2592.89,2165.82 2674.91,2165.82 
  "/>
<path clip-path="url(#clip260)" d="
M2129.6 704.211 L2664.85 704.211 L2664.85 140.451 L2129.6 140.451  Z
  " fill="#ffffff" fill-rule="evenodd" fill-opacity="1"/>
<polyline clip-path="url(#clip260)" style="stroke:#000000; stroke-linecap:round; stroke-linejoin:round; stroke-width:5.8; stroke-opacity:1; fill:none" points="
  2129.6,704.211 2664.85,704.211 2664.85,140.451 2129.6,140.451 2129.6,704.211 
  "/>
<polyline clip-path="url(#clip260)" style="stroke:#88ccee; stroke-linecap:round; stroke-linejoin:round; stroke-width:7.25; stroke-opacity:1; fill:none" points="
  2151.82,234.411 2285.12,234.411 
  "/>
<path clip-path="url(#clip260)" d="M2346.69 237.369 L2346.69 265.731 L2338.97 265.731 L2338.97 237.62 Q2338.97 230.949 2336.37 227.635 Q2333.77 224.32 2328.57 224.32 Q2322.32 224.32 2318.71 228.306 Q2315.1 232.292 2315.1 239.173 L2315.1 265.731 L2307.34 265.731 L2307.34 200.448 L2315.1 200.448 L2315.1 226.041 Q2317.87 221.803 2321.6 219.705 Q2325.38 217.607 2330.29 217.607 Q2338.38 217.607 2342.54 222.642 Q2346.69 227.635 2346.69 237.369 Z" fill="#000000" fill-rule="evenodd" fill-opacity="1" /><path clip-path="url(#clip260)" d="M2381.64 270.094 Q2378.37 278.485 2375.26 281.045 Q2372.16 283.604 2366.96 283.604 L2360.79 283.604 L2360.79 277.143 L2365.32 277.143 Q2368.51 277.143 2370.27 275.632 Q2372.03 274.122 2374.17 268.5 L2375.56 264.976 L2356.55 218.74 L2364.73 218.74 L2379.42 255.494 L2394.1 218.74 L2402.28 218.74 L2381.64 270.094 Z" fill="#000000" fill-rule="evenodd" fill-opacity="1" /><path clip-path="url(#clip260)" d="M2443.86 225.873 L2443.86 200.448 L2451.58 200.448 L2451.58 265.731 L2443.86 265.731 L2443.86 258.682 Q2441.43 262.878 2437.69 264.934 Q2434 266.947 2428.8 266.947 Q2420.28 266.947 2414.91 260.151 Q2409.58 253.354 2409.58 242.277 Q2409.58 231.201 2414.91 224.404 Q2420.28 217.607 2428.8 217.607 Q2434 217.607 2437.69 219.663 Q2441.43 221.677 2443.86 225.873 M2417.55 242.277 Q2417.55 250.794 2421.04 255.661 Q2424.56 260.486 2430.69 260.486 Q2436.81 260.486 2440.34 255.661 Q2443.86 250.794 2443.86 242.277 Q2443.86 233.76 2440.34 228.935 Q2436.81 224.069 2430.69 224.069 Q2424.56 224.069 2421.04 228.935 Q2417.55 233.76 2417.55 242.277 Z" fill="#000000" fill-rule="evenodd" fill-opacity="1" /><path clip-path="url(#clip260)" d="M2494.71 225.957 Q2493.41 225.201 2491.86 224.866 Q2490.35 224.488 2488.5 224.488 Q2481.96 224.488 2478.43 228.768 Q2474.95 233.005 2474.95 240.977 L2474.95 265.731 L2467.19 265.731 L2467.19 218.74 L2474.95 218.74 L2474.95 226.041 Q2477.38 221.761 2481.29 219.705 Q2485.19 217.607 2490.77 217.607 Q2491.56 217.607 2492.53 217.733 Q2493.49 217.817 2494.67 218.027 L2494.71 225.957 Z" fill="#000000" fill-rule="evenodd" fill-opacity="1" /><path clip-path="url(#clip260)" d="M2519.13 224.153 Q2512.92 224.153 2509.31 229.019 Q2505.7 233.844 2505.7 242.277 Q2505.7 250.711 2509.27 255.577 Q2512.88 260.402 2519.13 260.402 Q2525.3 260.402 2528.91 255.535 Q2532.51 250.669 2532.51 242.277 Q2532.51 233.928 2528.91 229.061 Q2525.3 224.153 2519.13 224.153 M2519.13 217.607 Q2529.2 217.607 2534.95 224.153 Q2540.7 230.698 2540.7 242.277 Q2540.7 253.815 2534.95 260.402 Q2529.2 266.947 2519.13 266.947 Q2509.02 266.947 2503.27 260.402 Q2497.56 253.815 2497.56 242.277 Q2497.56 230.698 2503.27 224.153 Q2509.02 217.607 2519.13 217.607 Z" fill="#000000" fill-rule="evenodd" fill-opacity="1" /><polyline clip-path="url(#clip260)" style="stroke:#44aa99; stroke-linecap:round; stroke-linejoin:round; stroke-width:7.25; stroke-opacity:1; fill:none" points="
  2151.82,328.371 2285.12,328.371 
  "/>
<path clip-path="url(#clip260)" d="M2307.34 312.7 L2315.06 312.7 L2324.71 349.37 L2334.31 312.7 L2343.42 312.7 L2353.07 349.37 L2362.68 312.7 L2370.4 312.7 L2358.1 359.691 L2349 359.691 L2338.89 321.175 L2328.73 359.691 L2319.63 359.691 L2307.34 312.7 Z" fill="#000000" fill-rule="evenodd" fill-opacity="1" /><path clip-path="url(#clip260)" d="M2382.1 312.7 L2389.82 312.7 L2389.82 359.691 L2382.1 359.691 L2382.1 312.7 M2382.1 294.408 L2389.82 294.408 L2389.82 304.183 L2382.1 304.183 L2382.1 294.408 Z" fill="#000000" fill-rule="evenodd" fill-opacity="1" /><path clip-path="url(#clip260)" d="M2445.04 331.329 L2445.04 359.691 L2437.32 359.691 L2437.32 331.58 Q2437.32 324.909 2434.71 321.595 Q2432.11 318.28 2426.91 318.28 Q2420.66 318.28 2417.05 322.266 Q2413.44 326.252 2413.44 333.133 L2413.44 359.691 L2405.68 359.691 L2405.68 312.7 L2413.44 312.7 L2413.44 320.001 Q2416.21 315.763 2419.95 313.665 Q2423.72 311.567 2428.63 311.567 Q2436.73 311.567 2440.88 316.602 Q2445.04 321.595 2445.04 331.329 Z" fill="#000000" fill-rule="evenodd" fill-opacity="1" /><path clip-path="url(#clip260)" d="M2491.36 319.833 L2491.36 294.408 L2499.07 294.408 L2499.07 359.691 L2491.36 359.691 L2491.36 352.642 Q2488.92 356.838 2485.19 358.894 Q2481.5 360.907 2476.29 360.907 Q2467.78 360.907 2462.41 354.111 Q2457.08 347.314 2457.08 336.237 Q2457.08 325.161 2462.41 318.364 Q2467.78 311.567 2476.29 311.567 Q2481.5 311.567 2485.19 313.623 Q2488.92 315.637 2491.36 319.833 M2465.05 336.237 Q2465.05 344.754 2468.53 349.621 Q2472.06 354.446 2478.18 354.446 Q2484.31 354.446 2487.83 349.621 Q2491.36 344.754 2491.36 336.237 Q2491.36 327.72 2487.83 322.895 Q2484.31 318.029 2478.18 318.029 Q2472.06 318.029 2468.53 322.895 Q2465.05 327.72 2465.05 336.237 Z" fill="#000000" fill-rule="evenodd" fill-opacity="1" /><polyline clip-path="url(#clip260)" style="stroke:#117733; stroke-linecap:round; stroke-linejoin:round; stroke-width:7.25; stroke-opacity:1; fill:none" points="
  2151.82,422.331 2285.12,422.331 
  "/>
<path clip-path="url(#clip260)" d="M2346.69 425.289 L2346.69 453.651 L2338.97 453.651 L2338.97 425.54 Q2338.97 418.869 2336.37 415.555 Q2333.77 412.24 2328.57 412.24 Q2322.32 412.24 2318.71 416.226 Q2315.1 420.212 2315.1 427.093 L2315.1 453.651 L2307.34 453.651 L2307.34 406.66 L2315.1 406.66 L2315.1 413.961 Q2317.87 409.723 2321.6 407.625 Q2325.38 405.527 2330.29 405.527 Q2338.38 405.527 2342.54 410.562 Q2346.69 415.555 2346.69 425.289 Z" fill="#000000" fill-rule="evenodd" fill-opacity="1" /><path clip-path="url(#clip260)" d="M2361.29 435.106 L2361.29 406.66 L2369.01 406.66 L2369.01 434.813 Q2369.01 441.484 2371.61 444.84 Q2374.21 448.155 2379.42 448.155 Q2385.67 448.155 2389.28 444.169 Q2392.93 440.183 2392.93 433.302 L2392.93 406.66 L2400.65 406.66 L2400.65 453.651 L2392.93 453.651 L2392.93 446.434 Q2390.12 450.714 2386.38 452.812 Q2382.69 454.867 2377.78 454.867 Q2369.68 454.867 2365.49 449.833 Q2361.29 444.798 2361.29 435.106 M2380.72 405.527 L2380.72 405.527 Z" fill="#000000" fill-rule="evenodd" fill-opacity="1" /><path clip-path="url(#clip260)" d="M2450.36 408.464 L2450.36 415.681 Q2447.09 413.877 2443.78 412.996 Q2440.5 412.073 2437.15 412.073 Q2429.64 412.073 2425.48 416.855 Q2421.33 421.596 2421.33 430.197 Q2421.33 438.798 2425.48 443.581 Q2429.64 448.322 2437.15 448.322 Q2440.5 448.322 2443.78 447.441 Q2447.09 446.518 2450.36 444.714 L2450.36 451.847 Q2447.13 453.357 2443.65 454.112 Q2440.21 454.867 2436.31 454.867 Q2425.69 454.867 2419.44 448.196 Q2413.19 441.525 2413.19 430.197 Q2413.19 418.702 2419.48 412.114 Q2425.82 405.527 2436.81 405.527 Q2440.38 405.527 2443.78 406.283 Q2447.18 406.996 2450.36 408.464 Z" fill="#000000" fill-rule="evenodd" fill-opacity="1" /><path clip-path="url(#clip260)" d="M2463.79 388.368 L2471.51 388.368 L2471.51 453.651 L2463.79 453.651 L2463.79 388.368 Z" fill="#000000" fill-rule="evenodd" fill-opacity="1" /><path clip-path="url(#clip260)" d="M2527.86 428.226 L2527.86 432.002 L2492.36 432.002 Q2492.87 439.973 2497.14 444.169 Q2501.47 448.322 2509.14 448.322 Q2513.59 448.322 2517.75 447.231 Q2521.94 446.141 2526.05 443.959 L2526.05 451.259 Q2521.9 453.021 2517.54 453.944 Q2513.17 454.867 2508.68 454.867 Q2497.44 454.867 2490.85 448.322 Q2484.31 441.777 2484.31 430.617 Q2484.31 419.079 2490.52 412.324 Q2496.77 405.527 2507.34 405.527 Q2516.82 405.527 2522.32 411.653 Q2527.86 417.737 2527.86 428.226 M2520.14 425.96 Q2520.05 419.625 2516.57 415.849 Q2513.13 412.073 2507.42 412.073 Q2500.96 412.073 2497.06 415.723 Q2493.2 419.373 2492.61 426.002 L2520.14 425.96 Z" fill="#000000" fill-rule="evenodd" fill-opacity="1" /><path clip-path="url(#clip260)" d="M2561.88 430.03 Q2552.53 430.03 2548.92 432.169 Q2545.31 434.309 2545.31 439.47 Q2545.31 443.581 2548 446.015 Q2550.72 448.406 2555.38 448.406 Q2561.8 448.406 2565.66 443.875 Q2569.56 439.302 2569.56 431.75 L2569.56 430.03 L2561.88 430.03 M2577.28 426.841 L2577.28 453.651 L2569.56 453.651 L2569.56 446.518 Q2566.92 450.798 2562.97 452.854 Q2559.03 454.867 2553.32 454.867 Q2546.11 454.867 2541.83 450.84 Q2537.59 446.77 2537.59 439.973 Q2537.59 432.043 2542.88 428.016 Q2548.21 423.988 2558.74 423.988 L2569.56 423.988 L2569.56 423.233 Q2569.56 417.904 2566.04 415.009 Q2562.55 412.073 2556.22 412.073 Q2552.19 412.073 2548.37 413.038 Q2544.55 414.002 2541.03 415.932 L2541.03 408.8 Q2545.27 407.164 2549.25 406.367 Q2553.24 405.527 2557.02 405.527 Q2567.21 405.527 2572.25 410.814 Q2577.28 416.1 2577.28 426.841 Z" fill="#000000" fill-rule="evenodd" fill-opacity="1" /><path clip-path="url(#clip260)" d="M2620.41 413.877 Q2619.11 413.121 2617.56 412.786 Q2616.05 412.408 2614.2 412.408 Q2607.66 412.408 2604.13 416.688 Q2600.65 420.925 2600.65 428.897 L2600.65 453.651 L2592.89 453.651 L2592.89 406.66 L2600.65 406.66 L2600.65 413.961 Q2603.08 409.681 2606.99 407.625 Q2610.89 405.527 2616.47 405.527 Q2617.26 405.527 2618.23 405.653 Q2619.19 405.737 2620.37 405.947 L2620.41 413.877 Z" fill="#000000" fill-rule="evenodd" fill-opacity="1" /><polyline clip-path="url(#clip260)" style="stroke:#332288; stroke-linecap:round; stroke-linejoin:round; stroke-width:7.25; stroke-opacity:1; fill:none" points="
  2151.82,516.291 2285.12,516.291 
  "/>
<path clip-path="url(#clip260)" d="M2344.51 502.424 L2344.51 509.641 Q2341.24 507.837 2337.92 506.956 Q2334.65 506.033 2331.29 506.033 Q2323.78 506.033 2319.63 510.815 Q2315.48 515.556 2315.48 524.157 Q2315.48 532.758 2319.63 537.541 Q2323.78 542.282 2331.29 542.282 Q2334.65 542.282 2337.92 541.401 Q2341.24 540.478 2344.51 538.674 L2344.51 545.807 Q2341.28 547.317 2337.8 548.072 Q2334.36 548.827 2330.45 548.827 Q2319.84 548.827 2313.59 542.156 Q2307.34 535.485 2307.34 524.157 Q2307.34 512.662 2313.63 506.074 Q2319.97 499.487 2330.96 499.487 Q2334.52 499.487 2337.92 500.243 Q2341.32 500.956 2344.51 502.424 Z" fill="#000000" fill-rule="evenodd" fill-opacity="1" /><path clip-path="url(#clip260)" d="M2376.14 506.033 Q2369.93 506.033 2366.33 510.899 Q2362.72 515.724 2362.72 524.157 Q2362.72 532.591 2366.28 537.457 Q2369.89 542.282 2376.14 542.282 Q2382.31 542.282 2385.92 537.415 Q2389.53 532.549 2389.53 524.157 Q2389.53 515.808 2385.92 510.941 Q2382.31 506.033 2376.14 506.033 M2376.14 499.487 Q2386.21 499.487 2391.96 506.033 Q2397.71 512.578 2397.71 524.157 Q2397.71 535.695 2391.96 542.282 Q2386.21 548.827 2376.14 548.827 Q2366.03 548.827 2360.29 542.282 Q2354.58 535.695 2354.58 524.157 Q2354.58 512.578 2360.29 506.033 Q2366.03 499.487 2376.14 499.487 Z" fill="#000000" fill-rule="evenodd" fill-opacity="1" /><path clip-path="url(#clip260)" d="M2431.86 523.99 Q2422.51 523.99 2418.9 526.129 Q2415.29 528.269 2415.29 533.43 Q2415.29 537.541 2417.97 539.975 Q2420.7 542.366 2425.36 542.366 Q2431.78 542.366 2435.64 537.835 Q2439.54 533.262 2439.54 525.71 L2439.54 523.99 L2431.86 523.99 M2447.26 520.801 L2447.26 547.611 L2439.54 547.611 L2439.54 540.478 Q2436.9 544.758 2432.95 546.814 Q2429.01 548.827 2423.3 548.827 Q2416.09 548.827 2411.81 544.8 Q2407.57 540.73 2407.57 533.933 Q2407.57 526.003 2412.86 521.976 Q2418.18 517.948 2428.72 517.948 L2439.54 517.948 L2439.54 517.193 Q2439.54 511.864 2436.02 508.969 Q2432.53 506.033 2426.2 506.033 Q2422.17 506.033 2418.35 506.998 Q2414.53 507.962 2411.01 509.892 L2411.01 502.76 Q2415.25 501.124 2419.23 500.327 Q2423.22 499.487 2426.99 499.487 Q2437.19 499.487 2442.22 504.774 Q2447.26 510.06 2447.26 520.801 Z" fill="#000000" fill-rule="evenodd" fill-opacity="1" /><path clip-path="url(#clip260)" d="M2463.16 482.328 L2470.88 482.328 L2470.88 547.611 L2463.16 547.611 L2463.16 482.328 Z" fill="#000000" fill-rule="evenodd" fill-opacity="1" /><polyline clip-path="url(#clip260)" style="stroke:#ddcc77; stroke-linecap:round; stroke-linejoin:round; stroke-width:7.25; stroke-opacity:1; fill:none" points="
  2151.82,610.251 2285.12,610.251 
  "/>
<path clip-path="url(#clip260)" d="M2346.69 613.209 L2346.69 641.571 L2338.97 641.571 L2338.97 613.46 Q2338.97 606.789 2336.37 603.475 Q2333.77 600.16 2328.57 600.16 Q2322.32 600.16 2318.71 604.146 Q2315.1 608.132 2315.1 615.013 L2315.1 641.571 L2307.34 641.571 L2307.34 594.58 L2315.1 594.58 L2315.1 601.881 Q2317.87 597.643 2321.6 595.545 Q2325.38 593.447 2330.29 593.447 Q2338.38 593.447 2342.54 598.482 Q2346.69 603.475 2346.69 613.209 Z" fill="#000000" fill-rule="evenodd" fill-opacity="1" /><path clip-path="url(#clip260)" d="M2383.44 617.95 Q2374.09 617.95 2370.48 620.089 Q2366.87 622.229 2366.87 627.39 Q2366.87 631.501 2369.56 633.935 Q2372.28 636.326 2376.94 636.326 Q2383.36 636.326 2387.22 631.795 Q2391.12 627.222 2391.12 619.67 L2391.12 617.95 L2383.44 617.95 M2398.84 614.761 L2398.84 641.571 L2391.12 641.571 L2391.12 634.438 Q2388.48 638.718 2384.54 640.774 Q2380.59 642.787 2374.89 642.787 Q2367.67 642.787 2363.39 638.76 Q2359.15 634.69 2359.15 627.893 Q2359.15 619.963 2364.44 615.936 Q2369.77 611.908 2380.3 611.908 L2391.12 611.908 L2391.12 611.153 Q2391.12 605.824 2387.6 602.929 Q2384.12 599.993 2377.78 599.993 Q2373.75 599.993 2369.93 600.958 Q2366.12 601.922 2362.59 603.852 L2362.59 596.72 Q2366.83 595.084 2370.82 594.287 Q2374.8 593.447 2378.58 593.447 Q2388.77 593.447 2393.81 598.734 Q2398.84 604.02 2398.84 614.761 Z" fill="#000000" fill-rule="evenodd" fill-opacity="1" /><path clip-path="url(#clip260)" d="M2422.38 581.238 L2422.38 594.58 L2438.28 594.58 L2438.28 600.58 L2422.38 600.58 L2422.38 626.089 Q2422.38 631.837 2423.93 633.473 Q2425.53 635.11 2430.35 635.11 L2438.28 635.11 L2438.28 641.571 L2430.35 641.571 Q2421.41 641.571 2418.02 638.256 Q2414.62 634.9 2414.62 626.089 L2414.62 600.58 L2408.95 600.58 L2408.95 594.58 L2414.62 594.58 L2414.62 581.238 L2422.38 581.238 Z" fill="#000000" fill-rule="evenodd" fill-opacity="1" /><path clip-path="url(#clip260)" d="M2479.36 617.53 Q2479.36 609.139 2475.87 604.524 Q2472.43 599.909 2466.18 599.909 Q2459.97 599.909 2456.49 604.524 Q2453.05 609.139 2453.05 617.53 Q2453.05 625.879 2456.49 630.494 Q2459.97 635.11 2466.18 635.11 Q2472.43 635.11 2475.87 630.494 Q2479.36 625.879 2479.36 617.53 M2487.08 635.739 Q2487.08 647.738 2481.75 653.57 Q2476.42 659.444 2465.43 659.444 Q2461.36 659.444 2457.75 658.815 Q2454.14 658.227 2450.74 656.968 L2450.74 649.458 Q2454.14 651.304 2457.45 652.186 Q2460.77 653.067 2464.21 653.067 Q2471.8 653.067 2475.58 649.081 Q2479.36 645.137 2479.36 637.123 L2479.36 633.305 Q2476.96 637.459 2473.23 639.515 Q2469.5 641.571 2464.29 641.571 Q2455.65 641.571 2450.36 634.984 Q2445.08 628.397 2445.08 617.53 Q2445.08 606.622 2450.36 600.034 Q2455.65 593.447 2464.29 593.447 Q2469.5 593.447 2473.23 595.503 Q2476.96 597.559 2479.36 601.713 L2479.36 594.58 L2487.08 594.58 L2487.08 635.739 Z" fill="#000000" fill-rule="evenodd" fill-opacity="1" /><path clip-path="url(#clip260)" d="M2524.33 617.95 Q2514.98 617.95 2511.37 620.089 Q2507.76 622.229 2507.76 627.39 Q2507.76 631.501 2510.44 633.935 Q2513.17 636.326 2517.83 636.326 Q2524.25 636.326 2528.11 631.795 Q2532.01 627.222 2532.01 619.67 L2532.01 617.95 L2524.33 617.95 M2539.73 614.761 L2539.73 641.571 L2532.01 641.571 L2532.01 634.438 Q2529.37 638.718 2525.42 640.774 Q2521.48 642.787 2515.77 642.787 Q2508.56 642.787 2504.28 638.76 Q2500.04 634.69 2500.04 627.893 Q2500.04 619.963 2505.33 615.936 Q2510.65 611.908 2521.19 611.908 L2532.01 611.908 L2532.01 611.153 Q2532.01 605.824 2528.49 602.929 Q2525 599.993 2518.67 599.993 Q2514.64 599.993 2510.82 600.958 Q2507 601.922 2503.48 603.852 L2503.48 596.72 Q2507.72 595.084 2511.7 594.287 Q2515.69 593.447 2519.47 593.447 Q2529.66 593.447 2534.7 598.734 Q2539.73 604.02 2539.73 614.761 Z" fill="#000000" fill-rule="evenodd" fill-opacity="1" /><path clip-path="url(#clip260)" d="M2585.59 595.965 L2585.59 603.265 Q2582.32 601.587 2578.79 600.748 Q2575.27 599.909 2571.49 599.909 Q2565.74 599.909 2562.85 601.671 Q2559.99 603.433 2559.99 606.957 Q2559.99 609.642 2562.05 611.195 Q2564.11 612.705 2570.32 614.09 L2572.96 614.677 Q2581.18 616.439 2584.62 619.67 Q2588.11 622.858 2588.11 628.606 Q2588.11 635.151 2582.9 638.969 Q2577.74 642.787 2568.68 642.787 Q2564.9 642.787 2560.79 642.032 Q2556.72 641.319 2552.19 639.851 L2552.19 631.879 Q2556.47 634.103 2560.62 635.235 Q2564.78 636.326 2568.85 636.326 Q2574.3 636.326 2577.24 634.48 Q2580.18 632.592 2580.18 629.194 Q2580.18 626.047 2578.04 624.369 Q2575.94 622.691 2568.76 621.138 L2566.08 620.509 Q2558.9 618.999 2555.72 615.894 Q2552.53 612.747 2552.53 607.293 Q2552.53 600.664 2557.23 597.056 Q2561.92 593.447 2570.57 593.447 Q2574.85 593.447 2578.62 594.077 Q2582.4 594.706 2585.59 595.965 Z" fill="#000000" fill-rule="evenodd" fill-opacity="1" /></svg>
