<?xml version="1.0" encoding="utf-8"?>
<svg xmlns="http://www.w3.org/2000/svg" xmlns:xlink="http://www.w3.org/1999/xlink" width="700" height="700" viewBox="0 0 2800 2800">
<defs>
  <clipPath id="clip290">
    <rect x="0" y="0" width="2800" height="2800"/>
  </clipPath>
</defs>
<path clip-path="url(#clip290)" d="
M0 2800 L2800 2800 L2800 0 L0 0  Z
  " fill="#ffffff" fill-rule="evenodd" fill-opacity="1"/>
<defs>
  <clipPath id="clip291">
    <rect x="560" y="280" width="1961" height="1961"/>
  </clipPath>
</defs>
<path clip-path="url(#clip290)" d="
M736.528 2226.91 L2731.5 2226.91 L2731.5 68.5039 L736.528 68.5039  Z
  " fill="#ffffff" fill-rule="evenodd" fill-opacity="1"/>
<defs>
  <clipPath id="clip292">
    <rect x="736" y="68" width="1996" height="2159"/>
  </clipPath>
</defs>
<polyline clip-path="url(#clip290)" style="stroke:#000000; stroke-linecap:round; stroke-linejoin:round; stroke-width:5.8; stroke-opacity:1; fill:none" points="
  736.528,2226.91 2731.5,2226.91 
  "/>
<polyline clip-path="url(#clip290)" style="stroke:#000000; stroke-linecap:round; stroke-linejoin:round; stroke-width:5.8; stroke-opacity:1; fill:none" points="
  1120.3,2226.91 1120.3,2208.01 
  "/>
<polyline clip-path="url(#clip290)" style="stroke:#000000; stroke-linecap:round; stroke-linejoin:round; stroke-width:5.8; stroke-opacity:1; fill:none" points="
  1529.44,2226.91 1529.44,2208.01 
  "/>
<polyline clip-path="url(#clip290)" style="stroke:#000000; stroke-linecap:round; stroke-linejoin:round; stroke-width:5.8; stroke-opacity:1; fill:none" points="
  1938.58,2226.91 1938.58,2208.01 
  "/>
<polyline clip-path="url(#clip290)" style="stroke:#000000; stroke-linecap:round; stroke-linejoin:round; stroke-width:5.8; stroke-opacity:1; fill:none" points="
  2347.72,2226.91 2347.72,2208.01 
  "/>
<path clip-path="url(#clip290)" d="M1102.68 2264.97 L1135.95 2264.97 L1135.95 2272.1 L1110.44 2272.1 L1110.44 2287.46 Q1112.29 2286.83 1114.13 2286.53 Q1115.98 2286.2 1117.83 2286.2 Q1128.32 2286.2 1134.44 2291.94 Q1140.57 2297.69 1140.57 2307.51 Q1140.57 2317.62 1134.27 2323.24 Q1127.98 2328.82 1116.53 2328.82 Q1112.58 2328.82 1108.47 2328.15 Q1104.4 2327.48 1100.04 2326.14 L1100.04 2317.62 Q1103.81 2319.68 1107.84 2320.68 Q1111.87 2321.69 1116.36 2321.69 Q1123.62 2321.69 1127.85 2317.87 Q1132.09 2314.06 1132.09 2307.51 Q1132.09 2300.97 1127.85 2297.15 Q1123.62 2293.33 1116.36 2293.33 Q1112.96 2293.33 1109.56 2294.08 Q1106.2 2294.84 1102.68 2296.43 L1102.68 2264.97 Z" fill="#000000" fill-rule="evenodd" fill-opacity="1" /><path clip-path="url(#clip290)" d="M1483.56 2320.47 L1497.41 2320.47 L1497.41 2272.69 L1482.35 2275.71 L1482.35 2267.99 L1497.32 2264.97 L1505.8 2264.97 L1505.8 2320.47 L1519.65 2320.47 L1519.65 2327.61 L1483.56 2327.61 L1483.56 2320.47 Z" fill="#000000" fill-rule="evenodd" fill-opacity="1" /><path clip-path="url(#clip290)" d="M1554.89 2270.55 Q1548.34 2270.55 1545.03 2277.01 Q1541.76 2283.43 1541.76 2296.35 Q1541.76 2309.23 1545.03 2315.69 Q1548.34 2322.11 1554.89 2322.11 Q1561.48 2322.11 1564.75 2315.69 Q1568.06 2309.23 1568.06 2296.35 Q1568.06 2283.43 1564.75 2277.01 Q1561.48 2270.55 1554.89 2270.55 M1554.89 2263.83 Q1565.42 2263.83 1570.96 2272.18 Q1576.54 2280.49 1576.54 2296.35 Q1576.54 2312.17 1570.96 2320.52 Q1565.42 2328.82 1554.89 2328.82 Q1544.36 2328.82 1538.78 2320.52 Q1533.24 2312.17 1533.24 2296.35 Q1533.24 2280.49 1538.78 2272.18 Q1544.36 2263.83 1554.89 2263.83 Z" fill="#000000" fill-rule="evenodd" fill-opacity="1" /><path clip-path="url(#clip290)" d="M1893.61 2320.47 L1907.45 2320.47 L1907.45 2272.69 L1892.39 2275.71 L1892.39 2267.99 L1907.37 2264.97 L1915.84 2264.97 L1915.84 2320.47 L1929.69 2320.47 L1929.69 2327.61 L1893.61 2327.61 L1893.61 2320.47 Z" fill="#000000" fill-rule="evenodd" fill-opacity="1" /><path clip-path="url(#clip290)" d="M1946.89 2264.97 L1980.16 2264.97 L1980.16 2272.1 L1954.65 2272.1 L1954.65 2287.46 Q1956.5 2286.83 1958.34 2286.53 Q1960.19 2286.2 1962.04 2286.2 Q1972.52 2286.2 1978.65 2291.94 Q1984.78 2297.69 1984.78 2307.51 Q1984.78 2317.62 1978.48 2323.24 Q1972.19 2328.82 1960.73 2328.82 Q1956.79 2328.82 1952.68 2328.15 Q1948.61 2327.48 1944.25 2326.14 L1944.25 2317.62 Q1948.02 2319.68 1952.05 2320.68 Q1956.08 2321.69 1960.57 2321.69 Q1967.83 2321.69 1972.06 2317.87 Q1976.3 2314.06 1976.3 2307.51 Q1976.3 2300.97 1972.06 2297.15 Q1967.83 2293.33 1960.57 2293.33 Q1957.17 2293.33 1953.77 2294.08 Q1950.41 2294.84 1946.89 2296.43 L1946.89 2264.97 Z" fill="#000000" fill-rule="evenodd" fill-opacity="1" /><path clip-path="url(#clip290)" d="M2309.25 2320.47 L2338.83 2320.47 L2338.83 2327.61 L2299.05 2327.61 L2299.05 2320.47 Q2303.88 2315.48 2312.19 2307.09 Q2320.54 2298.66 2322.67 2296.22 Q2326.74 2291.65 2328.34 2288.5 Q2329.98 2285.32 2329.98 2282.25 Q2329.98 2277.26 2326.45 2274.11 Q2322.97 2270.97 2317.35 2270.97 Q2313.36 2270.97 2308.91 2272.35 Q2304.51 2273.74 2299.47 2276.55 L2299.47 2267.99 Q2304.59 2265.93 2309.04 2264.88 Q2313.49 2263.83 2317.18 2263.83 Q2326.91 2263.83 2332.7 2268.7 Q2338.49 2273.57 2338.49 2281.71 Q2338.49 2285.57 2337.02 2289.05 Q2335.6 2292.49 2331.78 2297.19 Q2330.73 2298.41 2325.11 2304.24 Q2319.49 2310.03 2309.25 2320.47 Z" fill="#000000" fill-rule="evenodd" fill-opacity="1" /><path clip-path="url(#clip290)" d="M2374.74 2270.55 Q2368.2 2270.55 2364.88 2277.01 Q2361.61 2283.43 2361.61 2296.35 Q2361.61 2309.23 2364.88 2315.69 Q2368.2 2322.11 2374.74 2322.11 Q2381.33 2322.11 2384.6 2315.69 Q2387.92 2309.23 2387.92 2296.35 Q2387.92 2283.43 2384.6 2277.01 Q2381.33 2270.55 2374.74 2270.55 M2374.74 2263.83 Q2385.27 2263.83 2390.81 2272.18 Q2396.39 2280.49 2396.39 2296.35 Q2396.39 2312.17 2390.81 2320.52 Q2385.27 2328.82 2374.74 2328.82 Q2364.21 2328.82 2358.63 2320.52 Q2353.09 2312.17 2353.09 2296.35 Q2353.09 2280.49 2358.63 2272.18 Q2364.21 2263.83 2374.74 2263.83 Z" fill="#000000" fill-rule="evenodd" fill-opacity="1" /><path clip-path="url(#clip290)" d="M1595.04 2380.41 L1606.9 2380.41 L1606.9 2416.35 L1650.02 2416.35 L1650.02 2380.41 L1661.88 2380.41 L1661.88 2468.1 L1650.02 2468.1 L1650.02 2426.34 L1606.9 2426.34 L1606.9 2468.1 L1595.04 2468.1 L1595.04 2380.41 Z" fill="#000000" fill-rule="evenodd" fill-opacity="1" /><path clip-path="url(#clip290)" d="M1710.52 2409.89 Q1701.82 2409.89 1696.77 2416.71 Q1691.72 2423.46 1691.72 2435.27 Q1691.72 2447.07 1696.71 2453.89 Q1701.76 2460.64 1710.52 2460.64 Q1719.15 2460.64 1724.2 2453.83 Q1729.25 2447.02 1729.25 2435.27 Q1729.25 2423.58 1724.2 2416.77 Q1719.15 2409.89 1710.52 2409.89 M1710.52 2400.73 Q1724.61 2400.73 1732.66 2409.89 Q1740.71 2419.06 1740.71 2435.27 Q1740.71 2451.42 1732.66 2460.64 Q1724.61 2469.81 1710.52 2469.81 Q1696.36 2469.81 1688.31 2460.64 Q1680.33 2451.42 1680.33 2435.27 Q1680.33 2419.06 1688.31 2409.89 Q1696.36 2400.73 1710.52 2400.73 Z" fill="#000000" fill-rule="evenodd" fill-opacity="1" /><path clip-path="url(#clip290)" d="M1757.51 2442.14 L1757.51 2402.32 L1768.32 2402.32 L1768.32 2441.73 Q1768.32 2451.07 1771.96 2455.77 Q1775.6 2460.41 1782.88 2460.41 Q1791.63 2460.41 1796.69 2454.83 Q1801.8 2449.25 1801.8 2439.61 L1801.8 2402.32 L1812.6 2402.32 L1812.6 2468.1 L1801.8 2468.1 L1801.8 2458 Q1797.86 2463.99 1792.63 2466.93 Q1787.46 2469.81 1780.59 2469.81 Q1769.26 2469.81 1763.38 2462.76 Q1757.51 2455.71 1757.51 2442.14 M1784.7 2400.73 L1784.7 2400.73 Z" fill="#000000" fill-rule="evenodd" fill-opacity="1" /><path clip-path="url(#clip290)" d="M1872.99 2412.42 Q1871.17 2411.36 1868.99 2410.89 Q1866.88 2410.36 1864.29 2410.36 Q1855.13 2410.36 1850.2 2416.35 Q1845.32 2422.29 1845.32 2433.45 L1845.32 2468.1 L1834.45 2468.1 L1834.45 2402.32 L1845.32 2402.32 L1845.32 2412.54 Q1848.73 2406.55 1854.19 2403.67 Q1859.65 2400.73 1867.47 2400.73 Q1868.58 2400.73 1869.93 2400.91 Q1871.28 2401.02 1872.93 2401.32 L1872.99 2412.42 Z" fill="#000000" fill-rule="evenodd" fill-opacity="1" /><polyline clip-path="url(#clip290)" style="stroke:#000000; stroke-linecap:round; stroke-linejoin:round; stroke-width:5.8; stroke-opacity:1; fill:none" points="
  736.528,2226.91 736.528,68.5039 
  "/>
<polyline clip-path="url(#clip290)" style="stroke:#000000; stroke-linecap:round; stroke-linejoin:round; stroke-width:5.8; stroke-opacity:1; fill:none" points="
  736.528,2226.91 755.426,2226.91 
  "/>
<polyline clip-path="url(#clip290)" style="stroke:#000000; stroke-linecap:round; stroke-linejoin:round; stroke-width:5.8; stroke-opacity:1; fill:none" points="
  736.528,1841.48 755.426,1841.48 
  "/>
<polyline clip-path="url(#clip290)" style="stroke:#000000; stroke-linecap:round; stroke-linejoin:round; stroke-width:5.8; stroke-opacity:1; fill:none" points="
  736.528,1456.05 755.426,1456.05 
  "/>
<polyline clip-path="url(#clip290)" style="stroke:#000000; stroke-linecap:round; stroke-linejoin:round; stroke-width:5.8; stroke-opacity:1; fill:none" points="
  736.528,1070.62 755.426,1070.62 
  "/>
<polyline clip-path="url(#clip290)" style="stroke:#000000; stroke-linecap:round; stroke-linejoin:round; stroke-width:5.8; stroke-opacity:1; fill:none" points="
  736.528,685.191 755.426,685.191 
  "/>
<polyline clip-path="url(#clip290)" style="stroke:#000000; stroke-linecap:round; stroke-linejoin:round; stroke-width:5.8; stroke-opacity:1; fill:none" points="
  736.528,299.761 755.426,299.761 
  "/>
<path clip-path="url(#clip290)" d="M672.879 2201.17 Q666.334 2201.17 663.019 2207.63 Q659.747 2214.05 659.747 2226.97 Q659.747 2239.85 663.019 2246.31 Q666.334 2252.73 672.879 2252.73 Q679.466 2252.73 682.739 2246.31 Q686.053 2239.85 686.053 2226.97 Q686.053 2214.05 682.739 2207.63 Q679.466 2201.17 672.879 2201.17 M672.879 2194.45 Q683.41 2194.45 688.948 2202.8 Q694.528 2211.11 694.528 2226.97 Q694.528 2242.79 688.948 2251.14 Q683.41 2259.44 672.879 2259.44 Q662.348 2259.44 656.768 2251.14 Q651.23 2242.79 651.23 2226.97 Q651.23 2211.11 656.768 2202.8 Q662.348 2194.45 672.879 2194.45 Z" fill="#000000" fill-rule="evenodd" fill-opacity="1" /><path clip-path="url(#clip290)" d="M545.501 1810.16 L578.772 1810.16 L578.772 1817.29 L553.263 1817.29 L553.263 1832.65 Q555.109 1832.02 556.955 1831.72 Q558.801 1831.39 560.647 1831.39 Q571.136 1831.39 577.262 1837.14 Q583.387 1842.88 583.387 1852.7 Q583.387 1862.81 577.094 1868.43 Q570.801 1874.01 559.347 1874.01 Q555.403 1874.01 551.291 1873.34 Q547.221 1872.67 542.858 1871.33 L542.858 1862.81 Q546.634 1864.87 550.662 1865.88 Q554.69 1866.88 559.179 1866.88 Q566.437 1866.88 570.675 1863.06 Q574.912 1859.25 574.912 1852.7 Q574.912 1846.16 570.675 1842.34 Q566.437 1838.52 559.179 1838.52 Q555.78 1838.52 552.382 1839.28 Q549.026 1840.03 545.501 1841.63 L545.501 1810.16 Z" fill="#000000" fill-rule="evenodd" fill-opacity="1" /><path clip-path="url(#clip290)" d="M618.211 1815.74 Q611.666 1815.74 608.351 1822.2 Q605.079 1828.62 605.079 1841.54 Q605.079 1854.42 608.351 1860.88 Q611.666 1867.3 618.211 1867.3 Q624.798 1867.3 628.07 1860.88 Q631.385 1854.42 631.385 1841.54 Q631.385 1828.62 628.07 1822.2 Q624.798 1815.74 618.211 1815.74 M618.211 1809.03 Q628.742 1809.03 634.28 1817.37 Q639.86 1825.68 639.86 1841.54 Q639.86 1857.36 634.28 1865.71 Q628.742 1874.01 618.211 1874.01 Q607.68 1874.01 602.1 1865.71 Q596.561 1857.36 596.561 1841.54 Q596.561 1825.68 602.1 1817.37 Q607.68 1809.03 618.211 1809.03 Z" fill="#000000" fill-rule="evenodd" fill-opacity="1" /><path clip-path="url(#clip290)" d="M672.879 1815.74 Q666.334 1815.74 663.019 1822.2 Q659.747 1828.62 659.747 1841.54 Q659.747 1854.42 663.019 1860.88 Q666.334 1867.3 672.879 1867.3 Q679.466 1867.3 682.739 1860.88 Q686.053 1854.42 686.053 1841.54 Q686.053 1828.62 682.739 1822.2 Q679.466 1815.74 672.879 1815.74 M672.879 1809.03 Q683.41 1809.03 688.948 1817.37 Q694.528 1825.68 694.528 1841.54 Q694.528 1857.36 688.948 1865.71 Q683.41 1874.01 672.879 1874.01 Q662.348 1874.01 656.768 1865.71 Q651.23 1857.36 651.23 1841.54 Q651.23 1825.68 656.768 1817.37 Q662.348 1809.03 672.879 1809.03 Z" fill="#000000" fill-rule="evenodd" fill-opacity="1" /><path clip-path="url(#clip290)" d="M492.217 1480.24 L506.063 1480.24 L506.063 1432.45 L491.001 1435.47 L491.001 1427.75 L505.979 1424.73 L514.454 1424.73 L514.454 1480.24 L528.299 1480.24 L528.299 1487.37 L492.217 1487.37 L492.217 1480.24 Z" fill="#000000" fill-rule="evenodd" fill-opacity="1" /><path clip-path="url(#clip290)" d="M563.542 1430.31 Q556.997 1430.31 553.683 1436.77 Q550.41 1443.19 550.41 1456.11 Q550.41 1468.99 553.683 1475.45 Q556.997 1481.87 563.542 1481.87 Q570.129 1481.87 573.402 1475.45 Q576.716 1468.99 576.716 1456.11 Q576.716 1443.19 573.402 1436.77 Q570.129 1430.31 563.542 1430.31 M563.542 1423.6 Q574.073 1423.6 579.611 1431.95 Q585.191 1440.25 585.191 1456.11 Q585.191 1471.93 579.611 1480.28 Q574.073 1488.59 563.542 1488.59 Q553.011 1488.59 547.431 1480.28 Q541.893 1471.93 541.893 1456.11 Q541.893 1440.25 547.431 1431.95 Q553.011 1423.6 563.542 1423.6 Z" fill="#000000" fill-rule="evenodd" fill-opacity="1" /><path clip-path="url(#clip290)" d="M618.211 1430.31 Q611.666 1430.31 608.351 1436.77 Q605.079 1443.19 605.079 1456.11 Q605.079 1468.99 608.351 1475.45 Q611.666 1481.87 618.211 1481.87 Q624.798 1481.87 628.07 1475.45 Q631.385 1468.99 631.385 1456.11 Q631.385 1443.19 628.07 1436.77 Q624.798 1430.31 618.211 1430.31 M618.211 1423.6 Q628.742 1423.6 634.28 1431.95 Q639.86 1440.25 639.86 1456.11 Q639.86 1471.93 634.28 1480.28 Q628.742 1488.59 618.211 1488.59 Q607.68 1488.59 602.1 1480.28 Q596.561 1471.93 596.561 1456.11 Q596.561 1440.25 602.1 1431.95 Q607.68 1423.6 618.211 1423.6 Z" fill="#000000" fill-rule="evenodd" fill-opacity="1" /><path clip-path="url(#clip290)" d="M672.879 1430.31 Q666.334 1430.31 663.019 1436.77 Q659.747 1443.19 659.747 1456.11 Q659.747 1468.99 663.019 1475.45 Q666.334 1481.87 672.879 1481.87 Q679.466 1481.87 682.739 1475.45 Q686.053 1468.99 686.053 1456.11 Q686.053 1443.19 682.739 1436.77 Q679.466 1430.31 672.879 1430.31 M672.879 1423.6 Q683.41 1423.6 688.948 1431.95 Q694.528 1440.25 694.528 1456.11 Q694.528 1471.93 688.948 1480.28 Q683.41 1488.59 672.879 1488.59 Q662.348 1488.59 656.768 1480.28 Q651.23 1471.93 651.23 1456.11 Q651.23 1440.25 656.768 1431.95 Q662.348 1423.6 672.879 1423.6 Z" fill="#000000" fill-rule="evenodd" fill-opacity="1" /><path clip-path="url(#clip290)" d="M492.217 1094.81 L506.063 1094.81 L506.063 1047.02 L491.001 1050.04 L491.001 1042.32 L505.979 1039.3 L514.454 1039.3 L514.454 1094.81 L528.299 1094.81 L528.299 1101.94 L492.217 1101.94 L492.217 1094.81 Z" fill="#000000" fill-rule="evenodd" fill-opacity="1" /><path clip-path="url(#clip290)" d="M545.501 1039.3 L578.772 1039.3 L578.772 1046.43 L553.263 1046.43 L553.263 1061.79 Q555.109 1061.16 556.955 1060.87 Q558.801 1060.53 560.647 1060.53 Q571.136 1060.53 577.262 1066.28 Q583.387 1072.03 583.387 1081.84 Q583.387 1091.95 577.094 1097.58 Q570.801 1103.16 559.347 1103.16 Q555.403 1103.16 551.291 1102.49 Q547.221 1101.81 542.858 1100.47 L542.858 1091.95 Q546.634 1094.01 550.662 1095.02 Q554.69 1096.02 559.179 1096.02 Q566.437 1096.02 570.675 1092.21 Q574.912 1088.39 574.912 1081.84 Q574.912 1075.3 570.675 1071.48 Q566.437 1067.66 559.179 1067.66 Q555.78 1067.66 552.382 1068.42 Q549.026 1069.17 545.501 1070.77 L545.501 1039.3 Z" fill="#000000" fill-rule="evenodd" fill-opacity="1" /><path clip-path="url(#clip290)" d="M618.211 1044.88 Q611.666 1044.88 608.351 1051.34 Q605.079 1057.76 605.079 1070.68 Q605.079 1083.56 608.351 1090.02 Q611.666 1096.44 618.211 1096.44 Q624.798 1096.44 628.07 1090.02 Q631.385 1083.56 631.385 1070.68 Q631.385 1057.76 628.07 1051.34 Q624.798 1044.88 618.211 1044.88 M618.211 1038.17 Q628.742 1038.17 634.28 1046.52 Q639.86 1054.82 639.86 1070.68 Q639.86 1086.5 634.28 1094.85 Q628.742 1103.16 618.211 1103.16 Q607.68 1103.16 602.1 1094.85 Q596.561 1086.5 596.561 1070.68 Q596.561 1054.82 602.1 1046.52 Q607.68 1038.17 618.211 1038.17 Z" fill="#000000" fill-rule="evenodd" fill-opacity="1" /><path clip-path="url(#clip290)" d="M672.879 1044.88 Q666.334 1044.88 663.019 1051.34 Q659.747 1057.76 659.747 1070.68 Q659.747 1083.56 663.019 1090.02 Q666.334 1096.44 672.879 1096.44 Q679.466 1096.44 682.739 1090.02 Q686.053 1083.56 686.053 1070.68 Q686.053 1057.76 682.739 1051.34 Q679.466 1044.88 672.879 1044.88 M672.879 1038.17 Q683.41 1038.17 688.948 1046.52 Q694.528 1054.82 694.528 1070.68 Q694.528 1086.5 688.948 1094.85 Q683.41 1103.16 672.879 1103.16 Q662.348 1103.16 656.768 1094.85 Q651.23 1086.5 651.23 1070.68 Q651.23 1054.82 656.768 1046.52 Q662.348 1038.17 672.879 1038.17 Z" fill="#000000" fill-rule="evenodd" fill-opacity="1" /><path clip-path="url(#clip290)" d="M498.049 709.378 L527.628 709.378 L527.628 716.511 L487.854 716.511 L487.854 709.378 Q492.679 704.385 500.986 695.994 Q509.335 687.561 511.475 685.128 Q515.545 680.555 517.139 677.408 Q518.775 674.219 518.775 671.156 Q518.775 666.164 515.251 663.017 Q511.769 659.87 506.147 659.87 Q502.161 659.87 497.714 661.255 Q493.308 662.639 488.274 665.45 L488.274 656.891 Q493.392 654.836 497.839 653.787 Q502.287 652.738 505.979 652.738 Q515.713 652.738 521.503 657.605 Q527.292 662.472 527.292 670.611 Q527.292 674.471 525.824 677.953 Q524.398 681.394 520.58 686.093 Q519.531 687.309 513.909 693.141 Q508.286 698.931 498.049 709.378 Z" fill="#000000" fill-rule="evenodd" fill-opacity="1" /><path clip-path="url(#clip290)" d="M563.542 659.451 Q556.997 659.451 553.683 665.912 Q550.41 672.331 550.41 685.254 Q550.41 698.134 553.683 704.595 Q556.997 711.014 563.542 711.014 Q570.129 711.014 573.402 704.595 Q576.716 698.134 576.716 685.254 Q576.716 672.331 573.402 665.912 Q570.129 659.451 563.542 659.451 M563.542 652.738 Q574.073 652.738 579.611 661.087 Q585.191 669.394 585.191 685.254 Q585.191 701.071 579.611 709.42 Q574.073 717.727 563.542 717.727 Q553.011 717.727 547.431 709.42 Q541.893 701.071 541.893 685.254 Q541.893 669.394 547.431 661.087 Q553.011 652.738 563.542 652.738 Z" fill="#000000" fill-rule="evenodd" fill-opacity="1" /><path clip-path="url(#clip290)" d="M618.211 659.451 Q611.666 659.451 608.351 665.912 Q605.079 672.331 605.079 685.254 Q605.079 698.134 608.351 704.595 Q611.666 711.014 618.211 711.014 Q624.798 711.014 628.07 704.595 Q631.385 698.134 631.385 685.254 Q631.385 672.331 628.07 665.912 Q624.798 659.451 618.211 659.451 M618.211 652.738 Q628.742 652.738 634.28 661.087 Q639.86 669.394 639.86 685.254 Q639.86 701.071 634.28 709.42 Q628.742 717.727 618.211 717.727 Q607.68 717.727 602.1 709.42 Q596.561 701.071 596.561 685.254 Q596.561 669.394 602.1 661.087 Q607.68 652.738 618.211 652.738 Z" fill="#000000" fill-rule="evenodd" fill-opacity="1" /><path clip-path="url(#clip290)" d="M672.879 659.451 Q666.334 659.451 663.019 665.912 Q659.747 672.331 659.747 685.254 Q659.747 698.134 663.019 704.595 Q666.334 711.014 672.879 711.014 Q679.466 711.014 682.739 704.595 Q686.053 698.134 686.053 685.254 Q686.053 672.331 682.739 665.912 Q679.466 659.451 672.879 659.451 M672.879 652.738 Q683.41 652.738 688.948 661.087 Q694.528 669.394 694.528 685.254 Q694.528 701.071 688.948 709.42 Q683.41 717.727 672.879 717.727 Q662.348 717.727 656.768 709.42 Q651.23 701.071 651.23 685.254 Q651.23 669.394 656.768 661.087 Q662.348 652.738 672.879 652.738 Z" fill="#000000" fill-rule="evenodd" fill-opacity="1" /><path clip-path="url(#clip290)" d="M498.049 323.949 L527.628 323.949 L527.628 331.081 L487.854 331.081 L487.854 323.949 Q492.679 318.956 500.986 310.565 Q509.335 302.132 511.475 299.699 Q515.545 295.125 517.139 291.979 Q518.775 288.79 518.775 285.727 Q518.775 280.734 515.251 277.588 Q511.769 274.441 506.147 274.441 Q502.161 274.441 497.714 275.826 Q493.308 277.21 488.274 280.021 L488.274 271.462 Q493.392 269.406 497.839 268.358 Q502.287 267.309 505.979 267.309 Q515.713 267.309 521.503 272.176 Q527.292 277.042 527.292 285.182 Q527.292 289.042 525.824 292.524 Q524.398 295.964 520.58 300.663 Q519.531 301.88 513.909 307.712 Q508.286 313.502 498.049 323.949 Z" fill="#000000" fill-rule="evenodd" fill-opacity="1" /><path clip-path="url(#clip290)" d="M545.501 268.441 L578.772 268.441 L578.772 275.574 L553.263 275.574 L553.263 290.93 Q555.109 290.3 556.955 290.007 Q558.801 289.671 560.647 289.671 Q571.136 289.671 577.262 295.419 Q583.387 301.167 583.387 310.985 Q583.387 321.096 577.094 326.718 Q570.801 332.298 559.347 332.298 Q555.403 332.298 551.291 331.627 Q547.221 330.956 542.858 329.613 L542.858 321.096 Q546.634 323.152 550.662 324.159 Q554.69 325.166 559.179 325.166 Q566.437 325.166 570.675 321.348 Q574.912 317.53 574.912 310.985 Q574.912 304.44 570.675 300.622 Q566.437 296.804 559.179 296.804 Q555.78 296.804 552.382 297.559 Q549.026 298.314 545.501 299.908 L545.501 268.441 Z" fill="#000000" fill-rule="evenodd" fill-opacity="1" /><path clip-path="url(#clip290)" d="M618.211 274.022 Q611.666 274.022 608.351 280.483 Q605.079 286.902 605.079 299.824 Q605.079 312.705 608.351 319.166 Q611.666 325.585 618.211 325.585 Q624.798 325.585 628.07 319.166 Q631.385 312.705 631.385 299.824 Q631.385 286.902 628.07 280.483 Q624.798 274.022 618.211 274.022 M618.211 267.309 Q628.742 267.309 634.28 275.658 Q639.86 283.965 639.86 299.824 Q639.86 315.642 634.28 323.991 Q628.742 332.298 618.211 332.298 Q607.68 332.298 602.1 323.991 Q596.561 315.642 596.561 299.824 Q596.561 283.965 602.1 275.658 Q607.68 267.309 618.211 267.309 Z" fill="#000000" fill-rule="evenodd" fill-opacity="1" /><path clip-path="url(#clip290)" d="M672.879 274.022 Q666.334 274.022 663.019 280.483 Q659.747 286.902 659.747 299.824 Q659.747 312.705 663.019 319.166 Q666.334 325.585 672.879 325.585 Q679.466 325.585 682.739 319.166 Q686.053 312.705 686.053 299.824 Q686.053 286.902 682.739 280.483 Q679.466 274.022 672.879 274.022 M672.879 267.309 Q683.41 267.309 688.948 275.658 Q694.528 283.965 694.528 299.824 Q694.528 315.642 688.948 323.991 Q683.41 332.298 672.879 332.298 Q662.348 332.298 656.768 323.991 Q651.23 315.642 651.23 299.824 Q651.23 283.965 656.768 275.658 Q662.348 267.309 672.879 267.309 Z" fill="#000000" fill-rule="evenodd" fill-opacity="1" /><path clip-path="url(#clip290)" d="M407.034 1888.72 L383.48 1888.72 L383.48 1908.1 L373.729 1908.1 L373.729 1876.97 L411.381 1876.97 Q416.256 1883.84 418.782 1892.12 Q421.249 1900.41 421.249 1909.8 Q421.249 1930.36 409.266 1941.99 Q397.225 1953.56 375.785 1953.56 Q354.287 1953.56 342.305 1941.99 Q330.263 1930.36 330.263 1909.8 Q330.263 1901.23 332.378 1893.53 Q334.492 1885.78 338.604 1879.26 L351.233 1879.26 Q345.653 1885.84 342.833 1893.24 Q340.014 1900.64 340.014 1908.8 Q340.014 1924.9 349.001 1933 Q357.988 1941.05 375.785 1941.05 Q393.524 1941.05 402.511 1933 Q411.498 1924.9 411.498 1908.8 Q411.498 1902.52 410.441 1897.59 Q409.325 1892.65 407.034 1888.72 Z" fill="#000000" fill-rule="evenodd" fill-opacity="1" /><path clip-path="url(#clip290)" d="M383.95 1799.49 L389.236 1799.49 L389.236 1849.19 Q400.397 1848.48 406.27 1842.49 Q412.085 1836.44 412.085 1825.69 Q412.085 1819.46 410.558 1813.65 Q409.031 1807.78 405.977 1802.02 L416.197 1802.02 Q418.664 1807.83 419.956 1813.94 Q421.249 1820.05 421.249 1826.34 Q421.249 1842.08 412.085 1851.3 Q402.922 1860.46 387.298 1860.46 Q371.145 1860.46 361.688 1851.77 Q352.173 1843.02 352.173 1828.22 Q352.173 1814.94 360.748 1807.25 Q369.265 1799.49 383.95 1799.49 M380.778 1810.3 Q371.909 1810.42 366.622 1815.29 Q361.336 1820.11 361.336 1828.1 Q361.336 1837.14 366.446 1842.61 Q371.556 1848.01 380.837 1848.83 L380.778 1810.3 Z" fill="#000000" fill-rule="evenodd" fill-opacity="1" /><path clip-path="url(#clip290)" d="M379.838 1727.07 L419.545 1727.07 L419.545 1737.88 L380.191 1737.88 Q370.851 1737.88 366.211 1741.52 Q361.571 1745.16 361.571 1752.44 Q361.571 1761.2 367.151 1766.25 Q372.731 1771.3 382.364 1771.3 L419.545 1771.3 L419.545 1782.17 L353.759 1782.17 L353.759 1771.3 L363.979 1771.3 Q358.046 1767.42 355.11 1762.19 Q352.173 1756.91 352.173 1750.04 Q352.173 1738.7 359.221 1732.88 Q366.211 1727.07 379.838 1727.07 Z" fill="#000000" fill-rule="evenodd" fill-opacity="1" /><path clip-path="url(#clip290)" d="M383.95 1649.24 L389.236 1649.24 L389.236 1698.93 Q400.397 1698.23 406.27 1692.24 Q412.085 1686.19 412.085 1675.44 Q412.085 1669.21 410.558 1663.4 Q409.031 1657.52 405.977 1651.77 L416.197 1651.77 Q418.664 1657.58 419.956 1663.69 Q421.249 1669.8 421.249 1676.08 Q421.249 1691.83 412.085 1701.05 Q402.922 1710.21 387.298 1710.21 Q371.145 1710.21 361.688 1701.52 Q352.173 1692.77 352.173 1677.96 Q352.173 1664.69 360.748 1656.99 Q369.265 1649.24 383.95 1649.24 M380.778 1660.05 Q371.909 1660.17 366.622 1665.04 Q361.336 1669.86 361.336 1677.85 Q361.336 1686.89 366.446 1692.35 Q371.556 1697.76 380.837 1698.58 L380.778 1660.05 Z" fill="#000000" fill-rule="evenodd" fill-opacity="1" /><path clip-path="url(#clip290)" d="M363.861 1593.38 Q362.804 1595.2 362.334 1597.38 Q361.806 1599.49 361.806 1602.07 Q361.806 1611.24 367.797 1616.17 Q373.729 1621.05 384.89 1621.05 L419.545 1621.05 L419.545 1631.91 L353.759 1631.91 L353.759 1621.05 L363.979 1621.05 Q357.988 1617.64 355.11 1612.18 Q352.173 1606.71 352.173 1598.9 Q352.173 1597.79 352.349 1596.44 Q352.466 1595.08 352.76 1593.44 L363.861 1593.38 Z" fill="#000000" fill-rule="evenodd" fill-opacity="1" /><path clip-path="url(#clip290)" d="M386.476 1552.15 Q386.476 1565.25 389.471 1570.3 Q392.467 1575.35 399.692 1575.35 Q405.448 1575.35 408.855 1571.59 Q412.203 1567.77 412.203 1561.25 Q412.203 1552.26 405.859 1546.86 Q399.457 1541.4 388.884 1541.4 L386.476 1541.4 L386.476 1552.15 M382.012 1530.59 L419.545 1530.59 L419.545 1541.4 L409.56 1541.4 Q415.551 1545.1 418.429 1550.62 Q421.249 1556.14 421.249 1564.13 Q421.249 1574.23 415.61 1580.22 Q409.912 1586.16 400.397 1586.16 Q389.295 1586.16 383.656 1578.76 Q378.017 1571.3 378.017 1556.55 L378.017 1541.4 L376.96 1541.4 Q369.5 1541.4 365.447 1546.33 Q361.336 1551.21 361.336 1560.08 Q361.336 1565.72 362.687 1571.06 Q364.038 1576.41 366.74 1581.34 L356.754 1581.34 Q354.463 1575.41 353.347 1569.83 Q352.173 1564.25 352.173 1558.96 Q352.173 1544.69 359.574 1537.64 Q366.975 1530.59 382.012 1530.59 Z" fill="#000000" fill-rule="evenodd" fill-opacity="1" /><path clip-path="url(#clip290)" d="M335.08 1497.64 L353.759 1497.64 L353.759 1475.38 L362.158 1475.38 L362.158 1497.64 L397.871 1497.64 Q405.918 1497.64 408.209 1495.46 Q410.5 1493.23 410.5 1486.48 L410.5 1475.38 L419.545 1475.38 L419.545 1486.48 Q419.545 1498.99 414.905 1503.75 Q410.206 1508.5 397.871 1508.5 L362.158 1508.5 L362.158 1516.43 L353.759 1516.43 L353.759 1508.5 L335.08 1508.5 L335.08 1497.64 Z" fill="#000000" fill-rule="evenodd" fill-opacity="1" /><path clip-path="url(#clip290)" d="M383.95 1404.89 L389.236 1404.89 L389.236 1454.58 Q400.397 1453.88 406.27 1447.89 Q412.085 1441.84 412.085 1431.09 Q412.085 1424.86 410.558 1419.05 Q409.031 1413.17 405.977 1407.42 L416.197 1407.42 Q418.664 1413.23 419.956 1419.34 Q421.249 1425.45 421.249 1431.73 Q421.249 1447.48 412.085 1456.7 Q402.922 1465.86 387.298 1465.86 Q371.145 1465.86 361.688 1457.17 Q352.173 1448.42 352.173 1433.61 Q352.173 1420.34 360.748 1412.64 Q369.265 1404.89 383.95 1404.89 M380.778 1415.7 Q371.909 1415.82 366.622 1420.69 Q361.336 1425.51 361.336 1433.5 Q361.336 1442.54 366.446 1448 Q371.556 1453.41 380.837 1454.23 L380.778 1415.7 Z" fill="#000000" fill-rule="evenodd" fill-opacity="1" /><path clip-path="url(#clip290)" d="M363.744 1343.86 L328.149 1343.86 L328.149 1333.05 L419.545 1333.05 L419.545 1343.86 L409.677 1343.86 Q415.551 1347.27 418.429 1352.5 Q421.249 1357.67 421.249 1364.95 Q421.249 1376.87 411.733 1384.39 Q402.217 1391.85 386.711 1391.85 Q371.204 1391.85 361.688 1384.39 Q352.173 1376.87 352.173 1364.95 Q352.173 1357.67 355.051 1352.5 Q357.87 1347.27 363.744 1343.86 M386.711 1380.69 Q398.634 1380.69 405.448 1375.82 Q412.203 1370.88 412.203 1362.31 Q412.203 1353.73 405.448 1348.8 Q398.634 1343.86 386.711 1343.86 Q374.787 1343.86 368.032 1348.8 Q361.218 1353.73 361.218 1362.31 Q361.218 1370.88 368.032 1375.82 Q374.787 1380.69 386.711 1380.69 Z" fill="#000000" fill-rule="evenodd" fill-opacity="1" /><path clip-path="url(#clip290)" d="M331.849 1272.08 L331.849 1216.63 L341.835 1216.63 L341.835 1260.22 L367.797 1260.22 L367.797 1218.46 L377.782 1218.46 L377.782 1260.22 L409.56 1260.22 L409.56 1215.58 L419.545 1215.58 L419.545 1272.08 L331.849 1272.08 Z" fill="#000000" fill-rule="evenodd" fill-opacity="1" /><path clip-path="url(#clip290)" d="M328.149 1196.55 L328.149 1185.74 L419.545 1185.74 L419.545 1196.55 L328.149 1196.55 Z" fill="#000000" fill-rule="evenodd" fill-opacity="1" /><path clip-path="url(#clip290)" d="M383.95 1106.85 L389.236 1106.85 L389.236 1156.55 Q400.397 1155.84 406.27 1149.85 Q412.085 1143.8 412.085 1133.05 Q412.085 1126.82 410.558 1121.01 Q409.031 1115.14 405.977 1109.38 L416.197 1109.38 Q418.664 1115.19 419.956 1121.3 Q421.249 1127.41 421.249 1133.7 Q421.249 1149.44 412.085 1158.66 Q402.922 1167.82 387.298 1167.82 Q371.145 1167.82 361.688 1159.13 Q352.173 1150.38 352.173 1135.58 Q352.173 1122.3 360.748 1114.61 Q369.265 1106.85 383.95 1106.85 M380.778 1117.66 Q371.909 1117.78 366.622 1122.65 Q361.336 1127.47 361.336 1135.46 Q361.336 1144.5 366.446 1149.97 Q371.556 1155.37 380.837 1156.19 L380.778 1117.66 Z" fill="#000000" fill-rule="evenodd" fill-opacity="1" /><path clip-path="url(#clip290)" d="M356.284 1041.77 L366.387 1041.77 Q363.861 1046.35 362.628 1050.99 Q361.336 1055.57 361.336 1060.27 Q361.336 1070.79 368.032 1076.6 Q374.669 1082.42 386.711 1082.42 Q398.752 1082.42 405.448 1076.6 Q412.085 1070.79 412.085 1060.27 Q412.085 1055.57 410.852 1050.99 Q409.56 1046.35 407.034 1041.77 L417.019 1041.77 Q419.134 1046.29 420.191 1051.17 Q421.249 1055.99 421.249 1061.45 Q421.249 1076.31 411.909 1085.06 Q402.57 1093.81 386.711 1093.81 Q370.616 1093.81 361.394 1085 Q352.173 1076.13 352.173 1060.74 Q352.173 1055.75 353.23 1050.99 Q354.228 1046.24 356.284 1041.77 Z" fill="#000000" fill-rule="evenodd" fill-opacity="1" /><path clip-path="url(#clip290)" d="M335.08 1012.28 L353.759 1012.28 L353.759 990.023 L362.158 990.023 L362.158 1012.28 L397.871 1012.28 Q405.918 1012.28 408.209 1010.11 Q410.5 1007.88 410.5 1001.12 L410.5 990.023 L419.545 990.023 L419.545 1001.12 Q419.545 1013.64 414.905 1018.39 Q410.206 1023.15 397.871 1023.15 L362.158 1023.15 L362.158 1031.08 L353.759 1031.08 L353.759 1023.15 L335.08 1023.15 L335.08 1012.28 Z" fill="#000000" fill-rule="evenodd" fill-opacity="1" /><path clip-path="url(#clip290)" d="M363.861 937.688 Q362.804 939.508 362.334 941.682 Q361.806 943.796 361.806 946.381 Q361.806 955.544 367.797 960.478 Q373.729 965.353 384.89 965.353 L419.545 965.353 L419.545 976.22 L353.759 976.22 L353.759 965.353 L363.979 965.353 Q357.988 961.946 355.11 956.484 Q352.173 951.021 352.173 943.209 Q352.173 942.093 352.349 940.742 Q352.466 939.391 352.76 937.746 L363.861 937.688 Z" fill="#000000" fill-rule="evenodd" fill-opacity="1" /><path clip-path="url(#clip290)" d="M353.759 926.351 L353.759 915.543 L419.545 915.543 L419.545 926.351 L353.759 926.351 M328.149 926.351 L328.149 915.543 L341.835 915.543 L341.835 926.351 L328.149 926.351 Z" fill="#000000" fill-rule="evenodd" fill-opacity="1" /><path clip-path="url(#clip290)" d="M356.284 845.586 L366.387 845.586 Q363.861 850.168 362.628 854.808 Q361.336 859.39 361.336 864.089 Q361.336 874.603 368.032 880.418 Q374.669 886.233 386.711 886.233 Q398.752 886.233 405.448 880.418 Q412.085 874.603 412.085 864.089 Q412.085 859.39 410.852 854.808 Q409.56 850.168 407.034 845.586 L417.019 845.586 Q419.134 850.109 420.191 854.984 Q421.249 859.801 421.249 865.263 Q421.249 880.124 411.909 888.876 Q402.57 897.628 386.711 897.628 Q370.616 897.628 361.394 888.817 Q352.173 879.948 352.173 864.559 Q352.173 859.566 353.23 854.808 Q354.228 850.05 356.284 845.586 Z" fill="#000000" fill-rule="evenodd" fill-opacity="1" /><path clip-path="url(#clip290)" d="M353.759 826.79 L353.759 815.982 L419.545 815.982 L419.545 826.79 L353.759 826.79 M328.149 826.79 L328.149 815.982 L341.835 815.982 L341.835 826.79 L328.149 826.79 Z" fill="#000000" fill-rule="evenodd" fill-opacity="1" /><path clip-path="url(#clip290)" d="M335.08 782.678 L353.759 782.678 L353.759 760.416 L362.158 760.416 L362.158 782.678 L397.871 782.678 Q405.918 782.678 408.209 780.504 Q410.5 778.272 410.5 771.517 L410.5 760.416 L419.545 760.416 L419.545 771.517 Q419.545 784.029 414.905 788.786 Q410.206 793.544 397.871 793.544 L362.158 793.544 L362.158 801.474 L353.759 801.474 L353.759 793.544 L335.08 793.544 L335.08 782.678 Z" fill="#000000" fill-rule="evenodd" fill-opacity="1" /><path clip-path="url(#clip290)" d="M425.654 718.829 Q437.402 723.411 440.985 727.758 Q444.568 732.104 444.568 739.388 L444.568 748.022 L435.522 748.022 L435.522 741.678 Q435.522 737.214 433.407 734.747 Q431.293 732.28 423.422 729.285 L418.488 727.346 L353.759 753.955 L353.759 742.501 L405.213 721.942 L353.759 701.384 L353.759 689.93 L425.654 718.829 Z" fill="#000000" fill-rule="evenodd" fill-opacity="1" /><path clip-path="url(#clip290)" d="M328.266 610.81 Q341.776 618.681 354.992 622.499 Q368.208 626.317 381.777 626.317 Q395.345 626.317 408.679 622.499 Q421.953 618.622 435.405 610.81 L435.405 620.208 Q421.601 629.019 408.268 633.424 Q394.934 637.771 381.777 637.771 Q368.678 637.771 355.403 633.424 Q342.128 629.078 328.266 620.208 L328.266 610.81 Z" fill="#000000" fill-rule="evenodd" fill-opacity="1" /><path clip-path="url(#clip290)" d="M331.849 589.371 L331.849 571.69 L391.527 549.311 L331.849 526.814 L331.849 509.134 L419.545 509.134 L419.545 520.706 L342.54 520.706 L402.687 543.32 L402.687 555.244 L342.54 577.858 L419.545 577.858 L419.545 589.371 L331.849 589.371 Z" fill="#000000" fill-rule="evenodd" fill-opacity="1" /><path clip-path="url(#clip290)" d="M331.849 493.392 L331.849 481.41 L405.977 462.966 L331.849 444.581 L331.849 431.248 L405.977 412.804 L331.849 394.419 L331.849 382.377 L419.545 404.404 L419.545 419.324 L343.421 437.826 L419.545 456.505 L419.545 471.424 L331.849 493.392 Z" fill="#000000" fill-rule="evenodd" fill-opacity="1" /><path clip-path="url(#clip290)" d="M328.266 368.809 L328.266 359.411 Q342.128 350.6 355.403 346.254 Q368.678 341.848 381.777 341.848 Q394.934 341.848 408.268 346.254 Q421.601 350.6 435.405 359.411 L435.405 368.809 Q421.953 360.997 408.679 357.179 Q395.345 353.302 381.777 353.302 Q368.208 353.302 354.992 357.179 Q341.776 360.997 328.266 368.809 Z" fill="#000000" fill-rule="evenodd" fill-opacity="1" /><path clip-path="url(#clip292)" d="
M792.99 2111.28 L874.818 2111.28 L956.646 2111.28 L1038.47 2128.24 L1120.3 2111.28 L1202.13 2111.28 L1283.96 2111.28 L1365.79 2111.28 L1447.61 2111.28 L1529.44 2111.28 
  L1611.27 2111.28 L1693.1 2111.28 L1774.93 2111.28 L1856.75 2111.28 L1938.58 2111.28 L2020.41 2111.28 L2102.24 2111.28 L2184.07 2111.28 L2265.89 2111.28 L2347.72 2111.28 
  L2429.55 2111.28 L2511.38 2111.28 L2593.21 2111.28 L2675.03 2111.28 L2675.03 2226.91 L2593.21 2226.91 L2511.38 2226.91 L2429.55 2226.91 L2347.72 2226.91 L2265.89 2226.91 
  L2184.07 2226.91 L2102.24 2226.91 L2020.41 2226.91 L1938.58 2226.91 L1856.75 2226.91 L1774.93 2226.91 L1693.1 2226.91 L1611.27 2226.91 L1529.44 2226.91 L1447.61 2226.91 
  L1365.79 2226.91 L1283.96 2226.91 L1202.13 2226.91 L1120.3 2226.91 L1038.47 2226.91 L956.646 2226.91 L874.818 2226.91 L792.99 2226.91  Z
  " fill="#88ccee" fill-rule="evenodd" fill-opacity="1"/>
<polyline clip-path="url(#clip292)" style="stroke:#88ccee; stroke-linecap:round; stroke-linejoin:round; stroke-width:5.8; stroke-opacity:1; fill:none" points="
  792.99,2111.28 874.818,2111.28 956.646,2111.28 1038.47,2128.24 1120.3,2111.28 1202.13,2111.28 1283.96,2111.28 1365.79,2111.28 1447.61,2111.28 1529.44,2111.28 
  1611.27,2111.28 1693.1,2111.28 1774.93,2111.28 1856.75,2111.28 1938.58,2111.28 2020.41,2111.28 2102.24,2111.28 2184.07,2111.28 2265.89,2111.28 2347.72,2111.28 
  2429.55,2111.28 2511.38,2111.28 2593.21,2111.28 2675.03,2111.28 
  "/>
<path clip-path="url(#clip292)" d="
M792.99 1957.11 L874.818 1957.11 L956.646 1957.11 L1038.47 1974.07 L1120.3 1957.11 L1202.13 1957.11 L1283.96 1957.11 L1365.79 1957.11 L1447.61 1957.11 L1529.44 1957.11 
  L1611.27 1957.11 L1693.1 1957.11 L1774.93 1957.11 L1856.75 1957.11 L1938.58 1957.11 L2020.41 1957.11 L2102.24 1957.11 L2184.07 1957.11 L2265.89 1957.11 L2347.72 1957.11 
  L2429.55 1957.11 L2511.38 1957.11 L2593.21 1957.11 L2675.03 1957.11 L2675.03 2111.28 L2593.21 2111.28 L2511.38 2111.28 L2429.55 2111.28 L2347.72 2111.28 L2265.89 2111.28 
  L2184.07 2111.28 L2102.24 2111.28 L2020.41 2111.28 L1938.58 2111.28 L1856.75 2111.28 L1774.93 2111.28 L1693.1 2111.28 L1611.27 2111.28 L1529.44 2111.28 L1447.61 2111.28 
  L1365.79 2111.28 L1283.96 2111.28 L1202.13 2111.28 L1120.3 2111.28 L1038.47 2128.24 L956.646 2111.28 L874.818 2111.28 L792.99 2111.28  Z
  " fill="#44aa99" fill-rule="evenodd" fill-opacity="1"/>
<polyline clip-path="url(#clip292)" style="stroke:#44aa99; stroke-linecap:round; stroke-linejoin:round; stroke-width:5.8; stroke-opacity:1; fill:none" points="
  792.99,1957.11 874.818,1957.11 956.646,1957.11 1038.47,1974.07 1120.3,1957.11 1202.13,1957.11 1283.96,1957.11 1365.79,1957.11 1447.61,1957.11 1529.44,1957.11 
  1611.27,1957.11 1693.1,1957.11 1774.93,1957.11 1856.75,1957.11 1938.58,1957.11 2020.41,1957.11 2102.24,1957.11 2184.07,1957.11 2265.89,1957.11 2347.72,1957.11 
  2429.55,1957.11 2511.38,1957.11 2593.21,1957.11 2675.03,1957.11 
  "/>
<path clip-path="url(#clip292)" d="
M792.99 1186.25 L874.818 1186.25 L956.646 1243.29 L1038.47 1295.71 L1120.3 1201.67 L1202.13 1186.25 L1283.96 1186.25 L1365.79 1186.25 L1447.61 1186.25 L1529.44 1186.25 
  L1611.27 1186.25 L1693.1 1186.25 L1774.93 1186.25 L1856.75 1186.25 L1938.58 1186.25 L2020.41 1186.25 L2102.24 1186.25 L2184.07 1186.25 L2265.89 1186.25 L2347.72 1186.25 
  L2429.55 1186.25 L2511.38 1186.25 L2593.21 1186.25 L2675.03 1186.25 L2675.03 1957.11 L2593.21 1957.11 L2511.38 1957.11 L2429.55 1957.11 L2347.72 1957.11 L2265.89 1957.11 
  L2184.07 1957.11 L2102.24 1957.11 L2020.41 1957.11 L1938.58 1957.11 L1856.75 1957.11 L1774.93 1957.11 L1693.1 1957.11 L1611.27 1957.11 L1529.44 1957.11 L1447.61 1957.11 
  L1365.79 1957.11 L1283.96 1957.11 L1202.13 1957.11 L1120.3 1957.11 L1038.47 1974.07 L956.646 1957.11 L874.818 1957.11 L792.99 1957.11  Z
  " fill="#117733" fill-rule="evenodd" fill-opacity="1"/>
<polyline clip-path="url(#clip292)" style="stroke:#117733; stroke-linecap:round; stroke-linejoin:round; stroke-width:5.8; stroke-opacity:1; fill:none" points="
  792.99,1186.25 874.818,1186.25 956.646,1243.29 1038.47,1295.71 1120.3,1201.67 1202.13,1186.25 1283.96,1186.25 1365.79,1186.25 1447.61,1186.25 1529.44,1186.25 
  1611.27,1186.25 1693.1,1186.25 1774.93,1186.25 1856.75,1186.25 1938.58,1186.25 2020.41,1186.25 2102.24,1186.25 2184.07,1186.25 2265.89,1186.25 2347.72,1186.25 
  2429.55,1186.25 2511.38,1186.25 2593.21,1186.25 2675.03,1186.25 
  "/>
<path clip-path="url(#clip292)" d="
M792.99 928.011 L874.818 1027.45 L956.646 1119.95 L1038.47 1172.37 L1120.3 1078.33 L1202.13 936.49 L1283.96 854.779 L1365.79 736.838 L1447.61 653.585 L1529.44 646.648 
  L1611.27 646.648 L1693.1 665.919 L1774.93 681.336 L1856.75 646.648 L1938.58 646.648 L2020.41 646.648 L2102.24 646.648 L2184.07 646.648 L2265.89 754.568 L2347.72 711.4 
  L2429.55 749.943 L2511.38 791.569 L2593.21 820.091 L2675.03 854.779 L2675.03 1186.25 L2593.21 1186.25 L2511.38 1186.25 L2429.55 1186.25 L2347.72 1186.25 L2265.89 1186.25 
  L2184.07 1186.25 L2102.24 1186.25 L2020.41 1186.25 L1938.58 1186.25 L1856.75 1186.25 L1774.93 1186.25 L1693.1 1186.25 L1611.27 1186.25 L1529.44 1186.25 L1447.61 1186.25 
  L1365.79 1186.25 L1283.96 1186.25 L1202.13 1186.25 L1120.3 1201.67 L1038.47 1295.71 L956.646 1243.29 L874.818 1186.25 L792.99 1186.25  Z
  " fill="#332288" fill-rule="evenodd" fill-opacity="1"/>
<polyline clip-path="url(#clip292)" style="stroke:#332288; stroke-linecap:round; stroke-linejoin:round; stroke-width:5.8; stroke-opacity:1; fill:none" points="
  792.99,928.011 874.818,1027.45 956.646,1119.95 1038.47,1172.37 1120.3,1078.33 1202.13,936.49 1283.96,854.779 1365.79,736.838 1447.61,653.585 1529.44,646.648 
  1611.27,646.648 1693.1,665.919 1774.93,681.336 1856.75,646.648 1938.58,646.648 2020.41,646.648 2102.24,646.648 2184.07,646.648 2265.89,754.568 2347.72,711.4 
  2429.55,749.943 2511.38,791.569 2593.21,820.091 2675.03,854.779 
  "/>
<path clip-path="url(#clip292)" d="
M792.99 897.177 L874.818 996.617 L956.646 1089.12 L1038.47 1141.54 L1120.3 1047.49 L1202.13 905.656 L1283.96 823.945 L1365.79 706.004 L1447.61 622.751 L1529.44 529.477 
  L1611.27 604.251 L1693.1 635.085 L1774.93 650.502 L1856.75 534.873 L1938.58 446.995 L2020.41 384.556 L2102.24 310.553 L2184.07 288.199 L2265.89 627.376 L2347.72 680.565 
  L2429.55 719.108 L2511.38 760.735 L2593.21 789.257 L2675.03 823.945 L2675.03 854.779 L2593.21 820.091 L2511.38 791.569 L2429.55 749.943 L2347.72 711.4 L2265.89 754.568 
  L2184.07 646.648 L2102.24 646.648 L2020.41 646.648 L1938.58 646.648 L1856.75 646.648 L1774.93 681.336 L1693.1 665.919 L1611.27 646.648 L1529.44 646.648 L1447.61 653.585 
  L1365.79 736.838 L1283.96 854.779 L1202.13 936.49 L1120.3 1078.33 L1038.47 1172.37 L956.646 1119.95 L874.818 1027.45 L792.99 928.011  Z
  " fill="#ddcc77" fill-rule="evenodd" fill-opacity="1"/>
<polyline clip-path="url(#clip292)" style="stroke:#ddcc77; stroke-linecap:round; stroke-linejoin:round; stroke-width:5.8; stroke-opacity:1; fill:none" points="
  792.99,897.177 874.818,996.617 956.646,1089.12 1038.47,1141.54 1120.3,1047.49 1202.13,905.656 1283.96,823.945 1365.79,706.004 1447.61,622.751 1529.44,529.477 
  1611.27,604.251 1693.1,635.085 1774.93,650.502 1856.75,534.873 1938.58,446.995 2020.41,384.556 2102.24,310.553 2184.07,288.199 2265.89,627.376 2347.72,680.565 
  2429.55,719.108 2511.38,760.735 2593.21,789.257 2675.03,823.945 
  "/>
<polyline clip-path="url(#clip292)" style="stroke:#ff0000; stroke-linecap:round; stroke-linejoin:round; stroke-width:29; stroke-opacity:1; fill:none" stroke-dasharray="116, 73" points="
  792.99,897.177 874.818,996.617 956.646,1089.12 1038.47,1141.54 1120.3,1047.49 1202.13,905.656 1283.96,823.945 1365.79,706.004 1447.61,622.751 1529.44,529.477 
  1611.27,604.251 1693.1,635.085 1774.93,650.502 1856.75,534.873 1938.58,446.995 2020.41,384.556 2102.24,310.553 2184.07,288.199 2265.89,627.376 2347.72,680.565 
  2429.55,719.108 2511.38,760.735 2593.21,789.257 2675.03,823.945 
  "/>
<path clip-path="url(#clip290)" d="
M803.027 798.171 L1364.91 798.171 L1364.91 140.451 L803.027 140.451  Z
  " fill="#ffffff" fill-rule="evenodd" fill-opacity="1"/>
<polyline clip-path="url(#clip290)" style="stroke:#000000; stroke-linecap:round; stroke-linejoin:round; stroke-width:5.8; stroke-opacity:1; fill:none" points="
  803.027,798.171 1364.91,798.171 1364.91,140.451 803.027,140.451 803.027,798.171 
  "/>
<path clip-path="url(#clip290)" d="
M825.193 271.995 L958.191 271.995 L958.191 196.827 L825.193 196.827 L825.193 271.995  Z
  " fill="#88ccee" fill-rule="evenodd" fill-opacity="1"/>
<polyline clip-path="url(#clip290)" style="stroke:#88ccee; stroke-linecap:round; stroke-linejoin:round; stroke-width:5.8; stroke-opacity:1; fill:none" points="
  825.193,196.827 958.191,196.827 
  "/>
<path clip-path="url(#clip290)" d="M1019.71 237.369 L1019.71 265.731 L1011.99 265.731 L1011.99 237.62 Q1011.99 230.949 1009.39 227.635 Q1006.79 224.32 1001.59 224.32 Q995.336 224.32 991.728 228.306 Q988.119 232.292 988.119 239.173 L988.119 265.731 L980.358 265.731 L980.358 200.448 L988.119 200.448 L988.119 226.041 Q990.889 221.803 994.623 219.705 Q998.399 217.607 1003.31 217.607 Q1011.4 217.607 1015.56 222.642 Q1019.71 227.635 1019.71 237.369 Z" fill="#000000" fill-rule="evenodd" fill-opacity="1" /><path clip-path="url(#clip290)" d="M1054.66 270.094 Q1051.39 278.485 1048.28 281.045 Q1045.18 283.604 1039.98 283.604 L1033.81 283.604 L1033.81 277.143 L1038.34 277.143 Q1041.53 277.143 1043.29 275.632 Q1045.05 274.122 1047.19 268.5 L1048.58 264.976 L1029.57 218.74 L1037.75 218.74 L1052.44 255.494 L1067.12 218.74 L1075.3 218.74 L1054.66 270.094 Z" fill="#000000" fill-rule="evenodd" fill-opacity="1" /><path clip-path="url(#clip290)" d="M1116.88 225.873 L1116.88 200.448 L1124.6 200.448 L1124.6 265.731 L1116.88 265.731 L1116.88 258.682 Q1114.45 262.878 1110.71 264.934 Q1107.02 266.947 1101.82 266.947 Q1093.3 266.947 1087.93 260.151 Q1082.6 253.354 1082.6 242.277 Q1082.6 231.201 1087.93 224.404 Q1093.3 217.607 1101.82 217.607 Q1107.02 217.607 1110.71 219.663 Q1114.45 221.677 1116.88 225.873 M1090.58 242.277 Q1090.58 250.794 1094.06 255.661 Q1097.58 260.486 1103.71 260.486 Q1109.83 260.486 1113.36 255.661 Q1116.88 250.794 1116.88 242.277 Q1116.88 233.76 1113.36 228.935 Q1109.83 224.069 1103.71 224.069 Q1097.58 224.069 1094.06 228.935 Q1090.58 233.76 1090.58 242.277 Z" fill="#000000" fill-rule="evenodd" fill-opacity="1" /><path clip-path="url(#clip290)" d="M1167.73 225.957 Q1166.43 225.201 1164.88 224.866 Q1163.37 224.488 1161.52 224.488 Q1154.98 224.488 1151.45 228.768 Q1147.97 233.005 1147.97 240.977 L1147.97 265.731 L1140.21 265.731 L1140.21 218.74 L1147.97 218.74 L1147.97 226.041 Q1150.4 221.761 1154.31 219.705 Q1158.21 217.607 1163.79 217.607 Q1164.59 217.607 1165.55 217.733 Q1166.52 217.817 1167.69 218.027 L1167.73 225.957 Z" fill="#000000" fill-rule="evenodd" fill-opacity="1" /><path clip-path="url(#clip290)" d="M1192.15 224.153 Q1185.94 224.153 1182.33 229.019 Q1178.72 233.844 1178.72 242.277 Q1178.72 250.711 1182.29 255.577 Q1185.9 260.402 1192.15 260.402 Q1198.32 260.402 1201.93 255.535 Q1205.53 250.669 1205.53 242.277 Q1205.53 233.928 1201.93 229.061 Q1198.32 224.153 1192.15 224.153 M1192.15 217.607 Q1202.22 217.607 1207.97 224.153 Q1213.72 230.698 1213.72 242.277 Q1213.72 253.815 1207.97 260.402 Q1202.22 266.947 1192.15 266.947 Q1182.04 266.947 1176.29 260.402 Q1170.59 253.815 1170.59 242.277 Q1170.59 230.698 1176.29 224.153 Q1182.04 217.607 1192.15 217.607 Z" fill="#000000" fill-rule="evenodd" fill-opacity="1" /><path clip-path="url(#clip290)" d="
M825.193 365.955 L958.191 365.955 L958.191 290.787 L825.193 290.787 L825.193 365.955  Z
  " fill="#44aa99" fill-rule="evenodd" fill-opacity="1"/>
<polyline clip-path="url(#clip290)" style="stroke:#44aa99; stroke-linecap:round; stroke-linejoin:round; stroke-width:5.8; stroke-opacity:1; fill:none" points="
  825.193,290.787 958.191,290.787 
  "/>
<path clip-path="url(#clip290)" d="M980.358 312.7 L988.078 312.7 L997.727 349.37 L1007.34 312.7 L1016.44 312.7 L1026.09 349.37 L1035.7 312.7 L1043.42 312.7 L1031.12 359.691 L1022.02 359.691 L1011.91 321.175 L1001.76 359.691 L992.651 359.691 L980.358 312.7 Z" fill="#000000" fill-rule="evenodd" fill-opacity="1" /><path clip-path="url(#clip290)" d="M1055.12 312.7 L1062.84 312.7 L1062.84 359.691 L1055.12 359.691 L1055.12 312.7 M1055.12 294.408 L1062.84 294.408 L1062.84 304.183 L1055.12 304.183 L1055.12 294.408 Z" fill="#000000" fill-rule="evenodd" fill-opacity="1" /><path clip-path="url(#clip290)" d="M1118.06 331.329 L1118.06 359.691 L1110.34 359.691 L1110.34 331.58 Q1110.34 324.909 1107.74 321.595 Q1105.13 318.28 1099.93 318.28 Q1093.68 318.28 1090.07 322.266 Q1086.46 326.252 1086.46 333.133 L1086.46 359.691 L1078.7 359.691 L1078.7 312.7 L1086.46 312.7 L1086.46 320.001 Q1089.23 315.763 1092.97 313.665 Q1096.74 311.567 1101.65 311.567 Q1109.75 311.567 1113.9 316.602 Q1118.06 321.595 1118.06 331.329 Z" fill="#000000" fill-rule="evenodd" fill-opacity="1" /><path clip-path="url(#clip290)" d="M1164.38 319.833 L1164.38 294.408 L1172.1 294.408 L1172.1 359.691 L1164.38 359.691 L1164.38 352.642 Q1161.94 356.838 1158.21 358.894 Q1154.52 360.907 1149.31 360.907 Q1140.8 360.907 1135.43 354.111 Q1130.1 347.314 1130.1 336.237 Q1130.1 325.161 1135.43 318.364 Q1140.8 311.567 1149.31 311.567 Q1154.52 311.567 1158.21 313.623 Q1161.94 315.637 1164.38 319.833 M1138.07 336.237 Q1138.07 344.754 1141.55 349.621 Q1145.08 354.446 1151.2 354.446 Q1157.33 354.446 1160.85 349.621 Q1164.38 344.754 1164.38 336.237 Q1164.38 327.72 1160.85 322.895 Q1157.33 318.029 1151.2 318.029 Q1145.08 318.029 1141.55 322.895 Q1138.07 327.72 1138.07 336.237 Z" fill="#000000" fill-rule="evenodd" fill-opacity="1" /><path clip-path="url(#clip290)" d="
M825.193 459.915 L958.191 459.915 L958.191 384.747 L825.193 384.747 L825.193 459.915  Z
  " fill="#117733" fill-rule="evenodd" fill-opacity="1"/>
<polyline clip-path="url(#clip290)" style="stroke:#117733; stroke-linecap:round; stroke-linejoin:round; stroke-width:5.8; stroke-opacity:1; fill:none" points="
  825.193,384.747 958.191,384.747 
  "/>
<path clip-path="url(#clip290)" d="M1019.71 425.289 L1019.71 453.651 L1011.99 453.651 L1011.99 425.54 Q1011.99 418.869 1009.39 415.555 Q1006.79 412.24 1001.59 412.24 Q995.336 412.24 991.728 416.226 Q988.119 420.212 988.119 427.093 L988.119 453.651 L980.358 453.651 L980.358 406.66 L988.119 406.66 L988.119 413.961 Q990.889 409.723 994.623 407.625 Q998.399 405.527 1003.31 405.527 Q1011.4 405.527 1015.56 410.562 Q1019.71 415.555 1019.71 425.289 Z" fill="#000000" fill-rule="evenodd" fill-opacity="1" /><path clip-path="url(#clip290)" d="M1034.31 435.106 L1034.31 406.66 L1042.03 406.66 L1042.03 434.813 Q1042.03 441.484 1044.63 444.84 Q1047.24 448.155 1052.44 448.155 Q1058.69 448.155 1062.3 444.169 Q1065.95 440.183 1065.95 433.302 L1065.95 406.66 L1073.67 406.66 L1073.67 453.651 L1065.95 453.651 L1065.95 446.434 Q1063.14 450.714 1059.4 452.812 Q1055.71 454.867 1050.8 454.867 Q1042.7 454.867 1038.51 449.833 Q1034.31 444.798 1034.31 435.106 M1053.74 405.527 L1053.74 405.527 Z" fill="#000000" fill-rule="evenodd" fill-opacity="1" /><path clip-path="url(#clip290)" d="M1123.38 408.464 L1123.38 415.681 Q1120.11 413.877 1116.8 412.996 Q1113.53 412.073 1110.17 412.073 Q1102.66 412.073 1098.51 416.855 Q1094.35 421.596 1094.35 430.197 Q1094.35 438.798 1098.51 443.581 Q1102.66 448.322 1110.17 448.322 Q1113.53 448.322 1116.8 447.441 Q1120.11 446.518 1123.38 444.714 L1123.38 451.847 Q1120.15 453.357 1116.67 454.112 Q1113.23 454.867 1109.33 454.867 Q1098.71 454.867 1092.46 448.196 Q1086.21 441.525 1086.21 430.197 Q1086.21 418.702 1092.51 412.114 Q1098.84 405.527 1109.83 405.527 Q1113.4 405.527 1116.8 406.283 Q1120.2 406.996 1123.38 408.464 Z" fill="#000000" fill-rule="evenodd" fill-opacity="1" /><path clip-path="url(#clip290)" d="M1136.81 388.368 L1144.53 388.368 L1144.53 453.651 L1136.81 453.651 L1136.81 388.368 Z" fill="#000000" fill-rule="evenodd" fill-opacity="1" /><path clip-path="url(#clip290)" d="M1200.88 428.226 L1200.88 432.002 L1165.38 432.002 Q1165.89 439.973 1170.17 444.169 Q1174.49 448.322 1182.17 448.322 Q1186.61 448.322 1190.77 447.231 Q1194.96 446.141 1199.07 443.959 L1199.07 451.259 Q1194.92 453.021 1190.56 453.944 Q1186.19 454.867 1181.7 454.867 Q1170.46 454.867 1163.87 448.322 Q1157.33 441.777 1157.33 430.617 Q1157.33 419.079 1163.54 412.324 Q1169.79 405.527 1180.36 405.527 Q1189.84 405.527 1195.34 411.653 Q1200.88 417.737 1200.88 428.226 M1193.16 425.96 Q1193.07 419.625 1189.59 415.849 Q1186.15 412.073 1180.44 412.073 Q1173.98 412.073 1170.08 415.723 Q1166.22 419.373 1165.63 426.002 L1193.16 425.96 Z" fill="#000000" fill-rule="evenodd" fill-opacity="1" /><path clip-path="url(#clip290)" d="M1234.9 430.03 Q1225.55 430.03 1221.94 432.169 Q1218.33 434.309 1218.33 439.47 Q1218.33 443.581 1221.02 446.015 Q1223.74 448.406 1228.4 448.406 Q1234.82 448.406 1238.68 443.875 Q1242.58 439.302 1242.58 431.75 L1242.58 430.03 L1234.9 430.03 M1250.3 426.841 L1250.3 453.651 L1242.58 453.651 L1242.58 446.518 Q1239.94 450.798 1235.99 452.854 Q1232.05 454.867 1226.34 454.867 Q1219.13 454.867 1214.85 450.84 Q1210.61 446.77 1210.61 439.973 Q1210.61 432.043 1215.9 428.016 Q1221.23 423.988 1231.76 423.988 L1242.58 423.988 L1242.58 423.233 Q1242.58 417.904 1239.06 415.009 Q1235.57 412.073 1229.24 412.073 Q1225.21 412.073 1221.39 413.038 Q1217.58 414.002 1214.05 415.932 L1214.05 408.8 Q1218.29 407.164 1222.27 406.367 Q1226.26 405.527 1230.04 405.527 Q1240.23 405.527 1245.27 410.814 Q1250.3 416.1 1250.3 426.841 Z" fill="#000000" fill-rule="evenodd" fill-opacity="1" /><path clip-path="url(#clip290)" d="M1293.43 413.877 Q1292.13 413.121 1290.58 412.786 Q1289.07 412.408 1287.22 412.408 Q1280.68 412.408 1277.15 416.688 Q1273.67 420.925 1273.67 428.897 L1273.67 453.651 L1265.91 453.651 L1265.91 406.66 L1273.67 406.66 L1273.67 413.961 Q1276.1 409.681 1280.01 407.625 Q1283.91 405.527 1289.49 405.527 Q1290.29 405.527 1291.25 405.653 Q1292.22 405.737 1293.39 405.947 L1293.43 413.877 Z" fill="#000000" fill-rule="evenodd" fill-opacity="1" /><path clip-path="url(#clip290)" d="
M825.193 553.875 L958.191 553.875 L958.191 478.707 L825.193 478.707 L825.193 553.875  Z
  " fill="#332288" fill-rule="evenodd" fill-opacity="1"/>
<polyline clip-path="url(#clip290)" style="stroke:#332288; stroke-linecap:round; stroke-linejoin:round; stroke-width:5.8; stroke-opacity:1; fill:none" points="
  825.193,478.707 958.191,478.707 
  "/>
<path clip-path="url(#clip290)" d="M1017.53 502.424 L1017.53 509.641 Q1014.26 507.837 1010.94 506.956 Q1007.67 506.033 1004.31 506.033 Q996.804 506.033 992.651 510.815 Q988.497 515.556 988.497 524.157 Q988.497 532.758 992.651 537.541 Q996.804 542.282 1004.31 542.282 Q1007.67 542.282 1010.94 541.401 Q1014.26 540.478 1017.53 538.674 L1017.53 545.807 Q1014.3 547.317 1010.82 548.072 Q1007.38 548.827 1003.48 548.827 Q992.86 548.827 986.609 542.156 Q980.358 535.485 980.358 524.157 Q980.358 512.662 986.651 506.074 Q992.986 499.487 1003.98 499.487 Q1007.55 499.487 1010.94 500.243 Q1014.34 500.956 1017.53 502.424 Z" fill="#000000" fill-rule="evenodd" fill-opacity="1" /><path clip-path="url(#clip290)" d="M1049.17 506.033 Q1042.96 506.033 1039.35 510.899 Q1035.74 515.724 1035.74 524.157 Q1035.74 532.591 1039.31 537.457 Q1042.91 542.282 1049.17 542.282 Q1055.33 542.282 1058.94 537.415 Q1062.55 532.549 1062.55 524.157 Q1062.55 515.808 1058.94 510.941 Q1055.33 506.033 1049.17 506.033 M1049.17 499.487 Q1059.23 499.487 1064.98 506.033 Q1070.73 512.578 1070.73 524.157 Q1070.73 535.695 1064.98 542.282 Q1059.23 548.827 1049.17 548.827 Q1039.05 548.827 1033.31 542.282 Q1027.6 535.695 1027.6 524.157 Q1027.6 512.578 1033.31 506.033 Q1039.05 499.487 1049.17 499.487 Z" fill="#000000" fill-rule="evenodd" fill-opacity="1" /><path clip-path="url(#clip290)" d="M1104.88 523.99 Q1095.53 523.99 1091.92 526.129 Q1088.31 528.269 1088.31 533.43 Q1088.31 537.541 1091 539.975 Q1093.72 542.366 1098.38 542.366 Q1104.8 542.366 1108.66 537.835 Q1112.56 533.262 1112.56 525.71 L1112.56 523.99 L1104.88 523.99 M1120.28 520.801 L1120.28 547.611 L1112.56 547.611 L1112.56 540.478 Q1109.92 544.758 1105.97 546.814 Q1102.03 548.827 1096.32 548.827 Q1089.11 548.827 1084.83 544.8 Q1080.59 540.73 1080.59 533.933 Q1080.59 526.003 1085.88 521.976 Q1091.2 517.948 1101.74 517.948 L1112.56 517.948 L1112.56 517.193 Q1112.56 511.864 1109.04 508.969 Q1105.55 506.033 1099.22 506.033 Q1095.19 506.033 1091.37 506.998 Q1087.55 507.962 1084.03 509.892 L1084.03 502.76 Q1088.27 501.124 1092.25 500.327 Q1096.24 499.487 1100.02 499.487 Q1110.21 499.487 1115.25 504.774 Q1120.28 510.06 1120.28 520.801 Z" fill="#000000" fill-rule="evenodd" fill-opacity="1" /><path clip-path="url(#clip290)" d="M1136.18 482.328 L1143.9 482.328 L1143.9 547.611 L1136.18 547.611 L1136.18 482.328 Z" fill="#000000" fill-rule="evenodd" fill-opacity="1" /><path clip-path="url(#clip290)" d="
M825.193 647.835 L958.191 647.835 L958.191 572.667 L825.193 572.667 L825.193 647.835  Z
  " fill="#ddcc77" fill-rule="evenodd" fill-opacity="1"/>
<polyline clip-path="url(#clip290)" style="stroke:#ddcc77; stroke-linecap:round; stroke-linejoin:round; stroke-width:5.8; stroke-opacity:1; fill:none" points="
  825.193,572.667 958.191,572.667 
  "/>
<path clip-path="url(#clip290)" d="M1019.71 613.209 L1019.71 641.571 L1011.99 641.571 L1011.99 613.46 Q1011.99 606.789 1009.39 603.475 Q1006.79 600.16 1001.59 600.16 Q995.336 600.16 991.728 604.146 Q988.119 608.132 988.119 615.013 L988.119 641.571 L980.358 641.571 L980.358 594.58 L988.119 594.58 L988.119 601.881 Q990.889 597.643 994.623 595.545 Q998.399 593.447 1003.31 593.447 Q1011.4 593.447 1015.56 598.482 Q1019.71 603.475 1019.71 613.209 Z" fill="#000000" fill-rule="evenodd" fill-opacity="1" /><path clip-path="url(#clip290)" d="M1056.47 617.95 Q1047.11 617.95 1043.5 620.089 Q1039.89 622.229 1039.89 627.39 Q1039.89 631.501 1042.58 633.935 Q1045.31 636.326 1049.96 636.326 Q1056.38 636.326 1060.24 631.795 Q1064.14 627.222 1064.14 619.67 L1064.14 617.95 L1056.47 617.95 M1071.86 614.761 L1071.86 641.571 L1064.14 641.571 L1064.14 634.438 Q1061.5 638.718 1057.56 640.774 Q1053.61 642.787 1047.91 642.787 Q1040.69 642.787 1036.41 638.76 Q1032.17 634.69 1032.17 627.893 Q1032.17 619.963 1037.46 615.936 Q1042.79 611.908 1053.32 611.908 L1064.14 611.908 L1064.14 611.153 Q1064.14 605.824 1060.62 602.929 Q1057.14 599.993 1050.8 599.993 Q1046.77 599.993 1042.96 600.958 Q1039.14 601.922 1035.61 603.852 L1035.61 596.72 Q1039.85 595.084 1043.84 594.287 Q1047.82 593.447 1051.6 593.447 Q1061.79 593.447 1066.83 598.734 Q1071.86 604.02 1071.86 614.761 Z" fill="#000000" fill-rule="evenodd" fill-opacity="1" /><path clip-path="url(#clip290)" d="M1095.4 581.238 L1095.4 594.58 L1111.3 594.58 L1111.3 600.58 L1095.4 600.58 L1095.4 626.089 Q1095.4 631.837 1096.95 633.473 Q1098.55 635.11 1103.37 635.11 L1111.3 635.11 L1111.3 641.571 L1103.37 641.571 Q1094.44 641.571 1091.04 638.256 Q1087.64 634.9 1087.64 626.089 L1087.64 600.58 L1081.97 600.58 L1081.97 594.58 L1087.64 594.58 L1087.64 581.238 L1095.4 581.238 Z" fill="#000000" fill-rule="evenodd" fill-opacity="1" /><path clip-path="url(#clip290)" d="M1152.38 617.53 Q1152.38 609.139 1148.89 604.524 Q1145.45 599.909 1139.2 599.909 Q1132.99 599.909 1129.51 604.524 Q1126.07 609.139 1126.07 617.53 Q1126.07 625.879 1129.51 630.494 Q1132.99 635.11 1139.2 635.11 Q1145.45 635.11 1148.89 630.494 Q1152.38 625.879 1152.38 617.53 M1160.1 635.739 Q1160.1 647.738 1154.77 653.57 Q1149.44 659.444 1138.45 659.444 Q1134.38 659.444 1130.77 658.815 Q1127.16 658.227 1123.76 656.968 L1123.76 649.458 Q1127.16 651.304 1130.48 652.186 Q1133.79 653.067 1137.23 653.067 Q1144.82 653.067 1148.6 649.081 Q1152.38 645.137 1152.38 637.123 L1152.38 633.305 Q1149.98 637.459 1146.25 639.515 Q1142.52 641.571 1137.31 641.571 Q1128.67 641.571 1123.38 634.984 Q1118.1 628.397 1118.1 617.53 Q1118.1 606.622 1123.38 600.034 Q1128.67 593.447 1137.31 593.447 Q1142.52 593.447 1146.25 595.503 Q1149.98 597.559 1152.38 601.713 L1152.38 594.58 L1160.1 594.58 L1160.1 635.739 Z" fill="#000000" fill-rule="evenodd" fill-opacity="1" /><path clip-path="url(#clip290)" d="M1197.35 617.95 Q1188 617.95 1184.39 620.089 Q1180.78 622.229 1180.78 627.39 Q1180.78 631.501 1183.47 633.935 Q1186.19 636.326 1190.85 636.326 Q1197.27 636.326 1201.13 631.795 Q1205.03 627.222 1205.03 619.67 L1205.03 617.95 L1197.35 617.95 M1212.75 614.761 L1212.75 641.571 L1205.03 641.571 L1205.03 634.438 Q1202.39 638.718 1198.44 640.774 Q1194.5 642.787 1188.79 642.787 Q1181.58 642.787 1177.3 638.76 Q1173.06 634.69 1173.06 627.893 Q1173.06 619.963 1178.35 615.936 Q1183.68 611.908 1194.21 611.908 L1205.03 611.908 L1205.03 611.153 Q1205.03 605.824 1201.51 602.929 Q1198.02 599.993 1191.69 599.993 Q1187.66 599.993 1183.84 600.958 Q1180.03 601.922 1176.5 603.852 L1176.5 596.72 Q1180.74 595.084 1184.72 594.287 Q1188.71 593.447 1192.49 593.447 Q1202.68 593.447 1207.72 598.734 Q1212.75 604.02 1212.75 614.761 Z" fill="#000000" fill-rule="evenodd" fill-opacity="1" /><path clip-path="url(#clip290)" d="M1258.61 595.965 L1258.61 603.265 Q1255.34 601.587 1251.81 600.748 Q1248.29 599.909 1244.51 599.909 Q1238.76 599.909 1235.87 601.671 Q1233.02 603.433 1233.02 606.957 Q1233.02 609.642 1235.07 611.195 Q1237.13 612.705 1243.34 614.09 L1245.98 614.677 Q1254.2 616.439 1257.64 619.67 Q1261.13 622.858 1261.13 628.606 Q1261.13 635.151 1255.92 638.969 Q1250.76 642.787 1241.7 642.787 Q1237.92 642.787 1233.81 642.032 Q1229.74 641.319 1225.21 639.851 L1225.21 631.879 Q1229.49 634.103 1233.64 635.235 Q1237.8 636.326 1241.87 636.326 Q1247.32 636.326 1250.26 634.48 Q1253.2 632.592 1253.2 629.194 Q1253.2 626.047 1251.06 624.369 Q1248.96 622.691 1241.78 621.138 L1239.1 620.509 Q1231.92 618.999 1228.74 615.894 Q1225.55 612.747 1225.55 607.293 Q1225.55 600.664 1230.25 597.056 Q1234.95 593.447 1243.59 593.447 Q1247.87 593.447 1251.64 594.077 Q1255.42 594.706 1258.61 595.965 Z" fill="#000000" fill-rule="evenodd" fill-opacity="1" /><polyline clip-path="url(#clip290)" style="stroke:#ff0000; stroke-linecap:round; stroke-linejoin:round; stroke-width:7.25; stroke-opacity:1; fill:none" stroke-dasharray="29, 18" points="
  825.193,704.211 958.191,704.211 
  "/>
<path clip-path="url(#clip290)" d="M1014.64 695.673 L1014.64 670.248 L1022.36 670.248 L1022.36 735.531 L1014.64 735.531 L1014.64 728.482 Q1012.2 732.678 1008.47 734.734 Q1004.78 736.747 999.573 736.747 Q991.056 736.747 985.686 729.951 Q980.358 723.154 980.358 712.077 Q980.358 701.001 985.686 694.204 Q991.056 687.407 999.573 687.407 Q1004.78 687.407 1008.47 689.463 Q1012.2 691.477 1014.64 695.673 M988.329 712.077 Q988.329 720.594 991.812 725.461 Q995.336 730.286 1001.46 730.286 Q1007.59 730.286 1011.11 725.461 Q1014.64 720.594 1014.64 712.077 Q1014.64 703.56 1011.11 698.735 Q1007.59 693.869 1001.46 693.869 Q995.336 693.869 991.812 698.735 Q988.329 703.56 988.329 712.077 Z" fill="#000000" fill-rule="evenodd" fill-opacity="1" /><path clip-path="url(#clip290)" d="M1078.45 710.106 L1078.45 713.882 L1042.96 713.882 Q1043.46 721.853 1047.74 726.049 Q1052.06 730.202 1059.74 730.202 Q1064.19 730.202 1068.34 729.111 Q1072.53 728.021 1076.65 725.839 L1076.65 733.139 Q1072.49 734.901 1068.13 735.824 Q1063.77 736.747 1059.28 736.747 Q1048.03 736.747 1041.45 730.202 Q1034.9 723.657 1034.9 712.497 Q1034.9 700.959 1041.11 694.204 Q1047.36 687.407 1057.93 687.407 Q1067.42 687.407 1072.91 693.533 Q1078.45 699.617 1078.45 710.106 M1070.73 707.84 Q1070.65 701.505 1067.16 697.729 Q1063.72 693.953 1058.02 693.953 Q1051.56 693.953 1047.65 697.603 Q1043.79 701.253 1043.21 707.882 L1070.73 707.84 Z" fill="#000000" fill-rule="evenodd" fill-opacity="1" /><path clip-path="url(#clip290)" d="M1127.71 697.561 Q1130.6 692.358 1134.63 689.883 Q1138.66 687.407 1144.11 687.407 Q1151.45 687.407 1155.44 692.568 Q1159.42 697.687 1159.42 707.169 L1159.42 735.531 L1151.66 735.531 L1151.66 707.42 Q1151.66 700.665 1149.27 697.393 Q1146.88 694.12 1141.97 694.12 Q1135.97 694.12 1132.49 698.106 Q1129.01 702.092 1129.01 708.973 L1129.01 735.531 L1121.25 735.531 L1121.25 707.42 Q1121.25 700.623 1118.85 697.393 Q1116.46 694.12 1111.47 694.12 Q1105.55 694.12 1102.07 698.148 Q1098.59 702.134 1098.59 708.973 L1098.59 735.531 L1090.83 735.531 L1090.83 688.54 L1098.59 688.54 L1098.59 695.841 Q1101.23 691.519 1104.92 689.463 Q1108.62 687.407 1113.69 687.407 Q1118.81 687.407 1122.38 690.009 Q1125.99 692.61 1127.71 697.561 Z" fill="#000000" fill-rule="evenodd" fill-opacity="1" /><path clip-path="url(#clip290)" d="M1196.18 711.91 Q1186.82 711.91 1183.21 714.049 Q1179.61 716.189 1179.61 721.35 Q1179.61 725.461 1182.29 727.895 Q1185.02 730.286 1189.68 730.286 Q1196.09 730.286 1199.95 725.755 Q1203.86 721.182 1203.86 713.63 L1203.86 711.91 L1196.18 711.91 M1211.58 708.721 L1211.58 735.531 L1203.86 735.531 L1203.86 728.398 Q1201.21 732.678 1197.27 734.734 Q1193.33 736.747 1187.62 736.747 Q1180.4 736.747 1176.12 732.72 Q1171.89 728.65 1171.89 721.853 Q1171.89 713.923 1177.17 709.896 Q1182.5 705.868 1193.03 705.868 L1203.86 705.868 L1203.86 705.113 Q1203.86 699.784 1200.33 696.889 Q1196.85 693.953 1190.51 693.953 Q1186.49 693.953 1182.67 694.918 Q1178.85 695.882 1175.33 697.812 L1175.33 690.68 Q1179.56 689.044 1183.55 688.247 Q1187.54 687.407 1191.31 687.407 Q1201.51 687.407 1206.54 692.694 Q1211.58 697.98 1211.58 708.721 Z" fill="#000000" fill-rule="evenodd" fill-opacity="1" /><path clip-path="url(#clip290)" d="M1266.54 707.169 L1266.54 735.531 L1258.82 735.531 L1258.82 707.42 Q1258.82 700.749 1256.22 697.435 Q1253.62 694.12 1248.41 694.12 Q1242.16 694.12 1238.55 698.106 Q1234.95 702.092 1234.95 708.973 L1234.95 735.531 L1227.18 735.531 L1227.18 688.54 L1234.95 688.54 L1234.95 695.841 Q1237.71 691.603 1241.45 689.505 Q1245.22 687.407 1250.13 687.407 Q1258.23 687.407 1262.38 692.442 Q1266.54 697.435 1266.54 707.169 Z" fill="#000000" fill-rule="evenodd" fill-opacity="1" /><path clip-path="url(#clip290)" d="M1312.86 695.673 L1312.86 670.248 L1320.58 670.248 L1320.58 735.531 L1312.86 735.531 L1312.86 728.482 Q1310.42 732.678 1306.69 734.734 Q1303 736.747 1297.8 736.747 Q1289.28 736.747 1283.91 729.951 Q1278.58 723.154 1278.58 712.077 Q1278.58 701.001 1283.91 694.204 Q1289.28 687.407 1297.8 687.407 Q1303 687.407 1306.69 689.463 Q1310.42 691.477 1312.86 695.673 M1286.55 712.077 Q1286.55 720.594 1290.03 725.461 Q1293.56 730.286 1299.68 730.286 Q1305.81 730.286 1309.33 725.461 Q1312.86 720.594 1312.86 712.077 Q1312.86 703.56 1309.33 698.735 Q1305.81 693.869 1299.68 693.869 Q1293.56 693.869 1290.03 698.735 Q1286.55 703.56 1286.55 712.077 Z" fill="#000000" fill-rule="evenodd" fill-opacity="1" /></svg>
