<?xml version="1.0" encoding="utf-8"?>
<svg xmlns="http://www.w3.org/2000/svg" xmlns:xlink="http://www.w3.org/1999/xlink" width="700" height="400" viewBox="0 0 2800 1600">
<defs>
  <clipPath id="clip230">
    <rect x="0" y="0" width="2800" height="1600"/>
  </clipPath>
</defs>
<path clip-path="url(#clip230)" d="
M0 1600 L2800 1600 L2800 0 L0 0  Z
  " fill="#ffffff" fill-rule="evenodd" fill-opacity="1"/>
<defs>
  <clipPath id="clip231">
    <rect x="560" y="0" width="1961" height="1600"/>
  </clipPath>
</defs>
<path clip-path="url(#clip230)" d="
M367.442 1274.66 L2752.76 1274.66 L2752.76 129.644 L367.442 129.644  Z
  " fill="#ffffff" fill-rule="evenodd" fill-opacity="1"/>
<defs>
  <clipPath id="clip232">
    <rect x="367" y="129" width="2386" height="1146"/>
  </clipPath>
</defs>
<polyline clip-path="url(#clip230)" style="stroke:#000000; stroke-linecap:round; stroke-linejoin:round; stroke-width:4; stroke-opacity:1; fill:none" points="
  367.442,1274.66 2752.76,1274.66 
  "/>
<polyline clip-path="url(#clip230)" style="stroke:#000000; stroke-linecap:round; stroke-linejoin:round; stroke-width:4; stroke-opacity:1; fill:none" points="
  434.951,1274.66 434.951,1255.76 
  "/>
<polyline clip-path="url(#clip230)" style="stroke:#000000; stroke-linecap:round; stroke-linejoin:round; stroke-width:4; stroke-opacity:1; fill:none" points="
  876.185,1274.66 876.185,1255.76 
  "/>
<polyline clip-path="url(#clip230)" style="stroke:#000000; stroke-linecap:round; stroke-linejoin:round; stroke-width:4; stroke-opacity:1; fill:none" points="
  1317.42,1274.66 1317.42,1255.76 
  "/>
<polyline clip-path="url(#clip230)" style="stroke:#000000; stroke-linecap:round; stroke-linejoin:round; stroke-width:4; stroke-opacity:1; fill:none" points="
  1758.65,1274.66 1758.65,1255.76 
  "/>
<polyline clip-path="url(#clip230)" style="stroke:#000000; stroke-linecap:round; stroke-linejoin:round; stroke-width:4; stroke-opacity:1; fill:none" points="
  2199.89,1274.66 2199.89,1255.76 
  "/>
<polyline clip-path="url(#clip230)" style="stroke:#000000; stroke-linecap:round; stroke-linejoin:round; stroke-width:4; stroke-opacity:1; fill:none" points="
  2641.12,1274.66 2641.12,1255.76 
  "/>
<path clip-path="url(#clip230)" d="M434.951 1311.71 Q430.437 1311.71 428.151 1316.16 Q425.894 1320.59 425.894 1329.5 Q425.894 1338.39 428.151 1342.84 Q430.437 1347.27 434.951 1347.27 Q439.493 1347.27 441.75 1342.84 Q444.036 1338.39 444.036 1329.5 Q444.036 1320.59 441.75 1316.16 Q439.493 1311.71 434.951 1311.71 M434.951 1307.08 Q442.213 1307.08 446.033 1312.84 Q449.881 1318.56 449.881 1329.5 Q449.881 1340.41 446.033 1346.17 Q442.213 1351.9 434.951 1351.9 Q427.688 1351.9 423.84 1346.17 Q420.02 1340.41 420.02 1329.5 Q420.02 1318.56 423.84 1312.84 Q427.688 1307.08 434.951 1307.08 Z" fill="#000000" fill-rule="evenodd" fill-opacity="1" /><path clip-path="url(#clip230)" d="M825.708 1307.86 L848.654 1307.86 L848.654 1312.78 L831.061 1312.78 L831.061 1323.37 Q832.334 1322.93 833.607 1322.73 Q834.88 1322.5 836.154 1322.5 Q843.387 1322.5 847.612 1326.46 Q851.836 1330.43 851.836 1337.2 Q851.836 1344.17 847.496 1348.05 Q843.156 1351.9 835.257 1351.9 Q832.537 1351.9 829.701 1351.44 Q826.894 1350.97 823.885 1350.05 L823.885 1344.17 Q826.489 1345.59 829.267 1346.28 Q832.045 1346.98 835.141 1346.98 Q840.147 1346.98 843.069 1344.35 Q845.991 1341.71 845.991 1337.2 Q845.991 1332.69 843.069 1330.05 Q840.147 1327.42 835.141 1327.42 Q832.797 1327.42 830.453 1327.94 Q828.139 1328.46 825.708 1329.56 L825.708 1307.86 Z" fill="#000000" fill-rule="evenodd" fill-opacity="1" /><path clip-path="url(#clip230)" d="M875.852 1311.71 Q871.339 1311.71 869.053 1316.16 Q866.796 1320.59 866.796 1329.5 Q866.796 1338.39 869.053 1342.84 Q871.339 1347.27 875.852 1347.27 Q880.395 1347.27 882.652 1342.84 Q884.938 1338.39 884.938 1329.5 Q884.938 1320.59 882.652 1316.16 Q880.395 1311.71 875.852 1311.71 M875.852 1307.08 Q883.115 1307.08 886.935 1312.84 Q890.783 1318.56 890.783 1329.5 Q890.783 1340.41 886.935 1346.17 Q883.115 1351.9 875.852 1351.9 Q868.59 1351.9 864.741 1346.17 Q860.922 1340.41 860.922 1329.5 Q860.922 1318.56 864.741 1312.84 Q868.59 1307.08 875.852 1307.08 Z" fill="#000000" fill-rule="evenodd" fill-opacity="1" /><path clip-path="url(#clip230)" d="M913.555 1311.71 Q909.041 1311.71 906.755 1316.16 Q904.498 1320.59 904.498 1329.5 Q904.498 1338.39 906.755 1342.84 Q909.041 1347.27 913.555 1347.27 Q918.098 1347.27 920.355 1342.84 Q922.64 1338.39 922.64 1329.5 Q922.64 1320.59 920.355 1316.16 Q918.098 1311.71 913.555 1311.71 M913.555 1307.08 Q920.817 1307.08 924.637 1312.84 Q928.485 1318.56 928.485 1329.5 Q928.485 1340.41 924.637 1346.17 Q920.817 1351.9 913.555 1351.9 Q906.292 1351.9 902.444 1346.17 Q898.624 1340.41 898.624 1329.5 Q898.624 1318.56 902.444 1312.84 Q906.292 1307.08 913.555 1307.08 Z" fill="#000000" fill-rule="evenodd" fill-opacity="1" /><path clip-path="url(#clip230)" d="M1248.08 1346.14 L1257.63 1346.14 L1257.63 1313.18 L1247.24 1315.27 L1247.24 1309.94 L1257.57 1307.86 L1263.41 1307.86 L1263.41 1346.14 L1272.96 1346.14 L1272.96 1351.06 L1248.08 1351.06 L1248.08 1346.14 Z" fill="#000000" fill-rule="evenodd" fill-opacity="1" /><path clip-path="url(#clip230)" d="M1297.27 1311.71 Q1292.75 1311.71 1290.47 1316.16 Q1288.21 1320.59 1288.21 1329.5 Q1288.21 1338.39 1290.47 1342.84 Q1292.75 1347.27 1297.27 1347.27 Q1301.81 1347.27 1304.07 1342.84 Q1306.35 1338.39 1306.35 1329.5 Q1306.35 1320.59 1304.07 1316.16 Q1301.81 1311.71 1297.27 1311.71 M1297.27 1307.08 Q1304.53 1307.08 1308.35 1312.84 Q1312.2 1318.56 1312.2 1329.5 Q1312.2 1340.41 1308.35 1346.17 Q1304.53 1351.9 1297.27 1351.9 Q1290 1351.9 1286.16 1346.17 Q1282.34 1340.41 1282.34 1329.5 Q1282.34 1318.56 1286.16 1312.84 Q1290 1307.08 1297.27 1307.08 Z" fill="#000000" fill-rule="evenodd" fill-opacity="1" /><path clip-path="url(#clip230)" d="M1334.97 1311.71 Q1330.46 1311.71 1328.17 1316.16 Q1325.91 1320.59 1325.91 1329.5 Q1325.91 1338.39 1328.17 1342.84 Q1330.46 1347.27 1334.97 1347.27 Q1339.51 1347.27 1341.77 1342.84 Q1344.05 1338.39 1344.05 1329.5 Q1344.05 1320.59 1341.77 1316.16 Q1339.51 1311.71 1334.97 1311.71 M1334.97 1307.08 Q1342.23 1307.08 1346.05 1312.84 Q1349.9 1318.56 1349.9 1329.5 Q1349.9 1340.41 1346.05 1346.17 Q1342.23 1351.9 1334.97 1351.9 Q1327.71 1351.9 1323.86 1346.17 Q1320.04 1340.41 1320.04 1329.5 Q1320.04 1318.56 1323.86 1312.84 Q1327.71 1307.08 1334.97 1307.08 Z" fill="#000000" fill-rule="evenodd" fill-opacity="1" /><path clip-path="url(#clip230)" d="M1372.67 1311.71 Q1368.16 1311.71 1365.87 1316.16 Q1363.61 1320.59 1363.61 1329.5 Q1363.61 1338.39 1365.87 1342.84 Q1368.16 1347.27 1372.67 1347.27 Q1377.21 1347.27 1379.47 1342.84 Q1381.76 1338.39 1381.76 1329.5 Q1381.76 1320.59 1379.47 1316.16 Q1377.21 1311.71 1372.67 1311.71 M1372.67 1307.08 Q1379.93 1307.08 1383.75 1312.84 Q1387.6 1318.56 1387.6 1329.5 Q1387.6 1340.41 1383.75 1346.17 Q1379.93 1351.9 1372.67 1351.9 Q1365.41 1351.9 1361.56 1346.17 Q1357.74 1340.41 1357.74 1329.5 Q1357.74 1318.56 1361.56 1312.84 Q1365.41 1307.08 1372.67 1307.08 Z" fill="#000000" fill-rule="evenodd" fill-opacity="1" /><path clip-path="url(#clip230)" d="M1689.31 1346.14 L1698.86 1346.14 L1698.86 1313.18 L1688.47 1315.27 L1688.47 1309.94 L1698.8 1307.86 L1704.65 1307.86 L1704.65 1346.14 L1714.2 1346.14 L1714.2 1351.06 L1689.31 1351.06 L1689.31 1346.14 Z" fill="#000000" fill-rule="evenodd" fill-opacity="1" /><path clip-path="url(#clip230)" d="M1726.06 1307.86 L1749 1307.86 L1749 1312.78 L1731.41 1312.78 L1731.41 1323.37 Q1732.69 1322.93 1733.96 1322.73 Q1735.23 1322.5 1736.5 1322.5 Q1743.74 1322.5 1747.96 1326.46 Q1752.19 1330.43 1752.19 1337.2 Q1752.19 1344.17 1747.85 1348.05 Q1743.51 1351.9 1735.61 1351.9 Q1732.89 1351.9 1730.05 1351.44 Q1727.25 1350.97 1724.24 1350.05 L1724.24 1344.17 Q1726.84 1345.59 1729.62 1346.28 Q1732.4 1346.98 1735.49 1346.98 Q1740.5 1346.98 1743.42 1344.35 Q1746.34 1341.71 1746.34 1337.2 Q1746.34 1332.69 1743.42 1330.05 Q1740.5 1327.42 1735.49 1327.42 Q1733.15 1327.42 1730.8 1327.94 Q1728.49 1328.46 1726.06 1329.56 L1726.06 1307.86 Z" fill="#000000" fill-rule="evenodd" fill-opacity="1" /><path clip-path="url(#clip230)" d="M1776.2 1311.71 Q1771.69 1311.71 1769.4 1316.16 Q1767.15 1320.59 1767.15 1329.5 Q1767.15 1338.39 1769.4 1342.84 Q1771.69 1347.27 1776.2 1347.27 Q1780.75 1347.27 1783 1342.84 Q1785.29 1338.39 1785.29 1329.5 Q1785.29 1320.59 1783 1316.16 Q1780.75 1311.71 1776.2 1311.71 M1776.2 1307.08 Q1783.47 1307.08 1787.29 1312.84 Q1791.13 1318.56 1791.13 1329.5 Q1791.13 1340.41 1787.29 1346.17 Q1783.47 1351.9 1776.2 1351.9 Q1768.94 1351.9 1765.09 1346.17 Q1761.27 1340.41 1761.27 1329.5 Q1761.27 1318.56 1765.09 1312.84 Q1768.94 1307.08 1776.2 1307.08 Z" fill="#000000" fill-rule="evenodd" fill-opacity="1" /><path clip-path="url(#clip230)" d="M1813.91 1311.71 Q1809.39 1311.71 1807.11 1316.16 Q1804.85 1320.59 1804.85 1329.5 Q1804.85 1338.39 1807.11 1342.84 Q1809.39 1347.27 1813.91 1347.27 Q1818.45 1347.27 1820.71 1342.84 Q1822.99 1338.39 1822.99 1329.5 Q1822.99 1320.59 1820.71 1316.16 Q1818.45 1311.71 1813.91 1311.71 M1813.91 1307.08 Q1821.17 1307.08 1824.99 1312.84 Q1828.84 1318.56 1828.84 1329.5 Q1828.84 1340.41 1824.99 1346.17 Q1821.17 1351.9 1813.91 1351.9 Q1806.64 1351.9 1802.79 1346.17 Q1798.98 1340.41 1798.98 1329.5 Q1798.98 1318.56 1802.79 1312.84 Q1806.64 1307.08 1813.91 1307.08 Z" fill="#000000" fill-rule="evenodd" fill-opacity="1" /><path clip-path="url(#clip230)" d="M2135.65 1346.14 L2156.05 1346.14 L2156.05 1351.06 L2128.62 1351.06 L2128.62 1346.14 Q2131.95 1342.7 2137.68 1336.91 Q2143.44 1331.09 2144.91 1329.42 Q2147.72 1326.26 2148.82 1324.09 Q2149.95 1321.89 2149.95 1319.78 Q2149.95 1316.34 2147.52 1314.17 Q2145.11 1312 2141.24 1312 Q2138.49 1312 2135.42 1312.95 Q2132.38 1313.91 2128.91 1315.85 L2128.91 1309.94 Q2132.44 1308.52 2135.51 1307.8 Q2138.58 1307.08 2141.12 1307.08 Q2147.83 1307.08 2151.83 1310.43 Q2155.82 1313.79 2155.82 1319.4 Q2155.82 1322.07 2154.81 1324.47 Q2153.82 1326.84 2151.19 1330.08 Q2150.47 1330.92 2146.59 1334.94 Q2142.71 1338.94 2135.65 1346.14 Z" fill="#000000" fill-rule="evenodd" fill-opacity="1" /><path clip-path="url(#clip230)" d="M2180.82 1311.71 Q2176.31 1311.71 2174.02 1316.16 Q2171.76 1320.59 2171.76 1329.5 Q2171.76 1338.39 2174.02 1342.84 Q2176.31 1347.27 2180.82 1347.27 Q2185.36 1347.27 2187.62 1342.84 Q2189.91 1338.39 2189.91 1329.5 Q2189.91 1320.59 2187.62 1316.16 Q2185.36 1311.71 2180.82 1311.71 M2180.82 1307.08 Q2188.08 1307.08 2191.9 1312.84 Q2195.75 1318.56 2195.75 1329.5 Q2195.75 1340.41 2191.9 1346.17 Q2188.08 1351.9 2180.82 1351.9 Q2173.56 1351.9 2169.71 1346.17 Q2165.89 1340.41 2165.89 1329.5 Q2165.89 1318.56 2169.71 1312.84 Q2173.56 1307.08 2180.82 1307.08 Z" fill="#000000" fill-rule="evenodd" fill-opacity="1" /><path clip-path="url(#clip230)" d="M2218.52 1311.71 Q2214.01 1311.71 2211.72 1316.16 Q2209.47 1320.59 2209.47 1329.5 Q2209.47 1338.39 2211.72 1342.84 Q2214.01 1347.27 2218.52 1347.27 Q2223.07 1347.27 2225.32 1342.84 Q2227.61 1338.39 2227.61 1329.5 Q2227.61 1320.59 2225.32 1316.16 Q2223.07 1311.71 2218.52 1311.71 M2218.52 1307.08 Q2225.79 1307.08 2229.61 1312.84 Q2233.45 1318.56 2233.45 1329.5 Q2233.45 1340.41 2229.61 1346.17 Q2225.79 1351.9 2218.52 1351.9 Q2211.26 1351.9 2207.41 1346.17 Q2203.59 1340.41 2203.59 1329.5 Q2203.59 1318.56 2207.41 1312.84 Q2211.26 1307.08 2218.52 1307.08 Z" fill="#000000" fill-rule="evenodd" fill-opacity="1" /><path clip-path="url(#clip230)" d="M2256.23 1311.71 Q2251.71 1311.71 2249.43 1316.16 Q2247.17 1320.59 2247.17 1329.5 Q2247.17 1338.39 2249.43 1342.84 Q2251.71 1347.27 2256.23 1347.27 Q2260.77 1347.27 2263.03 1342.84 Q2265.31 1338.39 2265.31 1329.5 Q2265.31 1320.59 2263.03 1316.16 Q2260.77 1311.71 2256.23 1311.71 M2256.23 1307.08 Q2263.49 1307.08 2267.31 1312.84 Q2271.16 1318.56 2271.16 1329.5 Q2271.16 1340.41 2267.31 1346.17 Q2263.49 1351.9 2256.23 1351.9 Q2248.96 1351.9 2245.11 1346.17 Q2241.29 1340.41 2241.29 1329.5 Q2241.29 1318.56 2245.11 1312.84 Q2248.96 1307.08 2256.23 1307.08 Z" fill="#000000" fill-rule="evenodd" fill-opacity="1" /><path clip-path="url(#clip230)" d="M2576.89 1346.14 L2597.29 1346.14 L2597.29 1351.06 L2569.86 1351.06 L2569.86 1346.14 Q2573.18 1342.7 2578.91 1336.91 Q2584.67 1331.09 2586.15 1329.42 Q2588.95 1326.26 2590.05 1324.09 Q2591.18 1321.89 2591.18 1319.78 Q2591.18 1316.34 2588.75 1314.17 Q2586.35 1312 2582.47 1312 Q2579.72 1312 2576.66 1312.95 Q2573.62 1313.91 2570.15 1315.85 L2570.15 1309.94 Q2573.68 1308.52 2576.74 1307.8 Q2579.81 1307.08 2582.36 1307.08 Q2589.07 1307.08 2593.06 1310.43 Q2597.06 1313.79 2597.06 1319.4 Q2597.06 1322.07 2596.04 1324.47 Q2595.06 1326.84 2592.43 1330.08 Q2591.7 1330.92 2587.83 1334.94 Q2583.95 1338.94 2576.89 1346.14 Z" fill="#000000" fill-rule="evenodd" fill-opacity="1" /><path clip-path="url(#clip230)" d="M2609.61 1307.86 L2632.56 1307.86 L2632.56 1312.78 L2614.97 1312.78 L2614.97 1323.37 Q2616.24 1322.93 2617.51 1322.73 Q2618.79 1322.5 2620.06 1322.5 Q2627.29 1322.5 2631.52 1326.46 Q2635.74 1330.43 2635.74 1337.2 Q2635.74 1344.17 2631.4 1348.05 Q2627.06 1351.9 2619.16 1351.9 Q2616.44 1351.9 2613.61 1351.44 Q2610.8 1350.97 2607.79 1350.05 L2607.79 1344.17 Q2610.39 1345.59 2613.17 1346.28 Q2615.95 1346.98 2619.05 1346.98 Q2624.05 1346.98 2626.97 1344.35 Q2629.9 1341.71 2629.9 1337.2 Q2629.9 1332.69 2626.97 1330.05 Q2624.05 1327.42 2619.05 1327.42 Q2616.7 1327.42 2614.36 1327.94 Q2612.04 1328.46 2609.61 1329.56 L2609.61 1307.86 Z" fill="#000000" fill-rule="evenodd" fill-opacity="1" /><path clip-path="url(#clip230)" d="M2659.76 1311.71 Q2655.24 1311.71 2652.96 1316.16 Q2650.7 1320.59 2650.7 1329.5 Q2650.7 1338.39 2652.96 1342.84 Q2655.24 1347.27 2659.76 1347.27 Q2664.3 1347.27 2666.56 1342.84 Q2668.84 1338.39 2668.84 1329.5 Q2668.84 1320.59 2666.56 1316.16 Q2664.3 1311.71 2659.76 1311.71 M2659.76 1307.08 Q2667.02 1307.08 2670.84 1312.84 Q2674.69 1318.56 2674.69 1329.5 Q2674.69 1340.41 2670.84 1346.17 Q2667.02 1351.9 2659.76 1351.9 Q2652.5 1351.9 2648.65 1346.17 Q2644.83 1340.41 2644.83 1329.5 Q2644.83 1318.56 2648.65 1312.84 Q2652.5 1307.08 2659.76 1307.08 Z" fill="#000000" fill-rule="evenodd" fill-opacity="1" /><path clip-path="url(#clip230)" d="M2697.46 1311.71 Q2692.95 1311.71 2690.66 1316.16 Q2688.4 1320.59 2688.4 1329.5 Q2688.4 1338.39 2690.66 1342.84 Q2692.95 1347.27 2697.46 1347.27 Q2702 1347.27 2704.26 1342.84 Q2706.55 1338.39 2706.55 1329.5 Q2706.55 1320.59 2704.26 1316.16 Q2702 1311.71 2697.46 1311.71 M2697.46 1307.08 Q2704.72 1307.08 2708.54 1312.84 Q2712.39 1318.56 2712.39 1329.5 Q2712.39 1340.41 2708.54 1346.17 Q2704.72 1351.9 2697.46 1351.9 Q2690.2 1351.9 2686.35 1346.17 Q2682.53 1340.41 2682.53 1329.5 Q2682.53 1318.56 2686.35 1312.84 Q2690.2 1307.08 2697.46 1307.08 Z" fill="#000000" fill-rule="evenodd" fill-opacity="1" /><path clip-path="url(#clip230)" d="M1311.13 1398.21 L1311.13 1406.84 Q1307 1402.99 1302.3 1401.09 Q1297.64 1399.19 1292.37 1399.19 Q1282 1399.19 1276.5 1405.55 Q1270.99 1411.87 1270.99 1423.86 Q1270.99 1435.81 1276.5 1442.17 Q1282 1448.49 1292.37 1448.49 Q1297.64 1448.49 1302.3 1446.58 Q1307 1444.68 1311.13 1440.83 L1311.13 1449.38 Q1306.84 1452.29 1302.02 1453.75 Q1297.24 1455.21 1291.89 1455.21 Q1278.16 1455.21 1270.26 1446.82 Q1262.36 1438.4 1262.36 1423.86 Q1262.36 1409.27 1270.26 1400.89 Q1278.16 1392.46 1291.89 1392.46 Q1297.32 1392.46 1302.1 1393.92 Q1306.92 1395.34 1311.13 1398.21 Z" fill="#000000" fill-rule="evenodd" fill-opacity="1" /><path clip-path="url(#clip230)" d="M1344.06 1431.23 Q1335.03 1431.23 1331.55 1433.29 Q1328.06 1435.36 1328.06 1440.34 Q1328.06 1444.31 1330.66 1446.66 Q1333.29 1448.97 1337.79 1448.97 Q1343.98 1448.97 1347.71 1444.6 Q1351.48 1440.18 1351.48 1432.89 L1351.48 1431.23 L1344.06 1431.23 M1358.93 1428.15 L1358.93 1454.03 L1351.48 1454.03 L1351.48 1447.15 Q1348.93 1451.28 1345.12 1453.27 Q1341.31 1455.21 1335.8 1455.21 Q1328.83 1455.21 1324.7 1451.32 Q1320.61 1447.39 1320.61 1440.83 Q1320.61 1433.17 1325.71 1429.28 Q1330.86 1425.4 1341.03 1425.4 L1351.48 1425.4 L1351.48 1424.67 Q1351.48 1419.52 1348.07 1416.73 Q1344.71 1413.89 1338.6 1413.89 Q1334.71 1413.89 1331.02 1414.82 Q1327.33 1415.75 1323.93 1417.62 L1323.93 1410.73 Q1328.02 1409.15 1331.87 1408.38 Q1335.72 1407.57 1339.37 1407.57 Q1349.21 1407.57 1354.07 1412.68 Q1358.93 1417.78 1358.93 1428.15 Z" fill="#000000" fill-rule="evenodd" fill-opacity="1" /><path clip-path="url(#clip230)" d="M1381.49 1447.23 L1381.49 1471.29 L1374 1471.29 L1374 1408.66 L1381.49 1408.66 L1381.49 1415.55 Q1383.84 1411.5 1387.41 1409.56 Q1391.01 1407.57 1396 1407.57 Q1404.26 1407.57 1409.41 1414.13 Q1414.59 1420.7 1414.59 1431.39 Q1414.59 1442.08 1409.41 1448.65 Q1404.26 1455.21 1396 1455.21 Q1391.01 1455.21 1387.41 1453.27 Q1383.84 1451.28 1381.49 1447.23 M1406.85 1431.39 Q1406.85 1423.17 1403.45 1418.51 Q1400.09 1413.81 1394.17 1413.81 Q1388.26 1413.81 1384.86 1418.51 Q1381.49 1423.17 1381.49 1431.39 Q1381.49 1439.61 1384.86 1444.31 Q1388.26 1448.97 1394.17 1448.97 Q1400.09 1448.97 1403.45 1444.31 Q1406.85 1439.61 1406.85 1431.39 Z" fill="#000000" fill-rule="evenodd" fill-opacity="1" /><path clip-path="url(#clip230)" d="M1447.56 1431.23 Q1438.53 1431.23 1435.05 1433.29 Q1431.56 1435.36 1431.56 1440.34 Q1431.56 1444.31 1434.16 1446.66 Q1436.79 1448.97 1441.29 1448.97 Q1447.48 1448.97 1451.21 1444.6 Q1454.98 1440.18 1454.98 1432.89 L1454.98 1431.23 L1447.56 1431.23 M1462.43 1428.15 L1462.43 1454.03 L1454.98 1454.03 L1454.98 1447.15 Q1452.43 1451.28 1448.62 1453.27 Q1444.81 1455.21 1439.3 1455.21 Q1432.33 1455.21 1428.2 1451.32 Q1424.11 1447.39 1424.11 1440.83 Q1424.11 1433.17 1429.21 1429.28 Q1434.36 1425.4 1444.53 1425.4 L1454.98 1425.4 L1454.98 1424.67 Q1454.98 1419.52 1451.58 1416.73 Q1448.21 1413.89 1442.1 1413.89 Q1438.21 1413.89 1434.52 1414.82 Q1430.83 1415.75 1427.43 1417.62 L1427.43 1410.73 Q1431.52 1409.15 1435.37 1408.38 Q1439.22 1407.57 1442.87 1407.57 Q1452.71 1407.57 1457.57 1412.68 Q1462.43 1417.78 1462.43 1428.15 Z" fill="#000000" fill-rule="evenodd" fill-opacity="1" /><path clip-path="url(#clip230)" d="M1510.43 1410.41 L1510.43 1417.37 Q1507.28 1415.63 1504.07 1414.78 Q1500.92 1413.89 1497.67 1413.89 Q1490.42 1413.89 1486.41 1418.51 Q1482.4 1423.09 1482.4 1431.39 Q1482.4 1439.69 1486.41 1444.31 Q1490.42 1448.89 1497.67 1448.89 Q1500.92 1448.89 1504.07 1448.04 Q1507.28 1447.15 1510.43 1445.41 L1510.43 1452.29 Q1507.32 1453.75 1503.95 1454.48 Q1500.63 1455.21 1496.86 1455.21 Q1486.62 1455.21 1480.58 1448.77 Q1474.54 1442.33 1474.54 1431.39 Q1474.54 1420.29 1480.62 1413.93 Q1486.74 1407.57 1497.35 1407.57 Q1500.79 1407.57 1504.07 1408.3 Q1507.36 1408.99 1510.43 1410.41 Z" fill="#000000" fill-rule="evenodd" fill-opacity="1" /><path clip-path="url(#clip230)" d="M1523.4 1408.66 L1530.85 1408.66 L1530.85 1454.03 L1523.4 1454.03 L1523.4 1408.66 M1523.4 1391 L1530.85 1391 L1530.85 1400.44 L1523.4 1400.44 L1523.4 1391 Z" fill="#000000" fill-rule="evenodd" fill-opacity="1" /><path clip-path="url(#clip230)" d="M1553.82 1395.78 L1553.82 1408.66 L1569.17 1408.66 L1569.17 1414.46 L1553.82 1414.46 L1553.82 1439.09 Q1553.82 1444.64 1555.32 1446.22 Q1556.86 1447.8 1561.52 1447.8 L1569.17 1447.8 L1569.17 1454.03 L1561.52 1454.03 Q1552.89 1454.03 1549.61 1450.83 Q1546.33 1447.59 1546.33 1439.09 L1546.33 1414.46 L1540.86 1414.46 L1540.86 1408.66 L1546.33 1408.66 L1546.33 1395.78 L1553.82 1395.78 Z" fill="#000000" fill-rule="evenodd" fill-opacity="1" /><path clip-path="url(#clip230)" d="M1597.85 1458.25 Q1594.69 1466.35 1591.7 1468.82 Q1588.7 1471.29 1583.68 1471.29 L1577.72 1471.29 L1577.72 1465.05 L1582.1 1465.05 Q1585.17 1465.05 1586.88 1463.6 Q1588.58 1462.14 1590.64 1456.71 L1591.98 1453.31 L1573.63 1408.66 L1581.53 1408.66 L1595.71 1444.15 L1609.88 1408.66 L1617.78 1408.66 L1597.85 1458.25 Z" fill="#000000" fill-rule="evenodd" fill-opacity="1" /><path clip-path="url(#clip230)" d="M1672.35 1391.08 Q1666.92 1400.4 1664.29 1409.52 Q1661.65 1418.63 1661.65 1427.99 Q1661.65 1437.35 1664.29 1446.54 Q1666.96 1455.7 1672.35 1464.97 L1665.87 1464.97 Q1659.79 1455.45 1656.75 1446.26 Q1653.76 1437.06 1653.76 1427.99 Q1653.76 1418.95 1656.75 1409.8 Q1659.75 1400.64 1665.87 1391.08 L1672.35 1391.08 Z" fill="#000000" fill-rule="evenodd" fill-opacity="1" /><path clip-path="url(#clip230)" d="M1687.14 1393.55 L1699.33 1393.55 L1714.76 1434.71 L1730.28 1393.55 L1742.47 1393.55 L1742.47 1454.03 L1734.49 1454.03 L1734.49 1400.93 L1718.89 1442.41 L1710.67 1442.41 L1695.07 1400.93 L1695.07 1454.03 L1687.14 1454.03 L1687.14 1393.55 Z" fill="#000000" fill-rule="evenodd" fill-opacity="1" /><path clip-path="url(#clip230)" d="M1753.33 1393.55 L1761.59 1393.55 L1774.31 1444.68 L1786.99 1393.55 L1796.19 1393.55 L1808.91 1444.68 L1821.58 1393.55 L1829.89 1393.55 L1814.7 1454.03 L1804.41 1454.03 L1791.65 1401.54 L1778.77 1454.03 L1768.48 1454.03 L1753.33 1393.55 Z" fill="#000000" fill-rule="evenodd" fill-opacity="1" /><path clip-path="url(#clip230)" d="M1839.25 1391.08 L1845.73 1391.08 Q1851.8 1400.64 1854.8 1409.8 Q1857.84 1418.95 1857.84 1427.99 Q1857.84 1437.06 1854.8 1446.26 Q1851.8 1455.45 1845.73 1464.97 L1839.25 1464.97 Q1844.63 1455.7 1847.27 1446.54 Q1849.94 1437.35 1849.94 1427.99 Q1849.94 1418.63 1847.27 1409.52 Q1844.63 1400.4 1839.25 1391.08 Z" fill="#000000" fill-rule="evenodd" fill-opacity="1" /><polyline clip-path="url(#clip230)" style="stroke:#000000; stroke-linecap:round; stroke-linejoin:round; stroke-width:4; stroke-opacity:1; fill:none" points="
  367.442,1274.66 367.442,129.644 
  "/>
<polyline clip-path="url(#clip230)" style="stroke:#000000; stroke-linecap:round; stroke-linejoin:round; stroke-width:4; stroke-opacity:1; fill:none" points="
  367.442,1242.25 386.339,1242.25 
  "/>
<polyline clip-path="url(#clip230)" style="stroke:#000000; stroke-linecap:round; stroke-linejoin:round; stroke-width:4; stroke-opacity:1; fill:none" points="
  367.442,1007.43 386.339,1007.43 
  "/>
<polyline clip-path="url(#clip230)" style="stroke:#000000; stroke-linecap:round; stroke-linejoin:round; stroke-width:4; stroke-opacity:1; fill:none" points="
  367.442,772.599 386.339,772.599 
  "/>
<polyline clip-path="url(#clip230)" style="stroke:#000000; stroke-linecap:round; stroke-linejoin:round; stroke-width:4; stroke-opacity:1; fill:none" points="
  367.442,537.773 386.339,537.773 
  "/>
<polyline clip-path="url(#clip230)" style="stroke:#000000; stroke-linecap:round; stroke-linejoin:round; stroke-width:4; stroke-opacity:1; fill:none" points="
  367.442,302.946 386.339,302.946 
  "/>
<path clip-path="url(#clip230)" d="M310.511 1224.5 Q305.997 1224.5 303.712 1228.96 Q301.455 1233.38 301.455 1242.3 Q301.455 1251.18 303.712 1255.64 Q305.997 1260.06 310.511 1260.06 Q315.054 1260.06 317.311 1255.64 Q319.597 1251.18 319.597 1242.3 Q319.597 1233.38 317.311 1228.96 Q315.054 1224.5 310.511 1224.5 M310.511 1219.87 Q317.774 1219.87 321.593 1225.63 Q325.442 1231.36 325.442 1242.3 Q325.442 1253.2 321.593 1258.96 Q317.774 1264.69 310.511 1264.69 Q303.249 1264.69 299.4 1258.96 Q295.581 1253.2 295.581 1242.3 Q295.581 1231.36 299.4 1225.63 Q303.249 1219.87 310.511 1219.87 Z" fill="#000000" fill-rule="evenodd" fill-opacity="1" /><path clip-path="url(#clip230)" d="M299.313 985.826 L322.259 985.826 L322.259 990.745 L304.666 990.745 L304.666 1001.34 Q305.94 1000.9 307.213 1000.7 Q308.486 1000.47 309.759 1000.47 Q316.993 1000.47 321.217 1004.43 Q325.442 1008.4 325.442 1015.17 Q325.442 1022.14 321.101 1026.02 Q316.761 1029.87 308.862 1029.87 Q306.142 1029.87 303.306 1029.4 Q300.5 1028.94 297.49 1028.01 L297.49 1022.14 Q300.095 1023.56 302.872 1024.25 Q305.65 1024.95 308.746 1024.95 Q313.752 1024.95 316.674 1022.31 Q319.597 1019.68 319.597 1015.17 Q319.597 1010.65 316.674 1008.02 Q313.752 1005.39 308.746 1005.39 Q306.402 1005.39 304.059 1005.91 Q301.744 1006.43 299.313 1007.53 L299.313 985.826 Z" fill="#000000" fill-rule="evenodd" fill-opacity="1" /><path clip-path="url(#clip230)" d="M261.322 789.28 L270.87 789.28 L270.87 756.323 L260.483 758.407 L260.483 753.083 L270.812 750.999 L276.657 750.999 L276.657 789.28 L286.206 789.28 L286.206 794.199 L261.322 794.199 L261.322 789.28 Z" fill="#000000" fill-rule="evenodd" fill-opacity="1" /><path clip-path="url(#clip230)" d="M310.511 754.848 Q305.997 754.848 303.712 759.304 Q301.455 763.731 301.455 772.643 Q301.455 781.526 303.712 785.982 Q305.997 790.409 310.511 790.409 Q315.054 790.409 317.311 785.982 Q319.597 781.526 319.597 772.643 Q319.597 763.731 317.311 759.304 Q315.054 754.848 310.511 754.848 M310.511 750.218 Q317.774 750.218 321.593 755.976 Q325.442 761.705 325.442 772.643 Q325.442 783.551 321.593 789.309 Q317.774 795.038 310.511 795.038 Q303.249 795.038 299.4 789.309 Q295.581 783.551 295.581 772.643 Q295.581 761.705 299.4 755.976 Q303.249 750.218 310.511 750.218 Z" fill="#000000" fill-rule="evenodd" fill-opacity="1" /><path clip-path="url(#clip230)" d="M262.566 554.454 L272.114 554.454 L272.114 521.497 L261.727 523.58 L261.727 518.256 L272.057 516.173 L277.901 516.173 L277.901 554.454 L287.45 554.454 L287.45 559.373 L262.566 559.373 L262.566 554.454 Z" fill="#000000" fill-rule="evenodd" fill-opacity="1" /><path clip-path="url(#clip230)" d="M299.313 516.173 L322.259 516.173 L322.259 521.091 L304.666 521.091 L304.666 531.682 Q305.94 531.248 307.213 531.045 Q308.486 530.814 309.759 530.814 Q316.993 530.814 321.217 534.778 Q325.442 538.742 325.442 545.513 Q325.442 552.486 321.101 556.363 Q316.761 560.212 308.862 560.212 Q306.142 560.212 303.306 559.749 Q300.5 559.286 297.49 558.36 L297.49 552.486 Q300.095 553.904 302.872 554.598 Q305.65 555.293 308.746 555.293 Q313.752 555.293 316.674 552.66 Q319.597 550.027 319.597 545.513 Q319.597 540.999 316.674 538.366 Q313.752 535.733 308.746 535.733 Q306.402 535.733 304.059 536.253 Q301.744 536.774 299.313 537.874 L299.313 516.173 Z" fill="#000000" fill-rule="evenodd" fill-opacity="1" /><path clip-path="url(#clip230)" d="M265.344 319.627 L285.743 319.627 L285.743 324.546 L258.312 324.546 L258.312 319.627 Q261.64 316.184 267.369 310.396 Q273.127 304.581 274.603 302.902 Q277.41 299.748 278.509 297.578 Q279.638 295.379 279.638 293.267 Q279.638 289.824 277.207 287.654 Q274.805 285.483 270.928 285.483 Q268.179 285.483 265.112 286.438 Q262.074 287.393 258.602 289.332 L258.602 283.429 Q262.132 282.011 265.199 281.288 Q268.266 280.564 270.812 280.564 Q277.525 280.564 281.518 283.921 Q285.511 287.277 285.511 292.891 Q285.511 295.553 284.499 297.954 Q283.515 300.327 280.882 303.568 Q280.158 304.407 276.281 308.429 Q272.404 312.422 265.344 319.627 Z" fill="#000000" fill-rule="evenodd" fill-opacity="1" /><path clip-path="url(#clip230)" d="M310.511 285.194 Q305.997 285.194 303.712 289.65 Q301.455 294.077 301.455 302.989 Q301.455 311.872 303.712 316.328 Q305.997 320.755 310.511 320.755 Q315.054 320.755 317.311 316.328 Q319.597 311.872 319.597 302.989 Q319.597 294.077 317.311 289.65 Q315.054 285.194 310.511 285.194 M310.511 280.564 Q317.774 280.564 321.593 286.323 Q325.442 292.052 325.442 302.989 Q325.442 313.898 321.593 319.656 Q317.774 325.385 310.511 325.385 Q303.249 325.385 299.4 319.656 Q295.581 313.898 295.581 302.989 Q295.581 292.052 299.4 286.323 Q303.249 280.564 310.511 280.564 Z" fill="#000000" fill-rule="evenodd" fill-opacity="1" /><path clip-path="url(#clip230)" d="M149.784 1141.27 L149.784 1129.08 L190.942 1113.64 L149.784 1098.13 L149.784 1085.93 L210.264 1085.93 L210.264 1093.91 L157.157 1093.91 L198.638 1109.51 L198.638 1117.73 L157.157 1133.33 L210.264 1133.33 L210.264 1141.27 L149.784 1141.27 Z" fill="#000000" fill-rule="evenodd" fill-opacity="1" /><path clip-path="url(#clip230)" d="M187.458 1049.39 Q187.458 1058.43 189.524 1061.91 Q191.59 1065.4 196.572 1065.4 Q200.542 1065.4 202.892 1062.8 Q205.201 1060.17 205.201 1055.67 Q205.201 1049.48 200.826 1045.75 Q196.41 1041.98 189.119 1041.98 L187.458 1041.98 L187.458 1049.39 M184.379 1034.53 L210.264 1034.53 L210.264 1041.98 L203.378 1041.98 Q207.51 1044.53 209.495 1048.34 Q211.439 1052.15 211.439 1057.66 Q211.439 1064.63 207.55 1068.76 Q203.621 1072.85 197.058 1072.85 Q189.402 1072.85 185.513 1067.75 Q181.625 1062.6 181.625 1052.43 L181.625 1041.98 L180.895 1041.98 Q175.751 1041.98 172.956 1045.38 Q170.12 1048.75 170.12 1054.86 Q170.12 1058.75 171.052 1062.44 Q171.983 1066.13 173.847 1069.53 L166.96 1069.53 Q165.38 1065.44 164.611 1061.59 Q163.801 1057.74 163.801 1054.09 Q163.801 1044.25 168.905 1039.39 Q174.009 1034.53 184.379 1034.53 Z" fill="#000000" fill-rule="evenodd" fill-opacity="1" /><path clip-path="url(#clip230)" d="M171.862 992.885 Q171.133 994.14 170.809 995.639 Q170.444 997.098 170.444 998.88 Q170.444 1005.2 174.576 1008.6 Q178.667 1011.96 186.364 1011.96 L210.264 1011.96 L210.264 1019.46 L164.894 1019.46 L164.894 1011.96 L171.943 1011.96 Q167.811 1009.61 165.826 1005.85 Q163.801 1002.08 163.801 996.693 Q163.801 995.923 163.922 994.991 Q164.003 994.059 164.206 992.925 L171.862 992.885 Z" fill="#000000" fill-rule="evenodd" fill-opacity="1" /><path clip-path="url(#clip230)" d="M187.053 956.67 Q178.951 956.67 174.495 960.032 Q170.039 963.354 170.039 969.389 Q170.039 975.385 174.495 978.747 Q178.951 982.069 187.053 982.069 Q195.114 982.069 199.57 978.747 Q204.026 975.385 204.026 969.389 Q204.026 963.354 199.57 960.032 Q195.114 956.67 187.053 956.67 M204.634 949.216 Q216.219 949.216 221.85 954.361 Q227.521 959.505 227.521 970.119 Q227.521 974.048 226.914 977.532 Q226.347 981.016 225.131 984.297 L217.88 984.297 Q219.663 981.016 220.513 977.815 Q221.364 974.615 221.364 971.293 Q221.364 963.961 217.516 960.315 Q213.708 956.67 205.97 956.67 L202.284 956.67 Q206.295 958.979 208.279 962.584 Q210.264 966.189 210.264 971.212 Q210.264 979.557 203.905 984.661 Q197.545 989.765 187.053 989.765 Q176.52 989.765 170.16 984.661 Q163.801 979.557 163.801 971.212 Q163.801 966.189 165.786 962.584 Q167.77 958.979 171.781 956.67 L164.894 956.67 L164.894 949.216 L204.634 949.216 Z" fill="#000000" fill-rule="evenodd" fill-opacity="1" /><path clip-path="url(#clip230)" d="M164.894 933.863 L164.894 926.409 L210.264 926.409 L210.264 933.863 L164.894 933.863 M147.232 933.863 L147.232 926.409 L156.671 926.409 L156.671 933.863 L147.232 933.863 Z" fill="#000000" fill-rule="evenodd" fill-opacity="1" /><path clip-path="url(#clip230)" d="M182.88 873.099 L210.264 873.099 L210.264 880.553 L183.123 880.553 Q176.682 880.553 173.482 883.065 Q170.282 885.576 170.282 890.599 Q170.282 896.635 174.13 900.119 Q177.979 903.603 184.622 903.603 L210.264 903.603 L210.264 911.097 L164.894 911.097 L164.894 903.603 L171.943 903.603 Q167.851 900.929 165.826 897.324 Q163.801 893.678 163.801 888.938 Q163.801 881.12 168.662 877.11 Q173.482 873.099 182.88 873.099 Z" fill="#000000" fill-rule="evenodd" fill-opacity="1" /><path clip-path="url(#clip230)" d="M187.458 837.614 Q187.458 846.647 189.524 850.131 Q191.59 853.615 196.572 853.615 Q200.542 853.615 202.892 851.022 Q205.201 848.389 205.201 843.892 Q205.201 837.695 200.826 833.968 Q196.41 830.2 189.119 830.2 L187.458 830.2 L187.458 837.614 M184.379 822.747 L210.264 822.747 L210.264 830.2 L203.378 830.2 Q207.51 832.752 209.495 836.56 Q211.439 840.368 211.439 845.877 Q211.439 852.845 207.55 856.977 Q203.621 861.068 197.058 861.068 Q189.402 861.068 185.513 855.964 Q181.625 850.819 181.625 840.652 L181.625 830.2 L180.895 830.2 Q175.751 830.2 172.956 833.603 Q170.12 836.965 170.12 843.082 Q170.12 846.971 171.052 850.657 Q171.983 854.344 173.847 857.747 L166.96 857.747 Q165.38 853.655 164.611 849.807 Q163.801 845.958 163.801 842.313 Q163.801 832.469 168.905 827.608 Q174.009 822.747 184.379 822.747 Z" fill="#000000" fill-rule="evenodd" fill-opacity="1" /><path clip-path="url(#clip230)" d="M147.232 807.394 L147.232 799.94 L210.264 799.94 L210.264 807.394 L147.232 807.394 Z" fill="#000000" fill-rule="evenodd" fill-opacity="1" /><path clip-path="url(#clip230)" d="M154.443 712.36 L163.071 712.36 Q159.223 716.491 157.319 721.191 Q155.415 725.849 155.415 731.115 Q155.415 741.486 161.775 746.995 Q168.095 752.504 180.085 752.504 Q192.035 752.504 198.395 746.995 Q204.715 741.486 204.715 731.115 Q204.715 725.849 202.811 721.191 Q200.907 716.491 197.058 712.36 L205.606 712.36 Q208.523 716.654 209.981 721.474 Q211.439 726.254 211.439 731.601 Q211.439 745.334 203.054 753.233 Q194.628 761.132 180.085 761.132 Q165.502 761.132 157.117 753.233 Q148.691 745.334 148.691 731.601 Q148.691 726.173 150.149 721.393 Q151.567 716.572 154.443 712.36 Z" fill="#000000" fill-rule="evenodd" fill-opacity="1" /><path clip-path="url(#clip230)" d="M170.12 682.464 Q170.12 688.459 174.819 691.943 Q179.478 695.427 187.62 695.427 Q195.762 695.427 200.461 691.984 Q205.12 688.5 205.12 682.464 Q205.12 676.509 200.421 673.025 Q195.722 669.541 187.62 669.541 Q179.559 669.541 174.86 673.025 Q170.12 676.509 170.12 682.464 M163.801 682.464 Q163.801 672.742 170.12 667.192 Q176.439 661.642 187.62 661.642 Q198.76 661.642 205.12 667.192 Q211.439 672.742 211.439 682.464 Q211.439 692.227 205.12 697.776 Q198.76 703.286 187.62 703.286 Q176.439 703.286 170.12 697.776 Q163.801 692.227 163.801 682.464 Z" fill="#000000" fill-rule="evenodd" fill-opacity="1" /><path clip-path="url(#clip230)" d="M166.231 620.364 L173.28 620.364 Q171.659 623.523 170.849 626.926 Q170.039 630.329 170.039 633.975 Q170.039 639.524 171.74 642.319 Q173.442 645.074 176.844 645.074 Q179.437 645.074 180.936 643.089 Q182.394 641.104 183.731 635.109 L184.298 632.557 Q186 624.617 189.119 621.295 Q192.197 617.933 197.747 617.933 Q204.067 617.933 207.753 622.956 Q211.439 627.939 211.439 636.689 Q211.439 640.334 210.71 644.304 Q210.021 648.234 208.604 652.609 L200.907 652.609 Q203.054 648.477 204.148 644.466 Q205.201 640.456 205.201 636.527 Q205.201 631.26 203.418 628.425 Q201.596 625.589 198.314 625.589 Q195.276 625.589 193.656 627.655 Q192.035 629.681 190.537 636.608 L189.929 639.2 Q188.471 646.127 185.473 649.206 Q182.435 652.285 177.169 652.285 Q170.768 652.285 167.284 647.748 Q163.801 643.211 163.801 634.866 Q163.801 630.734 164.408 627.088 Q165.016 623.442 166.231 620.364 Z" fill="#000000" fill-rule="evenodd" fill-opacity="1" /><path clip-path="url(#clip230)" d="M152.012 598.691 L164.894 598.691 L164.894 583.338 L170.687 583.338 L170.687 598.691 L195.317 598.691 Q200.866 598.691 202.446 597.192 Q204.026 595.653 204.026 590.994 L204.026 583.338 L210.264 583.338 L210.264 590.994 Q210.264 599.623 207.064 602.904 Q203.824 606.185 195.317 606.185 L170.687 606.185 L170.687 611.654 L164.894 611.654 L164.894 606.185 L152.012 606.185 L152.012 598.691 Z" fill="#000000" fill-rule="evenodd" fill-opacity="1" /><path clip-path="url(#clip230)" d="M147.313 529.259 Q156.63 534.687 165.745 537.32 Q174.86 539.953 184.217 539.953 Q193.575 539.953 202.77 537.32 Q211.925 534.646 221.202 529.259 L221.202 535.74 Q211.682 541.816 202.487 544.855 Q193.291 547.852 184.217 547.852 Q175.184 547.852 166.029 544.855 Q156.874 541.857 147.313 535.74 L147.313 529.259 Z" fill="#000000" fill-rule="evenodd" fill-opacity="1" /><path clip-path="url(#clip230)" d="M222.458 494.583 L222.458 498.634 L210.264 498.674 Q210.183 502.928 209.292 507.181 Q208.361 511.435 206.538 515.729 L199.246 515.729 Q201.839 511.597 203.175 507.384 Q204.472 503.13 204.512 498.634 L186.04 498.634 Q184.582 507.586 181.098 511.678 Q177.614 515.729 171.538 515.729 Q164.935 515.729 161.127 511.313 Q157.319 506.898 156.752 498.634 L147.232 498.634 L147.232 494.583 L156.63 494.583 Q156.793 490.816 157.441 487.291 Q158.048 483.767 159.142 480.405 L166.231 480.405 Q164.53 483.767 163.598 487.332 Q162.666 490.856 162.504 494.583 L179.802 494.583 Q181.219 485.387 184.865 481.053 Q188.511 476.718 194.83 476.718 Q201.677 476.718 205.646 481.336 Q209.576 485.914 210.183 494.583 L222.458 494.583 M179.072 498.634 L162.464 498.634 Q162.99 503.333 165.137 505.804 Q167.284 508.275 170.849 508.275 Q174.333 508.275 176.277 506.006 Q178.222 503.697 179.072 498.634 M186.85 494.583 L204.391 494.583 Q203.702 489.438 201.474 486.846 Q199.246 484.213 195.6 484.213 Q192.035 484.213 189.929 486.724 Q187.822 489.195 186.85 494.583 Z" fill="#000000" fill-rule="evenodd" fill-opacity="1" /><path clip-path="url(#clip230)" d="M149.784 448.767 L149.784 441.881 L217.961 462.945 L217.961 469.832 L149.784 448.767 Z" fill="#000000" fill-rule="evenodd" fill-opacity="1" /><path clip-path="url(#clip230)" d="M149.784 433.738 L149.784 421.545 L190.942 406.111 L149.784 390.596 L149.784 378.403 L210.264 378.403 L210.264 386.383 L157.157 386.383 L198.638 401.979 L198.638 410.203 L157.157 425.799 L210.264 425.799 L210.264 433.738 L149.784 433.738 Z" fill="#000000" fill-rule="evenodd" fill-opacity="1" /><path clip-path="url(#clip230)" d="M149.784 367.547 L149.784 359.283 L200.907 346.563 L149.784 333.884 L149.784 324.688 L200.907 311.968 L149.784 299.289 L149.784 290.984 L210.264 306.175 L210.264 316.465 L157.765 329.225 L210.264 342.107 L210.264 352.396 L149.784 367.547 Z" fill="#000000" fill-rule="evenodd" fill-opacity="1" /><path clip-path="url(#clip230)" d="M147.313 281.627 L147.313 275.145 Q156.874 269.069 166.029 266.071 Q175.184 263.033 184.217 263.033 Q193.291 263.033 202.487 266.071 Q211.682 269.069 221.202 275.145 L221.202 281.627 Q211.925 276.239 202.77 273.606 Q193.575 270.933 184.217 270.933 Q174.86 270.933 165.745 273.606 Q156.63 276.239 147.313 281.627 Z" fill="#000000" fill-rule="evenodd" fill-opacity="1" /><path clip-path="url(#clip230)" d="M806.848 24.1978 L806.848 84.6662 L819.556 84.6662 Q835.65 84.6662 843.097 77.3746 Q850.597 70.083 850.597 54.3539 Q850.597 38.729 843.097 31.4894 Q835.65 24.1978 819.556 24.1978 L806.848 24.1978 M796.327 15.552 L817.941 15.552 Q840.545 15.552 851.118 24.979 Q861.691 34.354 861.691 54.3539 Q861.691 74.4579 851.066 83.885 Q840.441 93.312 817.941 93.312 L796.327 93.312 L796.327 15.552 Z" fill="#000000" fill-rule="evenodd" fill-opacity="1" /><path clip-path="url(#clip230)" d="M878.045 34.979 L887.628 34.979 L887.628 93.312 L878.045 93.312 L878.045 34.979 M878.045 12.2708 L887.628 12.2708 L887.628 24.4061 L878.045 24.4061 L878.045 12.2708 Z" fill="#000000" fill-rule="evenodd" fill-opacity="1" /><path clip-path="url(#clip230)" d="M944.868 36.6977 L944.868 45.7602 Q940.805 43.6768 936.43 42.6352 Q932.055 41.5935 927.368 41.5935 Q920.232 41.5935 916.639 43.781 Q913.097 45.9685 913.097 50.3435 Q913.097 53.6768 915.649 55.6039 Q918.201 57.4789 925.909 59.1976 L929.191 59.9268 Q939.399 62.1143 943.67 66.1246 Q947.993 70.083 947.993 77.2183 Q947.993 85.3433 941.534 90.0829 Q935.128 94.8224 923.878 94.8224 Q919.191 94.8224 914.087 93.8849 Q909.035 92.9995 903.41 91.1766 L903.41 81.2808 Q908.722 84.0412 913.878 85.4475 Q919.035 86.8016 924.087 86.8016 Q930.857 86.8016 934.503 84.51 Q938.149 82.1662 938.149 77.9475 Q938.149 74.0413 935.493 71.9579 Q932.889 69.8746 923.982 67.9476 L920.649 67.1663 Q911.743 65.2913 907.785 61.4372 Q903.826 57.5309 903.826 50.7601 Q903.826 42.531 909.66 38.0519 Q915.493 33.5727 926.222 33.5727 Q931.534 33.5727 936.222 34.354 Q940.909 35.1352 944.868 36.6977 Z" fill="#000000" fill-rule="evenodd" fill-opacity="1" /><path clip-path="url(#clip230)" d="M972.524 84.562 L972.524 115.499 L962.888 115.499 L962.888 34.979 L972.524 34.979 L972.524 43.8331 Q975.545 38.6248 980.128 36.1248 Q984.763 33.5727 991.17 33.5727 Q1001.79 33.5727 1008.41 42.0102 Q1015.08 50.4476 1015.08 64.1976 Q1015.08 77.9475 1008.41 86.385 Q1001.79 94.8224 991.17 94.8224 Q984.763 94.8224 980.128 92.3224 Q975.545 89.7704 972.524 84.562 M1005.13 64.1976 Q1005.13 53.6247 1000.75 47.6352 Q996.43 41.5935 988.826 41.5935 Q981.222 41.5935 976.847 47.6352 Q972.524 53.6247 972.524 64.1976 Q972.524 74.7704 976.847 80.8121 Q981.222 86.8016 988.826 86.8016 Q996.43 86.8016 1000.75 80.8121 Q1005.13 74.7704 1005.13 64.1976 Z" fill="#000000" fill-rule="evenodd" fill-opacity="1" /><path clip-path="url(#clip230)" d="M1057.47 63.9892 Q1045.86 63.9892 1041.38 66.6455 Q1036.9 69.3017 1036.9 75.7079 Q1036.9 80.8121 1040.23 83.8329 Q1043.62 86.8016 1049.4 86.8016 Q1057.37 86.8016 1062.16 81.1766 Q1067 75.4996 1067 66.1246 L1067 63.9892 L1057.47 63.9892 M1076.59 60.0309 L1076.59 93.312 L1067 93.312 L1067 84.4579 Q1063.72 89.7704 1058.83 92.3224 Q1053.93 94.8224 1046.85 94.8224 Q1037.89 94.8224 1032.58 89.8224 Q1027.32 84.7704 1027.32 76.3329 Q1027.32 66.4892 1033.88 61.4893 Q1040.49 56.4893 1053.57 56.4893 L1067 56.4893 L1067 55.5518 Q1067 48.9372 1062.63 45.3435 Q1058.3 41.6977 1050.44 41.6977 Q1045.44 41.6977 1040.7 42.8956 Q1035.96 44.0935 1031.59 46.4893 L1031.59 37.6352 Q1036.85 35.604 1041.79 34.6144 Q1046.74 33.5727 1051.43 33.5727 Q1064.09 33.5727 1070.34 40.1352 Q1076.59 46.6977 1076.59 60.0309 Z" fill="#000000" fill-rule="evenodd" fill-opacity="1" /><path clip-path="url(#clip230)" d="M1105.8 18.4166 L1105.8 34.979 L1125.54 34.979 L1125.54 42.4269 L1105.8 42.4269 L1105.8 74.0934 Q1105.8 81.2287 1107.73 83.26 Q1109.71 85.2912 1115.7 85.2912 L1125.54 85.2912 L1125.54 93.312 L1115.7 93.312 Q1104.61 93.312 1100.39 89.1974 Q1096.17 85.0308 1096.17 74.0934 L1096.17 42.4269 L1089.14 42.4269 L1089.14 34.979 L1096.17 34.979 L1096.17 18.4166 L1105.8 18.4166 Z" fill="#000000" fill-rule="evenodd" fill-opacity="1" /><path clip-path="url(#clip230)" d="M1180.13 37.2186 L1180.13 46.1768 Q1176.06 43.9373 1171.95 42.8435 Q1167.89 41.6977 1163.72 41.6977 Q1154.4 41.6977 1149.24 47.6352 Q1144.09 53.5205 1144.09 64.1976 Q1144.09 74.8746 1149.24 80.8121 Q1154.4 86.6975 1163.72 86.6975 Q1167.89 86.6975 1171.95 85.6037 Q1176.06 84.4579 1180.13 82.2183 L1180.13 91.0724 Q1176.12 92.9474 1171.79 93.8849 Q1167.52 94.8224 1162.68 94.8224 Q1149.5 94.8224 1141.74 86.5412 Q1133.98 78.26 1133.98 64.1976 Q1133.98 49.9268 1141.79 41.7498 Q1149.66 33.5727 1163.3 33.5727 Q1167.73 33.5727 1171.95 34.5102 Q1176.17 35.3956 1180.13 37.2186 Z" fill="#000000" fill-rule="evenodd" fill-opacity="1" /><path clip-path="url(#clip230)" d="M1245.28 58.1039 L1245.28 93.312 L1235.7 93.312 L1235.7 58.4164 Q1235.7 50.1351 1232.47 46.0206 Q1229.24 41.906 1222.78 41.906 Q1215.02 41.906 1210.54 46.8539 Q1206.06 51.8018 1206.06 60.3434 L1206.06 93.312 L1196.43 93.312 L1196.43 12.2708 L1206.06 12.2708 L1206.06 44.0414 Q1209.5 38.781 1214.14 36.1769 Q1218.82 33.5727 1224.92 33.5727 Q1234.97 33.5727 1240.13 39.8227 Q1245.28 46.0206 1245.28 58.1039 Z" fill="#000000" fill-rule="evenodd" fill-opacity="1" /><path clip-path="url(#clip230)" d="M1345.33 18.1041 L1345.33 28.3644 Q1339.34 25.4999 1334.03 24.0936 Q1328.72 22.6874 1323.77 22.6874 Q1315.18 22.6874 1310.49 26.0207 Q1305.86 29.354 1305.86 35.4998 Q1305.86 40.656 1308.93 43.3123 Q1312.05 45.9164 1320.7 47.531 L1327.05 48.8331 Q1338.82 51.0726 1344.4 56.7497 Q1350.02 62.3747 1350.02 71.8538 Q1350.02 83.1558 1342.42 88.9891 Q1334.87 94.8224 1320.23 94.8224 Q1314.71 94.8224 1308.46 93.5724 Q1302.26 92.3224 1295.6 89.8745 L1295.6 79.0412 Q1302 82.635 1308.15 84.4579 Q1314.29 86.2808 1320.23 86.2808 Q1329.24 86.2808 1334.14 82.7391 Q1339.03 79.1975 1339.03 72.635 Q1339.03 66.9059 1335.49 63.6767 Q1332 60.4476 1323.98 58.833 L1317.57 57.583 Q1305.8 55.2393 1300.54 50.2393 Q1295.28 45.2393 1295.28 36.3331 Q1295.28 26.0207 1302.52 20.0832 Q1309.81 14.1458 1322.57 14.1458 Q1328.04 14.1458 1333.72 15.1353 Q1339.4 16.1249 1345.33 18.1041 Z" fill="#000000" fill-rule="evenodd" fill-opacity="1" /><path clip-path="url(#clip230)" d="M1375.49 18.4166 L1375.49 34.979 L1395.23 34.979 L1395.23 42.4269 L1375.49 42.4269 L1375.49 74.0934 Q1375.49 81.2287 1377.42 83.26 Q1379.4 85.2912 1385.39 85.2912 L1395.23 85.2912 L1395.23 93.312 L1385.39 93.312 Q1374.29 93.312 1370.07 89.1974 Q1365.86 85.0308 1365.86 74.0934 L1365.86 42.4269 L1358.82 42.4269 L1358.82 34.979 L1365.86 34.979 L1365.86 18.4166 L1375.49 18.4166 Z" fill="#000000" fill-rule="evenodd" fill-opacity="1" /><path clip-path="url(#clip230)" d="M1434.34 63.9892 Q1422.73 63.9892 1418.25 66.6455 Q1413.77 69.3017 1413.77 75.7079 Q1413.77 80.8121 1417.1 83.8329 Q1420.49 86.8016 1426.27 86.8016 Q1434.24 86.8016 1439.03 81.1766 Q1443.88 75.4996 1443.88 66.1246 L1443.88 63.9892 L1434.34 63.9892 M1453.46 60.0309 L1453.46 93.312 L1443.88 93.312 L1443.88 84.4579 Q1440.59 89.7704 1435.7 92.3224 Q1430.8 94.8224 1423.72 94.8224 Q1414.76 94.8224 1409.45 89.8224 Q1404.19 84.7704 1404.19 76.3329 Q1404.19 66.4892 1410.75 61.4893 Q1417.37 56.4893 1430.44 56.4893 L1443.88 56.4893 L1443.88 55.5518 Q1443.88 48.9372 1439.5 45.3435 Q1435.18 41.6977 1427.31 41.6977 Q1422.31 41.6977 1417.57 42.8956 Q1412.83 44.0935 1408.46 46.4893 L1408.46 37.6352 Q1413.72 35.604 1418.67 34.6144 Q1423.62 33.5727 1428.3 33.5727 Q1440.96 33.5727 1447.21 40.1352 Q1453.46 46.6977 1453.46 60.0309 Z" fill="#000000" fill-rule="evenodd" fill-opacity="1" /><path clip-path="url(#clip230)" d="M1515.18 37.2186 L1515.18 46.1768 Q1511.11 43.9373 1507 42.8435 Q1502.94 41.6977 1498.77 41.6977 Q1489.45 41.6977 1484.29 47.6352 Q1479.14 53.5205 1479.14 64.1976 Q1479.14 74.8746 1484.29 80.8121 Q1489.45 86.6975 1498.77 86.6975 Q1502.94 86.6975 1507 85.6037 Q1511.11 84.4579 1515.18 82.2183 L1515.18 91.0724 Q1511.17 92.9474 1506.84 93.8849 Q1502.57 94.8224 1497.73 94.8224 Q1484.55 94.8224 1476.79 86.5412 Q1469.03 78.26 1469.03 64.1976 Q1469.03 49.9268 1476.84 41.7498 Q1484.71 33.5727 1498.35 33.5727 Q1502.78 33.5727 1507 34.5102 Q1511.22 35.3956 1515.18 37.2186 Z" fill="#000000" fill-rule="evenodd" fill-opacity="1" /><path clip-path="url(#clip230)" d="M1531.48 12.2708 L1541.11 12.2708 L1541.11 60.1351 L1569.71 34.979 L1581.95 34.979 L1551.01 62.2705 L1583.25 93.312 L1570.75 93.312 L1541.11 64.8226 L1541.11 93.312 L1531.48 93.312 L1531.48 12.2708 Z" fill="#000000" fill-rule="evenodd" fill-opacity="1" /><path clip-path="url(#clip230)" d="M1674.55 18.1041 L1674.55 28.3644 Q1668.56 25.4999 1663.25 24.0936 Q1657.94 22.6874 1652.99 22.6874 Q1644.4 22.6874 1639.71 26.0207 Q1635.07 29.354 1635.07 35.4998 Q1635.07 40.656 1638.15 43.3123 Q1641.27 45.9164 1649.92 47.531 L1656.27 48.8331 Q1668.04 51.0726 1673.61 56.7497 Q1679.24 62.3747 1679.24 71.8538 Q1679.24 83.1558 1671.63 88.9891 Q1664.08 94.8224 1649.45 94.8224 Q1643.93 94.8224 1637.68 93.5724 Q1631.48 92.3224 1624.81 89.8745 L1624.81 79.0412 Q1631.22 82.635 1637.36 84.4579 Q1643.51 86.2808 1649.45 86.2808 Q1658.46 86.2808 1663.35 82.7391 Q1668.25 79.1975 1668.25 72.635 Q1668.25 66.9059 1664.71 63.6767 Q1661.22 60.4476 1653.2 58.833 L1646.79 57.583 Q1635.02 55.2393 1629.76 50.2393 Q1624.5 45.2393 1624.5 36.3331 Q1624.5 26.0207 1631.74 20.0832 Q1639.03 14.1458 1651.79 14.1458 Q1657.26 14.1458 1662.94 15.1353 Q1668.61 16.1249 1674.55 18.1041 Z" fill="#000000" fill-rule="evenodd" fill-opacity="1" /><path clip-path="url(#clip230)" d="M1694.24 70.2913 L1694.24 34.979 L1703.82 34.979 L1703.82 69.9267 Q1703.82 78.2079 1707.05 82.3746 Q1710.28 86.4891 1716.74 86.4891 Q1724.5 86.4891 1728.98 81.5412 Q1733.51 76.5933 1733.51 68.0517 L1733.51 34.979 L1743.09 34.979 L1743.09 93.312 L1733.51 93.312 L1733.51 84.3537 Q1730.02 89.6662 1725.38 92.2703 Q1720.8 94.8224 1714.71 94.8224 Q1704.66 94.8224 1699.45 88.5724 Q1694.24 82.3225 1694.24 70.2913 M1718.35 33.5727 L1718.35 33.5727 Z" fill="#000000" fill-rule="evenodd" fill-opacity="1" /><path clip-path="url(#clip230)" d="M1772.1 84.562 L1772.1 115.499 L1762.47 115.499 L1762.47 34.979 L1772.1 34.979 L1772.1 43.8331 Q1775.12 38.6248 1779.71 36.1248 Q1784.34 33.5727 1790.75 33.5727 Q1801.37 33.5727 1807.99 42.0102 Q1814.65 50.4476 1814.65 64.1976 Q1814.65 77.9475 1807.99 86.385 Q1801.37 94.8224 1790.75 94.8224 Q1784.34 94.8224 1779.71 92.3224 Q1775.12 89.7704 1772.1 84.562 M1804.71 64.1976 Q1804.71 53.6247 1800.33 47.6352 Q1796.01 41.5935 1788.4 41.5935 Q1780.8 41.5935 1776.43 47.6352 Q1772.1 53.6247 1772.1 64.1976 Q1772.1 74.7704 1776.43 80.8121 Q1780.8 86.8016 1788.4 86.8016 Q1796.01 86.8016 1800.33 80.8121 Q1804.71 74.7704 1804.71 64.1976 Z" fill="#000000" fill-rule="evenodd" fill-opacity="1" /><path clip-path="url(#clip230)" d="M1839.81 84.562 L1839.81 115.499 L1830.18 115.499 L1830.18 34.979 L1839.81 34.979 L1839.81 43.8331 Q1842.83 38.6248 1847.41 36.1248 Q1852.05 33.5727 1858.46 33.5727 Q1869.08 33.5727 1875.7 42.0102 Q1882.36 50.4476 1882.36 64.1976 Q1882.36 77.9475 1875.7 86.385 Q1869.08 94.8224 1858.46 94.8224 Q1852.05 94.8224 1847.41 92.3224 Q1842.83 89.7704 1839.81 84.562 M1872.41 64.1976 Q1872.41 53.6247 1868.04 47.6352 Q1863.72 41.5935 1856.11 41.5935 Q1848.51 41.5935 1844.13 47.6352 Q1839.81 53.6247 1839.81 64.1976 Q1839.81 74.7704 1844.13 80.8121 Q1848.51 86.8016 1856.11 86.8016 Q1863.72 86.8016 1868.04 80.8121 Q1872.41 74.7704 1872.41 64.1976 Z" fill="#000000" fill-rule="evenodd" fill-opacity="1" /><path clip-path="url(#clip230)" d="M1898.25 12.2708 L1907.83 12.2708 L1907.83 93.312 L1898.25 93.312 L1898.25 12.2708 Z" fill="#000000" fill-rule="evenodd" fill-opacity="1" /><path clip-path="url(#clip230)" d="M1952.15 98.7286 Q1948.09 109.145 1944.24 112.322 Q1940.38 115.499 1933.92 115.499 L1926.27 115.499 L1926.27 107.479 L1931.89 107.479 Q1935.85 107.479 1938.04 105.604 Q1940.23 103.729 1942.88 96.7495 L1944.6 92.3745 L1921.01 34.979 L1931.16 34.979 L1949.39 80.6037 L1967.62 34.979 L1977.78 34.979 L1952.15 98.7286 Z" fill="#000000" fill-rule="evenodd" fill-opacity="1" /><path clip-path="url(#clip230)" d="M2083.56 21.5416 L2083.56 32.6352 Q2078.25 27.6874 2072.21 25.2394 Q2066.22 22.7915 2059.45 22.7915 Q2046.11 22.7915 2039.03 30.9686 Q2031.95 39.0935 2031.95 54.5101 Q2031.95 69.8746 2039.03 78.0517 Q2046.11 86.1766 2059.45 86.1766 Q2066.22 86.1766 2072.21 83.7287 Q2078.25 81.2808 2083.56 76.3329 L2083.56 87.3224 Q2078.04 91.0724 2071.84 92.9474 Q2065.7 94.8224 2058.82 94.8224 Q2041.16 94.8224 2031.01 84.0412 Q2020.85 73.2079 2020.85 54.5101 Q2020.85 35.7602 2031.01 24.979 Q2041.16 14.1458 2058.82 14.1458 Q2065.8 14.1458 2071.95 16.0207 Q2078.14 17.8437 2083.56 21.5416 Z" fill="#000000" fill-rule="evenodd" fill-opacity="1" /><path clip-path="url(#clip230)" d="M2098.4 70.2913 L2098.4 34.979 L2107.99 34.979 L2107.99 69.9267 Q2107.99 78.2079 2111.22 82.3746 Q2114.44 86.4891 2120.9 86.4891 Q2128.66 86.4891 2133.14 81.5412 Q2137.67 76.5933 2137.67 68.0517 L2137.67 34.979 L2147.26 34.979 L2147.26 93.312 L2137.67 93.312 L2137.67 84.3537 Q2134.18 89.6662 2129.55 92.2703 Q2124.97 94.8224 2118.87 94.8224 Q2108.82 94.8224 2103.61 88.5724 Q2098.4 82.3225 2098.4 70.2913 M2122.52 33.5727 L2122.52 33.5727 Z" fill="#000000" fill-rule="evenodd" fill-opacity="1" /><path clip-path="url(#clip230)" d="M2200.8 43.9373 Q2199.18 42.9998 2197.26 42.5831 Q2195.38 42.1144 2193.09 42.1144 Q2184.97 42.1144 2180.59 47.4268 Q2176.27 52.6872 2176.27 62.583 L2176.27 93.312 L2166.63 93.312 L2166.63 34.979 L2176.27 34.979 L2176.27 44.0414 Q2179.29 38.729 2184.13 36.1769 Q2188.98 33.5727 2195.9 33.5727 Q2196.89 33.5727 2198.09 33.729 Q2199.29 33.8332 2200.75 34.0936 L2200.8 43.9373 Z" fill="#000000" fill-rule="evenodd" fill-opacity="1" /><path clip-path="url(#clip230)" d="M2203.98 34.979 L2214.13 34.979 L2232.36 83.9371 L2250.59 34.979 L2260.75 34.979 L2238.87 93.312 L2225.85 93.312 L2203.98 34.979 Z" fill="#000000" fill-rule="evenodd" fill-opacity="1" /><path clip-path="url(#clip230)" d="M2323.87 61.7497 L2323.87 66.4371 L2279.81 66.4371 Q2280.43 76.3329 2285.75 81.5412 Q2291.11 86.6975 2300.64 86.6975 Q2306.16 86.6975 2311.32 85.3433 Q2316.53 83.9891 2321.63 81.2808 L2321.63 90.3433 Q2316.47 92.5308 2311.06 93.6766 Q2305.64 94.8224 2300.07 94.8224 Q2286.11 94.8224 2277.93 86.6975 Q2269.81 78.5725 2269.81 64.7184 Q2269.81 50.3956 2277.52 42.0102 Q2285.28 33.5727 2298.4 33.5727 Q2310.17 33.5727 2317 41.1769 Q2323.87 48.7289 2323.87 61.7497 M2314.29 58.9372 Q2314.18 51.0726 2309.86 46.3852 Q2305.59 41.6977 2298.51 41.6977 Q2290.49 41.6977 2285.64 46.2289 Q2280.85 50.7601 2280.12 58.9893 L2314.29 58.9372 Z" fill="#000000" fill-rule="evenodd" fill-opacity="1" /><path clip-path="url(#clip232)" d="
M434.951 1242.25 L787.938 1242.25 L787.938 1218.77 L434.951 1218.77 L434.951 1242.25  Z
  " fill="#000000" fill-rule="evenodd" fill-opacity="0.5"/>
<polyline clip-path="url(#clip232)" style="stroke:#000000; stroke-linecap:round; stroke-linejoin:round; stroke-width:4; stroke-opacity:0.5; fill:none" points="
  434.951,1242.25 787.938,1242.25 787.938,1218.77 434.951,1218.77 434.951,1242.25 
  "/>
<path clip-path="url(#clip232)" d="
M787.938 1242.25 L964.432 1242.25 L964.432 1218.77 L787.938 1218.77 L787.938 1242.25  Z
  " fill="#44aa99" fill-rule="evenodd" fill-opacity="0.5"/>
<polyline clip-path="url(#clip232)" style="stroke:#000000; stroke-linecap:round; stroke-linejoin:round; stroke-width:4; stroke-opacity:0.5; fill:none" points="
  787.938,1242.25 964.432,1242.25 964.432,1218.77 787.938,1218.77 787.938,1242.25 
  "/>
<path clip-path="url(#clip232)" d="
M964.432 1242.25 L1096.8 1242.25 L1096.8 1218.77 L964.432 1218.77 L964.432 1242.25  Z
  " fill="#117733" fill-rule="evenodd" fill-opacity="0.5"/>
<polyline clip-path="url(#clip232)" style="stroke:#000000; stroke-linecap:round; stroke-linejoin:round; stroke-width:4; stroke-opacity:0.5; fill:none" points="
  964.432,1242.25 1096.8,1242.25 1096.8,1218.77 964.432,1218.77 964.432,1242.25 
  "/>
<path clip-path="url(#clip232)" d="
M1096.8 1242.25 L1802.78 1242.25 L1802.78 1148.32 L1096.8 1148.32 L1096.8 1242.25  Z
  " fill="#332288" fill-rule="evenodd" fill-opacity="0.5"/>
<polyline clip-path="url(#clip232)" style="stroke:#000000; stroke-linecap:round; stroke-linejoin:round; stroke-width:4; stroke-opacity:0.5; fill:none" points="
  1096.8,1242.25 1802.78,1242.25 1802.78,1148.32 1096.8,1148.32 1096.8,1242.25 
  "/>
<path clip-path="url(#clip232)" d="
M1802.78 1242.25 L2279.31 1242.25 L2279.31 232.498 L1802.78 232.498 L1802.78 1242.25  Z
  " fill="#ddcc77" fill-rule="evenodd" fill-opacity="0.5"/>
<polyline clip-path="url(#clip232)" style="stroke:#000000; stroke-linecap:round; stroke-linejoin:round; stroke-width:4; stroke-opacity:0.5; fill:none" points="
  1802.78,1242.25 2279.31,1242.25 2279.31,232.498 1802.78,232.498 1802.78,1242.25 
  "/>
<path clip-path="url(#clip232)" d="
M2279.31 1242.25 L2685.25 1242.25 L2685.25 162.05 L2279.31 162.05 L2279.31 1242.25  Z
  " fill="#999933" fill-rule="evenodd" fill-opacity="0.5"/>
<polyline clip-path="url(#clip232)" style="stroke:#000000; stroke-linecap:round; stroke-linejoin:round; stroke-width:4; stroke-opacity:0.5; fill:none" points="
  2279.31,1242.25 2685.25,1242.25 2685.25,162.05 2279.31,162.05 2279.31,1242.25 
  "/>
<polyline clip-path="url(#clip232)" style="stroke:#000000; stroke-linecap:round; stroke-linejoin:round; stroke-width:12; stroke-opacity:1; fill:none" stroke-dasharray="48, 30" points="
  2023.4,2419.67 2023.4,-1015.37 
  "/>
<polyline clip-path="url(#clip232)" style="stroke:#0000ff; stroke-linecap:round; stroke-linejoin:round; stroke-width:12; stroke-opacity:1; fill:none" stroke-dasharray="6, 12" points="
  -2017.87,232.498 5138.07,232.498 
  "/>
<path clip-path="url(#clip230)" d="
M446.952 961.351 L1160.77 961.351 L1160.77 378.151 L446.952 378.151  Z
  " fill="#ffffff" fill-rule="evenodd" fill-opacity="1"/>
<polyline clip-path="url(#clip230)" style="stroke:#000000; stroke-linecap:round; stroke-linejoin:round; stroke-width:4; stroke-opacity:1; fill:none" points="
  446.952,961.351 1160.77,961.351 1160.77,378.151 446.952,378.151 446.952,961.351 
  "/>
<path clip-path="url(#clip230)" d="
M473.456 468.871 L632.477 468.871 L632.477 417.031 L473.456 417.031 L473.456 468.871  Z
  " fill="#000000" fill-rule="evenodd" fill-opacity="0.5"/>
<polyline clip-path="url(#clip230)" style="stroke:#000000; stroke-linecap:round; stroke-linejoin:round; stroke-width:4; stroke-opacity:1; fill:none" points="
  473.456,468.871 632.477,468.871 632.477,417.031 473.456,417.031 473.456,468.871 
  "/>
<path clip-path="url(#clip230)" d="M684.414 438.365 Q686.411 434.777 689.188 433.07 Q691.966 431.363 695.728 431.363 Q700.791 431.363 703.54 434.922 Q706.289 438.452 706.289 444.991 L706.289 464.551 L700.936 464.551 L700.936 445.165 Q700.936 440.506 699.287 438.249 Q697.637 435.992 694.252 435.992 Q690.114 435.992 687.713 438.741 Q685.311 441.49 685.311 446.235 L685.311 464.551 L679.958 464.551 L679.958 445.165 Q679.958 440.477 678.309 438.249 Q676.659 435.992 673.216 435.992 Q669.136 435.992 666.735 438.77 Q664.333 441.519 664.333 446.235 L664.333 464.551 L658.98 464.551 L658.98 432.144 L664.333 432.144 L664.333 437.179 Q666.156 434.198 668.702 432.781 Q671.249 431.363 674.75 431.363 Q678.28 431.363 680.739 433.157 Q683.228 434.951 684.414 438.365 Z" fill="#000000" fill-rule="evenodd" fill-opacity="1" /><path clip-path="url(#clip230)" d="M716.908 432.144 L722.232 432.144 L722.232 464.551 L716.908 464.551 L716.908 432.144 M716.908 419.528 L722.232 419.528 L722.232 426.27 L716.908 426.27 L716.908 419.528 Z" fill="#000000" fill-rule="evenodd" fill-opacity="1" /><path clip-path="url(#clip230)" d="M760.311 444.991 L760.311 464.551 L754.987 464.551 L754.987 445.165 Q754.987 440.564 753.193 438.278 Q751.399 435.992 747.811 435.992 Q743.499 435.992 741.011 438.741 Q738.523 441.49 738.523 446.235 L738.523 464.551 L733.17 464.551 L733.17 432.144 L738.523 432.144 L738.523 437.179 Q740.432 434.256 743.007 432.81 Q745.612 431.363 748.997 431.363 Q754.581 431.363 757.446 434.835 Q760.311 438.278 760.311 444.991 Z" fill="#000000" fill-rule="evenodd" fill-opacity="1" /><path clip-path="url(#clip230)" d="M770.93 432.144 L776.254 432.144 L776.254 464.551 L770.93 464.551 L770.93 432.144 M770.93 419.528 L776.254 419.528 L776.254 426.27 L770.93 426.27 L770.93 419.528 Z" fill="#000000" fill-rule="evenodd" fill-opacity="1" /><path clip-path="url(#clip230)" d="M812.625 438.365 Q814.622 434.777 817.399 433.07 Q820.177 431.363 823.939 431.363 Q829.002 431.363 831.751 434.922 Q834.5 438.452 834.5 444.991 L834.5 464.551 L829.147 464.551 L829.147 445.165 Q829.147 440.506 827.498 438.249 Q825.848 435.992 822.463 435.992 Q818.325 435.992 815.924 438.741 Q813.522 441.49 813.522 446.235 L813.522 464.551 L808.169 464.551 L808.169 445.165 Q808.169 440.477 806.52 438.249 Q804.871 435.992 801.427 435.992 Q797.347 435.992 794.946 438.77 Q792.544 441.519 792.544 446.235 L792.544 464.551 L787.191 464.551 L787.191 432.144 L792.544 432.144 L792.544 437.179 Q794.367 434.198 796.913 432.781 Q799.46 431.363 802.961 431.363 Q806.491 431.363 808.95 433.157 Q811.439 434.951 812.625 438.365 Z" fill="#000000" fill-rule="evenodd" fill-opacity="1" /><path clip-path="url(#clip230)" d="M844.569 451.762 L844.569 432.144 L849.893 432.144 L849.893 451.559 Q849.893 456.16 851.687 458.475 Q853.481 460.761 857.069 460.761 Q861.381 460.761 863.869 458.012 Q866.386 455.263 866.386 450.518 L866.386 432.144 L871.71 432.144 L871.71 464.551 L866.386 464.551 L866.386 459.574 Q864.448 462.526 861.873 463.973 Q859.326 465.39 855.941 465.39 Q850.356 465.39 847.463 461.918 Q844.569 458.446 844.569 451.762 M857.966 431.363 L857.966 431.363 Z" fill="#000000" fill-rule="evenodd" fill-opacity="1" /><path clip-path="url(#clip230)" d="M907.908 438.365 Q909.905 434.777 912.682 433.07 Q915.46 431.363 919.222 431.363 Q924.285 431.363 927.034 434.922 Q929.783 438.452 929.783 444.991 L929.783 464.551 L924.43 464.551 L924.43 445.165 Q924.43 440.506 922.781 438.249 Q921.131 435.992 917.746 435.992 Q913.608 435.992 911.207 438.741 Q908.805 441.49 908.805 446.235 L908.805 464.551 L903.452 464.551 L903.452 445.165 Q903.452 440.477 901.803 438.249 Q900.154 435.992 896.71 435.992 Q892.63 435.992 890.229 438.77 Q887.827 441.519 887.827 446.235 L887.827 464.551 L882.474 464.551 L882.474 432.144 L887.827 432.144 L887.827 437.179 Q889.65 434.198 892.196 432.781 Q894.743 431.363 898.244 431.363 Q901.774 431.363 904.233 433.157 Q906.722 434.951 907.908 438.365 Z" fill="#000000" fill-rule="evenodd" fill-opacity="1" /><path clip-path="url(#clip230)" d="
M473.456 533.671 L632.477 533.671 L632.477 481.831 L473.456 481.831 L473.456 533.671  Z
  " fill="#44aa99" fill-rule="evenodd" fill-opacity="0.5"/>
<polyline clip-path="url(#clip230)" style="stroke:#000000; stroke-linecap:round; stroke-linejoin:round; stroke-width:4; stroke-opacity:1; fill:none" points="
  473.456,533.671 632.477,533.671 632.477,481.831 473.456,481.831 473.456,533.671 
  "/>
<path clip-path="url(#clip230)" d="M658.98 496.944 L664.304 496.944 L670.959 522.233 L677.585 496.944 L683.864 496.944 L690.519 522.233 L697.145 496.944 L702.469 496.944 L693.991 529.351 L687.713 529.351 L680.739 502.789 L673.737 529.351 L667.458 529.351 L658.98 496.944 Z" fill="#000000" fill-rule="evenodd" fill-opacity="1" /><path clip-path="url(#clip230)" d="M710.542 496.944 L715.866 496.944 L715.866 529.351 L710.542 529.351 L710.542 496.944 M710.542 484.328 L715.866 484.328 L715.866 491.07 L710.542 491.07 L710.542 484.328 Z" fill="#000000" fill-rule="evenodd" fill-opacity="1" /><path clip-path="url(#clip230)" d="M753.945 509.791 L753.945 529.351 L748.621 529.351 L748.621 509.965 Q748.621 505.364 746.827 503.078 Q745.033 500.792 741.445 500.792 Q737.134 500.792 734.645 503.541 Q732.157 506.29 732.157 511.035 L732.157 529.351 L726.804 529.351 L726.804 496.944 L732.157 496.944 L732.157 501.979 Q734.067 499.056 736.642 497.61 Q739.246 496.163 742.631 496.163 Q748.216 496.163 751.08 499.635 Q753.945 503.078 753.945 509.791 Z" fill="#000000" fill-rule="evenodd" fill-opacity="1" /><path clip-path="url(#clip230)" d="M785.889 501.863 L785.889 484.328 L791.213 484.328 L791.213 529.351 L785.889 529.351 L785.889 524.49 Q784.211 527.384 781.636 528.802 Q779.089 530.19 775.501 530.19 Q769.628 530.19 765.924 525.503 Q762.249 520.815 762.249 513.177 Q762.249 505.538 765.924 500.85 Q769.628 496.163 775.501 496.163 Q779.089 496.163 781.636 497.581 Q784.211 498.969 785.889 501.863 M767.747 513.177 Q767.747 519.05 770.148 522.407 Q772.579 525.734 776.804 525.734 Q781.028 525.734 783.459 522.407 Q785.889 519.05 785.889 513.177 Q785.889 507.303 783.459 503.975 Q781.028 500.619 776.804 500.619 Q772.579 500.619 770.148 503.975 Q767.747 507.303 767.747 513.177 Z" fill="#000000" fill-rule="evenodd" fill-opacity="1" /><path clip-path="url(#clip230)" d="
M473.456 598.471 L632.477 598.471 L632.477 546.631 L473.456 546.631 L473.456 598.471  Z
  " fill="#117733" fill-rule="evenodd" fill-opacity="0.5"/>
<polyline clip-path="url(#clip230)" style="stroke:#000000; stroke-linecap:round; stroke-linejoin:round; stroke-width:4; stroke-opacity:1; fill:none" points="
  473.456,598.471 632.477,598.471 632.477,546.631 473.456,546.631 473.456,598.471 
  "/>
<path clip-path="url(#clip230)" d="M686.121 574.591 L686.121 594.151 L680.797 594.151 L680.797 574.765 Q680.797 570.164 679.003 567.878 Q677.209 565.592 673.621 565.592 Q669.31 565.592 666.822 568.341 Q664.333 571.09 664.333 575.835 L664.333 594.151 L658.98 594.151 L658.98 549.128 L664.333 549.128 L664.333 566.779 Q666.243 563.856 668.818 562.41 Q671.422 560.963 674.808 560.963 Q680.392 560.963 683.257 564.435 Q686.121 567.878 686.121 574.591 Z" fill="#000000" fill-rule="evenodd" fill-opacity="1" /><path clip-path="url(#clip230)" d="M710.224 597.161 Q707.967 602.948 705.826 604.713 Q703.685 606.478 700.097 606.478 L695.843 606.478 L695.843 602.022 L698.968 602.022 Q701.167 602.022 702.383 600.98 Q703.598 599.938 705.074 596.061 L706.028 593.63 L692.921 561.744 L698.563 561.744 L708.69 587.091 L718.818 561.744 L724.46 561.744 L710.224 597.161 Z" fill="#000000" fill-rule="evenodd" fill-opacity="1" /><path clip-path="url(#clip230)" d="M753.135 566.663 L753.135 549.128 L758.459 549.128 L758.459 594.151 L753.135 594.151 L753.135 589.29 Q751.456 592.184 748.881 593.602 Q746.335 594.99 742.747 594.99 Q736.873 594.99 733.17 590.303 Q729.495 585.615 729.495 577.977 Q729.495 570.338 733.17 565.65 Q736.873 560.963 742.747 560.963 Q746.335 560.963 748.881 562.381 Q751.456 563.769 753.135 566.663 M734.992 577.977 Q734.992 583.85 737.394 587.207 Q739.825 590.534 744.049 590.534 Q748.274 590.534 750.704 587.207 Q753.135 583.85 753.135 577.977 Q753.135 572.103 750.704 568.775 Q748.274 565.419 744.049 565.419 Q739.825 565.419 737.394 568.775 Q734.992 572.103 734.992 577.977 Z" fill="#000000" fill-rule="evenodd" fill-opacity="1" /><path clip-path="url(#clip230)" d="M788.204 566.721 Q787.307 566.2 786.236 565.969 Q785.195 565.708 783.922 565.708 Q779.408 565.708 776.977 568.66 Q774.576 571.582 774.576 577.08 L774.576 594.151 L769.223 594.151 L769.223 561.744 L774.576 561.744 L774.576 566.779 Q776.254 563.827 778.945 562.41 Q781.636 560.963 785.484 560.963 Q786.034 560.963 786.699 561.05 Q787.365 561.107 788.175 561.252 L788.204 566.721 Z" fill="#000000" fill-rule="evenodd" fill-opacity="1" /><path clip-path="url(#clip230)" d="M805.044 565.477 Q800.762 565.477 798.273 568.833 Q795.785 572.161 795.785 577.977 Q795.785 583.793 798.244 587.149 Q800.733 590.477 805.044 590.477 Q809.298 590.477 811.786 587.12 Q814.274 583.764 814.274 577.977 Q814.274 572.219 811.786 568.862 Q809.298 565.477 805.044 565.477 M805.044 560.963 Q811.989 560.963 815.953 565.477 Q819.917 569.991 819.917 577.977 Q819.917 585.934 815.953 590.477 Q811.989 594.99 805.044 594.99 Q798.071 594.99 794.107 590.477 Q790.172 585.934 790.172 577.977 Q790.172 569.991 794.107 565.477 Q798.071 560.963 805.044 560.963 Z" fill="#000000" fill-rule="evenodd" fill-opacity="1" /><path clip-path="url(#clip230)" d="
M473.456 663.271 L632.477 663.271 L632.477 611.431 L473.456 611.431 L473.456 663.271  Z
  " fill="#332288" fill-rule="evenodd" fill-opacity="0.5"/>
<polyline clip-path="url(#clip230)" style="stroke:#000000; stroke-linecap:round; stroke-linejoin:round; stroke-width:4; stroke-opacity:1; fill:none" points="
  473.456,663.271 632.477,663.271 632.477,611.431 473.456,611.431 473.456,663.271 
  "/>
<path clip-path="url(#clip230)" d="M686.121 639.391 L686.121 658.951 L680.797 658.951 L680.797 639.565 Q680.797 634.964 679.003 632.678 Q677.209 630.392 673.621 630.392 Q669.31 630.392 666.822 633.141 Q664.333 635.89 664.333 640.635 L664.333 658.951 L658.98 658.951 L658.98 626.544 L664.333 626.544 L664.333 631.579 Q666.243 628.656 668.818 627.21 Q671.422 625.763 674.808 625.763 Q680.392 625.763 683.257 629.235 Q686.121 632.678 686.121 639.391 Z" fill="#000000" fill-rule="evenodd" fill-opacity="1" /><path clip-path="url(#clip230)" d="M696.191 646.162 L696.191 626.544 L701.515 626.544 L701.515 645.959 Q701.515 650.56 703.309 652.875 Q705.103 655.161 708.69 655.161 Q713.002 655.161 715.49 652.412 Q718.008 649.663 718.008 644.918 L718.008 626.544 L723.332 626.544 L723.332 658.951 L718.008 658.951 L718.008 653.974 Q716.069 656.926 713.494 658.373 Q710.947 659.79 707.562 659.79 Q701.978 659.79 699.084 656.318 Q696.191 652.846 696.191 646.162 M709.587 625.763 L709.587 625.763 Z" fill="#000000" fill-rule="evenodd" fill-opacity="1" /><path clip-path="url(#clip230)" d="M757.62 627.788 L757.62 632.765 Q755.363 631.521 753.077 630.913 Q750.82 630.277 748.505 630.277 Q743.326 630.277 740.461 633.575 Q737.597 636.845 737.597 642.777 Q737.597 648.708 740.461 652.007 Q743.326 655.277 748.505 655.277 Q750.82 655.277 753.077 654.669 Q755.363 654.032 757.62 652.788 L757.62 657.707 Q755.392 658.749 752.99 659.27 Q750.617 659.79 747.926 659.79 Q740.606 659.79 736.295 655.19 Q731.983 650.589 731.983 642.777 Q731.983 634.848 736.323 630.306 Q740.693 625.763 748.274 625.763 Q750.733 625.763 753.077 626.284 Q755.421 626.776 757.62 627.788 Z" fill="#000000" fill-rule="evenodd" fill-opacity="1" /><path clip-path="url(#clip230)" d="M766.879 613.928 L772.203 613.928 L772.203 658.951 L766.879 658.951 L766.879 613.928 Z" fill="#000000" fill-rule="evenodd" fill-opacity="1" /><path clip-path="url(#clip230)" d="M811.063 641.417 L811.063 644.021 L786.584 644.021 Q786.931 649.518 789.882 652.412 Q792.862 655.277 798.158 655.277 Q801.225 655.277 804.089 654.524 Q806.983 653.772 809.818 652.267 L809.818 657.302 Q806.954 658.517 803.945 659.154 Q800.935 659.79 797.839 659.79 Q790.085 659.79 785.542 655.277 Q781.028 650.763 781.028 643.066 Q781.028 635.109 785.31 630.45 Q789.622 625.763 796.913 625.763 Q803.453 625.763 807.243 629.987 Q811.063 634.183 811.063 641.417 M805.739 639.854 Q805.681 635.485 803.279 632.881 Q800.906 630.277 796.971 630.277 Q792.515 630.277 789.824 632.794 Q787.162 635.311 786.757 639.883 L805.739 639.854 Z" fill="#000000" fill-rule="evenodd" fill-opacity="1" /><path clip-path="url(#clip230)" d="M834.529 642.661 Q828.076 642.661 825.588 644.137 Q823.1 645.612 823.1 649.171 Q823.1 652.007 824.951 653.685 Q826.832 655.334 830.044 655.334 Q834.471 655.334 837.133 652.209 Q839.824 649.055 839.824 643.847 L839.824 642.661 L834.529 642.661 M845.148 640.462 L845.148 658.951 L839.824 658.951 L839.824 654.032 Q838.001 656.984 835.281 658.402 Q832.561 659.79 828.626 659.79 Q823.649 659.79 820.698 657.013 Q817.776 654.206 817.776 649.518 Q817.776 644.05 821.421 641.272 Q825.096 638.494 832.359 638.494 L839.824 638.494 L839.824 637.973 Q839.824 634.299 837.394 632.302 Q834.992 630.277 830.623 630.277 Q827.845 630.277 825.212 630.942 Q822.579 631.608 820.148 632.939 L820.148 628.02 Q823.071 626.891 825.819 626.341 Q828.568 625.763 831.172 625.763 Q838.204 625.763 841.676 629.409 Q845.148 633.054 845.148 640.462 Z" fill="#000000" fill-rule="evenodd" fill-opacity="1" /><path clip-path="url(#clip230)" d="M874.893 631.521 Q873.996 631 872.926 630.769 Q871.884 630.508 870.611 630.508 Q866.097 630.508 863.667 633.46 Q861.265 636.382 861.265 641.88 L861.265 658.951 L855.912 658.951 L855.912 626.544 L861.265 626.544 L861.265 631.579 Q862.943 628.627 865.634 627.21 Q868.325 625.763 872.173 625.763 Q872.723 625.763 873.389 625.85 Q874.054 625.907 874.864 626.052 L874.893 631.521 Z" fill="#000000" fill-rule="evenodd" fill-opacity="1" /><path clip-path="url(#clip230)" d="
M473.456 728.071 L632.477 728.071 L632.477 676.231 L473.456 676.231 L473.456 728.071  Z
  " fill="#ddcc77" fill-rule="evenodd" fill-opacity="0.5"/>
<polyline clip-path="url(#clip230)" style="stroke:#000000; stroke-linecap:round; stroke-linejoin:round; stroke-width:4; stroke-opacity:1; fill:none" points="
  473.456,728.071 632.477,728.071 632.477,676.231 473.456,676.231 473.456,728.071 
  "/>
<path clip-path="url(#clip230)" d="M684.617 692.588 L684.617 697.565 Q682.36 696.321 680.074 695.713 Q677.817 695.077 675.502 695.077 Q670.323 695.077 667.458 698.375 Q664.594 701.645 664.594 707.577 Q664.594 713.508 667.458 716.807 Q670.323 720.077 675.502 720.077 Q677.817 720.077 680.074 719.469 Q682.36 718.832 684.617 717.588 L684.617 722.507 Q682.389 723.549 679.987 724.07 Q677.614 724.59 674.923 724.59 Q667.603 724.59 663.291 719.99 Q658.98 715.389 658.98 707.577 Q658.98 699.648 663.32 695.106 Q667.69 690.563 675.271 690.563 Q677.73 690.563 680.074 691.084 Q682.417 691.576 684.617 692.588 Z" fill="#000000" fill-rule="evenodd" fill-opacity="1" /><path clip-path="url(#clip230)" d="M706.434 695.077 Q702.151 695.077 699.663 698.433 Q697.174 701.761 697.174 707.577 Q697.174 713.393 699.634 716.749 Q702.122 720.077 706.434 720.077 Q710.687 720.077 713.175 716.72 Q715.664 713.364 715.664 707.577 Q715.664 701.819 713.175 698.462 Q710.687 695.077 706.434 695.077 M706.434 690.563 Q713.378 690.563 717.342 695.077 Q721.306 699.591 721.306 707.577 Q721.306 715.534 717.342 720.077 Q713.378 724.59 706.434 724.59 Q699.46 724.59 695.496 720.077 Q691.561 715.534 691.561 707.577 Q691.561 699.591 695.496 695.077 Q699.46 690.563 706.434 690.563 Z" fill="#000000" fill-rule="evenodd" fill-opacity="1" /><path clip-path="url(#clip230)" d="M744.859 707.461 Q738.407 707.461 735.918 708.937 Q733.43 710.412 733.43 713.971 Q733.43 716.807 735.282 718.485 Q737.163 720.134 740.374 720.134 Q744.801 720.134 747.463 717.009 Q750.154 713.855 750.154 708.647 L750.154 707.461 L744.859 707.461 M755.478 705.262 L755.478 723.751 L750.154 723.751 L750.154 718.832 Q748.331 721.784 745.612 723.202 Q742.892 724.59 738.957 724.59 Q733.98 724.59 731.028 721.813 Q728.106 719.006 728.106 714.318 Q728.106 708.85 731.752 706.072 Q735.426 703.294 742.689 703.294 L750.154 703.294 L750.154 702.773 Q750.154 699.099 747.724 697.102 Q745.322 695.077 740.953 695.077 Q738.175 695.077 735.542 695.742 Q732.909 696.408 730.479 697.739 L730.479 692.82 Q733.401 691.691 736.15 691.141 Q738.899 690.563 741.503 690.563 Q748.534 690.563 752.006 694.209 Q755.478 697.854 755.478 705.262 Z" fill="#000000" fill-rule="evenodd" fill-opacity="1" /><path clip-path="url(#clip230)" d="M766.445 678.728 L771.769 678.728 L771.769 723.751 L766.445 723.751 L766.445 678.728 Z" fill="#000000" fill-rule="evenodd" fill-opacity="1" /><path clip-path="url(#clip230)" d="
M473.456 792.871 L632.477 792.871 L632.477 741.031 L473.456 741.031 L473.456 792.871  Z
  " fill="#999933" fill-rule="evenodd" fill-opacity="0.5"/>
<polyline clip-path="url(#clip230)" style="stroke:#000000; stroke-linecap:round; stroke-linejoin:round; stroke-width:4; stroke-opacity:1; fill:none" points="
  473.456,792.871 632.477,792.871 632.477,741.031 473.456,741.031 473.456,792.871 
  "/>
<path clip-path="url(#clip230)" d="M686.121 768.991 L686.121 788.551 L680.797 788.551 L680.797 769.165 Q680.797 764.564 679.003 762.278 Q677.209 759.992 673.621 759.992 Q669.31 759.992 666.822 762.741 Q664.333 765.49 664.333 770.235 L664.333 788.551 L658.98 788.551 L658.98 756.144 L664.333 756.144 L664.333 761.179 Q666.243 758.256 668.818 756.81 Q671.422 755.363 674.808 755.363 Q680.392 755.363 683.257 758.835 Q686.121 762.278 686.121 768.991 Z" fill="#000000" fill-rule="evenodd" fill-opacity="1" /><path clip-path="url(#clip230)" d="M711.468 772.261 Q705.016 772.261 702.527 773.737 Q700.039 775.212 700.039 778.771 Q700.039 781.607 701.891 783.285 Q703.772 784.934 706.983 784.934 Q711.41 784.934 714.072 781.809 Q716.763 778.655 716.763 773.447 L716.763 772.261 L711.468 772.261 M722.087 770.062 L722.087 788.551 L716.763 788.551 L716.763 783.632 Q714.94 786.584 712.221 788.002 Q709.501 789.39 705.566 789.39 Q700.589 789.39 697.637 786.613 Q694.715 783.806 694.715 779.118 Q694.715 773.65 698.361 770.872 Q702.035 768.094 709.298 768.094 L716.763 768.094 L716.763 767.573 Q716.763 763.899 714.333 761.902 Q711.931 759.877 707.562 759.877 Q704.784 759.877 702.151 760.542 Q699.518 761.208 697.088 762.539 L697.088 757.62 Q700.01 756.491 702.759 755.941 Q705.508 755.363 708.112 755.363 Q715.143 755.363 718.615 759.009 Q722.087 762.654 722.087 770.062 Z" fill="#000000" fill-rule="evenodd" fill-opacity="1" /><path clip-path="url(#clip230)" d="M738.32 746.943 L738.32 756.144 L749.286 756.144 L749.286 760.282 L738.32 760.282 L738.32 777.874 Q738.32 781.838 739.391 782.967 Q740.49 784.095 743.818 784.095 L749.286 784.095 L749.286 788.551 L743.818 788.551 Q737.654 788.551 735.311 786.265 Q732.967 783.951 732.967 777.874 L732.967 760.282 L729.061 760.282 L729.061 756.144 L732.967 756.144 L732.967 746.943 L738.32 746.943 Z" fill="#000000" fill-rule="evenodd" fill-opacity="1" /><path clip-path="url(#clip230)" d="M777.614 771.971 Q777.614 766.184 775.212 763.002 Q772.839 759.819 768.528 759.819 Q764.246 759.819 761.844 763.002 Q759.471 766.184 759.471 771.971 Q759.471 777.73 761.844 780.912 Q764.246 784.095 768.528 784.095 Q772.839 784.095 775.212 780.912 Q777.614 777.73 777.614 771.971 M782.938 784.529 Q782.938 792.805 779.263 796.827 Q775.588 800.878 768.007 800.878 Q765.201 800.878 762.712 800.444 Q760.224 800.038 757.88 799.17 L757.88 793.991 Q760.224 795.264 762.51 795.872 Q764.796 796.479 767.168 796.479 Q772.405 796.479 775.01 793.731 Q777.614 791.011 777.614 785.484 L777.614 782.851 Q775.964 785.716 773.389 787.133 Q770.814 788.551 767.226 788.551 Q761.265 788.551 757.62 784.008 Q753.974 779.466 753.974 771.971 Q753.974 764.448 757.62 759.906 Q761.265 755.363 767.226 755.363 Q770.814 755.363 773.389 756.781 Q775.964 758.198 777.614 761.063 L777.614 756.144 L782.938 756.144 L782.938 784.529 Z" fill="#000000" fill-rule="evenodd" fill-opacity="1" /><path clip-path="url(#clip230)" d="M808.632 772.261 Q802.18 772.261 799.691 773.737 Q797.203 775.212 797.203 778.771 Q797.203 781.607 799.055 783.285 Q800.935 784.934 804.147 784.934 Q808.574 784.934 811.236 781.809 Q813.927 778.655 813.927 773.447 L813.927 772.261 L808.632 772.261 M819.251 770.062 L819.251 788.551 L813.927 788.551 L813.927 783.632 Q812.104 786.584 809.384 788.002 Q806.665 789.39 802.729 789.39 Q797.753 789.39 794.801 786.613 Q791.879 783.806 791.879 779.118 Q791.879 773.65 795.525 770.872 Q799.199 768.094 806.462 768.094 L813.927 768.094 L813.927 767.573 Q813.927 763.899 811.497 761.902 Q809.095 759.877 804.726 759.877 Q801.948 759.877 799.315 760.542 Q796.682 761.208 794.251 762.539 L794.251 757.62 Q797.174 756.491 799.923 755.941 Q802.671 755.363 805.276 755.363 Q812.307 755.363 815.779 759.009 Q819.251 762.654 819.251 770.062 Z" fill="#000000" fill-rule="evenodd" fill-opacity="1" /><path clip-path="url(#clip230)" d="M850.877 757.099 L850.877 762.134 Q848.62 760.976 846.19 760.397 Q843.759 759.819 841.155 759.819 Q837.191 759.819 835.194 761.034 Q833.227 762.249 833.227 764.68 Q833.227 766.532 834.645 767.602 Q836.062 768.644 840.345 769.599 L842.168 770.004 Q847.839 771.219 850.212 773.447 Q852.613 775.646 852.613 779.61 Q852.613 784.124 849.025 786.757 Q845.466 789.39 839.216 789.39 Q836.612 789.39 833.777 788.87 Q830.97 788.378 827.845 787.365 L827.845 781.867 Q830.796 783.401 833.661 784.182 Q836.525 784.934 839.332 784.934 Q843.094 784.934 845.119 783.661 Q847.145 782.359 847.145 780.015 Q847.145 777.845 845.669 776.688 Q844.222 775.531 839.274 774.46 L837.422 774.026 Q832.475 772.984 830.275 770.843 Q828.076 768.673 828.076 764.911 Q828.076 760.34 831.317 757.851 Q834.558 755.363 840.518 755.363 Q843.47 755.363 846.074 755.797 Q848.678 756.231 850.877 757.099 Z" fill="#000000" fill-rule="evenodd" fill-opacity="1" /><polyline clip-path="url(#clip230)" style="stroke:#000000; stroke-linecap:round; stroke-linejoin:round; stroke-width:5; stroke-opacity:1; fill:none" stroke-dasharray="20, 13" points="
  473.456,831.751 632.477,831.751 
  "/>
<path clip-path="url(#clip230)" d="M682.62 825.863 L682.62 808.328 L687.944 808.328 L687.944 853.351 L682.62 853.351 L682.62 848.49 Q680.942 851.384 678.367 852.802 Q675.82 854.19 672.232 854.19 Q666.359 854.19 662.655 849.503 Q658.98 844.815 658.98 837.177 Q658.98 829.538 662.655 824.85 Q666.359 820.163 672.232 820.163 Q675.82 820.163 678.367 821.581 Q680.942 822.969 682.62 825.863 M664.478 837.177 Q664.478 843.05 666.879 846.407 Q669.31 849.734 673.534 849.734 Q677.759 849.734 680.189 846.407 Q682.62 843.05 682.62 837.177 Q682.62 831.303 680.189 827.975 Q677.759 824.619 673.534 824.619 Q669.31 824.619 666.879 827.975 Q664.478 831.303 664.478 837.177 Z" fill="#000000" fill-rule="evenodd" fill-opacity="1" /><path clip-path="url(#clip230)" d="M726.63 835.817 L726.63 838.421 L702.151 838.421 Q702.498 843.918 705.45 846.812 Q708.43 849.677 713.725 849.677 Q716.792 849.677 719.657 848.924 Q722.55 848.172 725.386 846.667 L725.386 851.702 Q722.521 852.917 719.512 853.554 Q716.503 854.19 713.407 854.19 Q705.652 854.19 701.11 849.677 Q696.596 845.163 696.596 837.466 Q696.596 829.509 700.878 824.85 Q705.189 820.163 712.481 820.163 Q719.02 820.163 722.811 824.387 Q726.63 828.583 726.63 835.817 M721.306 834.254 Q721.248 829.885 718.847 827.281 Q716.474 824.677 712.539 824.677 Q708.083 824.677 705.392 827.194 Q702.73 829.711 702.325 834.283 L721.306 834.254 Z" fill="#000000" fill-rule="evenodd" fill-opacity="1" /><path clip-path="url(#clip230)" d="M760.6 827.165 Q762.596 823.577 765.374 821.87 Q768.152 820.163 771.914 820.163 Q776.977 820.163 779.726 823.722 Q782.475 827.252 782.475 833.791 L782.475 853.351 L777.122 853.351 L777.122 833.965 Q777.122 829.306 775.473 827.049 Q773.823 824.792 770.438 824.792 Q766.3 824.792 763.899 827.541 Q761.497 830.29 761.497 835.035 L761.497 853.351 L756.144 853.351 L756.144 833.965 Q756.144 829.277 754.495 827.049 Q752.845 824.792 749.402 824.792 Q745.322 824.792 742.921 827.57 Q740.519 830.319 740.519 835.035 L740.519 853.351 L735.166 853.351 L735.166 820.944 L740.519 820.944 L740.519 825.979 Q742.342 822.998 744.888 821.581 Q747.434 820.163 750.936 820.163 Q754.466 820.163 756.925 821.957 Q759.414 823.751 760.6 827.165 Z" fill="#000000" fill-rule="evenodd" fill-opacity="1" /><path clip-path="url(#clip230)" d="M807.822 837.061 Q801.369 837.061 798.881 838.537 Q796.393 840.012 796.393 843.571 Q796.393 846.407 798.244 848.085 Q800.125 849.734 803.337 849.734 Q807.764 849.734 810.426 846.609 Q813.117 843.455 813.117 838.247 L813.117 837.061 L807.822 837.061 M818.441 834.862 L818.441 853.351 L813.117 853.351 L813.117 848.432 Q811.294 851.384 808.574 852.802 Q805.854 854.19 801.919 854.19 Q796.942 854.19 793.991 851.413 Q791.069 848.606 791.069 843.918 Q791.069 838.45 794.714 835.672 Q798.389 832.894 805.652 832.894 L813.117 832.894 L813.117 832.373 Q813.117 828.699 810.686 826.702 Q808.285 824.677 803.916 824.677 Q801.138 824.677 798.505 825.342 Q795.872 826.008 793.441 827.339 L793.441 822.42 Q796.364 821.291 799.112 820.741 Q801.861 820.163 804.465 820.163 Q811.497 820.163 814.969 823.809 Q818.441 827.454 818.441 834.862 Z" fill="#000000" fill-rule="evenodd" fill-opacity="1" /><path clip-path="url(#clip230)" d="M856.346 833.791 L856.346 853.351 L851.022 853.351 L851.022 833.965 Q851.022 829.364 849.228 827.078 Q847.434 824.792 843.846 824.792 Q839.535 824.792 837.046 827.541 Q834.558 830.29 834.558 835.035 L834.558 853.351 L829.205 853.351 L829.205 820.944 L834.558 820.944 L834.558 825.979 Q836.468 823.056 839.043 821.61 Q841.647 820.163 845.032 820.163 Q850.617 820.163 853.481 823.635 Q856.346 827.078 856.346 833.791 Z" fill="#000000" fill-rule="evenodd" fill-opacity="1" /><path clip-path="url(#clip230)" d="M888.29 825.863 L888.29 808.328 L893.614 808.328 L893.614 853.351 L888.29 853.351 L888.29 848.49 Q886.612 851.384 884.037 852.802 Q881.49 854.19 877.903 854.19 Q872.029 854.19 868.325 849.503 Q864.65 844.815 864.65 837.177 Q864.65 829.538 868.325 824.85 Q872.029 820.163 877.903 820.163 Q881.49 820.163 884.037 821.581 Q886.612 822.969 888.29 825.863 M870.148 837.177 Q870.148 843.05 872.55 846.407 Q874.98 849.734 879.205 849.734 Q883.429 849.734 885.86 846.407 Q888.29 843.05 888.29 837.177 Q888.29 831.303 885.86 827.975 Q883.429 824.619 879.205 824.619 Q874.98 824.619 872.55 827.975 Q870.148 831.303 870.148 837.177 Z" fill="#000000" fill-rule="evenodd" fill-opacity="1" /><polyline clip-path="url(#clip230)" style="stroke:#0000ff; stroke-linecap:round; stroke-linejoin:round; stroke-width:5; stroke-opacity:1; fill:none" stroke-dasharray="3, 5" points="
  473.456,896.551 632.477,896.551 
  "/>
<path clip-path="url(#clip230)" d="M658.98 874.951 L686.295 874.951 L686.295 879.87 L664.825 879.87 L664.825 892.66 L685.398 892.66 L685.398 897.578 L664.825 897.578 L664.825 913.232 L686.816 913.232 L686.816 918.151 L658.98 918.151 L658.98 874.951 Z" fill="#000000" fill-rule="evenodd" fill-opacity="1" /><path clip-path="url(#clip230)" d="M696.191 873.128 L701.515 873.128 L701.515 918.151 L696.191 918.151 L696.191 873.128 Z" fill="#000000" fill-rule="evenodd" fill-opacity="1" /><path clip-path="url(#clip230)" d="M740.374 900.617 L740.374 903.221 L715.895 903.221 Q716.243 908.718 719.194 911.612 Q722.174 914.477 727.469 914.477 Q730.536 914.477 733.401 913.724 Q736.295 912.972 739.13 911.467 L739.13 916.502 Q736.266 917.717 733.256 918.354 Q730.247 918.99 727.151 918.99 Q719.396 918.99 714.854 914.477 Q710.34 909.963 710.34 902.266 Q710.34 894.309 714.622 889.65 Q718.933 884.963 726.225 884.963 Q732.764 884.963 736.555 889.187 Q740.374 893.383 740.374 900.617 M735.05 899.054 Q734.992 894.685 732.591 892.081 Q730.218 889.477 726.283 889.477 Q721.827 889.477 719.136 891.994 Q716.474 894.511 716.069 899.083 L735.05 899.054 Z" fill="#000000" fill-rule="evenodd" fill-opacity="1" /><path clip-path="url(#clip230)" d="M772.434 886.988 L772.434 891.965 Q770.177 890.721 767.892 890.113 Q765.635 889.477 763.32 889.477 Q758.14 889.477 755.276 892.775 Q752.411 896.045 752.411 901.977 Q752.411 907.908 755.276 911.207 Q758.14 914.477 763.32 914.477 Q765.635 914.477 767.892 913.869 Q770.177 913.232 772.434 911.988 L772.434 916.907 Q770.206 917.949 767.805 918.47 Q765.432 918.99 762.741 918.99 Q755.421 918.99 751.109 914.39 Q746.798 909.789 746.798 901.977 Q746.798 894.048 751.138 889.506 Q755.507 884.963 763.088 884.963 Q765.548 884.963 767.892 885.484 Q770.235 885.976 772.434 886.988 Z" fill="#000000" fill-rule="evenodd" fill-opacity="1" /><path clip-path="url(#clip230)" d="M786.96 876.543 L786.96 885.744 L797.926 885.744 L797.926 889.882 L786.96 889.882 L786.96 907.474 Q786.96 911.438 788.03 912.567 Q789.13 913.695 792.457 913.695 L797.926 913.695 L797.926 918.151 L792.457 918.151 Q786.294 918.151 783.951 915.865 Q781.607 913.551 781.607 907.474 L781.607 889.882 L777.701 889.882 L777.701 885.744 L781.607 885.744 L781.607 876.543 L786.96 876.543 Z" fill="#000000" fill-rule="evenodd" fill-opacity="1" /><path clip-path="url(#clip230)" d="M823.707 890.721 Q822.81 890.2 821.74 889.969 Q820.698 889.708 819.425 889.708 Q814.911 889.708 812.48 892.66 Q810.079 895.582 810.079 901.08 L810.079 918.151 L804.726 918.151 L804.726 885.744 L810.079 885.744 L810.079 890.779 Q811.757 887.827 814.448 886.41 Q817.139 884.963 820.987 884.963 Q821.537 884.963 822.203 885.05 Q822.868 885.107 823.678 885.252 L823.707 890.721 Z" fill="#000000" fill-rule="evenodd" fill-opacity="1" /><path clip-path="url(#clip230)" d="M829.292 885.744 L834.616 885.744 L834.616 918.151 L829.292 918.151 L829.292 885.744 M829.292 873.128 L834.616 873.128 L834.616 879.87 L829.292 879.87 L829.292 873.128 Z" fill="#000000" fill-rule="evenodd" fill-opacity="1" /><path clip-path="url(#clip230)" d="M869.077 886.988 L869.077 891.965 Q866.82 890.721 864.535 890.113 Q862.278 889.477 859.963 889.477 Q854.783 889.477 851.919 892.775 Q849.054 896.045 849.054 901.977 Q849.054 907.908 851.919 911.207 Q854.783 914.477 859.963 914.477 Q862.278 914.477 864.535 913.869 Q866.82 913.232 869.077 911.988 L869.077 916.907 Q866.849 917.949 864.448 918.47 Q862.075 918.99 859.384 918.99 Q852.064 918.99 847.752 914.39 Q843.441 909.789 843.441 901.977 Q843.441 894.048 847.781 889.506 Q852.15 884.963 859.731 884.963 Q862.191 884.963 864.535 885.484 Q866.878 885.976 869.077 886.988 Z" fill="#000000" fill-rule="evenodd" fill-opacity="1" /><path clip-path="url(#clip230)" d="M878.337 885.744 L883.661 885.744 L883.661 918.151 L878.337 918.151 L878.337 885.744 M878.337 873.128 L883.661 873.128 L883.661 879.87 L878.337 879.87 L878.337 873.128 Z" fill="#000000" fill-rule="evenodd" fill-opacity="1" /><path clip-path="url(#clip230)" d="M900.067 876.543 L900.067 885.744 L911.033 885.744 L911.033 889.882 L900.067 889.882 L900.067 907.474 Q900.067 911.438 901.137 912.567 Q902.237 913.695 905.564 913.695 L911.033 913.695 L911.033 918.151 L905.564 918.151 Q899.401 918.151 897.058 915.865 Q894.714 913.551 894.714 907.474 L894.714 889.882 L890.808 889.882 L890.808 885.744 L894.714 885.744 L894.714 876.543 L900.067 876.543 Z" fill="#000000" fill-rule="evenodd" fill-opacity="1" /><path clip-path="url(#clip230)" d="M931.519 921.161 Q929.262 926.948 927.121 928.713 Q924.98 930.478 921.392 930.478 L917.138 930.478 L917.138 926.022 L920.263 926.022 Q922.462 926.022 923.678 924.98 Q924.893 923.938 926.369 920.061 L927.324 917.63 L914.216 885.744 L919.858 885.744 L929.986 911.091 L940.113 885.744 L945.755 885.744 L931.519 921.161 Z" fill="#000000" fill-rule="evenodd" fill-opacity="1" /><path clip-path="url(#clip230)" d="M978.018 879.754 L978.018 895.987 L985.367 895.987 Q989.447 895.987 991.675 893.875 Q993.903 891.763 993.903 887.856 Q993.903 883.979 991.675 881.867 Q989.447 879.754 985.367 879.754 L978.018 879.754 M972.173 874.951 L985.367 874.951 Q992.63 874.951 996.334 878.25 Q1000.07 881.52 1000.07 887.856 Q1000.07 894.251 996.334 897.521 Q992.63 900.79 985.367 900.79 L978.018 900.79 L978.018 918.151 L972.173 918.151 L972.173 874.951 Z" fill="#000000" fill-rule="evenodd" fill-opacity="1" /><path clip-path="url(#clip230)" d="M1025.41 890.721 Q1024.52 890.2 1023.45 889.969 Q1022.4 889.708 1021.13 889.708 Q1016.62 889.708 1014.19 892.66 Q1011.78 895.582 1011.78 901.08 L1011.78 918.151 L1006.43 918.151 L1006.43 885.744 L1011.78 885.744 L1011.78 890.779 Q1013.46 887.827 1016.15 886.41 Q1018.85 884.963 1022.69 884.963 Q1023.24 884.963 1023.91 885.05 Q1024.57 885.107 1025.38 885.252 L1025.41 890.721 Z" fill="#000000" fill-rule="evenodd" fill-opacity="1" /><path clip-path="url(#clip230)" d="M1031 885.744 L1036.32 885.744 L1036.32 918.151 L1031 918.151 L1031 885.744 M1031 873.128 L1036.32 873.128 L1036.32 879.87 L1031 879.87 L1031 873.128 Z" fill="#000000" fill-rule="evenodd" fill-opacity="1" /><path clip-path="url(#clip230)" d="M1070.78 886.988 L1070.78 891.965 Q1068.53 890.721 1066.24 890.113 Q1063.98 889.477 1061.67 889.477 Q1056.49 889.477 1053.62 892.775 Q1050.76 896.045 1050.76 901.977 Q1050.76 907.908 1053.62 911.207 Q1056.49 914.477 1061.67 914.477 Q1063.98 914.477 1066.24 913.869 Q1068.53 913.232 1070.78 911.988 L1070.78 916.907 Q1068.56 917.949 1066.15 918.47 Q1063.78 918.99 1061.09 918.99 Q1053.77 918.99 1049.46 914.39 Q1045.15 909.789 1045.15 901.977 Q1045.15 894.048 1049.49 889.506 Q1053.86 884.963 1061.44 884.963 Q1063.9 884.963 1066.24 885.484 Q1068.58 885.976 1070.78 886.988 Z" fill="#000000" fill-rule="evenodd" fill-opacity="1" /><path clip-path="url(#clip230)" d="M1107.76 900.617 L1107.76 903.221 L1083.28 903.221 Q1083.63 908.718 1086.58 911.612 Q1089.56 914.477 1094.86 914.477 Q1097.92 914.477 1100.79 913.724 Q1103.68 912.972 1106.52 911.467 L1106.52 916.502 Q1103.65 917.717 1100.64 918.354 Q1097.64 918.99 1094.54 918.99 Q1086.78 918.99 1082.24 914.477 Q1077.73 909.963 1077.73 902.266 Q1077.73 894.309 1082.01 889.65 Q1086.32 884.963 1093.61 884.963 Q1100.15 884.963 1103.94 889.187 Q1107.76 893.383 1107.76 900.617 M1102.44 899.054 Q1102.38 894.685 1099.98 892.081 Q1097.61 889.477 1093.67 889.477 Q1089.22 889.477 1086.52 891.994 Q1083.86 894.511 1083.46 899.083 L1102.44 899.054 Z" fill="#000000" fill-rule="evenodd" fill-opacity="1" /></svg>
