<?xml version="1.0" encoding="utf-8"?>
<svg xmlns="http://www.w3.org/2000/svg" xmlns:xlink="http://www.w3.org/1999/xlink" width="400" height="300" viewBox="0 0 1600 1200">
<defs>
  <clipPath id="clip080">
    <rect x="0" y="0" width="1600" height="1200"/>
  </clipPath>
</defs>
<path clip-path="url(#clip080)" d="
M0 1200 L1600 1200 L1600 0 L0 0  Z
  " fill="#ffffff" fill-rule="evenodd" fill-opacity="1"/>
<defs>
  <clipPath id="clip081">
    <rect x="320" y="0" width="1121" height="1121"/>
  </clipPath>
</defs>
<path clip-path="url(#clip080)" d="
M302.362 982.9 L1552.76 982.9 L1552.76 47.2441 L302.362 47.2441  Z
  " fill="#ffffff" fill-rule="evenodd" fill-opacity="1"/>
<defs>
  <clipPath id="clip082">
    <rect x="302" y="47" width="1251" height="937"/>
  </clipPath>
</defs>
<polyline clip-path="url(#clip082)" style="stroke:#000000; stroke-linecap:round; stroke-linejoin:round; stroke-width:2; stroke-opacity:0.1; fill:none" points="
  618.435,982.9 618.435,47.2441 
  "/>
<polyline clip-path="url(#clip082)" style="stroke:#000000; stroke-linecap:round; stroke-linejoin:round; stroke-width:2; stroke-opacity:0.1; fill:none" points="
  1236.68,982.9 1236.68,47.2441 
  "/>
<polyline clip-path="url(#clip080)" style="stroke:#000000; stroke-linecap:round; stroke-linejoin:round; stroke-width:4; stroke-opacity:1; fill:none" points="
  302.362,982.9 1552.76,982.9 
  "/>
<polyline clip-path="url(#clip080)" style="stroke:#000000; stroke-linecap:round; stroke-linejoin:round; stroke-width:4; stroke-opacity:1; fill:none" points="
  618.435,982.9 618.435,964.002 
  "/>
<polyline clip-path="url(#clip080)" style="stroke:#000000; stroke-linecap:round; stroke-linejoin:round; stroke-width:4; stroke-opacity:1; fill:none" points="
  1236.68,982.9 1236.68,964.002 
  "/>
<path clip-path="url(#clip080)" d="M627.677 1026.27 Q627.677 1027.25 627.221 1027.5 Q626.764 1027.71 625.499 1027.71 L618.753 1027.71 L613.413 1048.93 Q612.991 1050.79 612.991 1052.37 Q612.991 1054.13 613.518 1054.9 Q614.081 1055.67 615.24 1055.67 Q617.524 1055.67 619.983 1053.6 Q622.478 1051.53 624.586 1046.47 Q624.867 1045.8 625.007 1045.66 Q625.183 1045.48 625.64 1045.48 Q626.518 1045.48 626.518 1046.19 Q626.518 1046.43 626.026 1047.56 Q625.569 1048.68 624.55 1050.33 Q623.567 1051.98 622.267 1053.53 Q621.002 1055.08 619.07 1056.2 Q617.137 1057.29 615.064 1057.29 Q612.148 1057.29 610.286 1055.43 Q608.459 1053.56 608.459 1050.65 Q608.459 1049.7 609.197 1046.68 Q609.935 1043.62 613.94 1027.71 L607.581 1027.71 Q606.703 1027.71 606.351 1027.67 Q606.035 1027.64 605.789 1027.46 Q605.578 1027.25 605.578 1026.83 Q605.578 1026.16 605.859 1025.88 Q606.14 1025.56 606.492 1025.53 Q606.878 1025.46 607.757 1025.46 L614.502 1025.46 L617.313 1014.04 Q617.594 1012.92 618.297 1012.28 Q619.034 1011.62 619.456 1011.54 Q619.878 1011.44 620.194 1011.44 Q621.142 1011.44 621.705 1011.97 Q622.267 1012.46 622.267 1013.37 Q622.267 1013.86 619.316 1025.46 L625.64 1025.46 Q626.448 1025.46 626.764 1025.49 Q627.115 1025.53 627.396 1025.7 Q627.677 1025.88 627.677 1026.27 Z" fill="#000000" fill-rule="evenodd" fill-opacity="1" /><path clip-path="url(#clip080)" d="M1180.43 1025.21 Q1180.43 1026.19 1179.98 1026.44 Q1179.52 1026.65 1178.26 1026.65 L1171.51 1026.65 L1166.17 1047.87 Q1165.75 1049.73 1165.75 1051.31 Q1165.75 1053.07 1166.27 1053.84 Q1166.84 1054.62 1168 1054.62 Q1170.28 1054.62 1172.74 1052.54 Q1175.23 1050.47 1177.34 1045.41 Q1177.62 1044.74 1177.76 1044.6 Q1177.94 1044.43 1178.4 1044.43 Q1179.27 1044.43 1179.27 1045.13 Q1179.27 1045.38 1178.78 1046.5 Q1178.33 1047.62 1177.31 1049.28 Q1176.32 1050.93 1175.02 1052.47 Q1173.76 1054.02 1171.83 1055.14 Q1169.89 1056.23 1167.82 1056.23 Q1164.9 1056.23 1163.04 1054.37 Q1161.22 1052.51 1161.22 1049.59 Q1161.22 1048.64 1161.95 1045.62 Q1162.69 1042.56 1166.7 1026.65 L1160.34 1026.65 Q1159.46 1026.65 1159.11 1026.61 Q1158.79 1026.58 1158.55 1026.4 Q1158.33 1026.19 1158.33 1025.77 Q1158.33 1025.1 1158.62 1024.82 Q1158.9 1024.51 1159.25 1024.47 Q1159.63 1024.4 1160.51 1024.4 L1167.26 1024.4 L1170.07 1012.98 Q1170.35 1011.86 1171.05 1011.23 Q1171.79 1010.56 1172.21 1010.49 Q1172.63 1010.38 1172.95 1010.38 Q1173.9 1010.38 1174.46 1010.91 Q1175.02 1011.4 1175.02 1012.31 Q1175.02 1012.81 1172.07 1024.4 L1178.4 1024.4 Q1179.2 1024.4 1179.52 1024.44 Q1179.87 1024.47 1180.15 1024.65 Q1180.43 1024.82 1180.43 1025.21 Z" fill="#000000" fill-rule="evenodd" fill-opacity="1" /><path clip-path="url(#clip080)" d="M1205.66 1038.31 Q1204.01 1038.31 1204.01 1037.44 Q1204.01 1036.56 1205.73 1036.56 Q1205.94 1036.56 1206.29 1036.59 Q1206.68 1036.63 1206.75 1036.63 L1227.02 1036.63 L1227.02 1016.28 Q1227.02 1016.21 1226.99 1015.9 Q1226.95 1015.55 1226.95 1015.34 Q1226.95 1013.61 1227.8 1013.61 Q1228.67 1013.61 1228.67 1015.34 L1228.67 1036.63 L1248.98 1036.63 Q1249.05 1036.63 1249.4 1036.59 Q1249.75 1036.56 1249.97 1036.56 Q1251.62 1036.56 1251.62 1037.44 Q1251.65 1038.31 1249.89 1038.31 Q1249.68 1038.31 1249.37 1038.28 Q1249.05 1038.24 1248.98 1038.24 L1228.67 1038.24 L1228.67 1059.6 Q1228.67 1061.26 1227.8 1061.26 Q1226.95 1061.26 1226.95 1059.53 Q1226.95 1059.32 1226.99 1058.97 Q1227.02 1058.66 1227.02 1058.59 L1227.02 1038.24 L1206.75 1038.24 Q1206.68 1038.24 1206.26 1038.28 Q1205.87 1038.31 1205.66 1038.31 Z" fill="#000000" fill-rule="evenodd" fill-opacity="1" /><path clip-path="url(#clip080)" d="M1279.4 1014.35 L1279.4 1012.1 Q1288.04 1012.1 1292.51 1007.5 Q1293.74 1007.5 1293.95 1007.78 Q1294.16 1008.06 1294.16 1009.36 L1294.16 1049.73 Q1294.16 1051.88 1295.21 1052.54 Q1296.26 1053.21 1300.87 1053.21 L1303.15 1053.21 L1303.15 1055.42 Q1300.62 1055.21 1291.49 1055.21 Q1282.35 1055.21 1279.86 1055.42 L1279.86 1053.21 L1282.14 1053.21 Q1286.67 1053.21 1287.76 1052.58 Q1288.85 1051.91 1288.85 1049.73 L1288.85 1012.46 Q1285.09 1014.35 1279.4 1014.35 Z" fill="#000000" fill-rule="evenodd" fill-opacity="1" /><path clip-path="url(#clip080)" d="M828.13 1096.76 L879.292 1096.76 L879.292 1103.64 L857.823 1103.64 L857.823 1157.24 L849.599 1157.24 L849.599 1103.64 L828.13 1103.64 L828.13 1096.76 Z" fill="#000000" fill-rule="evenodd" fill-opacity="1" /><path clip-path="url(#clip080)" d="M884.316 1111.87 L891.769 1111.87 L891.769 1157.24 L884.316 1157.24 L884.316 1111.87 M884.316 1094.2 L891.769 1094.2 L891.769 1103.64 L884.316 1103.64 L884.316 1094.2 Z" fill="#000000" fill-rule="evenodd" fill-opacity="1" /><path clip-path="url(#clip080)" d="M942.689 1120.58 Q945.484 1115.55 949.373 1113.16 Q953.262 1110.77 958.528 1110.77 Q965.617 1110.77 969.466 1115.75 Q973.314 1120.7 973.314 1129.85 L973.314 1157.24 L965.82 1157.24 L965.82 1130.09 Q965.82 1123.57 963.511 1120.41 Q961.202 1117.25 956.462 1117.25 Q950.669 1117.25 947.307 1121.1 Q943.945 1124.95 943.945 1131.59 L943.945 1157.24 L936.451 1157.24 L936.451 1130.09 Q936.451 1123.53 934.142 1120.41 Q931.833 1117.25 927.012 1117.25 Q921.3 1117.25 917.938 1121.14 Q914.576 1124.99 914.576 1131.59 L914.576 1157.24 L907.082 1157.24 L907.082 1111.87 L914.576 1111.87 L914.576 1118.91 Q917.128 1114.74 920.693 1112.76 Q924.257 1110.77 929.159 1110.77 Q934.101 1110.77 937.544 1113.28 Q941.028 1115.8 942.689 1120.58 Z" fill="#000000" fill-rule="evenodd" fill-opacity="1" /><path clip-path="url(#clip080)" d="M1026.99 1132.69 L1026.99 1136.33 L992.718 1136.33 Q993.204 1144.03 997.336 1148.08 Q1001.51 1152.09 1008.92 1152.09 Q1013.22 1152.09 1017.23 1151.04 Q1021.28 1149.98 1025.25 1147.88 L1025.25 1154.93 Q1021.24 1156.63 1017.02 1157.52 Q1012.81 1158.41 1008.48 1158.41 Q997.619 1158.41 991.259 1152.09 Q984.94 1145.77 984.94 1135 Q984.94 1123.86 990.935 1117.33 Q996.971 1110.77 1007.18 1110.77 Q1016.33 1110.77 1021.64 1116.69 Q1026.99 1122.56 1026.99 1132.69 M1019.53 1130.5 Q1019.45 1124.38 1016.09 1120.74 Q1012.77 1117.09 1007.26 1117.09 Q1001.02 1117.09 997.255 1120.62 Q993.528 1124.14 992.961 1130.54 L1019.53 1130.5 Z" fill="#000000" fill-rule="evenodd" fill-opacity="1" /><polyline clip-path="url(#clip082)" style="stroke:#000000; stroke-linecap:round; stroke-linejoin:round; stroke-width:2; stroke-opacity:0.1; fill:none" points="
  302.362,982.9 1552.76,982.9 
  "/>
<polyline clip-path="url(#clip082)" style="stroke:#000000; stroke-linecap:round; stroke-linejoin:round; stroke-width:2; stroke-opacity:0.1; fill:none" points="
  302.362,795.769 1552.76,795.769 
  "/>
<polyline clip-path="url(#clip082)" style="stroke:#000000; stroke-linecap:round; stroke-linejoin:round; stroke-width:2; stroke-opacity:0.1; fill:none" points="
  302.362,608.638 1552.76,608.638 
  "/>
<polyline clip-path="url(#clip082)" style="stroke:#000000; stroke-linecap:round; stroke-linejoin:round; stroke-width:2; stroke-opacity:0.1; fill:none" points="
  302.362,421.506 1552.76,421.506 
  "/>
<polyline clip-path="url(#clip082)" style="stroke:#000000; stroke-linecap:round; stroke-linejoin:round; stroke-width:2; stroke-opacity:0.1; fill:none" points="
  302.362,234.375 1552.76,234.375 
  "/>
<polyline clip-path="url(#clip082)" style="stroke:#000000; stroke-linecap:round; stroke-linejoin:round; stroke-width:2; stroke-opacity:0.1; fill:none" points="
  302.362,47.2441 1552.76,47.2441 
  "/>
<polyline clip-path="url(#clip080)" style="stroke:#000000; stroke-linecap:round; stroke-linejoin:round; stroke-width:4; stroke-opacity:1; fill:none" points="
  302.362,982.9 302.362,47.2441 
  "/>
<polyline clip-path="url(#clip080)" style="stroke:#000000; stroke-linecap:round; stroke-linejoin:round; stroke-width:4; stroke-opacity:1; fill:none" points="
  302.362,982.9 321.26,982.9 
  "/>
<polyline clip-path="url(#clip080)" style="stroke:#000000; stroke-linecap:round; stroke-linejoin:round; stroke-width:4; stroke-opacity:1; fill:none" points="
  302.362,795.769 321.26,795.769 
  "/>
<polyline clip-path="url(#clip080)" style="stroke:#000000; stroke-linecap:round; stroke-linejoin:round; stroke-width:4; stroke-opacity:1; fill:none" points="
  302.362,608.638 321.26,608.638 
  "/>
<polyline clip-path="url(#clip080)" style="stroke:#000000; stroke-linecap:round; stroke-linejoin:round; stroke-width:4; stroke-opacity:1; fill:none" points="
  302.362,421.506 321.26,421.506 
  "/>
<polyline clip-path="url(#clip080)" style="stroke:#000000; stroke-linecap:round; stroke-linejoin:round; stroke-width:4; stroke-opacity:1; fill:none" points="
  302.362,234.375 321.26,234.375 
  "/>
<polyline clip-path="url(#clip080)" style="stroke:#000000; stroke-linecap:round; stroke-linejoin:round; stroke-width:4; stroke-opacity:1; fill:none" points="
  302.362,47.2441 321.26,47.2441 
  "/>
<path clip-path="url(#clip080)" d="M260.445 961.598 Q255.029 961.598 252.286 966.945 Q249.577 972.258 249.577 982.952 Q249.577 993.612 252.286 998.959 Q255.029 1004.27 260.445 1004.27 Q265.897 1004.27 268.605 998.959 Q271.348 993.612 271.348 982.952 Q271.348 972.258 268.605 966.945 Q265.897 961.598 260.445 961.598 M260.445 956.042 Q269.161 956.042 273.744 962.952 Q278.362 969.827 278.362 982.952 Q278.362 996.042 273.744 1002.95 Q269.161 1009.83 260.445 1009.83 Q251.73 1009.83 247.112 1002.95 Q242.529 996.042 242.529 982.952 Q242.529 969.827 247.112 962.952 Q251.73 956.042 260.445 956.042 Z" fill="#000000" fill-rule="evenodd" fill-opacity="1" /><path clip-path="url(#clip080)" d="M156.175 815.786 L167.633 815.786 L167.633 776.238 L155.168 778.738 L155.168 772.349 L167.564 769.849 L174.578 769.849 L174.578 815.786 L186.036 815.786 L186.036 821.689 L156.175 821.689 L156.175 815.786 Z" fill="#000000" fill-rule="evenodd" fill-opacity="1" /><path clip-path="url(#clip080)" d="M215.203 774.467 Q209.786 774.467 207.043 779.814 Q204.335 785.126 204.335 795.821 Q204.335 806.48 207.043 811.828 Q209.786 817.14 215.203 817.14 Q220.654 817.14 223.362 811.828 Q226.105 806.48 226.105 795.821 Q226.105 785.126 223.362 779.814 Q220.654 774.467 215.203 774.467 M215.203 768.911 Q223.918 768.911 228.501 775.821 Q233.119 782.696 233.119 795.821 Q233.119 808.911 228.501 815.821 Q223.918 822.696 215.203 822.696 Q206.487 822.696 201.869 815.821 Q197.286 808.911 197.286 795.821 Q197.286 782.696 201.869 775.821 Q206.487 768.911 215.203 768.911 Z" fill="#000000" fill-rule="evenodd" fill-opacity="1" /><path clip-path="url(#clip080)" d="M260.445 774.467 Q255.029 774.467 252.286 779.814 Q249.577 785.126 249.577 795.821 Q249.577 806.48 252.286 811.828 Q255.029 817.14 260.445 817.14 Q265.897 817.14 268.605 811.828 Q271.348 806.48 271.348 795.821 Q271.348 785.126 268.605 779.814 Q265.897 774.467 260.445 774.467 M260.445 768.911 Q269.161 768.911 273.744 775.821 Q278.362 782.696 278.362 795.821 Q278.362 808.911 273.744 815.821 Q269.161 822.696 260.445 822.696 Q251.73 822.696 247.112 815.821 Q242.529 808.911 242.529 795.821 Q242.529 782.696 247.112 775.821 Q251.73 768.911 260.445 768.911 Z" fill="#000000" fill-rule="evenodd" fill-opacity="1" /><path clip-path="url(#clip080)" d="M161.002 628.655 L185.481 628.655 L185.481 634.558 L152.564 634.558 L152.564 628.655 Q156.557 624.523 163.432 617.578 Q170.342 610.599 172.113 608.585 Q175.481 604.801 176.8 602.197 Q178.154 599.558 178.154 597.023 Q178.154 592.891 175.238 590.287 Q172.356 587.683 167.703 587.683 Q164.404 587.683 160.724 588.829 Q157.078 589.974 152.911 592.301 L152.911 585.218 Q157.147 583.516 160.828 582.648 Q164.508 581.78 167.564 581.78 Q175.62 581.78 180.411 585.808 Q185.203 589.836 185.203 596.572 Q185.203 599.766 183.988 602.648 Q182.807 605.495 179.647 609.384 Q178.779 610.391 174.126 615.217 Q169.474 620.009 161.002 628.655 Z" fill="#000000" fill-rule="evenodd" fill-opacity="1" /><path clip-path="url(#clip080)" d="M215.203 587.336 Q209.786 587.336 207.043 592.683 Q204.335 597.995 204.335 608.69 Q204.335 619.349 207.043 624.696 Q209.786 630.009 215.203 630.009 Q220.654 630.009 223.362 624.696 Q226.105 619.349 226.105 608.69 Q226.105 597.995 223.362 592.683 Q220.654 587.336 215.203 587.336 M215.203 581.78 Q223.918 581.78 228.501 588.69 Q233.119 595.565 233.119 608.69 Q233.119 621.78 228.501 628.69 Q223.918 635.564 215.203 635.564 Q206.487 635.564 201.869 628.69 Q197.286 621.78 197.286 608.69 Q197.286 595.565 201.869 588.69 Q206.487 581.78 215.203 581.78 Z" fill="#000000" fill-rule="evenodd" fill-opacity="1" /><path clip-path="url(#clip080)" d="M260.445 587.336 Q255.029 587.336 252.286 592.683 Q249.577 597.995 249.577 608.69 Q249.577 619.349 252.286 624.696 Q255.029 630.009 260.445 630.009 Q265.897 630.009 268.605 624.696 Q271.348 619.349 271.348 608.69 Q271.348 597.995 268.605 592.683 Q265.897 587.336 260.445 587.336 M260.445 581.78 Q269.161 581.78 273.744 588.69 Q278.362 595.565 278.362 608.69 Q278.362 621.78 273.744 628.69 Q269.161 635.564 260.445 635.564 Q251.73 635.564 247.112 628.69 Q242.529 621.78 242.529 608.69 Q242.529 595.565 247.112 588.69 Q251.73 581.78 260.445 581.78 Z" fill="#000000" fill-rule="evenodd" fill-opacity="1" /><path clip-path="url(#clip080)" d="M176.21 419.475 Q181.244 420.552 184.057 423.954 Q186.904 427.357 186.904 432.357 Q186.904 440.031 181.626 444.232 Q176.349 448.433 166.626 448.433 Q163.363 448.433 159.89 447.774 Q156.453 447.149 152.772 445.864 L152.772 439.093 Q155.689 440.794 159.161 441.663 Q162.633 442.531 166.418 442.531 Q173.015 442.531 176.453 439.926 Q179.925 437.322 179.925 432.357 Q179.925 427.774 176.696 425.204 Q173.501 422.6 167.772 422.6 L161.731 422.6 L161.731 416.836 L168.05 416.836 Q173.224 416.836 175.967 414.788 Q178.71 412.704 178.71 408.815 Q178.71 404.822 175.863 402.704 Q173.05 400.552 167.772 400.552 Q164.89 400.552 161.592 401.177 Q158.293 401.802 154.335 403.121 L154.335 396.871 Q158.328 395.76 161.8 395.204 Q165.307 394.649 168.397 394.649 Q176.383 394.649 181.036 398.295 Q185.689 401.906 185.689 408.086 Q185.689 412.392 183.224 415.378 Q180.758 418.329 176.21 419.475 Z" fill="#000000" fill-rule="evenodd" fill-opacity="1" /><path clip-path="url(#clip080)" d="M215.203 400.204 Q209.786 400.204 207.043 405.552 Q204.335 410.864 204.335 421.558 Q204.335 432.218 207.043 437.565 Q209.786 442.878 215.203 442.878 Q220.654 442.878 223.362 437.565 Q226.105 432.218 226.105 421.558 Q226.105 410.864 223.362 405.552 Q220.654 400.204 215.203 400.204 M215.203 394.649 Q223.918 394.649 228.501 401.559 Q233.119 408.434 233.119 421.558 Q233.119 434.649 228.501 441.558 Q223.918 448.433 215.203 448.433 Q206.487 448.433 201.869 441.558 Q197.286 434.649 197.286 421.558 Q197.286 408.434 201.869 401.559 Q206.487 394.649 215.203 394.649 Z" fill="#000000" fill-rule="evenodd" fill-opacity="1" /><path clip-path="url(#clip080)" d="M260.445 400.204 Q255.029 400.204 252.286 405.552 Q249.577 410.864 249.577 421.558 Q249.577 432.218 252.286 437.565 Q255.029 442.878 260.445 442.878 Q265.897 442.878 268.605 437.565 Q271.348 432.218 271.348 421.558 Q271.348 410.864 268.605 405.552 Q265.897 400.204 260.445 400.204 M260.445 394.649 Q269.161 394.649 273.744 401.559 Q278.362 408.434 278.362 421.558 Q278.362 434.649 273.744 441.558 Q269.161 448.433 260.445 448.433 Q251.73 448.433 247.112 441.558 Q242.529 434.649 242.529 421.558 Q242.529 408.434 247.112 401.559 Q251.73 394.649 260.445 394.649 Z" fill="#000000" fill-rule="evenodd" fill-opacity="1" /><path clip-path="url(#clip080)" d="M174.231 214.566 L156.522 242.24 L174.231 242.24 L174.231 214.566 M172.39 208.455 L181.21 208.455 L181.21 242.24 L188.606 242.24 L188.606 248.073 L181.21 248.073 L181.21 260.295 L174.231 260.295 L174.231 248.073 L150.828 248.073 L150.828 241.302 L172.39 208.455 Z" fill="#000000" fill-rule="evenodd" fill-opacity="1" /><path clip-path="url(#clip080)" d="M215.203 213.073 Q209.786 213.073 207.043 218.42 Q204.335 223.733 204.335 234.427 Q204.335 245.087 207.043 250.434 Q209.786 255.747 215.203 255.747 Q220.654 255.747 223.362 250.434 Q226.105 245.087 226.105 234.427 Q226.105 223.733 223.362 218.42 Q220.654 213.073 215.203 213.073 M215.203 207.518 Q223.918 207.518 228.501 214.427 Q233.119 221.302 233.119 234.427 Q233.119 247.518 228.501 254.427 Q223.918 261.302 215.203 261.302 Q206.487 261.302 201.869 254.427 Q197.286 247.518 197.286 234.427 Q197.286 221.302 201.869 214.427 Q206.487 207.518 215.203 207.518 Z" fill="#000000" fill-rule="evenodd" fill-opacity="1" /><path clip-path="url(#clip080)" d="M260.445 213.073 Q255.029 213.073 252.286 218.42 Q249.577 223.733 249.577 234.427 Q249.577 245.087 252.286 250.434 Q255.029 255.747 260.445 255.747 Q265.897 255.747 268.605 250.434 Q271.348 245.087 271.348 234.427 Q271.348 223.733 268.605 218.42 Q265.897 213.073 260.445 213.073 M260.445 207.518 Q269.161 207.518 273.744 214.427 Q278.362 221.302 278.362 234.427 Q278.362 247.518 273.744 254.427 Q269.161 261.302 260.445 261.302 Q251.73 261.302 247.112 254.427 Q242.529 247.518 242.529 234.427 Q242.529 221.302 247.112 214.427 Q251.73 207.518 260.445 207.518 Z" fill="#000000" fill-rule="evenodd" fill-opacity="1" /><path clip-path="url(#clip080)" d="M155.029 21.3241 L182.564 21.3241 L182.564 27.2268 L161.453 27.2268 L161.453 39.9351 Q162.981 39.4143 164.508 39.1712 Q166.036 38.8934 167.564 38.8934 Q176.245 38.8934 181.314 43.6504 Q186.383 48.4073 186.383 56.5322 Q186.383 64.9002 181.175 69.553 Q175.967 74.171 166.488 74.171 Q163.224 74.171 159.821 73.6155 Q156.453 73.0599 152.842 71.9488 L152.842 64.9002 Q155.967 66.6016 159.3 67.435 Q162.633 68.2683 166.349 68.2683 Q172.356 68.2683 175.863 65.1086 Q179.369 61.9489 179.369 56.5322 Q179.369 51.1156 175.863 47.9559 Q172.356 44.7962 166.349 44.7962 Q163.536 44.7962 160.724 45.4212 Q157.946 46.0462 155.029 47.3656 L155.029 21.3241 Z" fill="#000000" fill-rule="evenodd" fill-opacity="1" /><path clip-path="url(#clip080)" d="M215.203 25.9421 Q209.786 25.9421 207.043 31.2893 Q204.335 36.6018 204.335 47.2962 Q204.335 57.9558 207.043 63.303 Q209.786 68.6155 215.203 68.6155 Q220.654 68.6155 223.362 63.303 Q226.105 57.9558 226.105 47.2962 Q226.105 36.6018 223.362 31.2893 Q220.654 25.9421 215.203 25.9421 M215.203 20.3866 Q223.918 20.3866 228.501 27.2963 Q233.119 34.1712 233.119 47.2962 Q233.119 60.3864 228.501 67.2961 Q223.918 74.171 215.203 74.171 Q206.487 74.171 201.869 67.2961 Q197.286 60.3864 197.286 47.2962 Q197.286 34.1712 201.869 27.2963 Q206.487 20.3866 215.203 20.3866 Z" fill="#000000" fill-rule="evenodd" fill-opacity="1" /><path clip-path="url(#clip080)" d="M260.445 25.9421 Q255.029 25.9421 252.286 31.2893 Q249.577 36.6018 249.577 47.2962 Q249.577 57.9558 252.286 63.303 Q255.029 68.6155 260.445 68.6155 Q265.897 68.6155 268.605 63.303 Q271.348 57.9558 271.348 47.2962 Q271.348 36.6018 268.605 31.2893 Q265.897 25.9421 260.445 25.9421 M260.445 20.3866 Q269.161 20.3866 273.744 27.2963 Q278.362 34.1712 278.362 47.2962 Q278.362 60.3864 273.744 67.2961 Q269.161 74.171 260.445 74.171 Q251.73 74.171 247.112 67.2961 Q242.529 60.3864 242.529 47.2962 Q242.529 34.1712 247.112 27.2963 Q251.73 20.3866 260.445 20.3866 Z" fill="#000000" fill-rule="evenodd" fill-opacity="1" /><path clip-path="url(#clip080)" d="M59.189 672.374 Q59.7629 672.374 61.1155 672.742 L93.1692 680.776 Q100.301 682.539 105.302 688.277 Q110.303 693.975 110.303 700.451 Q110.303 704.345 108.212 706.845 Q106.163 709.346 103.007 709.346 Q100.219 709.346 98.8667 707.87 Q97.555 706.395 97.555 704.632 Q97.555 704.058 97.719 703.443 Q97.8829 702.829 98.5797 702.173 Q99.2766 701.517 100.465 701.517 Q102.392 701.517 103.908 703.197 Q104.605 704.017 104.769 704.796 Q104.933 705.534 104.933 706.804 Q106.081 706.313 106.86 705.411 Q107.638 704.509 107.925 703.484 Q108.253 702.46 108.335 701.804 Q108.458 701.107 108.458 700.451 Q108.458 695.205 103.171 691.188 Q101.572 689.999 99.9734 689.138 Q98.4158 688.236 96.4893 687.581 Q94.6038 686.925 93.579 686.638 Q92.5543 686.31 90.2179 685.736 Q94.0299 689.548 94.0299 694.221 Q94.0299 696.188 93.4971 697.951 Q92.9642 699.672 91.8575 701.189 Q90.7098 702.706 88.7013 703.607 Q86.6929 704.468 84.0285 704.468 Q81.2003 704.468 77.3473 703.361 Q73.4943 702.255 66.4032 699.59 Q62.4272 698.156 60.5007 698.156 Q59.5579 698.156 58.9841 698.361 Q58.3693 698.566 58.1643 698.976 Q57.9184 699.385 57.8774 699.631 Q57.8364 699.836 57.8364 700.246 Q57.8364 702.665 60.2958 704.919 Q62.7551 707.173 68.2477 708.731 Q69.2724 709.059 69.5183 709.264 Q69.7643 709.469 69.7643 710.084 Q69.7233 711.108 68.9035 711.108 Q68.5756 711.108 67.3049 710.739 Q65.9933 710.371 64.0668 709.51 Q62.0993 708.608 60.3367 707.378 Q58.5332 706.149 57.2625 704.222 Q55.9919 702.255 55.9919 700 Q55.9919 696.926 58.0004 695.041 Q59.9678 693.114 62.8781 693.114 Q64.0668 693.114 65.1325 693.442 Q66.1572 693.729 68.9035 694.795 Q79.9706 699.099 85.3812 699.099 Q86.6929 699.099 87.7996 698.894 Q88.8653 698.648 89.931 698.115 Q90.9557 697.582 91.5706 696.516 Q92.1444 695.409 92.1444 693.893 Q92.1444 691.966 91.2427 690.163 Q90.2999 688.318 89.0292 687.171 Q87.7586 685.982 86.6929 685.285 Q85.5861 684.547 85.0123 684.383 L69.9282 680.612 L63.206 678.932 Q59.5579 678.153 58.6562 677.784 Q57.7954 677.292 57.3445 676.431 Q56.8936 675.571 56.8936 674.833 Q56.8936 673.808 57.5085 673.111 Q58.1233 672.374 59.189 672.374 Z" fill="#000000" fill-rule="evenodd" fill-opacity="1" /><path clip-path="url(#clip080)" d="M102.358 636.813 Q102.386 636.813 103.419 636.985 L129.501 643.527 Q130.878 643.871 132.255 644.847 Q133.661 645.794 134.866 647.314 Q136.1 648.806 136.846 651.102 Q137.621 653.368 137.621 655.979 Q137.621 660.14 136.731 661.976 Q135.87 663.784 134.034 663.784 Q132.427 663.784 131.509 662.78 Q130.62 661.775 130.62 660.628 Q130.62 659.537 131.251 658.963 Q131.882 658.39 132.686 658.39 Q133.575 658.39 134.465 658.992 Q135.383 659.595 135.727 660.8 Q136.33 658.877 136.33 656.094 Q136.33 650.212 130.103 647.687 Q130.017 647.63 129.989 647.63 L122.213 645.679 L122.155 645.765 Q122.729 646.253 123.389 647.027 Q124.02 647.773 124.795 649.38 Q125.57 650.987 125.57 652.565 Q125.57 655.865 123.045 658.131 Q120.491 660.369 116.274 660.369 Q113.203 660.369 110.133 659.136 Q107.035 657.873 104.768 655.922 Q102.472 653.942 101.038 651.417 Q99.6032 648.864 99.6032 646.396 Q99.6032 644.675 100.636 643.211 Q101.64 641.748 103.305 640.945 Q101.927 640.801 101.353 640.026 Q100.78 639.223 100.78 638.534 Q100.78 637.76 101.21 637.301 Q101.612 636.813 102.358 636.813 M105.944 641.633 Q105.772 641.633 105.313 641.748 Q104.825 641.863 104.051 642.207 Q103.276 642.523 102.587 643.01 Q101.899 643.498 101.411 644.388 Q100.894 645.248 100.894 646.339 Q100.894 648.118 102.386 649.897 Q103.85 651.676 106.116 652.909 Q108.297 654.057 112.515 655.147 Q116.733 656.209 118.885 656.209 Q121.008 656.209 122.643 655.291 Q124.279 654.373 124.279 652.393 Q124.279 650.097 122.155 647.63 Q119.946 645.076 118.052 644.646 L106.834 641.805 Q106.145 641.633 105.944 641.633 Z" fill="#000000" fill-rule="evenodd" fill-opacity="1" /><path clip-path="url(#clip080)" d="M72.1007 605.933 Q57.9184 605.933 46.4824 600.646 Q41.6866 598.391 37.6697 595.235 Q33.6527 592.079 31.8902 589.989 Q30.1276 587.898 30.1276 587.324 Q30.1276 586.505 30.9474 586.464 Q31.3573 586.464 32.3821 587.57 Q46.1545 601.097 72.1007 601.056 Q98.1289 601.056 111.368 587.898 Q112.803 586.464 113.254 586.464 Q114.074 586.464 114.074 587.324 Q114.074 587.898 112.393 589.907 Q110.713 591.915 106.86 595.03 Q103.007 598.146 98.2928 600.4 Q86.8568 605.933 72.1007 605.933 Z" fill="#000000" fill-rule="evenodd" fill-opacity="1" /><path clip-path="url(#clip080)" d="M36.6859 494.292 Q37.8746 494.292 38.1206 494.825 Q38.3665 495.317 38.3665 496.957 Q38.3665 498.883 38.5304 500.072 Q38.6534 501.26 38.8584 501.998 Q39.0223 502.736 39.5962 503.187 Q40.17 503.597 40.6619 503.761 Q41.1128 503.925 42.2195 504.212 L86.9388 515.361 Q88.4554 515.771 88.9883 515.771 Q89.5211 515.771 89.849 515.443 Q90.1769 515.074 90.3409 514.172 Q90.4639 513.27 90.5049 512.573 Q90.5049 511.836 90.5049 510.319 Q90.5049 508.434 90.8328 508.147 Q91.0377 507.983 91.4066 507.983 Q92.1854 507.983 92.5953 508.311 Q92.9642 508.638 93.0462 508.925 Q93.0872 509.171 93.0872 509.581 Q93.0872 511.303 92.9642 514.828 Q92.8412 518.353 92.8412 520.074 L93.0872 530.486 Q93.0872 531.715 92.0624 531.715 Q91.2837 531.715 90.9557 531.388 Q90.5868 531.06 90.5458 530.691 Q90.5049 530.322 90.5049 529.379 Q90.5049 526.018 90.136 524.583 Q89.767 523.108 89.1112 522.698 Q88.4144 522.247 86.5289 521.755 L38.4485 509.745 L38.4485 509.827 L91.5706 543.725 L91.9395 543.971 Q92.2674 544.217 92.3904 544.299 Q92.4723 544.381 92.7183 544.627 Q92.9232 544.832 93.0052 545.078 Q93.0872 545.283 93.0872 545.57 Q93.0872 546.062 92.7593 546.349 Q92.4313 546.595 92.1854 546.677 Q91.8985 546.718 91.1607 546.84 L39.1043 554.055 L39.1043 554.137 L84.8483 565.573 Q86.119 565.901 86.7748 565.901 Q88.4554 565.901 89.4801 564.712 Q90.4639 563.482 90.5049 560.203 Q90.5049 558.686 91.4066 558.686 Q93.0872 558.686 93.0872 560.203 Q93.0872 561.597 92.9642 564.507 Q92.8412 567.417 92.8412 568.852 Q92.8412 570.245 92.9642 573.074 Q93.0872 575.861 93.0872 577.214 Q93.0872 578.402 92.0624 578.402 Q90.5049 578.402 90.5049 576.886 Q90.4229 574.426 89.931 572.746 Q89.4391 571.065 88.4964 570.122 Q87.5536 569.139 86.6109 568.688 Q85.6271 568.196 84.1925 567.827 L41.4407 557.17 Q40.088 556.842 39.8831 556.842 Q39.1863 556.842 38.9403 557.252 Q38.6534 557.621 38.5304 558.686 Q38.3665 560.736 38.3665 562.293 Q38.3665 563.318 38.3255 563.728 Q38.2845 564.097 38.0796 564.425 Q37.8336 564.712 37.3418 564.712 Q36.563 564.712 36.235 564.384 Q35.8661 564.015 35.8252 563.605 Q35.7432 563.195 35.7432 562.211 L35.7432 550.693 Q35.7432 549.013 36.0301 548.644 Q36.276 548.275 37.6697 548.111 L85.1762 541.553 L37.3418 510.893 Q36.1531 510.114 35.9481 509.704 Q35.7432 509.294 35.7432 507.655 L35.7432 496.547 Q35.7432 495.645 35.7842 495.276 Q35.8252 494.907 36.0301 494.62 Q36.235 494.292 36.6859 494.292 Z" fill="#000000" fill-rule="evenodd" fill-opacity="1" /><path clip-path="url(#clip080)" d="M36.6859 406.378 Q37.4237 406.378 37.8336 406.665 Q38.2025 406.952 38.2435 407.198 Q38.2845 407.403 38.3665 407.977 Q38.5304 409.862 39.1043 411.338 Q39.6781 412.814 40.7849 413.92 Q41.8506 415.027 42.8343 415.724 Q43.8181 416.421 45.4986 417.363 L93.3331 444.908 Q93.825 445.195 94.0709 445.4 Q94.3578 445.564 94.6448 445.974 Q94.9317 446.384 94.9317 446.917 Q94.9317 447.655 94.5218 447.9 Q94.1119 448.146 92.7593 448.269 L50.3764 451.344 L93.1692 476.06 Q93.948 476.511 94.1939 476.716 Q94.4808 476.88 94.6858 477.249 Q94.9317 477.577 94.9317 478.069 Q94.9317 478.642 94.6448 478.929 Q94.3988 479.216 94.0299 479.298 Q93.661 479.339 92.7593 479.38 L41.4407 483.192 Q39.5142 483.315 38.9403 484.012 Q38.3665 484.668 38.3665 487.619 Q38.3665 488.439 38.3255 488.808 Q38.2845 489.136 38.0796 489.423 Q37.8336 489.71 37.3418 489.71 Q35.7432 489.71 35.7432 488.193 Q35.7432 486.758 35.8661 483.807 Q35.9891 480.856 35.9891 479.38 Q35.9891 477.659 35.8661 474.216 Q35.7432 470.772 35.7432 469.092 Q35.7432 467.903 36.6859 467.903 Q37.4647 467.903 37.8746 468.231 Q38.2435 468.518 38.3255 468.805 Q38.3665 469.092 38.3665 469.666 Q38.4075 471.92 38.6944 473.355 Q38.9813 474.748 39.5552 475.281 Q40.088 475.814 40.4569 475.937 Q40.7849 476.06 41.3587 476.06 L83.9466 472.863 L46.9333 451.63 L40.4569 452.122 Q39.1863 452.245 38.7764 453.065 Q38.3665 453.885 38.3665 456.549 Q38.3665 457.287 38.3255 457.656 Q38.2845 457.984 38.0796 458.312 Q37.8746 458.599 37.4237 458.599 Q36.6449 458.599 36.276 458.271 Q35.8661 457.943 35.8252 457.697 Q35.7432 457.41 35.7432 457 Q35.7432 456.057 35.8661 452.614 Q35.9891 449.171 35.9891 448.187 Q35.9891 446.507 35.8661 443.064 Q35.7432 439.621 35.7432 437.94 Q35.7432 436.669 36.6859 436.669 Q37.8336 436.669 38.1206 437.161 Q38.3665 437.653 38.3665 438.924 Q38.4075 441.096 38.7354 442.449 Q39.0633 443.761 39.8011 444.252 Q40.4979 444.703 40.9488 444.785 Q41.3997 444.867 42.3015 444.826 L83.9466 441.711 L44.3919 419.044 Q44.228 418.962 43.7771 418.716 Q43.2852 418.429 43.1622 418.388 Q43.0393 418.306 42.7114 418.183 Q42.3834 418.019 42.1785 417.978 Q41.9326 417.937 41.6456 417.937 Q39.9651 417.937 39.2273 419.454 Q38.4485 420.97 38.3665 422.897 Q38.3665 424.168 37.3418 424.168 Q36.604 424.168 36.235 423.84 Q35.8252 423.512 35.7842 423.266 Q35.7432 422.979 35.7432 422.569 Q35.7432 421.175 35.8661 418.224 Q35.9891 415.273 35.9891 413.838 Q35.9891 412.773 35.8661 410.559 Q35.7432 408.346 35.7432 407.362 Q35.7432 406.911 36.0711 406.665 Q36.399 406.378 36.6859 406.378 Z" fill="#000000" fill-rule="evenodd" fill-opacity="1" /><path clip-path="url(#clip080)" d="M81.0773 358.278 Q81.4052 358.278 82.6759 358.647 Q83.9466 359.016 85.9141 359.918 Q87.8815 360.779 89.6851 361.967 Q91.4476 363.156 92.7593 365.123 Q94.0299 367.05 94.0299 369.263 Q94.0299 372.215 92.0624 374.182 Q90.095 376.15 87.1437 376.15 Q86.7338 376.15 86.3239 376.109 Q85.9141 376.068 85.6681 376.027 Q85.3812 375.986 84.9303 375.863 Q84.4384 375.699 84.2335 375.658 Q84.0285 375.576 83.4137 375.371 Q82.7579 375.125 82.5119 375.043 Q69.2314 369.837 63.6979 369.837 Q57.8364 369.837 57.8364 374.387 Q57.8364 378.445 60.7876 382.462 Q62.2632 384.306 64.8866 386.069 Q67.5099 387.832 68.4936 388.159 Q70.6251 388.528 72.2646 389.061 Q73.4123 389.307 77.8802 390.496 L85.4632 392.34 L91.8165 393.939 Q92.7183 394.267 93.3741 395.169 Q94.0299 396.07 94.0299 397.054 Q94.0299 397.874 93.4561 398.694 Q92.9232 399.473 91.6526 399.473 Q90.9967 399.473 89.808 399.145 L41.4407 386.971 L39.8011 386.725 Q39.3092 386.725 39.0633 386.93 Q38.7764 387.094 38.5714 388.077 Q38.3665 389.02 38.3665 390.906 Q38.3665 391.685 38.3255 392.053 Q38.2845 392.381 38.0796 392.668 Q37.8336 392.955 37.3418 392.955 Q36.6449 392.955 36.276 392.668 Q35.8661 392.34 35.7842 392.094 Q35.7022 391.849 35.6612 391.357 Q35.6202 390.66 35.4153 388.323 Q35.1693 385.987 35.0054 383.979 Q34.8414 381.97 34.8414 381.109 Q34.8414 380.617 35.0873 380.372 Q35.2923 380.085 35.5382 380.044 L35.7432 380.003 L62.4272 386.561 Q55.9919 381.355 55.9919 374.141 Q55.9919 369.468 58.4102 366.968 Q60.7876 364.468 64.9685 364.468 Q69.7643 364.468 83.4137 369.591 Q87.2257 371.108 89.3981 371.108 Q90.8328 371.108 91.4886 370.657 Q92.1444 370.165 92.1444 369.099 Q92.1444 367.46 91.2017 366.025 Q90.2179 364.55 88.6193 363.525 Q86.9798 362.5 85.3402 361.803 Q83.6596 361.066 81.7741 360.533 Q80.7494 360.205 80.5035 360.041 Q80.2575 359.836 80.2575 359.262 Q80.2575 358.278 81.0773 358.278 Z" fill="#000000" fill-rule="evenodd" fill-opacity="1" /><path clip-path="url(#clip080)" d="M113.254 351.271 Q112.844 351.271 111.819 350.205 Q98.0469 336.679 72.1007 336.679 Q46.0725 336.679 32.9149 349.672 Q31.3983 351.271 30.9474 351.271 Q30.1276 351.271 30.1276 350.451 Q30.1276 349.877 31.8082 347.869 Q33.4888 345.819 37.3418 342.745 Q41.1948 339.63 45.9085 337.334 Q57.3445 331.801 72.1007 331.801 Q86.283 331.801 97.719 337.089 Q102.515 339.343 106.532 342.499 Q110.549 345.655 112.311 347.746 Q114.074 349.836 114.074 350.451 Q114.074 351.271 113.254 351.271 Z" fill="#000000" fill-rule="evenodd" fill-opacity="1" /><path clip-path="url(#clip082)" d="
M371.136 982.9 L371.136 982.9 L865.734 982.9 L865.734 982.9 L371.136 982.9 L371.136 982.9  Z
  " fill="#009af9" fill-rule="evenodd" fill-opacity="1"/>
<polyline clip-path="url(#clip082)" style="stroke:#000000; stroke-linecap:round; stroke-linejoin:round; stroke-width:4; stroke-opacity:1; fill:none" points="
  371.136,982.9 371.136,982.9 865.734,982.9 371.136,982.9 
  "/>
<path clip-path="url(#clip082)" d="
M989.384 140.81 L989.384 982.9 L1483.98 982.9 L1483.98 140.81 L989.384 140.81 L989.384 140.81  Z
  " fill="#009af9" fill-rule="evenodd" fill-opacity="1"/>
<polyline clip-path="url(#clip082)" style="stroke:#000000; stroke-linecap:round; stroke-linejoin:round; stroke-width:4; stroke-opacity:1; fill:none" points="
  989.384,140.81 989.384,982.9 1483.98,982.9 1483.98,140.81 989.384,140.81 
  "/>
<circle clip-path="url(#clip082)" style="fill:#009af9; stroke:none; fill-opacity:0" cx="618.435" cy="982.9" r="2"/>
<circle clip-path="url(#clip082)" style="fill:#009af9; stroke:none; fill-opacity:0" cx="1236.68" cy="140.81" r="2"/>
<polyline clip-path="url(#clip082)" style="stroke:#ff0000; stroke-linecap:round; stroke-linejoin:round; stroke-width:4; stroke-opacity:1; fill:none" stroke-dasharray="16, 10" points="
  -948.032,234.375 2803.15,234.375 
  "/>
<polyline clip-path="url(#clip082)" style="stroke:#a52a2a; stroke-linecap:round; stroke-linejoin:round; stroke-width:4; stroke-opacity:1; fill:none" stroke-dasharray="2, 4" points="
  -948.032,795.769 2803.15,795.769 
  "/>
<polyline clip-path="url(#clip082)" style="stroke:#a52a2a; stroke-linecap:round; stroke-linejoin:round; stroke-width:32; stroke-opacity:1; fill:none" points="
  772.997,982.9 772.997,795.769 
  "/>
<path clip-path="url(#clip080)" d="M336.654 166.709 L348.847 166.709 L364.281 207.866 L379.796 166.709 L391.989 166.709 L391.989 227.189 L384.009 227.189 L384.009 174.082 L368.413 215.563 L360.19 215.563 L344.594 174.082 L344.594 227.189 L336.654 227.189 L336.654 166.709 Z" fill="#ff0000" fill-rule="evenodd" fill-opacity="1" /><path clip-path="url(#clip080)" d="M407.91 181.819 L415.363 181.819 L415.363 227.189 L407.91 227.189 L407.91 181.819 M407.91 164.157 L415.363 164.157 L415.363 173.596 L407.91 173.596 L407.91 164.157 Z" fill="#ff0000" fill-rule="evenodd" fill-opacity="1" /><path clip-path="url(#clip080)" d="M468.673 199.805 L468.673 227.189 L461.219 227.189 L461.219 200.048 Q461.219 193.607 458.708 190.407 Q456.196 187.207 451.173 187.207 Q445.137 187.207 441.654 191.055 Q438.17 194.903 438.17 201.547 L438.17 227.189 L430.676 227.189 L430.676 181.819 L438.17 181.819 L438.17 188.867 Q440.843 184.776 444.449 182.751 Q448.095 180.725 452.834 180.725 Q460.652 180.725 464.663 185.586 Q468.673 190.407 468.673 199.805 Z" fill="#ff0000" fill-rule="evenodd" fill-opacity="1" /><path clip-path="url(#clip080)" d="M483.54 181.819 L490.994 181.819 L490.994 227.189 L483.54 227.189 L483.54 181.819 M483.54 164.157 L490.994 164.157 L490.994 173.596 L483.54 173.596 L483.54 164.157 Z" fill="#ff0000" fill-rule="evenodd" fill-opacity="1" /><path clip-path="url(#clip080)" d="M541.913 190.528 Q544.709 185.505 548.597 183.115 Q552.486 180.725 557.752 180.725 Q564.842 180.725 568.69 185.708 Q572.538 190.65 572.538 199.805 L572.538 227.189 L565.044 227.189 L565.044 200.048 Q565.044 193.526 562.735 190.366 Q560.426 187.207 555.687 187.207 Q549.894 187.207 546.531 191.055 Q543.169 194.903 543.169 201.547 L543.169 227.189 L535.675 227.189 L535.675 200.048 Q535.675 193.485 533.366 190.366 Q531.057 187.207 526.236 187.207 Q520.525 187.207 517.162 191.095 Q513.8 194.944 513.8 201.547 L513.8 227.189 L506.306 227.189 L506.306 181.819 L513.8 181.819 L513.8 188.867 Q516.352 184.695 519.917 182.71 Q523.482 180.725 528.383 180.725 Q533.326 180.725 536.769 183.237 Q540.253 185.748 541.913 190.528 Z" fill="#ff0000" fill-rule="evenodd" fill-opacity="1" /><path clip-path="url(#clip080)" d="M586.635 209.284 L586.635 181.819 L594.089 181.819 L594.089 209 Q594.089 215.441 596.601 218.682 Q599.112 221.882 604.135 221.882 Q610.171 221.882 613.655 218.034 Q617.179 214.186 617.179 207.542 L617.179 181.819 L624.633 181.819 L624.633 227.189 L617.179 227.189 L617.179 220.221 Q614.465 224.353 610.86 226.379 Q607.295 228.364 602.555 228.364 Q594.737 228.364 590.686 223.503 Q586.635 218.642 586.635 209.284 M605.391 180.725 L605.391 180.725 Z" fill="#ff0000" fill-rule="evenodd" fill-opacity="1" /><path clip-path="url(#clip080)" d="M675.31 190.528 Q678.105 185.505 681.994 183.115 Q685.883 180.725 691.149 180.725 Q698.238 180.725 702.086 185.708 Q705.935 190.65 705.935 199.805 L705.935 227.189 L698.44 227.189 L698.44 200.048 Q698.44 193.526 696.131 190.366 Q693.822 187.207 689.083 187.207 Q683.29 187.207 679.928 191.055 Q676.566 194.903 676.566 201.547 L676.566 227.189 L669.071 227.189 L669.071 200.048 Q669.071 193.485 666.762 190.366 Q664.453 187.207 659.633 187.207 Q653.921 187.207 650.559 191.095 Q647.196 194.944 647.196 201.547 L647.196 227.189 L639.702 227.189 L639.702 181.819 L647.196 181.819 L647.196 188.867 Q649.749 184.695 653.313 182.71 Q656.878 180.725 661.78 180.725 Q666.722 180.725 670.165 183.237 Q673.649 185.748 675.31 190.528 Z" fill="#ff0000" fill-rule="evenodd" fill-opacity="1" /><path clip-path="url(#clip080)" d="M788.735 218.561 L788.735 202.316 L775.367 202.316 L775.367 195.592 L796.837 195.592 L796.837 221.558 Q792.097 224.921 786.386 226.662 Q780.674 228.364 774.192 228.364 Q760.014 228.364 751.993 220.1 Q744.013 211.796 744.013 197.01 Q744.013 182.183 751.993 173.92 Q760.014 165.615 774.192 165.615 Q780.107 165.615 785.413 167.074 Q790.761 168.532 795.257 171.368 L795.257 180.077 Q790.72 176.229 785.616 174.284 Q780.512 172.34 774.881 172.34 Q763.781 172.34 758.191 178.538 Q752.641 184.736 752.641 197.01 Q752.641 209.244 758.191 215.441 Q763.781 221.639 774.881 221.639 Q779.215 221.639 782.618 220.91 Q786.021 220.14 788.735 218.561 Z" fill="#ff0000" fill-rule="evenodd" fill-opacity="1" /><path clip-path="url(#clip080)" d="M850.268 202.641 L850.268 206.286 L815.998 206.286 Q816.484 213.983 820.616 218.034 Q824.788 222.044 832.201 222.044 Q836.495 222.044 840.506 220.991 Q844.557 219.938 848.526 217.831 L848.526 224.88 Q844.516 226.581 840.303 227.473 Q836.09 228.364 831.756 228.364 Q820.899 228.364 814.539 222.044 Q808.22 215.725 808.22 204.95 Q808.22 193.81 814.215 187.288 Q820.251 180.725 830.459 180.725 Q839.614 180.725 844.921 186.639 Q850.268 192.513 850.268 202.641 M842.815 200.453 Q842.734 194.336 839.371 190.69 Q836.05 187.045 830.54 187.045 Q824.302 187.045 820.535 190.569 Q816.808 194.093 816.241 200.494 L842.815 200.453 Z" fill="#ff0000" fill-rule="evenodd" fill-opacity="1" /><path clip-path="url(#clip080)" d="M900.216 199.805 L900.216 227.189 L892.762 227.189 L892.762 200.048 Q892.762 193.607 890.251 190.407 Q887.739 187.207 882.716 187.207 Q876.68 187.207 873.196 191.055 Q869.713 194.903 869.713 201.547 L869.713 227.189 L862.218 227.189 L862.218 181.819 L869.713 181.819 L869.713 188.867 Q872.386 184.776 875.992 182.751 Q879.637 180.725 884.377 180.725 Q892.195 180.725 896.206 185.586 Q900.216 190.407 900.216 199.805 Z" fill="#ff0000" fill-rule="evenodd" fill-opacity="1" /><path clip-path="url(#clip080)" d="M894.49 849.765 Q894.49 847.349 893.831 845.373 Q893.245 843.324 892.294 841.933 Q891.415 840.469 889.732 839.371 Q888.048 838.2 886.658 837.468 Q885.267 836.736 882.925 836.297 Q880.582 835.785 879.045 835.565 Q877.508 835.272 874.873 835.126 Q872.238 834.979 870.921 834.979 Q869.676 834.979 867.188 834.979 Q859.356 834.979 858.038 835.126 Q856.062 835.419 855.33 836.59 Q854.598 837.688 853.866 840.689 L844.131 879.775 L860.893 879.775 Q870.042 879.775 876.337 877.213 Q882.632 874.651 886.218 871.065 Q890.171 867.112 892.294 860.744 Q894.49 854.376 894.49 849.765 M910.812 918.788 Q910.812 919.593 910.153 921.423 Q909.568 923.253 908.104 925.815 Q906.64 928.303 904.664 930.572 Q902.687 932.841 899.54 934.378 Q896.393 935.989 892.806 935.989 Q891.928 935.989 891.049 935.915 Q890.171 935.915 887.975 935.549 Q885.852 935.257 884.096 934.671 Q882.339 934.159 880.143 932.914 Q877.947 931.743 876.41 930.133 Q874.946 928.45 873.922 925.815 Q872.897 923.106 872.897 919.813 Q872.897 916.885 875.312 907.077 Q877.435 898.732 877.435 896.683 Q877.435 894.414 876.703 892.291 Q876.044 890.169 874.361 887.973 Q872.751 885.777 869.31 884.459 Q865.87 883.069 861.039 883.069 L843.253 883.069 L833.298 922.814 Q833.298 922.887 833.079 923.911 Q832.859 924.863 832.859 925.375 Q832.859 926.327 833.445 926.912 Q834.104 927.498 835.714 927.791 Q837.324 928.01 838.568 928.084 Q839.886 928.084 842.594 928.084 Q845.961 928.084 846.547 928.669 Q846.839 929.035 846.839 929.694 Q846.839 930.719 846.547 931.451 Q846.327 932.109 845.742 932.329 Q845.229 932.548 844.863 932.622 Q844.497 932.695 843.838 932.695 L824.808 932.256 L805.923 932.695 Q803.801 932.695 803.801 931.011 Q803.801 929.547 804.313 928.962 Q804.825 928.303 805.484 928.23 Q806.143 928.084 807.826 928.084 Q811.486 928.084 813.682 927.864 Q815.878 927.644 817.269 927.352 Q818.733 926.986 819.464 925.961 Q820.27 924.936 820.636 924.058 Q821.002 923.106 821.514 920.984 L841.569 840.469 Q842.155 838.054 842.155 837.688 Q842.155 836.297 841.277 835.931 Q840.471 835.492 838.129 835.272 L832.42 834.979 Q830.663 834.979 829.931 834.906 Q829.273 834.833 828.76 834.467 Q828.248 834.101 828.248 833.296 Q828.248 831.246 829.126 830.807 Q830.005 830.295 832.566 830.295 L875.312 830.295 Q889.878 830.295 899.101 836.663 Q908.397 843.031 908.397 852.766 Q908.397 857.157 906.42 861.256 Q904.444 865.355 901.15 868.576 Q897.93 871.797 893.611 874.505 Q889.293 877.14 884.681 878.97 Q880.143 880.726 875.459 881.751 Q877.508 882.483 879.411 883.581 Q881.388 884.679 883.876 886.728 Q886.438 888.778 887.975 892.072 Q889.512 895.365 889.512 899.391 Q889.512 902.246 888.927 906.491 Q887.463 918.568 887.463 923.545 Q887.463 928.303 888.707 930.499 Q889.951 932.695 893.465 932.695 Q896.905 932.695 900.711 929.621 Q904.59 926.473 907.079 919.081 Q907.665 916.958 909.055 916.958 Q909.129 916.958 909.202 916.958 Q909.348 916.958 909.641 917.104 Q909.934 917.178 910.153 917.397 Q910.446 917.543 910.592 917.909 Q910.812 918.275 910.812 918.788 Z" fill="#a52a2a" fill-rule="evenodd" fill-opacity="1" /><path clip-path="url(#clip080)" d="M973.953 922.063 Q973.953 922.114 973.645 923.959 L961.963 970.533 Q961.349 972.992 959.606 975.452 Q957.916 977.962 955.2 980.114 Q952.536 982.317 948.437 983.649 Q944.389 985.033 939.727 985.033 Q932.297 985.033 929.018 983.444 Q925.79 981.907 925.79 978.628 Q925.79 975.759 927.584 974.119 Q929.377 972.531 931.426 972.531 Q933.373 972.531 934.398 973.658 Q935.423 974.785 935.423 976.22 Q935.423 977.808 934.347 979.397 Q933.271 981.036 931.119 981.651 Q934.552 982.727 939.522 982.727 Q950.025 982.727 954.534 971.609 Q954.637 971.455 954.637 971.404 L958.121 957.519 L957.967 957.416 Q957.096 958.441 955.712 959.619 Q954.38 960.747 951.511 962.13 Q948.642 963.513 945.824 963.513 Q939.932 963.513 935.884 959.005 Q931.887 954.445 931.887 946.913 Q931.887 941.43 934.091 935.948 Q936.345 930.415 939.829 926.367 Q943.364 922.268 947.873 919.706 Q952.433 917.144 956.84 917.144 Q959.914 917.144 962.527 918.989 Q965.14 920.782 966.575 923.754 Q966.831 921.294 968.214 920.27 Q969.649 919.245 970.879 919.245 Q972.262 919.245 973.082 920.014 Q973.953 920.731 973.953 922.063 M965.345 928.468 Q965.345 928.16 965.14 927.34 Q964.935 926.469 964.32 925.086 Q963.757 923.703 962.886 922.473 Q962.015 921.243 960.426 920.372 Q958.889 919.45 956.942 919.45 Q953.765 919.45 950.589 922.114 Q947.412 924.727 945.209 928.775 Q943.16 932.669 941.213 940.201 Q939.317 947.733 939.317 951.575 Q939.317 955.367 940.956 958.287 Q942.596 961.208 946.131 961.208 Q950.23 961.208 954.637 957.416 Q959.197 953.471 959.965 950.089 L965.038 930.056 Q965.345 928.826 965.345 928.468 Z" fill="#a52a2a" fill-rule="evenodd" fill-opacity="1" /></svg>
