<?xml version="1.0" encoding="utf-8"?>
<svg xmlns="http://www.w3.org/2000/svg" xmlns:xlink="http://www.w3.org/1999/xlink" width="600" height="400" viewBox="0 0 2400 1600">
<defs>
  <clipPath id="clip720">
    <rect x="0" y="0" width="2400" height="1600"/>
  </clipPath>
</defs>
<path clip-path="url(#clip720)" d="
M0 1600 L2400 1600 L2400 0 L0 0  Z
  " fill="#ffffff" fill-rule="evenodd" fill-opacity="1"/>
<defs>
  <clipPath id="clip721">
    <rect x="480" y="0" width="1681" height="1600"/>
  </clipPath>
</defs>
<path clip-path="url(#clip720)" d="
M318.3 1454.93 L2352.76 1454.93 L2352.76 188.976 L318.3 188.976  Z
  " fill="#ffffff" fill-rule="evenodd" fill-opacity="1"/>
<defs>
  <clipPath id="clip722">
    <rect x="318" y="188" width="2035" height="1267"/>
  </clipPath>
</defs>
<polyline clip-path="url(#clip720)" style="stroke:#000000; stroke-linecap:butt; stroke-linejoin:round; stroke-width:4; stroke-opacity:1; fill:none" points="
  318.3,1454.93 2352.76,1454.93 
  "/>
<path clip-path="url(#clip720)" d="M961.578 1516.47 L961.578 1580.3 L974.992 1580.3 Q991.98 1580.3 999.841 1572.6 Q1007.76 1564.9 1007.76 1548.3 Q1007.76 1531.81 999.841 1524.17 Q991.98 1516.47 974.992 1516.47 L961.578 1516.47 M950.472 1507.34 L973.288 1507.34 Q997.147 1507.34 1008.31 1517.29 Q1019.47 1527.19 1019.47 1548.3 Q1019.47 1569.52 1008.25 1579.47 Q997.038 1589.42 973.288 1589.42 L950.472 1589.42 L950.472 1507.34 Z" fill="#000000" fill-rule="evenodd" fill-opacity="1" /><path clip-path="url(#clip720)" d="M1036.73 1527.85 L1046.85 1527.85 L1046.85 1589.42 L1036.73 1589.42 L1036.73 1527.85 M1036.73 1503.88 L1046.85 1503.88 L1046.85 1516.69 L1036.73 1516.69 L1036.73 1503.88 Z" fill="#000000" fill-rule="evenodd" fill-opacity="1" /><path clip-path="url(#clip720)" d="M1107.27 1529.66 L1107.27 1539.23 Q1102.98 1537.03 1098.36 1535.93 Q1093.74 1534.83 1088.79 1534.83 Q1081.26 1534.83 1077.47 1537.14 Q1073.73 1539.45 1073.73 1544.07 Q1073.73 1547.59 1076.42 1549.62 Q1079.12 1551.6 1087.25 1553.41 L1090.72 1554.18 Q1101.49 1556.49 1106 1560.73 Q1110.56 1564.9 1110.56 1572.44 Q1110.56 1581.01 1103.75 1586.02 Q1096.98 1591.02 1085.11 1591.02 Q1080.16 1591.02 1074.77 1590.03 Q1069.44 1589.09 1063.5 1587.17 L1063.5 1576.72 Q1069.11 1579.64 1074.55 1581.12 Q1080 1582.55 1085.33 1582.55 Q1092.48 1582.55 1096.33 1580.13 Q1100.17 1577.66 1100.17 1573.21 Q1100.17 1569.08 1097.37 1566.88 Q1094.62 1564.68 1085.22 1562.65 L1081.7 1561.83 Q1072.3 1559.85 1068.12 1555.78 Q1063.94 1551.65 1063.94 1544.51 Q1063.94 1535.82 1070.1 1531.09 Q1076.26 1526.37 1087.58 1526.37 Q1093.19 1526.37 1098.14 1527.19 Q1103.09 1528.02 1107.27 1529.66 Z" fill="#000000" fill-rule="evenodd" fill-opacity="1" /><path clip-path="url(#clip720)" d="M1136.68 1510.37 L1136.68 1527.85 L1157.51 1527.85 L1157.51 1535.71 L1136.68 1535.71 L1136.68 1569.14 Q1136.68 1576.67 1138.71 1578.81 Q1140.8 1580.96 1147.12 1580.96 L1157.51 1580.96 L1157.51 1589.42 L1147.12 1589.42 Q1135.41 1589.42 1130.96 1585.08 Q1126.51 1580.68 1126.51 1569.14 L1126.51 1535.71 L1119.09 1535.71 L1119.09 1527.85 L1126.51 1527.85 L1126.51 1510.37 L1136.68 1510.37 Z" fill="#000000" fill-rule="evenodd" fill-opacity="1" /><path clip-path="url(#clip720)" d="M1198.8 1558.47 Q1186.54 1558.47 1181.81 1561.28 Q1177.09 1564.08 1177.09 1570.84 Q1177.09 1576.23 1180.6 1579.42 Q1184.18 1582.55 1190.28 1582.55 Q1198.69 1582.55 1203.75 1576.61 Q1208.86 1570.62 1208.86 1560.73 L1208.86 1558.47 L1198.8 1558.47 M1218.98 1554.29 L1218.98 1589.42 L1208.86 1589.42 L1208.86 1580.08 Q1205.4 1585.69 1200.23 1588.38 Q1195.06 1591.02 1187.59 1591.02 Q1178.13 1591.02 1172.52 1585.74 Q1166.97 1580.41 1166.97 1571.5 Q1166.97 1561.11 1173.9 1555.83 Q1180.88 1550.56 1194.68 1550.56 L1208.86 1550.56 L1208.86 1549.57 Q1208.86 1542.58 1204.24 1538.79 Q1199.68 1534.94 1191.38 1534.94 Q1186.1 1534.94 1181.1 1536.21 Q1176.1 1537.47 1171.48 1540 L1171.48 1530.65 Q1177.03 1528.51 1182.25 1527.47 Q1187.48 1526.37 1192.42 1526.37 Q1205.78 1526.37 1212.38 1533.29 Q1218.98 1540.22 1218.98 1554.29 Z" fill="#000000" fill-rule="evenodd" fill-opacity="1" /><path clip-path="url(#clip720)" d="M1291 1552.26 L1291 1589.42 L1280.88 1589.42 L1280.88 1552.59 Q1280.88 1543.85 1277.47 1539.51 Q1274.06 1535.16 1267.25 1535.16 Q1259.06 1535.16 1254.33 1540.38 Q1249.6 1545.61 1249.6 1554.62 L1249.6 1589.42 L1239.43 1589.42 L1239.43 1527.85 L1249.6 1527.85 L1249.6 1537.42 Q1253.23 1531.86 1258.12 1529.11 Q1263.07 1526.37 1269.5 1526.37 Q1280.11 1526.37 1285.55 1532.96 Q1291 1539.51 1291 1552.26 Z" fill="#000000" fill-rule="evenodd" fill-opacity="1" /><path clip-path="url(#clip720)" d="M1355.48 1530.21 L1355.48 1539.67 Q1351.2 1537.31 1346.85 1536.15 Q1342.57 1534.94 1338.17 1534.94 Q1328.33 1534.94 1322.88 1541.21 Q1317.44 1547.42 1317.44 1558.69 Q1317.44 1569.96 1322.88 1576.23 Q1328.33 1582.44 1338.17 1582.44 Q1342.57 1582.44 1346.85 1581.29 Q1351.2 1580.08 1355.48 1577.71 L1355.48 1587.06 Q1351.25 1589.04 1346.69 1590.03 Q1342.18 1591.02 1337.07 1591.02 Q1323.16 1591.02 1314.97 1582.28 Q1306.78 1573.54 1306.78 1558.69 Q1306.78 1543.63 1315.02 1535 Q1323.32 1526.37 1337.73 1526.37 Q1342.4 1526.37 1346.85 1527.36 Q1351.31 1528.29 1355.48 1530.21 Z" fill="#000000" fill-rule="evenodd" fill-opacity="1" /><path clip-path="url(#clip720)" d="M1425.74 1556.11 L1425.74 1561.06 L1379.23 1561.06 Q1379.89 1571.5 1385.5 1577 Q1391.16 1582.44 1401.23 1582.44 Q1407.05 1582.44 1412.5 1581.01 Q1417.99 1579.58 1423.38 1576.72 L1423.38 1586.29 Q1417.94 1588.6 1412.22 1589.81 Q1406.5 1591.02 1400.62 1591.02 Q1385.89 1591.02 1377.26 1582.44 Q1368.68 1573.87 1368.68 1559.24 Q1368.68 1544.12 1376.82 1535.27 Q1385.01 1526.37 1398.86 1526.37 Q1411.29 1526.37 1418.49 1534.39 Q1425.74 1542.36 1425.74 1556.11 M1415.63 1553.14 Q1415.52 1544.84 1410.96 1539.89 Q1406.45 1534.94 1398.97 1534.94 Q1390.5 1534.94 1385.39 1539.73 Q1380.33 1544.51 1379.56 1553.19 L1415.63 1553.14 Z" fill="#000000" fill-rule="evenodd" fill-opacity="1" /><path clip-path="url(#clip720)" d="M1502.44 1503.99 Q1495.07 1516.63 1491.5 1529 Q1487.92 1541.37 1487.92 1554.07 Q1487.92 1566.77 1491.5 1579.25 Q1495.13 1591.68 1502.44 1604.27 L1493.64 1604.27 Q1485.39 1591.35 1481.27 1578.87 Q1477.2 1566.39 1477.2 1554.07 Q1477.2 1541.81 1481.27 1529.39 Q1485.34 1516.96 1493.64 1503.99 L1502.44 1503.99 Z" fill="#000000" fill-rule="evenodd" fill-opacity="1" /><path clip-path="url(#clip720)" d="M1521.68 1503.88 L1531.85 1503.88 L1531.85 1554.4 L1562.03 1527.85 L1574.95 1527.85 L1542.3 1556.66 L1576.33 1589.42 L1563.13 1589.42 L1531.85 1559.35 L1531.85 1589.42 L1521.68 1589.42 L1521.68 1503.88 Z" fill="#000000" fill-rule="evenodd" fill-opacity="1" /><path clip-path="url(#clip720)" d="M1635.21 1539.67 Q1639 1532.85 1644.28 1529.61 Q1649.55 1526.37 1656.7 1526.37 Q1666.32 1526.37 1671.54 1533.13 Q1676.77 1539.84 1676.77 1552.26 L1676.77 1589.42 L1666.6 1589.42 L1666.6 1552.59 Q1666.6 1543.74 1663.46 1539.45 Q1660.33 1535.16 1653.9 1535.16 Q1646.04 1535.16 1641.47 1540.38 Q1636.91 1545.61 1636.91 1554.62 L1636.91 1589.42 L1626.74 1589.42 L1626.74 1552.59 Q1626.74 1543.68 1623.61 1539.45 Q1620.47 1535.16 1613.93 1535.16 Q1606.18 1535.16 1601.61 1540.44 Q1597.05 1545.66 1597.05 1554.62 L1597.05 1589.42 L1586.88 1589.42 L1586.88 1527.85 L1597.05 1527.85 L1597.05 1537.42 Q1600.52 1531.75 1605.35 1529.06 Q1610.19 1526.37 1616.84 1526.37 Q1623.55 1526.37 1628.22 1529.77 Q1632.95 1533.18 1635.21 1539.67 Z" fill="#000000" fill-rule="evenodd" fill-opacity="1" /><path clip-path="url(#clip720)" d="M1695.35 1503.99 L1704.15 1503.99 Q1712.39 1516.96 1716.46 1529.39 Q1720.58 1541.81 1720.58 1554.07 Q1720.58 1566.39 1716.46 1578.87 Q1712.39 1591.35 1704.15 1604.27 L1695.35 1604.27 Q1702.66 1591.68 1706.24 1579.25 Q1709.86 1566.77 1709.86 1554.07 Q1709.86 1541.37 1706.24 1529 Q1702.66 1516.63 1695.35 1503.99 Z" fill="#000000" fill-rule="evenodd" fill-opacity="1" /><polyline clip-path="url(#clip720)" style="stroke:#000000; stroke-linecap:butt; stroke-linejoin:round; stroke-width:4; stroke-opacity:1; fill:none" points="
  318.3,1454.93 318.3,188.976 
  "/>
<path clip-path="url(#clip720)" d="M148.723 1181.77 L212.55 1181.77 L212.55 1168.36 Q212.55 1151.37 204.854 1143.51 Q197.157 1135.59 180.554 1135.59 Q164.061 1135.59 156.419 1143.51 Q148.723 1151.37 148.723 1168.36 L148.723 1181.77 M139.596 1192.88 L139.596 1170.06 Q139.596 1146.2 149.547 1135.04 Q159.443 1123.88 180.554 1123.88 Q201.775 1123.88 211.726 1135.1 Q221.676 1146.31 221.676 1170.06 L221.676 1192.88 L139.596 1192.88 Z" fill="#000000" fill-rule="evenodd" fill-opacity="1" /><path clip-path="url(#clip720)" d="M147.128 1072.87 Q147.128 1084.96 156.144 1092.11 Q165.161 1099.2 180.719 1099.2 Q196.222 1099.2 205.238 1092.11 Q214.255 1084.96 214.255 1072.87 Q214.255 1060.77 205.238 1053.73 Q196.222 1046.64 180.719 1046.64 Q165.161 1046.64 156.144 1053.73 Q147.128 1060.77 147.128 1072.87 M138.112 1072.87 Q138.112 1055.6 149.712 1045.27 Q161.257 1034.93 180.719 1034.93 Q200.126 1034.93 211.726 1045.27 Q223.271 1055.6 223.271 1072.87 Q223.271 1090.18 211.726 1100.57 Q200.181 1110.91 180.719 1110.91 Q161.257 1110.91 149.712 1100.57 Q138.112 1090.18 138.112 1072.87 Z" fill="#000000" fill-rule="evenodd" fill-opacity="1" /><path clip-path="url(#clip720)" d="M139.596 1000.02 L139.596 990.675 L232.122 1019.26 L232.122 1028.61 L139.596 1000.02 Z" fill="#000000" fill-rule="evenodd" fill-opacity="1" /><path clip-path="url(#clip720)" d="M147.128 946.309 Q147.128 958.404 156.144 965.551 Q165.161 972.643 180.719 972.643 Q196.222 972.643 205.238 965.551 Q214.255 958.404 214.255 946.309 Q214.255 934.214 205.238 927.177 Q196.222 920.085 180.719 920.085 Q165.161 920.085 156.144 927.177 Q147.128 934.214 147.128 946.309 M138.112 946.309 Q138.112 929.046 149.712 918.711 Q161.257 908.375 180.719 908.375 Q200.126 908.375 211.726 918.711 Q223.271 929.046 223.271 946.309 Q223.271 963.627 211.726 974.017 Q200.181 984.353 180.719 984.353 Q161.257 984.353 149.712 974.017 Q138.112 963.627 138.112 946.309 Z" fill="#000000" fill-rule="evenodd" fill-opacity="1" /><path clip-path="url(#clip720)" d="M148.723 879.897 L212.55 879.897 L212.55 866.483 Q212.55 849.495 204.854 841.634 Q197.157 833.717 180.554 833.717 Q164.061 833.717 156.419 841.634 Q148.723 849.495 148.723 866.483 L148.723 879.897 M139.596 891.003 L139.596 868.187 Q139.596 844.328 149.547 833.167 Q159.443 822.007 180.554 822.007 Q201.775 822.007 211.726 833.222 Q221.676 844.438 221.676 868.187 L221.676 891.003 L139.596 891.003 Z" fill="#000000" fill-rule="evenodd" fill-opacity="1" /><path clip-path="url(#clip720)" d="M136.243 744.655 Q148.888 752.022 161.257 755.595 Q173.627 759.169 186.327 759.169 Q199.026 759.169 211.506 755.595 Q223.931 751.967 236.52 744.655 L236.52 753.451 Q223.601 761.698 211.121 765.821 Q198.641 769.889 186.327 769.889 Q174.067 769.889 161.642 765.821 Q149.217 761.753 136.243 753.451 L136.243 744.655 Z" fill="#000000" fill-rule="evenodd" fill-opacity="1" /><path clip-path="url(#clip720)" d="M171.923 677.089 Q165.106 673.296 161.862 668.018 Q158.618 662.74 158.618 655.593 Q158.618 645.972 165.38 640.749 Q172.088 635.527 184.512 635.527 L221.676 635.527 L221.676 645.697 L184.842 645.697 Q175.991 645.697 171.703 648.831 Q167.415 651.965 167.415 658.397 Q167.415 666.259 172.637 670.822 Q177.86 675.385 186.876 675.385 L221.676 675.385 L221.676 685.555 L184.842 685.555 Q175.936 685.555 171.703 688.689 Q167.415 691.823 167.415 698.365 Q167.415 706.117 172.692 710.68 Q177.915 715.243 186.876 715.243 L221.676 715.243 L221.676 725.413 L160.103 725.413 L160.103 715.243 L169.669 715.243 Q164.006 711.779 161.312 706.941 Q158.618 702.103 158.618 695.451 Q158.618 688.744 162.027 684.071 Q165.435 679.343 171.923 677.089 Z" fill="#000000" fill-rule="evenodd" fill-opacity="1" /><path clip-path="url(#clip720)" d="M190.175 574.833 Q179.18 574.833 173.132 579.396 Q167.085 583.904 167.085 592.095 Q167.085 600.232 173.132 604.795 Q179.18 609.303 190.175 609.303 Q201.115 609.303 207.163 604.795 Q213.21 600.232 213.21 592.095 Q213.21 583.904 207.163 579.396 Q201.115 574.833 190.175 574.833 M214.035 564.717 Q229.758 564.717 237.4 571.699 Q245.096 578.681 245.096 593.085 Q245.096 598.417 244.272 603.145 Q243.502 607.873 241.853 612.327 L232.012 612.327 Q234.431 607.873 235.586 603.53 Q236.74 599.187 236.74 594.679 Q236.74 584.728 231.517 579.78 Q226.349 574.833 215.849 574.833 L210.846 574.833 Q216.289 577.966 218.983 582.859 Q221.676 587.752 221.676 594.569 Q221.676 605.894 213.045 612.821 Q204.414 619.748 190.175 619.748 Q175.881 619.748 167.25 612.821 Q158.618 605.894 158.618 594.569 Q158.618 587.752 161.312 582.859 Q164.006 577.966 169.449 574.833 L160.103 574.833 L160.103 564.717 L214.035 564.717 Z" fill="#000000" fill-rule="evenodd" fill-opacity="1" /><path clip-path="url(#clip720)" d="M139.596 525.903 L139.596 516.557 L232.122 545.145 L232.122 554.491 L139.596 525.903 Z" fill="#000000" fill-rule="evenodd" fill-opacity="1" /><path clip-path="url(#clip720)" d="M136.133 505.947 L136.133 495.831 L221.676 495.831 L221.676 505.947 L136.133 505.947 Z" fill="#000000" fill-rule="evenodd" fill-opacity="1" /><path clip-path="url(#clip720)" d="M136.243 476.26 L136.243 467.463 Q149.217 459.217 161.642 455.149 Q174.067 451.025 186.327 451.025 Q198.641 451.025 211.121 455.149 Q223.601 459.217 236.52 467.463 L236.52 476.26 Q223.931 468.948 211.506 465.374 Q199.026 461.746 186.327 461.746 Q173.627 461.746 161.257 465.374 Q148.888 468.948 136.243 476.26 Z" fill="#000000" fill-rule="evenodd" fill-opacity="1" /><polyline clip-path="url(#clip722)" style="stroke:#000000; stroke-linecap:butt; stroke-linejoin:round; stroke-width:12; stroke-opacity:1; fill:none" points="
  375.879,224.805 471.844,330.55 567.809,423.265 663.774,504.244 759.739,574.662 855.704,635.587 951.669,687.989 1047.63,732.749 1143.6,770.665 1239.56,802.461 
  1335.53,828.793 1431.49,850.255 1527.46,867.385 1623.42,880.67 1719.39,890.549 1815.35,897.42 1911.32,901.64 2007.28,903.533 2103.25,903.391 2199.21,901.475 
  2295.18,898.021 
  "/>
<polyline clip-path="url(#clip722)" style="stroke:#008000; stroke-linecap:butt; stroke-linejoin:round; stroke-width:12; stroke-opacity:1; fill:none" stroke-dasharray="48, 24, 6, 24, 6, 24" points="
  375.879,454.071 471.844,500.853 567.809,545.727 663.774,588.768 759.739,630.054 855.704,669.654 951.669,707.638 1047.63,744.072 1143.6,779.02 1239.56,812.541 
  1335.53,844.694 1431.49,875.534 1527.46,905.117 1623.42,933.492 1719.39,960.708 1815.35,986.815 1911.32,1011.86 2007.28,1035.87 2103.25,1058.91 2199.21,1081.01 
  2295.18,1102.21 
  "/>
<polyline clip-path="url(#clip722)" style="stroke:#0000ff; stroke-linecap:butt; stroke-linejoin:round; stroke-width:12; stroke-opacity:1; fill:none" stroke-dasharray="48, 30" points="
  375.879,912.603 471.844,956.961 567.809,998.458 663.774,1037.28 759.739,1073.6 855.704,1107.57 951.669,1139.36 1047.63,1169.09 1143.6,1196.91 1239.56,1222.93 
  1335.53,1247.27 1431.49,1270.05 1527.46,1291.35 1623.42,1311.28 1719.39,1329.93 1815.35,1347.37 1911.32,1363.69 2007.28,1378.96 2103.25,1393.24 2199.21,1406.6 
  2295.18,1419.1 
  "/>
<polyline clip-path="url(#clip722)" style="stroke:#ff0000; stroke-linecap:butt; stroke-linejoin:round; stroke-width:8; stroke-opacity:1; fill:none" points="
  375.879,2720.88 375.879,-1076.98 
  "/>
<path clip-path="url(#clip720)" d="
M1825.23 594.055 L2284.94 594.055 L2284.94 231.175 L1825.23 231.175  Z
  " fill="#ffffff" fill-rule="evenodd" fill-opacity="1"/>
<polyline clip-path="url(#clip720)" style="stroke:#000000; stroke-linecap:butt; stroke-linejoin:round; stroke-width:4; stroke-opacity:1; fill:none" points="
  1825.23,594.055 2284.94,594.055 2284.94,231.175 1825.23,231.175 1825.23,594.055 
  "/>
<polyline clip-path="url(#clip720)" style="stroke:#000000; stroke-linecap:butt; stroke-linejoin:round; stroke-width:7; stroke-opacity:1; fill:none" points="
  1847.84,321.895 1983.47,321.895 
  "/>
<path clip-path="url(#clip720)" d="M2014.26 298.379 L2014.26 345.41 L2024.14 345.41 Q2036.66 345.41 2042.45 339.739 Q2048.28 334.068 2048.28 321.834 Q2048.28 309.681 2042.45 304.051 Q2036.66 298.379 2024.14 298.379 L2014.26 298.379 M2006.07 291.655 L2022.89 291.655 Q2040.47 291.655 2048.69 298.987 Q2056.91 306.279 2056.91 321.834 Q2056.91 337.47 2048.65 344.803 Q2040.39 352.135 2022.89 352.135 L2006.07 352.135 L2006.07 291.655 Z" fill="#000000" fill-rule="evenodd" fill-opacity="1" /><path clip-path="url(#clip720)" d="M2094.51 297.204 Q2085.59 297.204 2080.33 303.848 Q2075.1 310.491 2075.1 321.956 Q2075.1 333.379 2080.33 340.023 Q2085.59 346.666 2094.51 346.666 Q2103.42 346.666 2108.6 340.023 Q2113.83 333.379 2113.83 321.956 Q2113.83 310.491 2108.6 303.848 Q2103.42 297.204 2094.51 297.204 M2094.51 290.561 Q2107.23 290.561 2114.84 299.108 Q2122.46 307.615 2122.46 321.956 Q2122.46 336.255 2114.84 344.803 Q2107.23 353.31 2094.51 353.31 Q2081.75 353.31 2074.09 344.803 Q2066.47 336.296 2066.47 321.956 Q2066.47 307.615 2074.09 299.108 Q2081.75 290.561 2094.51 290.561 Z" fill="#000000" fill-rule="evenodd" fill-opacity="1" /><polyline clip-path="url(#clip720)" style="stroke:#008000; stroke-linecap:butt; stroke-linejoin:round; stroke-width:7; stroke-opacity:1; fill:none" stroke-dasharray="28, 14, 4, 14, 4, 14" points="
  1847.84,412.615 1983.47,412.615 
  "/>
<path clip-path="url(#clip720)" d="M2054.85 387.033 L2054.85 395.662 Q2050.72 391.813 2046.02 389.909 Q2041.36 388.006 2036.09 388.006 Q2025.72 388.006 2020.21 394.365 Q2014.7 400.685 2014.7 412.676 Q2014.7 424.626 2020.21 430.986 Q2025.72 437.305 2036.09 437.305 Q2041.36 437.305 2046.02 435.401 Q2050.72 433.497 2054.85 429.649 L2054.85 438.196 Q2050.55 441.113 2045.73 442.571 Q2040.95 444.03 2035.61 444.03 Q2021.87 444.03 2013.97 435.644 Q2006.07 427.218 2006.07 412.676 Q2006.07 398.092 2013.97 389.707 Q2021.87 381.281 2035.61 381.281 Q2041.03 381.281 2045.81 382.739 Q2050.63 384.157 2054.85 387.033 Z" fill="#000000" fill-rule="evenodd" fill-opacity="1" /><path clip-path="url(#clip720)" d="M2075.67 413.972 L2075.67 436.13 L2088.79 436.13 Q2095.4 436.13 2098.56 433.416 Q2101.76 430.662 2101.76 425.031 Q2101.76 419.36 2098.56 416.686 Q2095.4 413.972 2088.79 413.972 L2075.67 413.972 M2075.67 389.099 L2075.67 407.328 L2087.78 407.328 Q2093.78 407.328 2096.69 405.1 Q2099.65 402.832 2099.65 398.214 Q2099.65 393.636 2096.69 391.368 Q2093.78 389.099 2087.78 389.099 L2075.67 389.099 M2067.49 382.375 L2088.39 382.375 Q2097.75 382.375 2102.81 386.264 Q2107.87 390.152 2107.87 397.323 Q2107.87 402.872 2105.28 406.154 Q2102.69 409.435 2097.67 410.245 Q2103.7 411.541 2107.02 415.673 Q2110.39 419.765 2110.39 425.922 Q2110.39 434.024 2104.88 438.439 Q2099.37 442.855 2089.2 442.855 L2067.49 442.855 L2067.49 382.375 Z" fill="#000000" fill-rule="evenodd" fill-opacity="1" /><path clip-path="url(#clip720)" d="M2147.49 387.924 Q2138.58 387.924 2133.31 394.568 Q2128.09 401.211 2128.09 412.676 Q2128.09 424.099 2133.31 430.743 Q2138.58 437.386 2147.49 437.386 Q2156.4 437.386 2161.59 430.743 Q2166.81 424.099 2166.81 412.676 Q2166.81 401.211 2161.59 394.568 Q2156.4 387.924 2147.49 387.924 M2147.49 381.281 Q2160.21 381.281 2167.83 389.828 Q2175.44 398.335 2175.44 412.676 Q2175.44 426.975 2167.83 435.523 Q2160.21 444.03 2147.49 444.03 Q2134.73 444.03 2127.07 435.523 Q2119.46 427.016 2119.46 412.676 Q2119.46 398.335 2127.07 389.828 Q2134.73 381.281 2147.49 381.281 Z" fill="#000000" fill-rule="evenodd" fill-opacity="1" /><path clip-path="url(#clip720)" d="M2196.43 389.099 L2196.43 436.13 L2206.31 436.13 Q2218.83 436.13 2224.62 430.459 Q2230.45 424.788 2230.45 412.554 Q2230.45 400.401 2224.62 394.771 Q2218.83 389.099 2206.31 389.099 L2196.43 389.099 M2188.24 382.375 L2205.05 382.375 Q2222.64 382.375 2230.86 389.707 Q2239.08 396.999 2239.08 412.554 Q2239.08 428.19 2230.82 435.523 Q2222.55 442.855 2205.05 442.855 L2188.24 442.855 L2188.24 382.375 Z" fill="#000000" fill-rule="evenodd" fill-opacity="1" /><polyline clip-path="url(#clip720)" style="stroke:#0000ff; stroke-linecap:butt; stroke-linejoin:round; stroke-width:7; stroke-opacity:1; fill:none" stroke-dasharray="28, 18" points="
  1847.84,503.335 1983.47,503.335 
  "/>
<path clip-path="url(#clip720)" d="M2006.07 473.095 L2017.09 473.095 L2043.91 523.691 L2043.91 473.095 L2051.85 473.095 L2051.85 533.575 L2040.83 533.575 L2014.01 482.979 L2014.01 533.575 L2006.07 533.575 L2006.07 473.095 Z" fill="#000000" fill-rule="evenodd" fill-opacity="1" /><path clip-path="url(#clip720)" d="M2076.32 504.692 L2076.32 526.85 L2089.44 526.85 Q2096.05 526.85 2099.2 524.136 Q2102.4 521.382 2102.4 515.751 Q2102.4 510.08 2099.2 507.406 Q2096.05 504.692 2089.44 504.692 L2076.32 504.692 M2076.32 479.819 L2076.32 498.048 L2088.43 498.048 Q2094.42 498.048 2097.34 495.82 Q2100.3 493.552 2100.3 488.934 Q2100.3 484.356 2097.34 482.088 Q2094.42 479.819 2088.43 479.819 L2076.32 479.819 M2068.13 473.095 L2089.04 473.095 Q2098.39 473.095 2103.46 476.984 Q2108.52 480.872 2108.52 488.043 Q2108.52 493.592 2105.93 496.874 Q2103.34 500.155 2098.31 500.965 Q2104.35 502.261 2107.67 506.393 Q2111.03 510.485 2111.03 516.642 Q2111.03 524.744 2105.52 529.159 Q2100.01 533.575 2089.85 533.575 L2068.13 533.575 L2068.13 473.095 Z" fill="#000000" fill-rule="evenodd" fill-opacity="1" /><path clip-path="url(#clip720)" d="M2148.14 478.644 Q2139.23 478.644 2133.96 485.288 Q2128.74 491.931 2128.74 503.396 Q2128.74 514.819 2133.96 521.463 Q2139.23 528.106 2148.14 528.106 Q2157.05 528.106 2162.24 521.463 Q2167.46 514.819 2167.46 503.396 Q2167.46 491.931 2162.24 485.288 Q2157.05 478.644 2148.14 478.644 M2148.14 472.001 Q2160.86 472.001 2168.48 480.548 Q2176.09 489.055 2176.09 503.396 Q2176.09 517.695 2168.48 526.243 Q2160.86 534.75 2148.14 534.75 Q2135.38 534.75 2127.72 526.243 Q2120.11 517.736 2120.11 503.396 Q2120.11 489.055 2127.72 480.548 Q2135.38 472.001 2148.14 472.001 Z" fill="#000000" fill-rule="evenodd" fill-opacity="1" /><path clip-path="url(#clip720)" d="M2197.07 479.819 L2197.07 526.85 L2206.96 526.85 Q2219.48 526.85 2225.27 521.179 Q2231.1 515.508 2231.1 503.274 Q2231.1 491.121 2225.27 485.491 Q2219.48 479.819 2206.96 479.819 L2197.07 479.819 M2188.89 473.095 L2205.7 473.095 Q2223.28 473.095 2231.51 480.427 Q2239.73 487.719 2239.73 503.274 Q2239.73 518.91 2231.47 526.243 Q2223.2 533.575 2205.7 533.575 L2188.89 533.575 L2188.89 473.095 Z" fill="#000000" fill-rule="evenodd" fill-opacity="1" /><path clip-path="url(#clip720)" d="M54.082 75.6122 L63.5264 75.6122 L78.0634 134.038 L92.554 75.6122 L103.063 75.6122 L117.6 134.038 L132.091 75.6122 L141.582 75.6122 L124.221 144.732 L112.461 144.732 L97.8781 84.7326 L83.1559 144.732 L71.3967 144.732 L54.082 75.6122 Z" fill="#ff0000" fill-rule="evenodd" fill-opacity="1" /><path clip-path="url(#clip720)" d="M171.118 118.668 Q160.794 118.668 156.813 121.029 Q152.831 123.39 152.831 129.084 Q152.831 133.621 155.794 136.306 Q158.804 138.945 163.943 138.945 Q171.026 138.945 175.285 133.945 Q179.591 128.899 179.591 120.566 L179.591 118.668 L171.118 118.668 M188.109 115.149 L188.109 144.732 L179.591 144.732 L179.591 136.862 Q176.674 141.584 172.322 143.853 Q167.97 146.075 161.674 146.075 Q153.711 146.075 148.989 141.63 Q144.313 137.14 144.313 129.64 Q144.313 120.89 150.146 116.445 Q156.026 112.001 167.646 112.001 L179.591 112.001 L179.591 111.168 Q179.591 105.288 175.702 102.094 Q171.859 98.8529 164.868 98.8529 Q160.424 98.8529 156.211 99.9177 Q151.998 100.982 148.109 103.112 L148.109 95.2418 Q152.785 93.4362 157.183 92.5566 Q161.581 91.6307 165.748 91.6307 Q176.998 91.6307 182.554 97.464 Q188.109 103.297 188.109 115.149 Z" fill="#ff0000" fill-rule="evenodd" fill-opacity="1" /><path clip-path="url(#clip720)" d="M238.711 94.4084 L238.711 102.464 Q235.1 100.612 231.211 99.6862 Q227.322 98.7603 223.155 98.7603 Q216.813 98.7603 213.618 100.705 Q210.47 102.649 210.47 106.538 Q210.47 109.501 212.739 111.214 Q215.007 112.881 221.859 114.408 L224.776 115.056 Q233.85 117.001 237.646 120.566 Q241.488 124.084 241.488 130.427 Q241.488 137.649 235.748 141.862 Q230.053 146.075 220.053 146.075 Q215.887 146.075 211.35 145.242 Q206.859 144.454 201.859 142.834 L201.859 134.038 Q206.581 136.492 211.165 137.742 Q215.748 138.945 220.239 138.945 Q226.257 138.945 229.498 136.908 Q232.738 134.825 232.738 131.075 Q232.738 127.603 230.377 125.751 Q228.063 123.899 220.146 122.186 L217.183 121.492 Q209.266 119.825 205.748 116.399 Q202.229 112.927 202.229 106.908 Q202.229 99.5936 207.415 95.6121 Q212.6 91.6307 222.137 91.6307 Q226.859 91.6307 231.026 92.3251 Q235.192 93.0196 238.711 94.4084 Z" fill="#ff0000" fill-rule="evenodd" fill-opacity="1" /><path clip-path="url(#clip720)" d="M263.479 78.1585 L263.479 92.8807 L281.025 92.8807 L281.025 99.501 L263.479 99.501 L263.479 127.649 Q263.479 133.992 265.192 135.797 Q266.951 137.603 272.275 137.603 L281.025 137.603 L281.025 144.732 L272.275 144.732 Q262.414 144.732 258.664 141.075 Q254.914 137.371 254.914 127.649 L254.914 99.501 L248.664 99.501 L248.664 92.8807 L254.914 92.8807 L254.914 78.1585 L263.479 78.1585 Z" fill="#ff0000" fill-rule="evenodd" fill-opacity="1" /><path clip-path="url(#clip720)" d="M336.581 116.677 L336.581 120.843 L297.414 120.843 Q297.97 129.64 302.692 134.269 Q307.46 138.853 315.932 138.853 Q320.84 138.853 325.423 137.649 Q330.053 136.445 334.59 134.038 L334.59 142.093 Q330.006 144.038 325.192 145.056 Q320.377 146.075 315.423 146.075 Q303.016 146.075 295.747 138.853 Q288.525 131.63 288.525 119.316 Q288.525 106.584 295.377 99.1306 Q302.275 91.6307 313.942 91.6307 Q324.405 91.6307 330.469 98.3899 Q336.581 105.103 336.581 116.677 M328.062 114.177 Q327.969 107.186 324.127 103.02 Q320.331 98.8529 314.034 98.8529 Q306.905 98.8529 302.599 102.881 Q298.34 106.908 297.692 114.223 L328.062 114.177 Z" fill="#ff0000" fill-rule="evenodd" fill-opacity="1" /><path clip-path="url(#clip720)" d="M390.423 83.2974 L390.423 137.047 L401.719 137.047 Q416.025 137.047 422.645 130.566 Q429.311 124.084 429.311 110.103 Q429.311 96.214 422.645 89.7788 Q416.025 83.2974 401.719 83.2974 L390.423 83.2974 M381.071 75.6122 L400.284 75.6122 Q420.376 75.6122 429.774 83.9918 Q439.173 92.3251 439.173 110.103 Q439.173 127.973 429.728 136.353 Q420.284 144.732 400.284 144.732 L381.071 144.732 L381.071 75.6122 Z" fill="#ff0000" fill-rule="evenodd" fill-opacity="1" /><path clip-path="url(#clip720)" d="M453.71 92.8807 L462.228 92.8807 L462.228 144.732 L453.71 144.732 L453.71 92.8807 M453.71 72.6956 L462.228 72.6956 L462.228 83.4826 L453.71 83.4826 L453.71 72.6956 Z" fill="#ff0000" fill-rule="evenodd" fill-opacity="1" /><path clip-path="url(#clip720)" d="M513.107 94.4084 L513.107 102.464 Q509.496 100.612 505.607 99.6862 Q501.719 98.7603 497.552 98.7603 Q491.209 98.7603 488.015 100.705 Q484.867 102.649 484.867 106.538 Q484.867 109.501 487.135 111.214 Q489.404 112.881 496.256 114.408 L499.172 115.056 Q508.246 117.001 512.043 120.566 Q515.885 124.084 515.885 130.427 Q515.885 137.649 510.144 141.862 Q504.45 146.075 494.45 146.075 Q490.283 146.075 485.746 145.242 Q481.256 144.454 476.256 142.834 L476.256 134.038 Q480.978 136.492 485.561 137.742 Q490.144 138.945 494.635 138.945 Q500.654 138.945 503.894 136.908 Q507.135 134.825 507.135 131.075 Q507.135 127.603 504.774 125.751 Q502.459 123.899 494.543 122.186 L491.58 121.492 Q483.663 119.825 480.145 116.399 Q476.626 112.927 476.626 106.908 Q476.626 99.5936 481.811 95.6121 Q486.996 91.6307 496.533 91.6307 Q501.256 91.6307 505.422 92.3251 Q509.589 93.0196 513.107 94.4084 Z" fill="#ff0000" fill-rule="evenodd" fill-opacity="1" /><path clip-path="url(#clip720)" d="M566.764 94.8714 L566.764 102.834 Q563.153 100.844 559.496 99.8714 Q555.885 98.8529 552.181 98.8529 Q543.894 98.8529 539.311 104.131 Q534.728 109.362 534.728 118.853 Q534.728 128.343 539.311 133.621 Q543.894 138.853 552.181 138.853 Q555.885 138.853 559.496 137.88 Q563.153 136.862 566.764 134.871 L566.764 142.742 Q563.2 144.408 559.357 145.242 Q555.561 146.075 551.255 146.075 Q539.542 146.075 532.644 138.714 Q525.746 131.353 525.746 118.853 Q525.746 106.168 532.691 98.8992 Q539.681 91.6307 551.811 91.6307 Q555.746 91.6307 559.496 92.464 Q563.246 93.251 566.764 94.8714 Z" fill="#ff0000" fill-rule="evenodd" fill-opacity="1" /><path clip-path="url(#clip720)" d="M624.681 113.436 L624.681 144.732 L616.162 144.732 L616.162 113.714 Q616.162 106.353 613.292 102.695 Q610.422 99.038 604.681 99.038 Q597.783 99.038 593.801 103.436 Q589.82 107.834 589.82 115.427 L589.82 144.732 L581.255 144.732 L581.255 72.6956 L589.82 72.6956 L589.82 100.936 Q592.875 96.2603 596.996 93.9455 Q601.162 91.6307 606.579 91.6307 Q615.514 91.6307 620.098 97.1862 Q624.681 102.695 624.681 113.436 Z" fill="#ff0000" fill-rule="evenodd" fill-opacity="1" /><path clip-path="url(#clip720)" d="M665.236 118.668 Q654.912 118.668 650.931 121.029 Q646.949 123.39 646.949 129.084 Q646.949 133.621 649.912 136.306 Q652.921 138.945 658.06 138.945 Q665.144 138.945 669.403 133.945 Q673.708 128.899 673.708 120.566 L673.708 118.668 L665.236 118.668 M682.227 115.149 L682.227 144.732 L673.708 144.732 L673.708 136.862 Q670.792 141.584 666.44 143.853 Q662.088 146.075 655.792 146.075 Q647.829 146.075 643.107 141.63 Q638.431 137.14 638.431 129.64 Q638.431 120.89 644.264 116.445 Q650.144 112.001 661.764 112.001 L673.708 112.001 L673.708 111.168 Q673.708 105.288 669.819 102.094 Q665.977 98.8529 658.986 98.8529 Q654.542 98.8529 650.329 99.9177 Q646.116 100.982 642.227 103.112 L642.227 95.2418 Q646.903 93.4362 651.301 92.5566 Q655.699 91.6307 659.866 91.6307 Q671.116 91.6307 676.671 97.464 Q682.227 103.297 682.227 115.149 Z" fill="#ff0000" fill-rule="evenodd" fill-opacity="1" /><path clip-path="url(#clip720)" d="M729.819 100.844 Q728.384 100.01 726.671 99.6399 Q725.004 99.2232 722.967 99.2232 Q715.745 99.2232 711.856 103.945 Q708.014 108.621 708.014 117.418 L708.014 144.732 L699.449 144.732 L699.449 92.8807 L708.014 92.8807 L708.014 100.936 Q710.699 96.214 715.004 93.9455 Q719.31 91.6307 725.467 91.6307 Q726.347 91.6307 727.412 91.7696 Q728.477 91.8622 729.773 92.0936 L729.819 100.844 Z" fill="#ff0000" fill-rule="evenodd" fill-opacity="1" /><path clip-path="url(#clip720)" d="M771.208 118.205 Q771.208 108.945 767.365 103.853 Q763.569 98.7603 756.671 98.7603 Q749.819 98.7603 745.976 103.853 Q742.18 108.945 742.18 118.205 Q742.18 127.418 745.976 132.51 Q749.819 137.603 756.671 137.603 Q763.569 137.603 767.365 132.51 Q771.208 127.418 771.208 118.205 M779.726 138.297 Q779.726 151.538 773.847 157.973 Q767.967 164.454 755.838 164.454 Q751.347 164.454 747.365 163.76 Q743.384 163.112 739.634 161.723 L739.634 153.436 Q743.384 155.473 747.041 156.445 Q750.699 157.417 754.495 157.417 Q762.875 157.417 767.041 153.019 Q771.208 148.667 771.208 139.825 L771.208 135.612 Q768.569 140.195 764.449 142.464 Q760.328 144.732 754.588 144.732 Q745.051 144.732 739.217 137.464 Q733.384 130.195 733.384 118.205 Q733.384 106.168 739.217 98.8992 Q745.051 91.6307 754.588 91.6307 Q760.328 91.6307 764.449 93.8992 Q768.569 96.1677 771.208 100.751 L771.208 92.8807 L779.726 92.8807 L779.726 138.297 Z" fill="#ff0000" fill-rule="evenodd" fill-opacity="1" /><path clip-path="url(#clip720)" d="M841.624 116.677 L841.624 120.843 L802.458 120.843 Q803.013 129.64 807.735 134.269 Q812.504 138.853 820.976 138.853 Q825.883 138.853 830.467 137.649 Q835.096 136.445 839.633 134.038 L839.633 142.093 Q835.05 144.038 830.235 145.056 Q825.42 146.075 820.467 146.075 Q808.059 146.075 800.791 138.853 Q793.569 131.63 793.569 119.316 Q793.569 106.584 800.421 99.1306 Q807.319 91.6307 818.985 91.6307 Q829.448 91.6307 835.513 98.3899 Q841.624 105.103 841.624 116.677 M833.106 114.177 Q833.013 107.186 829.17 103.02 Q825.374 98.8529 819.078 98.8529 Q811.948 98.8529 807.643 102.881 Q803.384 106.908 802.735 114.223 L833.106 114.177 Z" fill="#ff0000" fill-rule="evenodd" fill-opacity="1" /></svg>
