<?xml version="1.0" encoding="utf-8"?>
<svg xmlns="http://www.w3.org/2000/svg" xmlns:xlink="http://www.w3.org/1999/xlink" width="600" height="400" viewBox="0 0 2400 1600">
<defs>
  <clipPath id="clip750">
    <rect x="0" y="0" width="2400" height="1600"/>
  </clipPath>
</defs>
<path clip-path="url(#clip750)" d="
M0 1600 L2400 1600 L2400 0 L0 0  Z
  " fill="#ffffff" fill-rule="evenodd" fill-opacity="1"/>
<defs>
  <clipPath id="clip751">
    <rect x="480" y="0" width="1681" height="1600"/>
  </clipPath>
</defs>
<path clip-path="url(#clip750)" d="
M318.3 1454.93 L2352.76 1454.93 L2352.76 188.976 L318.3 188.976  Z
  " fill="#ffffff" fill-rule="evenodd" fill-opacity="1"/>
<defs>
  <clipPath id="clip752">
    <rect x="318" y="188" width="2035" height="1267"/>
  </clipPath>
</defs>
<polyline clip-path="url(#clip750)" style="stroke:#000000; stroke-linecap:butt; stroke-linejoin:round; stroke-width:4; stroke-opacity:1; fill:none" points="
  318.3,1454.93 2352.76,1454.93 
  "/>
<path clip-path="url(#clip750)" d="M961.578 1516.47 L961.578 1580.3 L974.992 1580.3 Q991.98 1580.3 999.841 1572.6 Q1007.76 1564.9 1007.76 1548.3 Q1007.76 1531.81 999.841 1524.17 Q991.98 1516.47 974.992 1516.47 L961.578 1516.47 M950.472 1507.34 L973.288 1507.34 Q997.147 1507.34 1008.31 1517.29 Q1019.47 1527.19 1019.47 1548.3 Q1019.47 1569.52 1008.25 1579.47 Q997.038 1589.42 973.288 1589.42 L950.472 1589.42 L950.472 1507.34 Z" fill="#000000" fill-rule="evenodd" fill-opacity="1" /><path clip-path="url(#clip750)" d="M1036.73 1527.85 L1046.85 1527.85 L1046.85 1589.42 L1036.73 1589.42 L1036.73 1527.85 M1036.73 1503.88 L1046.85 1503.88 L1046.85 1516.69 L1036.73 1516.69 L1036.73 1503.88 Z" fill="#000000" fill-rule="evenodd" fill-opacity="1" /><path clip-path="url(#clip750)" d="M1107.27 1529.66 L1107.27 1539.23 Q1102.98 1537.03 1098.36 1535.93 Q1093.74 1534.83 1088.79 1534.83 Q1081.26 1534.83 1077.47 1537.14 Q1073.73 1539.45 1073.73 1544.07 Q1073.73 1547.59 1076.42 1549.62 Q1079.12 1551.6 1087.25 1553.41 L1090.72 1554.18 Q1101.49 1556.49 1106 1560.73 Q1110.56 1564.9 1110.56 1572.44 Q1110.56 1581.01 1103.75 1586.02 Q1096.98 1591.02 1085.11 1591.02 Q1080.16 1591.02 1074.77 1590.03 Q1069.44 1589.09 1063.5 1587.17 L1063.5 1576.72 Q1069.11 1579.64 1074.55 1581.12 Q1080 1582.55 1085.33 1582.55 Q1092.48 1582.55 1096.33 1580.13 Q1100.17 1577.66 1100.17 1573.21 Q1100.17 1569.08 1097.37 1566.88 Q1094.62 1564.68 1085.22 1562.65 L1081.7 1561.83 Q1072.3 1559.85 1068.12 1555.78 Q1063.94 1551.65 1063.94 1544.51 Q1063.94 1535.82 1070.1 1531.09 Q1076.26 1526.37 1087.58 1526.37 Q1093.19 1526.37 1098.14 1527.19 Q1103.09 1528.02 1107.27 1529.66 Z" fill="#000000" fill-rule="evenodd" fill-opacity="1" /><path clip-path="url(#clip750)" d="M1136.68 1510.37 L1136.68 1527.85 L1157.51 1527.85 L1157.51 1535.71 L1136.68 1535.71 L1136.68 1569.14 Q1136.68 1576.67 1138.71 1578.81 Q1140.8 1580.96 1147.12 1580.96 L1157.51 1580.96 L1157.51 1589.42 L1147.12 1589.42 Q1135.41 1589.42 1130.96 1585.08 Q1126.51 1580.68 1126.51 1569.14 L1126.51 1535.71 L1119.09 1535.71 L1119.09 1527.85 L1126.51 1527.85 L1126.51 1510.37 L1136.68 1510.37 Z" fill="#000000" fill-rule="evenodd" fill-opacity="1" /><path clip-path="url(#clip750)" d="M1198.8 1558.47 Q1186.54 1558.47 1181.81 1561.28 Q1177.09 1564.08 1177.09 1570.84 Q1177.09 1576.23 1180.6 1579.42 Q1184.18 1582.55 1190.28 1582.55 Q1198.69 1582.55 1203.75 1576.61 Q1208.86 1570.62 1208.86 1560.73 L1208.86 1558.47 L1198.8 1558.47 M1218.98 1554.29 L1218.98 1589.42 L1208.86 1589.42 L1208.86 1580.08 Q1205.4 1585.69 1200.23 1588.38 Q1195.06 1591.02 1187.59 1591.02 Q1178.13 1591.02 1172.52 1585.74 Q1166.97 1580.41 1166.97 1571.5 Q1166.97 1561.11 1173.9 1555.83 Q1180.88 1550.56 1194.68 1550.56 L1208.86 1550.56 L1208.86 1549.57 Q1208.86 1542.58 1204.24 1538.79 Q1199.68 1534.94 1191.38 1534.94 Q1186.1 1534.94 1181.1 1536.21 Q1176.1 1537.47 1171.48 1540 L1171.48 1530.65 Q1177.03 1528.51 1182.25 1527.47 Q1187.48 1526.37 1192.42 1526.37 Q1205.78 1526.37 1212.38 1533.29 Q1218.98 1540.22 1218.98 1554.29 Z" fill="#000000" fill-rule="evenodd" fill-opacity="1" /><path clip-path="url(#clip750)" d="M1291 1552.26 L1291 1589.42 L1280.88 1589.42 L1280.88 1552.59 Q1280.88 1543.85 1277.47 1539.51 Q1274.06 1535.16 1267.25 1535.16 Q1259.06 1535.16 1254.33 1540.38 Q1249.6 1545.61 1249.6 1554.62 L1249.6 1589.42 L1239.43 1589.42 L1239.43 1527.85 L1249.6 1527.85 L1249.6 1537.42 Q1253.23 1531.86 1258.12 1529.11 Q1263.07 1526.37 1269.5 1526.37 Q1280.11 1526.37 1285.55 1532.96 Q1291 1539.51 1291 1552.26 Z" fill="#000000" fill-rule="evenodd" fill-opacity="1" /><path clip-path="url(#clip750)" d="M1355.48 1530.21 L1355.48 1539.67 Q1351.2 1537.31 1346.85 1536.15 Q1342.57 1534.94 1338.17 1534.94 Q1328.33 1534.94 1322.88 1541.21 Q1317.44 1547.42 1317.44 1558.69 Q1317.44 1569.96 1322.88 1576.23 Q1328.33 1582.44 1338.17 1582.44 Q1342.57 1582.44 1346.85 1581.29 Q1351.2 1580.08 1355.48 1577.71 L1355.48 1587.06 Q1351.25 1589.04 1346.69 1590.03 Q1342.18 1591.02 1337.07 1591.02 Q1323.16 1591.02 1314.97 1582.28 Q1306.78 1573.54 1306.78 1558.69 Q1306.78 1543.63 1315.02 1535 Q1323.32 1526.37 1337.73 1526.37 Q1342.4 1526.37 1346.85 1527.36 Q1351.31 1528.29 1355.48 1530.21 Z" fill="#000000" fill-rule="evenodd" fill-opacity="1" /><path clip-path="url(#clip750)" d="M1425.74 1556.11 L1425.74 1561.06 L1379.23 1561.06 Q1379.89 1571.5 1385.5 1577 Q1391.16 1582.44 1401.23 1582.44 Q1407.05 1582.44 1412.5 1581.01 Q1417.99 1579.58 1423.38 1576.72 L1423.38 1586.29 Q1417.94 1588.6 1412.22 1589.81 Q1406.5 1591.02 1400.62 1591.02 Q1385.89 1591.02 1377.26 1582.44 Q1368.68 1573.87 1368.68 1559.24 Q1368.68 1544.12 1376.82 1535.27 Q1385.01 1526.37 1398.86 1526.37 Q1411.29 1526.37 1418.49 1534.39 Q1425.74 1542.36 1425.74 1556.11 M1415.63 1553.14 Q1415.52 1544.84 1410.96 1539.89 Q1406.45 1534.94 1398.97 1534.94 Q1390.5 1534.94 1385.39 1539.73 Q1380.33 1544.51 1379.56 1553.19 L1415.63 1553.14 Z" fill="#000000" fill-rule="evenodd" fill-opacity="1" /><path clip-path="url(#clip750)" d="M1502.44 1503.99 Q1495.07 1516.63 1491.5 1529 Q1487.92 1541.37 1487.92 1554.07 Q1487.92 1566.77 1491.5 1579.25 Q1495.13 1591.68 1502.44 1604.27 L1493.64 1604.27 Q1485.39 1591.35 1481.27 1578.87 Q1477.2 1566.39 1477.2 1554.07 Q1477.2 1541.81 1481.27 1529.39 Q1485.34 1516.96 1493.64 1503.99 L1502.44 1503.99 Z" fill="#000000" fill-rule="evenodd" fill-opacity="1" /><path clip-path="url(#clip750)" d="M1521.68 1503.88 L1531.85 1503.88 L1531.85 1554.4 L1562.03 1527.85 L1574.95 1527.85 L1542.3 1556.66 L1576.33 1589.42 L1563.13 1589.42 L1531.85 1559.35 L1531.85 1589.42 L1521.68 1589.42 L1521.68 1503.88 Z" fill="#000000" fill-rule="evenodd" fill-opacity="1" /><path clip-path="url(#clip750)" d="M1635.21 1539.67 Q1639 1532.85 1644.28 1529.61 Q1649.55 1526.37 1656.7 1526.37 Q1666.32 1526.37 1671.54 1533.13 Q1676.77 1539.84 1676.77 1552.26 L1676.77 1589.42 L1666.6 1589.42 L1666.6 1552.59 Q1666.6 1543.74 1663.46 1539.45 Q1660.33 1535.16 1653.9 1535.16 Q1646.04 1535.16 1641.47 1540.38 Q1636.91 1545.61 1636.91 1554.62 L1636.91 1589.42 L1626.74 1589.42 L1626.74 1552.59 Q1626.74 1543.68 1623.61 1539.45 Q1620.47 1535.16 1613.93 1535.16 Q1606.18 1535.16 1601.61 1540.44 Q1597.05 1545.66 1597.05 1554.62 L1597.05 1589.42 L1586.88 1589.42 L1586.88 1527.85 L1597.05 1527.85 L1597.05 1537.42 Q1600.52 1531.75 1605.35 1529.06 Q1610.19 1526.37 1616.84 1526.37 Q1623.55 1526.37 1628.22 1529.77 Q1632.95 1533.18 1635.21 1539.67 Z" fill="#000000" fill-rule="evenodd" fill-opacity="1" /><path clip-path="url(#clip750)" d="M1695.35 1503.99 L1704.15 1503.99 Q1712.39 1516.96 1716.46 1529.39 Q1720.58 1541.81 1720.58 1554.07 Q1720.58 1566.39 1716.46 1578.87 Q1712.39 1591.35 1704.15 1604.27 L1695.35 1604.27 Q1702.66 1591.68 1706.24 1579.25 Q1709.86 1566.77 1709.86 1554.07 Q1709.86 1541.37 1706.24 1529 Q1702.66 1516.63 1695.35 1503.99 Z" fill="#000000" fill-rule="evenodd" fill-opacity="1" /><polyline clip-path="url(#clip750)" style="stroke:#000000; stroke-linecap:butt; stroke-linejoin:round; stroke-width:4; stroke-opacity:1; fill:none" points="
  318.3,1454.93 318.3,188.976 
  "/>
<path clip-path="url(#clip750)" d="M148.723 1075.15 L212.55 1075.15 L212.55 1061.73 Q212.55 1044.74 204.854 1036.88 Q197.157 1028.97 180.554 1028.97 Q164.061 1028.97 156.419 1036.88 Q148.723 1044.74 148.723 1061.73 L148.723 1075.15 M139.596 1086.25 L139.596 1063.44 Q139.596 1039.58 149.547 1028.42 Q159.443 1017.26 180.554 1017.26 Q201.775 1017.26 211.726 1028.47 Q221.676 1039.69 221.676 1063.44 L221.676 1086.25 L139.596 1086.25 Z" fill="#000000" fill-rule="evenodd" fill-opacity="1" /><path clip-path="url(#clip750)" d="M147.128 966.238 Q147.128 978.333 156.144 985.48 Q165.161 992.572 180.719 992.572 Q196.222 992.572 205.238 985.48 Q214.255 978.333 214.255 966.238 Q214.255 954.143 205.238 947.106 Q196.222 940.014 180.719 940.014 Q165.161 940.014 156.144 947.106 Q147.128 954.143 147.128 966.238 M138.112 966.238 Q138.112 948.975 149.712 938.64 Q161.257 928.304 180.719 928.304 Q200.126 928.304 211.726 938.64 Q223.271 948.975 223.271 966.238 Q223.271 983.556 211.726 993.946 Q200.181 1004.28 180.719 1004.28 Q161.257 1004.28 149.712 993.946 Q138.112 983.556 138.112 966.238 Z" fill="#000000" fill-rule="evenodd" fill-opacity="1" /><path clip-path="url(#clip750)" d="M136.243 851.282 Q148.888 858.649 161.257 862.222 Q173.627 865.796 186.327 865.796 Q199.026 865.796 211.506 862.222 Q223.931 858.594 236.52 851.282 L236.52 860.078 Q223.601 868.325 211.121 872.448 Q198.641 876.516 186.327 876.516 Q174.067 876.516 161.642 872.448 Q149.217 868.38 136.243 860.078 L136.243 851.282 Z" fill="#000000" fill-rule="evenodd" fill-opacity="1" /><path clip-path="url(#clip750)" d="M171.923 783.716 Q165.106 779.923 161.862 774.645 Q158.618 769.367 158.618 762.22 Q158.618 752.599 165.38 747.376 Q172.088 742.154 184.512 742.154 L221.676 742.154 L221.676 752.324 L184.842 752.324 Q175.991 752.324 171.703 755.458 Q167.415 758.592 167.415 765.024 Q167.415 772.886 172.637 777.449 Q177.86 782.012 186.876 782.012 L221.676 782.012 L221.676 792.182 L184.842 792.182 Q175.936 792.182 171.703 795.316 Q167.415 798.45 167.415 804.992 Q167.415 812.744 172.692 817.307 Q177.915 821.87 186.876 821.87 L221.676 821.87 L221.676 832.04 L160.103 832.04 L160.103 821.87 L169.669 821.87 Q164.006 818.406 161.312 813.568 Q158.618 808.73 158.618 802.078 Q158.618 795.371 162.027 790.698 Q165.435 785.97 171.923 783.716 Z" fill="#000000" fill-rule="evenodd" fill-opacity="1" /><path clip-path="url(#clip750)" d="M190.175 681.46 Q179.18 681.46 173.132 686.023 Q167.085 690.531 167.085 698.722 Q167.085 706.859 173.132 711.422 Q179.18 715.93 190.175 715.93 Q201.115 715.93 207.163 711.422 Q213.21 706.859 213.21 698.722 Q213.21 690.531 207.163 686.023 Q201.115 681.46 190.175 681.46 M214.035 671.344 Q229.758 671.344 237.4 678.326 Q245.096 685.308 245.096 699.712 Q245.096 705.044 244.272 709.772 Q243.502 714.5 241.853 718.954 L232.012 718.954 Q234.431 714.5 235.586 710.157 Q236.74 705.814 236.74 701.306 Q236.74 691.355 231.517 686.407 Q226.349 681.46 215.849 681.46 L210.846 681.46 Q216.289 684.593 218.983 689.486 Q221.676 694.379 221.676 701.196 Q221.676 712.521 213.045 719.448 Q204.414 726.375 190.175 726.375 Q175.881 726.375 167.25 719.448 Q158.618 712.521 158.618 701.196 Q158.618 694.379 161.312 689.486 Q164.006 684.593 169.449 681.46 L160.103 681.46 L160.103 671.344 L214.035 671.344 Z" fill="#000000" fill-rule="evenodd" fill-opacity="1" /><path clip-path="url(#clip750)" d="M139.596 632.53 L139.596 623.184 L232.122 651.772 L232.122 661.118 L139.596 632.53 Z" fill="#000000" fill-rule="evenodd" fill-opacity="1" /><path clip-path="url(#clip750)" d="M136.133 612.574 L136.133 602.458 L221.676 602.458 L221.676 612.574 L136.133 612.574 Z" fill="#000000" fill-rule="evenodd" fill-opacity="1" /><path clip-path="url(#clip750)" d="M136.243 582.887 L136.243 574.09 Q149.217 565.844 161.642 561.776 Q174.067 557.652 186.327 557.652 Q198.641 557.652 211.121 561.776 Q223.601 565.844 236.52 574.09 L236.52 582.887 Q223.931 575.575 211.506 572.001 Q199.026 568.373 186.327 568.373 Q173.627 568.373 161.257 572.001 Q148.888 575.575 136.243 582.887 Z" fill="#000000" fill-rule="evenodd" fill-opacity="1" /><polyline clip-path="url(#clip752)" style="stroke:#000000; stroke-linecap:butt; stroke-linejoin:round; stroke-width:12; stroke-opacity:1; fill:none" points="
  375.879,224.805 418.53,290.32 461.182,345.188 503.833,390.569 546.484,427.512 589.135,456.966 631.786,479.788 674.437,496.75 717.088,508.549 759.739,515.813 
  802.39,519.106 845.041,518.937 887.692,515.761 930.343,509.987 972.994,501.982 1015.65,492.075 1058.3,480.558 1100.95,467.693 1143.6,453.713 
  "/>
<polyline clip-path="url(#clip752)" style="stroke:#000000; stroke-linecap:butt; stroke-linejoin:round; stroke-width:12; stroke-opacity:1; fill:none" points="
  1143.6,554.598 1186.25,714.648 1228.9,850.041 1271.55,963.42 1314.2,1057.18 1356.85,1133.47 1399.5,1194.26 1442.16,1241.31 1484.81,1276.22 1527.46,1300.42 
  1570.11,1315.21 1612.76,1321.76 1655.41,1321.11 
  "/>
<polyline clip-path="url(#clip752)" style="stroke:#000000; stroke-linecap:butt; stroke-linejoin:round; stroke-width:12; stroke-opacity:1; fill:none" points="
  1655.41,1347.84 1698.06,1380.64 1740.71,1402.59 1783.36,1415.01 1826.02,1419.1 1868.67,1415.92 1911.32,1406.44 1953.97,1391.52 1996.62,1371.93 2039.27,1348.37 
  2081.92,1321.46 2124.57,1291.75 2167.22,1259.73 2209.87,1225.84 2252.53,1190.46 2295.18,1153.95 
  "/>
<polyline clip-path="url(#clip752)" style="stroke:#ff0000; stroke-linecap:butt; stroke-linejoin:round; stroke-width:8; stroke-opacity:1; fill:none" points="
  375.879,2720.88 375.879,-1076.98 
  "/>
<polyline clip-path="url(#clip752)" style="stroke:#ff0000; stroke-linecap:butt; stroke-linejoin:round; stroke-width:8; stroke-opacity:1; fill:none" points="
  1143.6,2720.88 1143.6,-1076.98 
  "/>
<polyline clip-path="url(#clip752)" style="stroke:#ff0000; stroke-linecap:butt; stroke-linejoin:round; stroke-width:8; stroke-opacity:1; fill:none" points="
  1655.41,2720.88 1655.41,-1076.98 
  "/>
<polyline clip-path="url(#clip752)" style="stroke:#008000; stroke-linecap:butt; stroke-linejoin:round; stroke-width:8; stroke-opacity:1; fill:none" stroke-dasharray="4, 8" points="
  -1716.15,1267.58 4387.21,1267.58 
  "/>
<path clip-path="url(#clip750)" d="
M1631.07 594.055 L2284.94 594.055 L2284.94 231.175 L1631.07 231.175  Z
  " fill="#ffffff" fill-rule="evenodd" fill-opacity="1"/>
<polyline clip-path="url(#clip750)" style="stroke:#000000; stroke-linecap:butt; stroke-linejoin:round; stroke-width:4; stroke-opacity:1; fill:none" points="
  1631.07,594.055 2284.94,594.055 2284.94,231.175 1631.07,231.175 1631.07,594.055 
  "/>
<polyline clip-path="url(#clip750)" style="stroke:#000000; stroke-linecap:butt; stroke-linejoin:round; stroke-width:7; stroke-opacity:1; fill:none" points="
  1653.68,321.895 1789.31,321.895 
  "/>
<path clip-path="url(#clip750)" d="M1820.1 298.379 L1820.1 345.41 L1829.98 345.41 Q1842.5 345.41 1848.29 339.739 Q1854.13 334.068 1854.13 321.834 Q1854.13 309.681 1848.29 304.051 Q1842.5 298.379 1829.98 298.379 L1820.1 298.379 M1811.91 291.655 L1828.73 291.655 Q1846.31 291.655 1854.53 298.987 Q1862.75 306.279 1862.75 321.834 Q1862.75 337.47 1854.49 344.803 Q1846.23 352.135 1828.73 352.135 L1811.91 352.135 L1811.91 291.655 Z" fill="#000000" fill-rule="evenodd" fill-opacity="1" /><path clip-path="url(#clip750)" d="M1900.35 297.204 Q1891.43 297.204 1886.17 303.848 Q1880.94 310.491 1880.94 321.956 Q1880.94 333.379 1886.17 340.023 Q1891.43 346.666 1900.35 346.666 Q1909.26 346.666 1914.44 340.023 Q1919.67 333.379 1919.67 321.956 Q1919.67 310.491 1914.44 303.848 Q1909.26 297.204 1900.35 297.204 M1900.35 290.561 Q1913.07 290.561 1920.68 299.108 Q1928.3 307.615 1928.3 321.956 Q1928.3 336.255 1920.68 344.803 Q1913.07 353.31 1900.35 353.31 Q1887.59 353.31 1879.93 344.803 Q1872.31 336.296 1872.31 321.956 Q1872.31 307.615 1879.93 299.108 Q1887.59 290.561 1900.35 290.561 Z" fill="#000000" fill-rule="evenodd" fill-opacity="1" /><polyline clip-path="url(#clip750)" style="stroke:#ff0000; stroke-linecap:butt; stroke-linejoin:round; stroke-width:7; stroke-opacity:1; fill:none" points="
  1653.68,412.615 1789.31,412.615 
  "/>
<path clip-path="url(#clip750)" d="M1820.1 389.099 L1820.1 436.13 L1829.98 436.13 Q1842.5 436.13 1848.29 430.459 Q1854.13 424.788 1854.13 412.554 Q1854.13 400.401 1848.29 394.771 Q1842.5 389.099 1829.98 389.099 L1820.1 389.099 M1811.91 382.375 L1828.73 382.375 Q1846.31 382.375 1854.53 389.707 Q1862.75 396.999 1862.75 412.554 Q1862.75 428.19 1854.49 435.523 Q1846.23 442.855 1828.73 442.855 L1811.91 442.855 L1811.91 382.375 Z" fill="#000000" fill-rule="evenodd" fill-opacity="1" /><path clip-path="url(#clip750)" d="M1875.47 397.485 L1882.93 397.485 L1882.93 442.855 L1875.47 442.855 L1875.47 397.485 M1875.47 379.823 L1882.93 379.823 L1882.93 389.261 L1875.47 389.261 L1875.47 379.823 Z" fill="#000000" fill-rule="evenodd" fill-opacity="1" /><path clip-path="url(#clip750)" d="M1927.45 398.821 L1927.45 405.87 Q1924.29 404.25 1920.88 403.439 Q1917.48 402.629 1913.84 402.629 Q1908.29 402.629 1905.49 404.331 Q1902.74 406.032 1902.74 409.435 Q1902.74 412.027 1904.72 413.526 Q1906.71 414.985 1912.7 416.321 L1915.25 416.888 Q1923.19 418.59 1926.51 421.709 Q1929.88 424.788 1929.88 430.337 Q1929.88 436.657 1924.85 440.343 Q1919.87 444.03 1911.12 444.03 Q1907.48 444.03 1903.51 443.3 Q1899.58 442.612 1895.2 441.194 L1895.2 433.497 Q1899.33 435.644 1903.34 436.738 Q1907.35 437.791 1911.28 437.791 Q1916.55 437.791 1919.39 436.009 Q1922.22 434.186 1922.22 430.905 Q1922.22 427.866 1920.15 426.246 Q1918.13 424.626 1911.2 423.127 L1908.61 422.519 Q1901.68 421.061 1898.6 418.063 Q1895.53 415.025 1895.53 409.759 Q1895.53 403.358 1900.06 399.875 Q1904.6 396.391 1912.94 396.391 Q1917.08 396.391 1920.72 396.999 Q1924.37 397.606 1927.45 398.821 Z" fill="#000000" fill-rule="evenodd" fill-opacity="1" /><path clip-path="url(#clip750)" d="M1974.4 399.227 L1974.4 406.194 Q1971.24 404.452 1968.04 403.601 Q1964.88 402.71 1961.64 402.71 Q1954.38 402.71 1950.37 407.328 Q1946.36 411.906 1946.36 420.21 Q1946.36 428.515 1950.37 433.133 Q1954.38 437.71 1961.64 437.71 Q1964.88 437.71 1968.04 436.859 Q1971.24 435.968 1974.4 434.226 L1974.4 441.113 Q1971.28 442.571 1967.91 443.3 Q1964.59 444.03 1960.83 444.03 Q1950.58 444.03 1944.54 437.589 Q1938.51 431.148 1938.51 420.21 Q1938.51 409.111 1944.58 402.751 Q1950.7 396.391 1961.31 396.391 Q1964.76 396.391 1968.04 397.12 Q1971.32 397.809 1974.4 399.227 Z" fill="#000000" fill-rule="evenodd" fill-opacity="1" /><path clip-path="url(#clip750)" d="M2025.07 415.471 L2025.07 442.855 L2017.62 442.855 L2017.62 415.714 Q2017.62 409.273 2015.11 406.073 Q2012.6 402.872 2007.57 402.872 Q2001.54 402.872 1998.05 406.721 Q1994.57 410.569 1994.57 417.213 L1994.57 442.855 L1987.08 442.855 L1987.08 379.823 L1994.57 379.823 L1994.57 404.533 Q1997.24 400.442 2000.85 398.416 Q2004.49 396.391 2009.23 396.391 Q2017.05 396.391 2021.06 401.252 Q2025.07 406.073 2025.07 415.471 Z" fill="#000000" fill-rule="evenodd" fill-opacity="1" /><path clip-path="url(#clip750)" d="M2060.56 420.048 Q2051.53 420.048 2048.04 422.114 Q2044.56 424.18 2044.56 429.163 Q2044.56 433.133 2047.15 435.482 Q2049.78 437.791 2054.28 437.791 Q2060.48 437.791 2064.2 433.416 Q2067.97 429.001 2067.97 421.709 L2067.97 420.048 L2060.56 420.048 M2075.43 416.969 L2075.43 442.855 L2067.97 442.855 L2067.97 435.968 Q2065.42 440.1 2061.61 442.085 Q2057.8 444.03 2052.3 444.03 Q2045.33 444.03 2041.2 440.141 Q2037.1 436.211 2037.1 429.649 Q2037.1 421.993 2042.21 418.104 Q2047.35 414.215 2057.52 414.215 L2067.97 414.215 L2067.97 413.486 Q2067.97 408.341 2064.57 405.546 Q2061.21 402.71 2055.09 402.71 Q2051.2 402.71 2047.52 403.642 Q2043.83 404.574 2040.43 406.437 L2040.43 399.551 Q2044.52 397.971 2048.37 397.201 Q2052.21 396.391 2055.86 396.391 Q2065.7 396.391 2070.56 401.495 Q2075.43 406.599 2075.43 416.969 Z" fill="#000000" fill-rule="evenodd" fill-opacity="1" /><path clip-path="url(#clip750)" d="M2117.07 404.452 Q2115.81 403.723 2114.31 403.399 Q2112.86 403.034 2111.07 403.034 Q2104.75 403.034 2101.35 407.166 Q2097.99 411.258 2097.99 418.954 L2097.99 442.855 L2090.5 442.855 L2090.5 397.485 L2097.99 397.485 L2097.99 404.533 Q2100.34 400.401 2104.11 398.416 Q2107.87 396.391 2113.26 396.391 Q2114.03 396.391 2114.96 396.512 Q2115.89 396.593 2117.03 396.796 L2117.07 404.452 Z" fill="#000000" fill-rule="evenodd" fill-opacity="1" /><path clip-path="url(#clip750)" d="M2153.28 419.643 Q2153.28 411.541 2149.92 407.085 Q2146.6 402.629 2140.56 402.629 Q2134.57 402.629 2131.21 407.085 Q2127.89 411.541 2127.89 419.643 Q2127.89 427.704 2131.21 432.16 Q2134.57 436.616 2140.56 436.616 Q2146.6 436.616 2149.92 432.16 Q2153.28 427.704 2153.28 419.643 M2160.74 437.224 Q2160.74 448.81 2155.59 454.44 Q2150.45 460.112 2139.84 460.112 Q2135.91 460.112 2132.42 459.504 Q2128.94 458.937 2125.66 457.722 L2125.66 450.47 Q2128.94 452.253 2132.14 453.104 Q2135.34 453.954 2138.66 453.954 Q2145.99 453.954 2149.64 450.106 Q2153.28 446.298 2153.28 438.561 L2153.28 434.874 Q2150.98 438.885 2147.37 440.87 Q2143.76 442.855 2138.74 442.855 Q2130.4 442.855 2125.29 436.495 Q2120.19 430.135 2120.19 419.643 Q2120.19 409.111 2125.29 402.751 Q2130.4 396.391 2138.74 396.391 Q2143.76 396.391 2147.37 398.376 Q2150.98 400.361 2153.28 404.371 L2153.28 397.485 L2160.74 397.485 L2160.74 437.224 Z" fill="#000000" fill-rule="evenodd" fill-opacity="1" /><path clip-path="url(#clip750)" d="M2214.9 418.306 L2214.9 421.952 L2180.63 421.952 Q2181.11 429.649 2185.25 433.7 Q2189.42 437.71 2196.83 437.71 Q2201.13 437.71 2205.14 436.657 Q2209.19 435.604 2213.16 433.497 L2213.16 440.546 Q2209.15 442.247 2204.93 443.138 Q2200.72 444.03 2196.39 444.03 Q2185.53 444.03 2179.17 437.71 Q2172.85 431.391 2172.85 420.615 Q2172.85 409.475 2178.85 402.953 Q2184.88 396.391 2195.09 396.391 Q2204.24 396.391 2209.55 402.305 Q2214.9 408.179 2214.9 418.306 M2207.44 416.119 Q2207.36 410.002 2204 406.356 Q2200.68 402.71 2195.17 402.71 Q2188.93 402.71 2185.16 406.235 Q2181.44 409.759 2180.87 416.159 L2207.44 416.119 Z" fill="#000000" fill-rule="evenodd" fill-opacity="1" /><polyline clip-path="url(#clip750)" style="stroke:#008000; stroke-linecap:butt; stroke-linejoin:round; stroke-width:7; stroke-opacity:1; fill:none" stroke-dasharray="4, 7" points="
  1653.68,503.335 1789.31,503.335 
  "/>
<path clip-path="url(#clip750)" d="M1840.6 505.218 Q1843.23 506.11 1845.7 509.026 Q1848.21 511.943 1850.72 517.047 L1859.03 533.575 L1850.24 533.575 L1842.5 518.06 Q1839.5 511.983 1836.67 509.998 Q1833.87 508.014 1829.01 508.014 L1820.1 508.014 L1820.1 533.575 L1811.91 533.575 L1811.91 473.095 L1830.39 473.095 Q1840.76 473.095 1845.86 477.429 Q1850.97 481.764 1850.97 490.514 Q1850.97 496.225 1848.29 499.993 Q1845.66 503.76 1840.6 505.218 M1820.1 479.819 L1820.1 501.289 L1830.39 501.289 Q1836.3 501.289 1839.3 498.575 Q1842.34 495.82 1842.34 490.514 Q1842.34 485.207 1839.3 482.533 Q1836.3 479.819 1830.39 479.819 L1820.1 479.819 Z" fill="#000000" fill-rule="evenodd" fill-opacity="1" /><path clip-path="url(#clip750)" d="M1904.32 509.026 L1904.32 512.672 L1870.05 512.672 Q1870.53 520.369 1874.66 524.42 Q1878.84 528.43 1886.25 528.43 Q1890.54 528.43 1894.55 527.377 Q1898.6 526.324 1902.57 524.217 L1902.57 531.266 Q1898.56 532.967 1894.35 533.858 Q1890.14 534.75 1885.8 534.75 Q1874.95 534.75 1868.59 528.43 Q1862.27 522.111 1862.27 511.335 Q1862.27 500.195 1868.26 493.673 Q1874.3 487.111 1884.51 487.111 Q1893.66 487.111 1898.97 493.025 Q1904.32 498.899 1904.32 509.026 M1896.86 506.839 Q1896.78 500.722 1893.42 497.076 Q1890.1 493.43 1884.59 493.43 Q1878.35 493.43 1874.58 496.955 Q1870.86 500.479 1870.29 506.879 L1896.86 506.839 Z" fill="#000000" fill-rule="evenodd" fill-opacity="1" /><path clip-path="url(#clip750)" d="M1946.4 510.363 Q1946.4 502.261 1943.04 497.805 Q1939.72 493.349 1933.68 493.349 Q1927.69 493.349 1924.33 497.805 Q1921.01 502.261 1921.01 510.363 Q1921.01 518.424 1924.33 522.88 Q1927.69 527.336 1933.68 527.336 Q1939.72 527.336 1943.04 522.88 Q1946.4 518.424 1946.4 510.363 M1953.86 527.944 Q1953.86 539.53 1948.71 545.16 Q1943.57 550.832 1932.96 550.832 Q1929.03 550.832 1925.54 550.224 Q1922.06 549.657 1918.78 548.442 L1918.78 541.19 Q1922.06 542.973 1925.26 543.824 Q1928.46 544.674 1931.78 544.674 Q1939.11 544.674 1942.76 540.826 Q1946.4 537.018 1946.4 529.281 L1946.4 525.594 Q1944.1 529.605 1940.49 531.59 Q1936.89 533.575 1931.86 533.575 Q1923.52 533.575 1918.41 527.215 Q1913.31 520.855 1913.31 510.363 Q1913.31 499.831 1918.41 493.471 Q1923.52 487.111 1931.86 487.111 Q1936.89 487.111 1940.49 489.096 Q1944.1 491.081 1946.4 495.091 L1946.4 488.205 L1953.86 488.205 L1953.86 527.944 Z" fill="#000000" fill-rule="evenodd" fill-opacity="1" /><path clip-path="url(#clip750)" d="M1968.44 515.67 L1968.44 488.205 L1975.9 488.205 L1975.9 515.386 Q1975.9 521.827 1978.41 525.068 Q1980.92 528.268 1985.94 528.268 Q1991.98 528.268 1995.46 524.42 Q1998.99 520.571 1998.99 513.928 L1998.99 488.205 L2006.44 488.205 L2006.44 533.575 L1998.99 533.575 L1998.99 526.607 Q1996.27 530.739 1992.67 532.765 Q1989.1 534.75 1984.36 534.75 Q1976.54 534.75 1972.49 529.888 Q1968.44 525.027 1968.44 515.67 M1987.2 487.111 L1987.2 487.111 Z" fill="#000000" fill-rule="evenodd" fill-opacity="1" /><path clip-path="url(#clip750)" d="M2021.79 470.543 L2029.25 470.543 L2029.25 533.575 L2021.79 533.575 L2021.79 470.543 Z" fill="#000000" fill-rule="evenodd" fill-opacity="1" /><path clip-path="url(#clip750)" d="M2065.46 510.768 Q2056.43 510.768 2052.94 512.834 Q2049.46 514.9 2049.46 519.883 Q2049.46 523.853 2052.05 526.202 Q2054.69 528.511 2059.18 528.511 Q2065.38 528.511 2069.11 524.136 Q2072.87 519.721 2072.87 512.429 L2072.87 510.768 L2065.46 510.768 M2080.33 507.689 L2080.33 533.575 L2072.87 533.575 L2072.87 526.688 Q2070.32 530.82 2066.51 532.805 Q2062.71 534.75 2057.2 534.75 Q2050.23 534.75 2046.1 530.861 Q2042.01 526.931 2042.01 520.369 Q2042.01 512.713 2047.11 508.824 Q2052.25 504.935 2062.42 504.935 L2072.87 504.935 L2072.87 504.206 Q2072.87 499.061 2069.47 496.266 Q2066.11 493.43 2059.99 493.43 Q2056.1 493.43 2052.42 494.362 Q2048.73 495.294 2045.33 497.157 L2045.33 490.271 Q2049.42 488.691 2053.27 487.921 Q2057.12 487.111 2060.76 487.111 Q2070.61 487.111 2075.47 492.215 Q2080.33 497.319 2080.33 507.689 Z" fill="#000000" fill-rule="evenodd" fill-opacity="1" /><path clip-path="url(#clip750)" d="M2103.05 475.323 L2103.05 488.205 L2118.41 488.205 L2118.41 493.997 L2103.05 493.997 L2103.05 518.627 Q2103.05 524.177 2104.55 525.757 Q2106.09 527.336 2110.75 527.336 L2118.41 527.336 L2118.41 533.575 L2110.75 533.575 Q2102.12 533.575 2098.84 530.375 Q2095.56 527.134 2095.56 518.627 L2095.56 493.997 L2090.09 493.997 L2090.09 488.205 L2095.56 488.205 L2095.56 475.323 L2103.05 475.323 Z" fill="#000000" fill-rule="evenodd" fill-opacity="1" /><path clip-path="url(#clip750)" d="M2128.21 488.205 L2135.66 488.205 L2135.66 533.575 L2128.21 533.575 L2128.21 488.205 M2128.21 470.543 L2135.66 470.543 L2135.66 479.981 L2128.21 479.981 L2128.21 470.543 Z" fill="#000000" fill-rule="evenodd" fill-opacity="1" /><path clip-path="url(#clip750)" d="M2168.84 493.43 Q2162.84 493.43 2159.36 498.129 Q2155.88 502.788 2155.88 510.93 Q2155.88 519.073 2159.32 523.772 Q2162.8 528.43 2168.84 528.43 Q2174.79 528.43 2178.28 523.731 Q2181.76 519.032 2181.76 510.93 Q2181.76 502.869 2178.28 498.17 Q2174.79 493.43 2168.84 493.43 M2168.84 487.111 Q2178.56 487.111 2184.11 493.43 Q2189.66 499.75 2189.66 510.93 Q2189.66 522.07 2184.11 528.43 Q2178.56 534.75 2168.84 534.75 Q2159.08 534.75 2153.53 528.43 Q2148.02 522.07 2148.02 510.93 Q2148.02 499.75 2153.53 493.43 Q2159.08 487.111 2168.84 487.111 Z" fill="#000000" fill-rule="evenodd" fill-opacity="1" /><path clip-path="url(#clip750)" d="M2239.73 506.191 L2239.73 533.575 L2232.28 533.575 L2232.28 506.434 Q2232.28 499.993 2229.77 496.793 Q2227.25 493.592 2222.23 493.592 Q2216.19 493.592 2212.71 497.441 Q2209.23 501.289 2209.23 507.933 L2209.23 533.575 L2201.73 533.575 L2201.73 488.205 L2209.23 488.205 L2209.23 495.253 Q2211.9 491.162 2215.51 489.136 Q2219.15 487.111 2223.89 487.111 Q2231.71 487.111 2235.72 491.972 Q2239.73 496.793 2239.73 506.191 Z" fill="#000000" fill-rule="evenodd" fill-opacity="1" /></svg>
