<?xml version="1.0" encoding="utf-8"?>
<svg xmlns="http://www.w3.org/2000/svg" xmlns:xlink="http://www.w3.org/1999/xlink" width="600" height="400" viewBox="0 0 2400 1600">
<defs>
  <clipPath id="clip750">
    <rect x="0" y="0" width="2400" height="1600"/>
  </clipPath>
</defs>
<path clip-path="url(#clip750)" d="
M0 1600 L2400 1600 L2400 0 L0 0  Z
  " fill="#ffffff" fill-rule="evenodd" fill-opacity="1"/>
<defs>
  <clipPath id="clip751">
    <rect x="480" y="0" width="1681" height="1600"/>
  </clipPath>
</defs>
<path clip-path="url(#clip750)" d="
M421.398 1271.18 L1022.58 1271.18 L1022.58 94.4882 L421.398 94.4882  Z
  " fill="#ffffff" fill-rule="evenodd" fill-opacity="1"/>
<defs>
  <clipPath id="clip752">
    <rect x="421" y="94" width="602" height="1178"/>
  </clipPath>
</defs>
<polyline clip-path="url(#clip750)" style="stroke:#000000; stroke-linecap:round; stroke-linejoin:round; stroke-width:8; stroke-opacity:1; fill:none" points="
  421.398,1247.16 1022.58,1247.16 
  "/>
<polyline clip-path="url(#clip750)" style="stroke:#000000; stroke-linecap:round; stroke-linejoin:round; stroke-width:8; stroke-opacity:1; fill:none" points="
  507.281,1266.06 507.281,1228.26 
  "/>
<polyline clip-path="url(#clip750)" style="stroke:#000000; stroke-linecap:round; stroke-linejoin:round; stroke-width:8; stroke-opacity:1; fill:none" points="
  564.536,1266.06 564.536,1228.26 
  "/>
<polyline clip-path="url(#clip750)" style="stroke:#000000; stroke-linecap:round; stroke-linejoin:round; stroke-width:8; stroke-opacity:1; fill:none" points="
  621.792,1266.06 621.792,1228.26 
  "/>
<polyline clip-path="url(#clip750)" style="stroke:#000000; stroke-linecap:round; stroke-linejoin:round; stroke-width:8; stroke-opacity:1; fill:none" points="
  679.047,1266.06 679.047,1228.26 
  "/>
<polyline clip-path="url(#clip750)" style="stroke:#000000; stroke-linecap:round; stroke-linejoin:round; stroke-width:8; stroke-opacity:1; fill:none" points="
  736.303,1266.06 736.303,1228.26 
  "/>
<polyline clip-path="url(#clip750)" style="stroke:#000000; stroke-linecap:round; stroke-linejoin:round; stroke-width:8; stroke-opacity:1; fill:none" points="
  793.558,1266.06 793.558,1228.26 
  "/>
<polyline clip-path="url(#clip750)" style="stroke:#000000; stroke-linecap:round; stroke-linejoin:round; stroke-width:8; stroke-opacity:1; fill:none" points="
  850.814,1266.06 850.814,1228.26 
  "/>
<polyline clip-path="url(#clip750)" style="stroke:#000000; stroke-linecap:round; stroke-linejoin:round; stroke-width:8; stroke-opacity:1; fill:none" points="
  908.069,1266.06 908.069,1228.26 
  "/>
<polyline clip-path="url(#clip750)" style="stroke:#000000; stroke-linecap:round; stroke-linejoin:round; stroke-width:8; stroke-opacity:1; fill:none" points="
  965.325,1266.06 965.325,1228.26 
  "/>
<polyline clip-path="url(#clip750)" style="stroke:#000000; stroke-linecap:round; stroke-linejoin:round; stroke-width:8; stroke-opacity:1; fill:none" points="
  1022.58,1266.06 1022.58,1228.26 
  "/>
<path clip-path="url(#clip750)" d="M488.045 1344.89 L503.323 1344.89 L503.323 1292.16 L486.702 1295.49 L486.702 1286.98 L503.23 1283.64 L512.582 1283.64 L512.582 1344.89 L527.859 1344.89 L527.859 1352.76 L488.045 1352.76 L488.045 1344.89 Z" fill="#000000" fill-rule="evenodd" fill-opacity="1" /><path clip-path="url(#clip750)" d="M553.842 1344.89 L586.481 1344.89 L586.481 1352.76 L542.592 1352.76 L542.592 1344.89 Q547.916 1339.38 557.083 1330.12 Q566.296 1320.82 568.657 1318.13 Q573.147 1313.09 574.907 1309.61 Q576.712 1306.1 576.712 1302.72 Q576.712 1297.21 572.823 1293.73 Q568.981 1290.26 562.777 1290.26 Q558.379 1290.26 553.472 1291.79 Q548.611 1293.32 543.055 1296.42 L543.055 1286.98 Q548.703 1284.71 553.61 1283.55 Q558.518 1282.39 562.592 1282.39 Q573.333 1282.39 579.721 1287.76 Q586.11 1293.13 586.11 1302.11 Q586.11 1306.37 584.49 1310.22 Q582.916 1314.01 578.703 1319.2 Q577.546 1320.54 571.342 1326.98 Q565.138 1333.36 553.842 1344.89 Z" fill="#000000" fill-rule="evenodd" fill-opacity="1" /><path clip-path="url(#clip750)" d="M630.287 1315.49 Q637 1316.93 640.75 1321.47 Q644.546 1326 644.546 1332.67 Q644.546 1342.9 637.509 1348.5 Q630.472 1354.1 617.509 1354.1 Q613.158 1354.1 608.528 1353.22 Q603.945 1352.39 599.037 1350.68 L599.037 1341.65 Q602.926 1343.92 607.556 1345.08 Q612.185 1346.23 617.232 1346.23 Q626.028 1346.23 630.611 1342.76 Q635.241 1339.29 635.241 1332.67 Q635.241 1326.56 630.935 1323.13 Q626.676 1319.66 619.037 1319.66 L610.982 1319.66 L610.982 1311.98 L619.408 1311.98 Q626.306 1311.98 629.963 1309.24 Q633.62 1306.47 633.62 1301.28 Q633.62 1295.96 629.824 1293.13 Q626.074 1290.26 619.037 1290.26 Q615.195 1290.26 610.797 1291.1 Q606.398 1291.93 601.121 1293.69 L601.121 1285.35 Q606.445 1283.87 611.074 1283.13 Q615.75 1282.39 619.871 1282.39 Q630.519 1282.39 636.722 1287.25 Q642.926 1292.07 642.926 1300.31 Q642.926 1306.05 639.639 1310.03 Q636.352 1313.97 630.287 1315.49 Z" fill="#000000" fill-rule="evenodd" fill-opacity="1" /><path clip-path="url(#clip750)" d="M685.066 1291.79 L661.455 1328.69 L685.066 1328.69 L685.066 1291.79 M682.612 1283.64 L694.371 1283.64 L694.371 1328.69 L704.232 1328.69 L704.232 1336.47 L694.371 1336.47 L694.371 1352.76 L685.066 1352.76 L685.066 1336.47 L653.862 1336.47 L653.862 1327.44 L682.612 1283.64 Z" fill="#000000" fill-rule="evenodd" fill-opacity="1" /><path clip-path="url(#clip750)" d="M716.859 1283.64 L753.571 1283.64 L753.571 1291.51 L725.423 1291.51 L725.423 1308.46 Q727.46 1307.76 729.497 1307.44 Q731.534 1307.07 733.571 1307.07 Q745.145 1307.07 751.905 1313.41 Q758.664 1319.75 758.664 1330.59 Q758.664 1341.74 751.719 1347.95 Q744.775 1354.1 732.136 1354.1 Q727.784 1354.1 723.247 1353.36 Q718.757 1352.62 713.942 1351.14 L713.942 1341.74 Q718.109 1344.01 722.553 1345.12 Q726.997 1346.23 731.951 1346.23 Q739.96 1346.23 744.636 1342.02 Q749.312 1337.81 749.312 1330.59 Q749.312 1323.36 744.636 1319.15 Q739.96 1314.94 731.951 1314.94 Q728.201 1314.94 724.451 1315.77 Q720.747 1316.6 716.859 1318.36 L716.859 1283.64 Z" fill="#000000" fill-rule="evenodd" fill-opacity="1" /><path clip-path="url(#clip750)" d="M794.369 1314.48 Q788.072 1314.48 784.369 1318.78 Q780.711 1323.09 780.711 1330.59 Q780.711 1338.04 784.369 1342.39 Q788.072 1346.7 794.369 1346.7 Q800.665 1346.7 804.322 1342.39 Q808.026 1338.04 808.026 1330.59 Q808.026 1323.09 804.322 1318.78 Q800.665 1314.48 794.369 1314.48 M812.933 1285.17 L812.933 1293.69 Q809.415 1292.02 805.804 1291.14 Q802.239 1290.26 798.72 1290.26 Q789.461 1290.26 784.554 1296.51 Q779.693 1302.76 778.998 1315.4 Q781.73 1311.37 785.85 1309.24 Q789.97 1307.07 794.924 1307.07 Q805.341 1307.07 811.359 1313.41 Q817.424 1319.71 817.424 1330.59 Q817.424 1341.23 811.128 1347.67 Q804.831 1354.1 794.369 1354.1 Q782.378 1354.1 776.035 1344.94 Q769.693 1335.73 769.693 1318.27 Q769.693 1301.88 777.47 1292.16 Q785.248 1282.39 798.35 1282.39 Q801.868 1282.39 805.433 1283.09 Q809.044 1283.78 812.933 1285.17 Z" fill="#000000" fill-rule="evenodd" fill-opacity="1" /><path clip-path="url(#clip750)" d="M828.592 1283.64 L873.036 1283.64 L873.036 1287.62 L847.944 1352.76 L838.175 1352.76 L861.786 1291.51 L828.592 1291.51 L828.592 1283.64 Z" fill="#000000" fill-rule="evenodd" fill-opacity="1" /><path clip-path="url(#clip750)" d="M908.069 1319.94 Q901.403 1319.94 897.56 1323.5 Q893.764 1327.07 893.764 1333.32 Q893.764 1339.57 897.56 1343.13 Q901.403 1346.7 908.069 1346.7 Q914.736 1346.7 918.579 1343.13 Q922.421 1339.52 922.421 1333.32 Q922.421 1327.07 918.579 1323.5 Q914.782 1319.94 908.069 1319.94 M898.718 1315.96 Q892.699 1314.48 889.319 1310.35 Q885.986 1306.23 885.986 1300.31 Q885.986 1292.02 891.866 1287.21 Q897.792 1282.39 908.069 1282.39 Q918.393 1282.39 924.273 1287.21 Q930.153 1292.02 930.153 1300.31 Q930.153 1306.23 926.773 1310.35 Q923.44 1314.48 917.467 1315.96 Q924.227 1317.53 927.977 1322.11 Q931.773 1326.7 931.773 1333.32 Q931.773 1343.36 925.616 1348.73 Q919.504 1354.1 908.069 1354.1 Q896.634 1354.1 890.477 1348.73 Q884.366 1343.36 884.366 1333.32 Q884.366 1326.7 888.162 1322.11 Q891.958 1317.53 898.718 1315.96 M895.292 1301.19 Q895.292 1306.56 898.625 1309.57 Q902.005 1312.58 908.069 1312.58 Q914.088 1312.58 917.467 1309.57 Q920.893 1306.56 920.893 1301.19 Q920.893 1295.82 917.467 1292.81 Q914.088 1289.8 908.069 1289.8 Q902.005 1289.8 898.625 1292.81 Q895.292 1295.82 895.292 1301.19 Z" fill="#000000" fill-rule="evenodd" fill-opacity="1" /><path clip-path="url(#clip750)" d="M945.927 1351.33 L945.927 1342.81 Q949.445 1344.48 953.056 1345.35 Q956.667 1346.23 960.14 1346.23 Q969.399 1346.23 974.26 1340.03 Q979.167 1333.78 979.862 1321.1 Q977.177 1325.08 973.056 1327.21 Q968.936 1329.34 963.936 1329.34 Q953.566 1329.34 947.501 1323.09 Q941.482 1316.79 941.482 1305.91 Q941.482 1295.26 947.779 1288.83 Q954.075 1282.39 964.538 1282.39 Q976.529 1282.39 982.825 1291.6 Q989.167 1300.77 989.167 1318.27 Q989.167 1334.61 981.39 1344.38 Q973.658 1354.1 960.556 1354.1 Q957.038 1354.1 953.427 1353.41 Q949.816 1352.72 945.927 1351.33 M964.538 1322.02 Q970.834 1322.02 974.491 1317.72 Q978.195 1313.41 978.195 1305.91 Q978.195 1298.46 974.491 1294.15 Q970.834 1289.8 964.538 1289.8 Q958.242 1289.8 954.538 1294.15 Q950.88 1298.46 950.88 1305.91 Q950.88 1313.41 954.538 1317.72 Q958.242 1322.02 964.538 1322.02 Z" fill="#000000" fill-rule="evenodd" fill-opacity="1" /><path clip-path="url(#clip750)" d="M971.956 1344.89 L987.233 1344.89 L987.233 1292.16 L970.613 1295.49 L970.613 1286.98 L987.141 1283.64 L996.493 1283.64 L996.493 1344.89 L1011.77 1344.89 L1011.77 1352.76 L971.956 1352.76 L971.956 1344.89 Z" fill="#000000" fill-rule="evenodd" fill-opacity="1" /><path clip-path="url(#clip750)" d="M1050.66 1289.8 Q1043.44 1289.8 1039.78 1296.93 Q1036.17 1304.01 1036.17 1318.27 Q1036.17 1332.48 1039.78 1339.61 Q1043.44 1346.7 1050.66 1346.7 Q1057.93 1346.7 1061.54 1339.61 Q1065.2 1332.48 1065.2 1318.27 Q1065.2 1304.01 1061.54 1296.93 Q1057.93 1289.8 1050.66 1289.8 M1050.66 1282.39 Q1062.28 1282.39 1068.39 1291.6 Q1074.55 1300.77 1074.55 1318.27 Q1074.55 1335.73 1068.39 1344.94 Q1062.28 1354.1 1050.66 1354.1 Q1039.04 1354.1 1032.88 1344.94 Q1026.77 1335.73 1026.77 1318.27 Q1026.77 1300.77 1032.88 1291.6 Q1039.04 1282.39 1050.66 1282.39 Z" fill="#000000" fill-rule="evenodd" fill-opacity="1" /><path clip-path="url(#clip750)" d="M137.872 1429.86 L150.794 1429.86 L150.794 1487.6 Q150.794 1502.88 156.332 1509.63 Q161.87 1516.31 174.284 1516.31 Q186.633 1516.31 192.171 1509.63 Q197.709 1502.88 197.709 1487.6 L197.709 1429.86 L210.632 1429.86 L210.632 1489.19 Q210.632 1507.78 201.401 1517.27 Q192.235 1526.75 174.284 1526.75 Q156.269 1526.75 147.038 1517.27 Q137.872 1507.78 137.872 1489.19 L137.872 1429.86 Z" fill="#000000" fill-rule="evenodd" fill-opacity="1" /><path clip-path="url(#clip750)" d="M293.513 1481.87 L293.513 1524.9 L281.8 1524.9 L281.8 1482.25 Q281.8 1472.13 277.854 1467.1 Q273.907 1462.07 266.013 1462.07 Q256.529 1462.07 251.054 1468.12 Q245.579 1474.17 245.579 1484.61 L245.579 1524.9 L233.803 1524.9 L233.803 1453.61 L245.579 1453.61 L245.579 1464.68 Q249.781 1458.26 255.446 1455.07 Q261.175 1451.89 268.623 1451.89 Q280.909 1451.89 287.211 1459.53 Q293.513 1467.1 293.513 1481.87 Z" fill="#000000" fill-rule="evenodd" fill-opacity="1" /><path clip-path="url(#clip750)" d="M316.875 1453.61 L328.588 1453.61 L328.588 1524.9 L316.875 1524.9 L316.875 1453.61 M316.875 1425.85 L328.588 1425.85 L328.588 1440.69 L316.875 1440.69 L316.875 1425.85 Z" fill="#000000" fill-rule="evenodd" fill-opacity="1" /><path clip-path="url(#clip750)" d="M364.682 1433.37 L364.682 1453.61 L388.808 1453.61 L388.808 1462.71 L364.682 1462.71 L364.682 1501.41 Q364.682 1510.14 367.037 1512.62 Q369.456 1515.1 376.777 1515.1 L388.808 1515.1 L388.808 1524.9 L376.777 1524.9 Q363.218 1524.9 358.062 1519.88 Q352.905 1514.78 352.905 1501.41 L352.905 1462.71 L344.312 1462.71 L344.312 1453.61 L352.905 1453.61 L352.905 1433.37 L364.682 1433.37 Z" fill="#000000" fill-rule="evenodd" fill-opacity="1" /><path clip-path="url(#clip750)" d="M449.664 1455.71 L449.664 1466.79 Q444.699 1464.24 439.352 1462.97 Q434.004 1461.69 428.275 1461.69 Q419.554 1461.69 415.162 1464.37 Q410.833 1467.04 410.833 1472.39 Q410.833 1476.46 413.952 1478.82 Q417.072 1481.11 426.493 1483.21 L430.503 1484.1 Q442.98 1486.77 448.2 1491.68 Q453.483 1496.51 453.483 1505.23 Q453.483 1515.16 445.59 1520.96 Q437.76 1526.75 424.01 1526.75 Q418.281 1526.75 412.043 1525.6 Q405.868 1524.52 398.993 1522.29 L398.993 1510.2 Q405.486 1513.57 411.788 1515.29 Q418.09 1516.95 424.265 1516.95 Q432.54 1516.95 436.996 1514.15 Q441.452 1511.28 441.452 1506.13 Q441.452 1501.35 438.206 1498.8 Q435.023 1496.26 424.138 1493.9 L420.064 1492.95 Q409.178 1490.66 404.34 1485.95 Q399.502 1481.17 399.502 1472.9 Q399.502 1462.84 406.632 1457.36 Q413.761 1451.89 426.875 1451.89 Q433.368 1451.89 439.097 1452.84 Q444.826 1453.8 449.664 1455.71 Z" fill="#000000" fill-rule="evenodd" fill-opacity="1" /><path clip-path="url(#clip750)" d="M541.203 1461.82 Q531.782 1461.82 526.307 1469.2 Q520.833 1476.52 520.833 1489.32 Q520.833 1502.11 526.244 1509.5 Q531.718 1516.82 541.203 1516.82 Q550.561 1516.82 556.035 1509.44 Q561.51 1502.05 561.51 1489.32 Q561.51 1476.65 556.035 1469.27 Q550.561 1461.82 541.203 1461.82 M541.203 1451.89 Q556.481 1451.89 565.202 1461.82 Q573.923 1471.75 573.923 1489.32 Q573.923 1506.83 565.202 1516.82 Q556.481 1526.75 541.203 1526.75 Q525.862 1526.75 517.141 1516.82 Q508.483 1506.83 508.483 1489.32 Q508.483 1471.75 517.141 1461.82 Q525.862 1451.89 541.203 1451.89 Z" fill="#000000" fill-rule="evenodd" fill-opacity="1" /><path clip-path="url(#clip750)" d="M629.432 1425.85 L629.432 1435.59 L618.228 1435.59 Q611.926 1435.59 609.443 1438.14 Q607.024 1440.69 607.024 1447.31 L607.024 1453.61 L626.312 1453.61 L626.312 1462.71 L607.024 1462.71 L607.024 1524.9 L595.248 1524.9 L595.248 1462.71 L584.044 1462.71 L584.044 1453.61 L595.248 1453.61 L595.248 1448.64 Q595.248 1436.74 600.786 1431.33 Q606.324 1425.85 618.355 1425.85 L629.432 1425.85 Z" fill="#000000" fill-rule="evenodd" fill-opacity="1" /><path clip-path="url(#clip750)" d="M719.761 1438.59 Q705.756 1438.59 697.481 1449.02 Q689.269 1459.46 689.269 1477.48 Q689.269 1495.43 697.481 1505.87 Q705.756 1516.31 719.761 1516.31 Q733.766 1516.31 741.914 1505.87 Q750.125 1495.43 750.125 1477.48 Q750.125 1459.46 741.914 1449.02 Q733.766 1438.59 719.761 1438.59 M719.761 1428.15 Q739.749 1428.15 751.717 1441.58 Q763.684 1454.94 763.684 1477.48 Q763.684 1499.95 751.717 1513.38 Q739.749 1526.75 719.761 1526.75 Q699.709 1526.75 687.678 1513.38 Q675.71 1500.01 675.71 1477.48 Q675.71 1454.94 687.678 1441.58 Q699.709 1428.15 719.761 1428.15 Z" fill="#000000" fill-rule="evenodd" fill-opacity="1" /><path clip-path="url(#clip750)" d="M794.622 1514.21 L794.622 1552.02 L782.845 1552.02 L782.845 1453.61 L794.622 1453.61 L794.622 1464.43 Q798.314 1458.06 803.916 1455.01 Q809.581 1451.89 817.411 1451.89 Q830.397 1451.89 838.481 1462.2 Q846.63 1472.51 846.63 1489.32 Q846.63 1506.13 838.481 1516.44 Q830.397 1526.75 817.411 1526.75 Q809.581 1526.75 803.916 1523.69 Q798.314 1520.58 794.622 1514.21 M834.471 1489.32 Q834.471 1476.4 829.124 1469.08 Q823.84 1461.69 814.546 1461.69 Q805.252 1461.69 799.905 1469.08 Q794.622 1476.4 794.622 1489.32 Q794.622 1502.24 799.905 1509.63 Q805.252 1516.95 814.546 1516.95 Q823.84 1516.95 829.124 1509.63 Q834.471 1502.24 834.471 1489.32 Z" fill="#000000" fill-rule="evenodd" fill-opacity="1" /><path clip-path="url(#clip750)" d="M927.028 1486.33 L927.028 1492.06 L873.175 1492.06 Q873.938 1504.15 880.431 1510.52 Q886.988 1516.82 898.637 1516.82 Q905.385 1516.82 911.687 1515.16 Q918.053 1513.51 924.291 1510.2 L924.291 1521.28 Q917.989 1523.95 911.369 1525.35 Q904.748 1526.75 897.937 1526.75 Q880.877 1526.75 870.883 1516.82 Q860.952 1506.89 860.952 1489.96 Q860.952 1472.45 870.374 1462.2 Q879.859 1451.89 895.9 1451.89 Q910.287 1451.89 918.626 1461.18 Q927.028 1470.41 927.028 1486.33 M915.315 1482.89 Q915.188 1473.28 909.905 1467.55 Q904.685 1461.82 896.027 1461.82 Q886.224 1461.82 880.304 1467.36 Q874.448 1472.9 873.556 1482.95 L915.315 1482.89 Z" fill="#000000" fill-rule="evenodd" fill-opacity="1" /><path clip-path="url(#clip750)" d="M987.566 1464.56 Q985.593 1463.41 983.238 1462.9 Q980.946 1462.33 978.145 1462.33 Q968.215 1462.33 962.867 1468.82 Q957.584 1475.25 957.584 1487.35 L957.584 1524.9 L945.807 1524.9 L945.807 1453.61 L957.584 1453.61 L957.584 1464.68 Q961.276 1458.19 967.196 1455.07 Q973.116 1451.89 981.582 1451.89 Q982.792 1451.89 984.256 1452.08 Q985.72 1452.21 987.503 1452.53 L987.566 1464.56 Z" fill="#000000" fill-rule="evenodd" fill-opacity="1" /><path clip-path="url(#clip750)" d="M1032.25 1489.07 Q1018.06 1489.07 1012.58 1492.31 Q1007.11 1495.56 1007.11 1503.39 Q1007.11 1509.63 1011.18 1513.32 Q1015.32 1516.95 1022.39 1516.95 Q1032.13 1516.95 1037.98 1510.07 Q1043.9 1503.13 1043.9 1491.68 L1043.9 1489.07 L1032.25 1489.07 M1055.62 1484.23 L1055.62 1524.9 L1043.9 1524.9 L1043.9 1514.08 Q1039.89 1520.58 1033.91 1523.69 Q1027.92 1526.75 1019.27 1526.75 Q1008.32 1526.75 1001.83 1520.64 Q995.396 1514.46 995.396 1504.15 Q995.396 1492.12 1003.42 1486.01 Q1011.5 1479.9 1027.48 1479.9 L1043.9 1479.9 L1043.9 1478.75 Q1043.9 1470.67 1038.56 1466.28 Q1033.27 1461.82 1023.66 1461.82 Q1017.55 1461.82 1011.76 1463.28 Q1005.96 1464.75 1000.62 1467.68 L1000.62 1456.85 Q1007.05 1454.37 1013.09 1453.16 Q1019.14 1451.89 1024.87 1451.89 Q1040.34 1451.89 1047.98 1459.91 Q1055.62 1467.93 1055.62 1484.23 Z" fill="#000000" fill-rule="evenodd" fill-opacity="1" /><path clip-path="url(#clip750)" d="M1091.33 1433.37 L1091.33 1453.61 L1115.45 1453.61 L1115.45 1462.71 L1091.33 1462.71 L1091.33 1501.41 Q1091.33 1510.14 1093.68 1512.62 Q1096.1 1515.1 1103.42 1515.1 L1115.45 1515.1 L1115.45 1524.9 L1103.42 1524.9 Q1089.86 1524.9 1084.71 1519.88 Q1079.55 1514.78 1079.55 1501.41 L1079.55 1462.71 L1070.96 1462.71 L1070.96 1453.61 L1079.55 1453.61 L1079.55 1433.37 L1091.33 1433.37 Z" fill="#000000" fill-rule="evenodd" fill-opacity="1" /><path clip-path="url(#clip750)" d="M1130.86 1453.61 L1142.57 1453.61 L1142.57 1524.9 L1130.86 1524.9 L1130.86 1453.61 M1130.86 1425.85 L1142.57 1425.85 L1142.57 1440.69 L1130.86 1440.69 L1130.86 1425.85 Z" fill="#000000" fill-rule="evenodd" fill-opacity="1" /><path clip-path="url(#clip750)" d="M1194.71 1461.82 Q1185.29 1461.82 1179.81 1469.2 Q1174.34 1476.52 1174.34 1489.32 Q1174.34 1502.11 1179.75 1509.5 Q1185.22 1516.82 1194.71 1516.82 Q1204.06 1516.82 1209.54 1509.44 Q1215.01 1502.05 1215.01 1489.32 Q1215.01 1476.65 1209.54 1469.27 Q1204.06 1461.82 1194.71 1461.82 M1194.71 1451.89 Q1209.98 1451.89 1218.71 1461.82 Q1227.43 1471.75 1227.43 1489.32 Q1227.43 1506.83 1218.71 1516.82 Q1209.98 1526.75 1194.71 1526.75 Q1179.37 1526.75 1170.64 1516.82 Q1161.99 1506.83 1161.99 1489.32 Q1161.99 1471.75 1170.64 1461.82 Q1179.37 1451.89 1194.71 1451.89 Z" fill="#000000" fill-rule="evenodd" fill-opacity="1" /><path clip-path="url(#clip750)" d="M1306.11 1481.87 L1306.11 1524.9 L1294.39 1524.9 L1294.39 1482.25 Q1294.39 1472.13 1290.45 1467.1 Q1286.5 1462.07 1278.61 1462.07 Q1269.12 1462.07 1263.65 1468.12 Q1258.17 1474.17 1258.17 1484.61 L1258.17 1524.9 L1246.4 1524.9 L1246.4 1453.61 L1258.17 1453.61 L1258.17 1464.68 Q1262.37 1458.26 1268.04 1455.07 Q1273.77 1451.89 1281.22 1451.89 Q1293.5 1451.89 1299.8 1459.53 Q1306.11 1467.1 1306.11 1481.87 Z" fill="#000000" fill-rule="evenodd" fill-opacity="1" /><polyline clip-path="url(#clip750)" style="stroke:#000000; stroke-linecap:round; stroke-linejoin:round; stroke-width:8; stroke-opacity:1; fill:none" points="
  450.025,1271.18 450.025,94.4882 
  "/>
<polyline clip-path="url(#clip750)" style="stroke:#000000; stroke-linecap:round; stroke-linejoin:round; stroke-width:8; stroke-opacity:1; fill:none" points="
  443.995,1007.02 456.055,1007.02 
  "/>
<polyline clip-path="url(#clip750)" style="stroke:#000000; stroke-linecap:round; stroke-linejoin:round; stroke-width:8; stroke-opacity:1; fill:none" points="
  443.995,766.881 456.055,766.881 
  "/>
<polyline clip-path="url(#clip750)" style="stroke:#000000; stroke-linecap:round; stroke-linejoin:round; stroke-width:8; stroke-opacity:1; fill:none" points="
  443.995,526.741 456.055,526.741 
  "/>
<polyline clip-path="url(#clip750)" style="stroke:#000000; stroke-linecap:round; stroke-linejoin:round; stroke-width:8; stroke-opacity:1; fill:none" points="
  443.995,286.6 456.055,286.6 
  "/>
<path clip-path="url(#clip750)" d="M372.22 972.462 L408.933 972.462 L408.933 980.332 L380.785 980.332 L380.785 997.276 Q382.822 996.582 384.859 996.258 Q386.896 995.887 388.933 995.887 Q400.507 995.887 407.266 1002.23 Q414.025 1008.57 414.025 1019.41 Q414.025 1030.56 407.081 1036.77 Q400.137 1042.92 387.498 1042.92 Q383.146 1042.92 378.609 1042.18 Q374.118 1041.44 369.303 1039.96 L369.303 1030.56 Q373.47 1032.83 377.914 1033.94 Q382.359 1035.05 387.313 1035.05 Q395.322 1035.05 399.998 1030.84 Q404.674 1026.63 404.674 1019.41 Q404.674 1012.18 399.998 1007.97 Q395.322 1003.76 387.313 1003.76 Q383.563 1003.76 379.813 1004.59 Q376.109 1005.42 372.22 1007.18 L372.22 972.462 Z" fill="#000000" fill-rule="evenodd" fill-opacity="1" /><path clip-path="url(#clip750)" d="M311.433 793.571 L326.711 793.571 L326.711 740.84 L310.091 744.173 L310.091 735.655 L326.618 732.321 L335.97 732.321 L335.97 793.571 L351.248 793.571 L351.248 801.441 L311.433 801.441 L311.433 793.571 Z" fill="#000000" fill-rule="evenodd" fill-opacity="1" /><path clip-path="url(#clip750)" d="M390.137 738.479 Q382.914 738.479 379.257 745.608 Q375.646 752.692 375.646 766.951 Q375.646 781.164 379.257 788.293 Q382.914 795.376 390.137 795.376 Q397.405 795.376 401.016 788.293 Q404.674 781.164 404.674 766.951 Q404.674 752.692 401.016 745.608 Q397.405 738.479 390.137 738.479 M390.137 731.071 Q401.757 731.071 407.868 740.284 Q414.025 749.451 414.025 766.951 Q414.025 784.404 407.868 793.617 Q401.757 802.784 390.137 802.784 Q378.516 802.784 372.359 793.617 Q366.248 784.404 366.248 766.951 Q366.248 749.451 372.359 740.284 Q378.516 731.071 390.137 731.071 Z" fill="#000000" fill-rule="evenodd" fill-opacity="1" /><path clip-path="url(#clip750)" d="M313.424 553.431 L328.702 553.431 L328.702 500.699 L312.081 504.033 L312.081 495.514 L328.609 492.181 L337.961 492.181 L337.961 553.431 L353.239 553.431 L353.239 561.301 L313.424 561.301 L313.424 553.431 Z" fill="#000000" fill-rule="evenodd" fill-opacity="1" /><path clip-path="url(#clip750)" d="M372.22 492.181 L408.933 492.181 L408.933 500.051 L380.785 500.051 L380.785 516.996 Q382.822 516.301 384.859 515.977 Q386.896 515.607 388.933 515.607 Q400.507 515.607 407.266 521.949 Q414.025 528.292 414.025 539.125 Q414.025 550.282 407.081 556.486 Q400.137 562.643 387.498 562.643 Q383.146 562.643 378.609 561.903 Q374.118 561.162 369.303 559.681 L369.303 550.282 Q373.47 552.551 377.914 553.662 Q382.359 554.773 387.313 554.773 Q395.322 554.773 399.998 550.56 Q404.674 546.347 404.674 539.125 Q404.674 531.903 399.998 527.69 Q395.322 523.477 387.313 523.477 Q383.563 523.477 379.813 524.31 Q376.109 525.144 372.22 526.903 L372.22 492.181 Z" fill="#000000" fill-rule="evenodd" fill-opacity="1" /><path clip-path="url(#clip750)" d="M317.868 313.29 L350.507 313.29 L350.507 321.16 L306.619 321.16 L306.619 313.29 Q311.943 307.781 321.109 298.522 Q330.322 289.216 332.683 286.531 Q337.174 281.485 338.933 278.013 Q340.739 274.494 340.739 271.114 Q340.739 265.605 336.85 262.133 Q333.007 258.661 326.804 258.661 Q322.405 258.661 317.498 260.189 Q312.637 261.716 307.081 264.818 L307.081 255.374 Q312.73 253.105 317.637 251.948 Q322.544 250.791 326.618 250.791 Q337.359 250.791 343.748 256.161 Q350.137 261.531 350.137 270.513 Q350.137 274.772 348.516 278.614 Q346.942 282.411 342.729 287.596 Q341.572 288.938 335.368 295.374 Q329.165 301.762 317.868 313.29 Z" fill="#000000" fill-rule="evenodd" fill-opacity="1" /><path clip-path="url(#clip750)" d="M390.137 258.198 Q382.914 258.198 379.257 265.327 Q375.646 272.411 375.646 286.67 Q375.646 300.883 379.257 308.012 Q382.914 315.096 390.137 315.096 Q397.405 315.096 401.016 308.012 Q404.674 300.883 404.674 286.67 Q404.674 272.411 401.016 265.327 Q397.405 258.198 390.137 258.198 M390.137 250.791 Q401.757 250.791 407.868 260.003 Q414.025 269.17 414.025 286.67 Q414.025 304.124 407.868 313.336 Q401.757 322.503 390.137 322.503 Q378.516 322.503 372.359 313.336 Q366.248 304.124 366.248 286.67 Q366.248 269.17 372.359 260.003 Q378.516 250.791 390.137 250.791 Z" fill="#000000" fill-rule="evenodd" fill-opacity="1" /><path clip-path="url(#clip750)" d="M125.759 778.222 L139.318 778.222 Q133.271 784.715 130.279 792.099 Q127.287 799.42 127.287 807.695 Q127.287 823.992 137.281 832.649 Q147.212 841.306 166.054 841.306 Q184.833 841.306 194.827 832.649 Q204.758 823.992 204.758 807.695 Q204.758 799.42 201.766 792.099 Q198.774 784.715 192.727 778.222 L206.158 778.222 Q210.742 784.97 213.033 792.545 Q215.325 800.057 215.325 808.459 Q215.325 830.039 202.148 842.452 Q188.907 854.865 166.054 854.865 Q143.138 854.865 129.961 842.452 Q116.72 830.039 116.72 808.459 Q116.72 799.929 119.012 792.418 Q121.24 784.843 125.759 778.222 Z" fill="#000000" fill-rule="evenodd" fill-opacity="1" /><path clip-path="url(#clip750)" d="M150.395 731.243 Q150.395 740.665 157.779 746.139 Q165.099 751.614 177.894 751.614 Q190.69 751.614 198.074 746.203 Q205.394 740.728 205.394 731.243 Q205.394 721.886 198.01 716.411 Q190.626 710.937 177.894 710.937 Q165.227 710.937 157.842 716.411 Q150.395 721.886 150.395 731.243 M140.464 731.243 Q140.464 715.966 150.395 707.245 Q160.325 698.524 177.894 698.524 Q195.4 698.524 205.394 707.245 Q215.325 715.966 215.325 731.243 Q215.325 746.585 205.394 755.306 Q195.4 763.963 177.894 763.963 Q160.325 763.963 150.395 755.306 Q140.464 746.585 140.464 731.243 Z" fill="#000000" fill-rule="evenodd" fill-opacity="1" /><path clip-path="url(#clip750)" d="M144.284 633.657 L155.36 633.657 Q152.814 638.622 151.54 643.969 Q150.267 649.317 150.267 655.046 Q150.267 663.767 152.941 668.159 Q155.614 672.488 160.962 672.488 Q165.036 672.488 167.391 669.369 Q169.683 666.249 171.783 656.828 L172.675 652.818 Q175.348 640.341 180.25 635.121 Q185.088 629.838 193.809 629.838 Q203.739 629.838 209.532 637.731 Q215.325 645.561 215.325 659.311 Q215.325 665.04 214.179 671.278 Q213.097 677.453 210.869 684.328 L198.774 684.328 Q202.148 677.835 203.867 671.533 Q205.522 665.231 205.522 659.056 Q205.522 650.781 202.721 646.325 Q199.856 641.869 194.7 641.869 Q189.926 641.869 187.379 645.115 Q184.833 648.298 182.478 659.184 L181.523 663.258 Q179.231 674.143 174.521 678.981 Q169.746 683.819 161.471 683.819 Q151.413 683.819 145.939 676.689 Q140.464 669.56 140.464 656.446 Q140.464 649.953 141.419 644.224 Q142.374 638.495 144.284 633.657 Z" fill="#000000" fill-rule="evenodd" fill-opacity="1" /><path clip-path="url(#clip750)" d="M121.94 599.601 L142.183 599.601 L142.183 575.474 L151.286 575.474 L151.286 599.601 L189.989 599.601 Q198.71 599.601 201.193 597.245 Q203.676 594.826 203.676 587.506 L203.676 575.474 L213.479 575.474 L213.479 587.506 Q213.479 601.065 208.45 606.221 Q203.357 611.377 189.989 611.377 L151.286 611.377 L151.286 619.971 L142.183 619.971 L142.183 611.377 L121.94 611.377 L121.94 599.601 Z" fill="#000000" fill-rule="evenodd" fill-opacity="1" /><path clip-path="url(#clip750)" d="M144.284 514.618 L155.36 514.618 Q152.814 519.584 151.54 524.931 Q150.267 530.278 150.267 536.007 Q150.267 544.728 152.941 549.12 Q155.614 553.449 160.962 553.449 Q165.036 553.449 167.391 550.33 Q169.683 547.211 171.783 537.79 L172.675 533.779 Q175.348 521.302 180.25 516.082 Q185.088 510.799 193.809 510.799 Q203.739 510.799 209.532 518.692 Q215.325 526.522 215.325 540.272 Q215.325 546.001 214.179 552.24 Q213.097 558.414 210.869 565.289 L198.774 565.289 Q202.148 558.796 203.867 552.494 Q205.522 546.192 205.522 540.017 Q205.522 531.742 202.721 527.286 Q199.856 522.83 194.7 522.83 Q189.926 522.83 187.379 526.077 Q184.833 529.259 182.478 540.145 L181.523 544.219 Q179.231 555.104 174.521 559.942 Q169.746 564.78 161.471 564.78 Q151.413 564.78 145.939 557.651 Q140.464 550.521 140.464 537.408 Q140.464 530.915 141.419 525.185 Q142.374 519.456 144.284 514.618 Z" fill="#000000" fill-rule="evenodd" fill-opacity="1" /><polyline clip-path="url(#clip752)" style="stroke:#000000; stroke-linecap:round; stroke-linejoin:round; stroke-width:8; stroke-opacity:1; fill:none" points="
  507.281,1007.02 564.536,910.965 621.792,814.909 679.047,718.853 736.303,622.797 793.558,526.741 850.814,430.685 908.069,334.629 965.325,238.572 1022.58,142.516 
  
  "/>
<polyline clip-path="url(#clip752)" style="stroke:#ff0000; stroke-linecap:round; stroke-linejoin:round; stroke-width:8; stroke-opacity:1; fill:none" stroke-dasharray="4, 8" points="
  507.281,1007.02 564.536,958.994 621.792,910.965 679.047,862.937 736.303,814.909 793.558,766.881 850.814,718.853 908.069,670.825 965.325,622.797 1022.58,574.769 
  
  "/>
<circle clip-path="url(#clip752)" cx="450.025" cy="1247.16" r="21.6" fill="#000000" fill-rule="evenodd" fill-opacity="1" stroke="none"/>
<circle clip-path="url(#clip752)" cx="507.281" cy="1007.02" r="21.6" fill="#000000" fill-rule="evenodd" fill-opacity="1" stroke="none"/>
<polyline clip-path="url(#clip752)" style="stroke:#000000; stroke-linecap:round; stroke-linejoin:round; stroke-width:8; stroke-opacity:1; fill:none" stroke-dasharray="32, 20" points="
  450.025,1103.08 455.751,1093.47 461.476,1083.87 467.202,1074.26 472.928,1064.66 478.653,1055.05 484.379,1045.44 490.104,1035.84 495.83,1026.23 501.555,1016.63 
  507.281,1007.02 
  "/>
<path clip-path="url(#clip750)" d="
M1085.38 444.751 L2305.51 444.751 L2305.51 133.711 L1085.38 133.711  Z
  " fill="#ffffff" fill-rule="evenodd" fill-opacity="1"/>
<polyline clip-path="url(#clip750)" style="stroke:#000000; stroke-linecap:round; stroke-linejoin:round; stroke-width:8; stroke-opacity:1; fill:none" points="
  1085.38,444.751 2305.51,444.751 2305.51,133.711 1085.38,133.711 1085.38,444.751 
  "/>
<polyline clip-path="url(#clip750)" style="stroke:#000000; stroke-linecap:round; stroke-linejoin:round; stroke-width:8; stroke-opacity:1; fill:none" points="
  1106.32,237.391 1231.93,237.391 
  "/>
<path clip-path="url(#clip750)" d="M1308.6 208.155 L1308.6 218.016 Q1303.88 213.618 1298.51 211.442 Q1293.18 209.266 1287.17 209.266 Q1275.31 209.266 1269.02 216.535 Q1262.72 223.757 1262.72 237.461 Q1262.72 251.118 1269.02 258.386 Q1275.31 265.609 1287.17 265.609 Q1293.18 265.609 1298.51 263.433 Q1303.88 261.257 1308.6 256.859 L1308.6 266.627 Q1303.69 269.96 1298.18 271.627 Q1292.72 273.294 1286.61 273.294 Q1270.92 273.294 1261.89 263.71 Q1252.86 254.081 1252.86 237.461 Q1252.86 220.794 1261.89 211.211 Q1270.92 201.581 1286.61 201.581 Q1292.81 201.581 1298.28 203.248 Q1303.79 204.868 1308.6 208.155 Z" fill="#000000" fill-rule="evenodd" fill-opacity="1" /><path clip-path="url(#clip750)" d="M1342.77 226.072 Q1335.92 226.072 1331.93 231.442 Q1327.95 236.766 1327.95 246.072 Q1327.95 255.377 1331.89 260.747 Q1335.87 266.072 1342.77 266.072 Q1349.57 266.072 1353.55 260.701 Q1357.54 255.331 1357.54 246.072 Q1357.54 236.859 1353.55 231.488 Q1349.57 226.072 1342.77 226.072 M1342.77 218.85 Q1353.88 218.85 1360.22 226.072 Q1366.56 233.294 1366.56 246.072 Q1366.56 258.803 1360.22 266.072 Q1353.88 273.294 1342.77 273.294 Q1331.61 273.294 1325.27 266.072 Q1318.97 258.803 1318.97 246.072 Q1318.97 233.294 1325.27 226.072 Q1331.61 218.85 1342.77 218.85 Z" fill="#000000" fill-rule="evenodd" fill-opacity="1" /><path clip-path="url(#clip750)" d="M1413.74 221.627 L1413.74 229.683 Q1410.13 227.831 1406.24 226.905 Q1402.35 225.979 1398.18 225.979 Q1391.84 225.979 1388.65 227.924 Q1385.5 229.868 1385.5 233.757 Q1385.5 236.72 1387.77 238.433 Q1390.04 240.099 1396.89 241.627 L1399.8 242.275 Q1408.88 244.22 1412.67 247.785 Q1416.52 251.303 1416.52 257.646 Q1416.52 264.868 1410.78 269.081 Q1405.08 273.294 1395.08 273.294 Q1390.92 273.294 1386.38 272.46 Q1381.89 271.673 1376.89 270.053 L1376.89 261.257 Q1381.61 263.71 1386.19 264.96 Q1390.78 266.164 1395.27 266.164 Q1401.29 266.164 1404.53 264.127 Q1407.77 262.044 1407.77 258.294 Q1407.77 254.822 1405.41 252.97 Q1403.09 251.118 1395.18 249.405 L1392.21 248.711 Q1384.3 247.044 1380.78 243.618 Q1377.26 240.146 1377.26 234.127 Q1377.26 226.812 1382.44 222.831 Q1387.63 218.85 1397.17 218.85 Q1401.89 218.85 1406.05 219.544 Q1410.22 220.238 1413.74 221.627 Z" fill="#000000" fill-rule="evenodd" fill-opacity="1" /><path clip-path="url(#clip750)" d="M1438.51 205.377 L1438.51 220.1 L1456.05 220.1 L1456.05 226.72 L1438.51 226.72 L1438.51 254.868 Q1438.51 261.21 1440.22 263.016 Q1441.98 264.822 1447.3 264.822 L1456.05 264.822 L1456.05 271.951 L1447.3 271.951 Q1437.44 271.951 1433.69 268.294 Q1429.94 264.59 1429.94 254.868 L1429.94 226.72 L1423.69 226.72 L1423.69 220.1 L1429.94 220.1 L1429.94 205.377 L1438.51 205.377 Z" fill="#000000" fill-rule="evenodd" fill-opacity="1" /><path clip-path="url(#clip750)" d="M1517.86 200.007 Q1511.66 210.655 1508.65 221.072 Q1505.64 231.488 1505.64 242.183 Q1505.64 252.877 1508.65 263.386 Q1511.7 273.849 1517.86 284.451 L1510.45 284.451 Q1503.51 273.571 1500.04 263.062 Q1496.61 252.553 1496.61 242.183 Q1496.61 231.859 1500.04 221.396 Q1503.46 210.933 1510.45 200.007 L1517.86 200.007 Z" fill="#000000" fill-rule="evenodd" fill-opacity="1" /><path clip-path="url(#clip750)" d="M1557.49 285.886 L1552.86 285.886 L1552.81 271.951 Q1547.95 271.859 1543.09 270.84 Q1538.23 269.775 1533.32 267.692 L1533.32 259.359 Q1538.04 262.322 1542.86 263.849 Q1547.72 265.331 1552.86 265.377 L1552.86 244.266 Q1542.63 242.599 1537.95 238.618 Q1533.32 234.637 1533.32 227.692 Q1533.32 220.146 1538.37 215.794 Q1543.41 211.442 1552.86 210.794 L1552.86 199.914 L1557.49 199.914 L1557.49 210.655 Q1561.79 210.84 1565.82 211.581 Q1569.85 212.276 1573.69 213.526 L1573.69 221.627 Q1569.85 219.683 1565.78 218.618 Q1561.75 217.553 1557.49 217.368 L1557.49 237.136 Q1568 238.757 1572.95 242.923 Q1577.91 247.09 1577.91 254.312 Q1577.91 262.136 1572.63 266.673 Q1567.4 271.164 1557.49 271.859 L1557.49 285.886 M1552.86 236.303 L1552.86 217.322 Q1547.49 217.924 1544.66 220.377 Q1541.84 222.831 1541.84 226.905 Q1541.84 230.887 1544.43 233.109 Q1547.07 235.331 1552.86 236.303 M1557.49 245.192 L1557.49 265.238 Q1563.37 264.451 1566.33 261.905 Q1569.34 259.359 1569.34 255.192 Q1569.34 251.118 1566.47 248.711 Q1563.65 246.303 1557.49 245.192 Z" fill="#000000" fill-rule="evenodd" fill-opacity="1" /><path clip-path="url(#clip750)" d="M1593.37 200.007 L1600.78 200.007 Q1607.72 210.933 1611.15 221.396 Q1614.62 231.859 1614.62 242.183 Q1614.62 252.553 1611.15 263.062 Q1607.72 273.571 1600.78 284.451 L1593.37 284.451 Q1599.53 273.849 1602.54 263.386 Q1605.59 252.877 1605.59 242.183 Q1605.59 231.488 1602.54 221.072 Q1599.53 210.655 1593.37 200.007 Z" fill="#000000" fill-rule="evenodd" fill-opacity="1" /><polyline clip-path="url(#clip750)" style="stroke:#ff0000; stroke-linecap:round; stroke-linejoin:round; stroke-width:8; stroke-opacity:1; fill:none" stroke-dasharray="4, 8" points="
  1106.32,341.071 1231.93,341.071 
  "/>
<path clip-path="url(#clip750)" d="M1284.53 315.724 L1271.84 350.122 L1297.26 350.122 L1284.53 315.724 M1279.25 306.511 L1289.85 306.511 L1316.19 375.631 L1306.47 375.631 L1300.18 357.9 L1269.02 357.9 L1262.72 375.631 L1252.86 375.631 L1279.25 306.511 Z" fill="#000000" fill-rule="evenodd" fill-opacity="1" /><path clip-path="url(#clip750)" d="M1314.25 323.78 L1323.28 323.78 L1339.48 367.298 L1355.68 323.78 L1364.71 323.78 L1345.27 375.631 L1333.69 375.631 L1314.25 323.78 Z" fill="#000000" fill-rule="evenodd" fill-opacity="1" /><path clip-path="url(#clip750)" d="M1420.82 347.576 L1420.82 351.742 L1381.66 351.742 Q1382.21 360.539 1386.93 365.168 Q1391.7 369.752 1400.18 369.752 Q1405.08 369.752 1409.67 368.548 Q1414.3 367.344 1418.83 364.937 L1418.83 372.992 Q1414.25 374.937 1409.43 375.955 Q1404.62 376.974 1399.67 376.974 Q1387.26 376.974 1379.99 369.752 Q1372.77 362.529 1372.77 350.215 Q1372.77 337.483 1379.62 330.03 Q1386.52 322.53 1398.18 322.53 Q1408.65 322.53 1414.71 329.289 Q1420.82 336.002 1420.82 347.576 M1412.3 345.076 Q1412.21 338.085 1408.37 333.918 Q1404.57 329.752 1398.28 329.752 Q1391.15 329.752 1386.84 333.779 Q1382.58 337.807 1381.93 345.122 L1412.3 345.076 Z" fill="#000000" fill-rule="evenodd" fill-opacity="1" /><path clip-path="url(#clip750)" d="M1464.85 331.742 Q1463.42 330.909 1461.7 330.539 Q1460.04 330.122 1458 330.122 Q1450.78 330.122 1446.89 334.844 Q1443.05 339.52 1443.05 348.316 L1443.05 375.631 L1434.48 375.631 L1434.48 323.78 L1443.05 323.78 L1443.05 331.835 Q1445.73 327.113 1450.04 324.844 Q1454.34 322.53 1460.5 322.53 Q1461.38 322.53 1462.44 322.668 Q1463.51 322.761 1464.8 322.993 L1464.85 331.742 Z" fill="#000000" fill-rule="evenodd" fill-opacity="1" /><path clip-path="url(#clip750)" d="M1497.35 349.566 Q1487.03 349.566 1483.04 351.928 Q1479.06 354.289 1479.06 359.983 Q1479.06 364.52 1482.03 367.205 Q1485.04 369.844 1490.17 369.844 Q1497.26 369.844 1501.52 364.844 Q1505.82 359.798 1505.82 351.465 L1505.82 349.566 L1497.35 349.566 M1514.34 346.048 L1514.34 375.631 L1505.82 375.631 L1505.82 367.761 Q1502.91 372.483 1498.55 374.751 Q1494.2 376.974 1487.91 376.974 Q1479.94 376.974 1475.22 372.529 Q1470.55 368.039 1470.55 360.539 Q1470.55 351.789 1476.38 347.344 Q1482.26 342.9 1493.88 342.9 L1505.82 342.9 L1505.82 342.066 Q1505.82 336.187 1501.93 332.992 Q1498.09 329.752 1491.1 329.752 Q1486.66 329.752 1482.44 330.817 Q1478.23 331.881 1474.34 334.011 L1474.34 326.141 Q1479.02 324.335 1483.42 323.455 Q1487.81 322.53 1491.98 322.53 Q1503.23 322.53 1508.79 328.363 Q1514.34 334.196 1514.34 346.048 Z" fill="#000000" fill-rule="evenodd" fill-opacity="1" /><path clip-path="url(#clip750)" d="M1566.01 349.103 Q1566.01 339.844 1562.16 334.752 Q1558.37 329.659 1551.47 329.659 Q1544.62 329.659 1540.78 334.752 Q1536.98 339.844 1536.98 349.103 Q1536.98 358.316 1540.78 363.409 Q1544.62 368.502 1551.47 368.502 Q1558.37 368.502 1562.16 363.409 Q1566.01 358.316 1566.01 349.103 M1574.53 369.196 Q1574.53 382.437 1568.65 388.872 Q1562.77 395.353 1550.64 395.353 Q1546.15 395.353 1542.16 394.659 Q1538.18 394.011 1534.43 392.622 L1534.43 384.335 Q1538.18 386.372 1541.84 387.344 Q1545.5 388.316 1549.29 388.316 Q1557.67 388.316 1561.84 383.918 Q1566.01 379.566 1566.01 370.724 L1566.01 366.511 Q1563.37 371.094 1559.25 373.363 Q1555.13 375.631 1549.39 375.631 Q1539.85 375.631 1534.02 368.363 Q1528.18 361.094 1528.18 349.103 Q1528.18 337.067 1534.02 329.798 Q1539.85 322.53 1549.39 322.53 Q1555.13 322.53 1559.25 324.798 Q1563.37 327.067 1566.01 331.65 L1566.01 323.78 L1574.53 323.78 L1574.53 369.196 Z" fill="#000000" fill-rule="evenodd" fill-opacity="1" /><path clip-path="url(#clip750)" d="M1636.42 347.576 L1636.42 351.742 L1597.26 351.742 Q1597.81 360.539 1602.54 365.168 Q1607.3 369.752 1615.78 369.752 Q1620.68 369.752 1625.27 368.548 Q1629.9 367.344 1634.43 364.937 L1634.43 372.992 Q1629.85 374.937 1625.03 375.955 Q1620.22 376.974 1615.27 376.974 Q1602.86 376.974 1595.59 369.752 Q1588.37 362.529 1588.37 350.215 Q1588.37 337.483 1595.22 330.03 Q1602.12 322.53 1613.78 322.53 Q1624.25 322.53 1630.31 329.289 Q1636.42 336.002 1636.42 347.576 M1627.91 345.076 Q1627.81 338.085 1623.97 333.918 Q1620.17 329.752 1613.88 329.752 Q1606.75 329.752 1602.44 333.779 Q1598.18 337.807 1597.54 345.122 L1627.91 345.076 Z" fill="#000000" fill-rule="evenodd" fill-opacity="1" /><path clip-path="url(#clip750)" d="M1732.67 311.835 L1732.67 321.696 Q1727.95 317.298 1722.58 315.122 Q1717.26 312.946 1711.24 312.946 Q1699.39 312.946 1693.09 320.215 Q1686.79 327.437 1686.79 341.141 Q1686.79 354.798 1693.09 362.066 Q1699.39 369.289 1711.24 369.289 Q1717.26 369.289 1722.58 367.113 Q1727.95 364.937 1732.67 360.539 L1732.67 370.307 Q1727.77 373.64 1722.26 375.307 Q1716.79 376.974 1710.68 376.974 Q1694.99 376.974 1685.96 367.39 Q1676.93 357.761 1676.93 341.141 Q1676.93 324.474 1685.96 314.891 Q1694.99 305.261 1710.68 305.261 Q1716.89 305.261 1722.35 306.928 Q1727.86 308.548 1732.67 311.835 Z" fill="#000000" fill-rule="evenodd" fill-opacity="1" /><path clip-path="url(#clip750)" d="M1766.84 329.752 Q1759.99 329.752 1756.01 335.122 Q1752.02 340.446 1752.02 349.752 Q1752.02 359.057 1755.96 364.427 Q1759.94 369.752 1766.84 369.752 Q1773.65 369.752 1777.63 364.381 Q1781.61 359.011 1781.61 349.752 Q1781.61 340.539 1777.63 335.168 Q1773.65 329.752 1766.84 329.752 M1766.84 322.53 Q1777.95 322.53 1784.29 329.752 Q1790.64 336.974 1790.64 349.752 Q1790.64 362.483 1784.29 369.752 Q1777.95 376.974 1766.84 376.974 Q1755.68 376.974 1749.34 369.752 Q1743.04 362.483 1743.04 349.752 Q1743.04 336.974 1749.34 329.752 Q1755.68 322.53 1766.84 322.53 Z" fill="#000000" fill-rule="evenodd" fill-opacity="1" /><path clip-path="url(#clip750)" d="M1837.81 325.307 L1837.81 333.363 Q1834.2 331.511 1830.31 330.585 Q1826.42 329.659 1822.26 329.659 Q1815.91 329.659 1812.72 331.604 Q1809.57 333.548 1809.57 337.437 Q1809.57 340.4 1811.84 342.113 Q1814.11 343.779 1820.96 345.307 L1823.88 345.955 Q1832.95 347.9 1836.75 351.465 Q1840.59 354.983 1840.59 361.326 Q1840.59 368.548 1834.85 372.761 Q1829.15 376.974 1819.15 376.974 Q1814.99 376.974 1810.45 376.14 Q1805.96 375.353 1800.96 373.733 L1800.96 364.937 Q1805.68 367.39 1810.27 368.64 Q1814.85 369.844 1819.34 369.844 Q1825.36 369.844 1828.6 367.807 Q1831.84 365.724 1831.84 361.974 Q1831.84 358.502 1829.48 356.65 Q1827.16 354.798 1819.25 353.085 L1816.28 352.391 Q1808.37 350.724 1804.85 347.298 Q1801.33 343.826 1801.33 337.807 Q1801.33 330.492 1806.52 326.511 Q1811.7 322.53 1821.24 322.53 Q1825.96 322.53 1830.13 323.224 Q1834.29 323.918 1837.81 325.307 Z" fill="#000000" fill-rule="evenodd" fill-opacity="1" /><path clip-path="url(#clip750)" d="M1862.58 309.057 L1862.58 323.78 L1880.13 323.78 L1880.13 330.4 L1862.58 330.4 L1862.58 358.548 Q1862.58 364.89 1864.29 366.696 Q1866.05 368.502 1871.38 368.502 L1880.13 368.502 L1880.13 375.631 L1871.38 375.631 Q1861.52 375.631 1857.77 371.974 Q1854.02 368.27 1854.02 358.548 L1854.02 330.4 L1847.77 330.4 L1847.77 323.78 L1854.02 323.78 L1854.02 309.057 L1862.58 309.057 Z" fill="#000000" fill-rule="evenodd" fill-opacity="1" /><path clip-path="url(#clip750)" d="M1941.93 303.687 Q1935.73 314.335 1932.72 324.752 Q1929.71 335.168 1929.71 345.863 Q1929.71 356.557 1932.72 367.066 Q1935.77 377.529 1941.93 388.131 L1934.52 388.131 Q1927.58 377.251 1924.11 366.742 Q1920.68 356.233 1920.68 345.863 Q1920.68 335.539 1924.11 325.076 Q1927.53 314.613 1934.52 303.687 L1941.93 303.687 Z" fill="#000000" fill-rule="evenodd" fill-opacity="1" /><path clip-path="url(#clip750)" d="M1981.56 389.566 L1976.93 389.566 L1976.88 375.631 Q1972.02 375.539 1967.16 374.52 Q1962.3 373.455 1957.39 371.372 L1957.39 363.039 Q1962.12 366.002 1966.93 367.529 Q1971.79 369.011 1976.93 369.057 L1976.93 347.946 Q1966.7 346.279 1962.02 342.298 Q1957.39 338.317 1957.39 331.372 Q1957.39 323.826 1962.44 319.474 Q1967.49 315.122 1976.93 314.474 L1976.93 303.594 L1981.56 303.594 L1981.56 314.335 Q1985.87 314.52 1989.89 315.261 Q1993.92 315.956 1997.76 317.206 L1997.76 325.307 Q1993.92 323.363 1989.85 322.298 Q1985.82 321.233 1981.56 321.048 L1981.56 340.816 Q1992.07 342.437 1997.02 346.603 Q2001.98 350.77 2001.98 357.992 Q2001.98 365.816 1996.7 370.353 Q1991.47 374.844 1981.56 375.539 L1981.56 389.566 M1976.93 339.983 L1976.93 321.002 Q1971.56 321.604 1968.74 324.057 Q1965.91 326.511 1965.91 330.585 Q1965.91 334.567 1968.51 336.789 Q1971.14 339.011 1976.93 339.983 M1981.56 348.872 L1981.56 368.918 Q1987.44 368.131 1990.4 365.585 Q1993.41 363.039 1993.41 358.872 Q1993.41 354.798 1990.54 352.391 Q1987.72 349.983 1981.56 348.872 Z" fill="#000000" fill-rule="evenodd" fill-opacity="1" /><path clip-path="url(#clip750)" d="M2033.92 306.511 L2041.79 306.511 L2017.72 384.427 L2009.85 384.427 L2033.92 306.511 Z" fill="#000000" fill-rule="evenodd" fill-opacity="1" /><path clip-path="url(#clip750)" d="M2050.03 306.511 L2059.43 306.511 L2059.43 348.502 Q2059.43 359.613 2063.46 364.52 Q2067.49 369.381 2076.51 369.381 Q2085.5 369.381 2089.52 364.52 Q2093.55 359.613 2093.55 348.502 L2093.55 306.511 L2102.95 306.511 L2102.95 349.659 Q2102.95 363.177 2096.24 370.076 Q2089.57 376.974 2076.51 376.974 Q2063.41 376.974 2056.7 370.076 Q2050.03 363.177 2050.03 349.659 L2050.03 306.511 Z" fill="#000000" fill-rule="evenodd" fill-opacity="1" /><path clip-path="url(#clip750)" d="M2163.23 344.335 L2163.23 375.631 L2154.71 375.631 L2154.71 344.613 Q2154.71 337.252 2151.84 333.594 Q2148.97 329.937 2143.23 329.937 Q2136.33 329.937 2132.35 334.335 Q2128.37 338.733 2128.37 346.326 L2128.37 375.631 L2119.8 375.631 L2119.8 323.78 L2128.37 323.78 L2128.37 331.835 Q2131.42 327.159 2135.54 324.844 Q2139.71 322.53 2145.12 322.53 Q2154.06 322.53 2158.64 328.085 Q2163.23 333.594 2163.23 344.335 Z" fill="#000000" fill-rule="evenodd" fill-opacity="1" /><path clip-path="url(#clip750)" d="M2180.22 323.78 L2188.74 323.78 L2188.74 375.631 L2180.22 375.631 L2180.22 323.78 M2180.22 303.594 L2188.74 303.594 L2188.74 314.381 L2180.22 314.381 L2180.22 303.594 Z" fill="#000000" fill-rule="evenodd" fill-opacity="1" /><path clip-path="url(#clip750)" d="M2214.99 309.057 L2214.99 323.78 L2232.53 323.78 L2232.53 330.4 L2214.99 330.4 L2214.99 358.548 Q2214.99 364.89 2216.7 366.696 Q2218.46 368.502 2223.78 368.502 L2232.53 368.502 L2232.53 375.631 L2223.78 375.631 Q2213.92 375.631 2210.17 371.974 Q2206.42 368.27 2206.42 358.548 L2206.42 330.4 L2200.17 330.4 L2200.17 323.78 L2206.42 323.78 L2206.42 309.057 L2214.99 309.057 Z" fill="#000000" fill-rule="evenodd" fill-opacity="1" /><path clip-path="url(#clip750)" d="M2242.39 303.687 L2249.8 303.687 Q2256.74 314.613 2260.17 325.076 Q2263.64 335.539 2263.64 345.863 Q2263.64 356.233 2260.17 366.742 Q2256.74 377.251 2249.8 388.131 L2242.39 388.131 Q2248.55 377.529 2251.56 367.066 Q2254.61 356.557 2254.61 345.863 Q2254.61 335.168 2251.56 324.752 Q2248.55 314.335 2242.39 303.687 Z" fill="#000000" fill-rule="evenodd" fill-opacity="1" /></svg>
