<?xml version="1.0" encoding="utf-8"?>
<svg xmlns="http://www.w3.org/2000/svg" xmlns:xlink="http://www.w3.org/1999/xlink" width="500" height="450" viewBox="0 0 2000 1800">
<defs>
  <clipPath id="clip840">
    <rect x="0" y="0" width="2000" height="1800"/>
  </clipPath>
</defs>
<path clip-path="url(#clip840)" d="
M0 1800 L2000 1800 L2000 0 L0 0  Z
  " fill="#ffffff" fill-rule="evenodd" fill-opacity="1"/>
<defs>
  <clipPath id="clip841">
    <rect x="400" y="0" width="1401" height="1401"/>
  </clipPath>
</defs>
<defs>
  <clipPath id="clip842">
    <rect x="299" y="0" width="1402" height="1752"/>
  </clipPath>
</defs>
<path clip-path="url(#clip840)" d="
M245.334 1352.26 L1754.67 1352.26 L1754.67 94.4882 L245.334 94.4882  Z
  " fill="#ffffff" fill-rule="evenodd" fill-opacity="1"/>
<defs>
  <clipPath id="clip843">
    <rect x="245" y="94" width="1510" height="1259"/>
  </clipPath>
</defs>
<polyline clip-path="url(#clip843)" style="stroke:#000000; stroke-linecap:round; stroke-linejoin:round; stroke-width:6; stroke-opacity:0.3; fill:none" points="
  496.89,1352.26 496.89,94.4882 
  "/>
<polyline clip-path="url(#clip843)" style="stroke:#000000; stroke-linecap:round; stroke-linejoin:round; stroke-width:6; stroke-opacity:0.3; fill:none" points="
  748.445,1352.26 748.445,94.4882 
  "/>
<polyline clip-path="url(#clip843)" style="stroke:#000000; stroke-linecap:round; stroke-linejoin:round; stroke-width:6; stroke-opacity:0.3; fill:none" points="
  1000,1352.26 1000,94.4882 
  "/>
<polyline clip-path="url(#clip843)" style="stroke:#000000; stroke-linecap:round; stroke-linejoin:round; stroke-width:6; stroke-opacity:0.3; fill:none" points="
  1251.56,1352.26 1251.56,94.4882 
  "/>
<polyline clip-path="url(#clip843)" style="stroke:#000000; stroke-linecap:round; stroke-linejoin:round; stroke-width:6; stroke-opacity:0.3; fill:none" points="
  1503.11,1352.26 1503.11,94.4882 
  "/>
<polyline clip-path="url(#clip843)" style="stroke:#000000; stroke-linecap:round; stroke-linejoin:round; stroke-width:6; stroke-opacity:0.3; fill:none" points="
  1754.67,1352.26 1754.67,94.4882 
  "/>
<polyline clip-path="url(#clip840)" style="stroke:#000000; stroke-linecap:round; stroke-linejoin:round; stroke-width:8; stroke-opacity:1; fill:none" points="
  245.334,1352.26 1754.67,1352.26 
  "/>
<polyline clip-path="url(#clip840)" style="stroke:#000000; stroke-linecap:round; stroke-linejoin:round; stroke-width:8; stroke-opacity:1; fill:none" points="
  496.89,1371.16 496.89,1333.37 
  "/>
<polyline clip-path="url(#clip840)" style="stroke:#000000; stroke-linecap:round; stroke-linejoin:round; stroke-width:8; stroke-opacity:1; fill:none" points="
  748.445,1371.16 748.445,1333.37 
  "/>
<polyline clip-path="url(#clip840)" style="stroke:#000000; stroke-linecap:round; stroke-linejoin:round; stroke-width:8; stroke-opacity:1; fill:none" points="
  1000,1371.16 1000,1333.37 
  "/>
<polyline clip-path="url(#clip840)" style="stroke:#000000; stroke-linecap:round; stroke-linejoin:round; stroke-width:8; stroke-opacity:1; fill:none" points="
  1251.56,1371.16 1251.56,1333.37 
  "/>
<polyline clip-path="url(#clip840)" style="stroke:#000000; stroke-linecap:round; stroke-linejoin:round; stroke-width:8; stroke-opacity:1; fill:none" points="
  1503.11,1371.16 1503.11,1333.37 
  "/>
<polyline clip-path="url(#clip840)" style="stroke:#000000; stroke-linecap:round; stroke-linejoin:round; stroke-width:8; stroke-opacity:1; fill:none" points="
  1754.67,1371.16 1754.67,1333.37 
  "/>
<polyline clip-path="url(#clip840)" style="stroke:#000000; stroke-linecap:round; stroke-linejoin:round; stroke-width:8; stroke-opacity:1; fill:none" points="
  371.112,1361.71 371.112,1342.82 
  "/>
<polyline clip-path="url(#clip840)" style="stroke:#000000; stroke-linecap:round; stroke-linejoin:round; stroke-width:8; stroke-opacity:1; fill:none" points="
  622.667,1361.71 622.667,1342.82 
  "/>
<polyline clip-path="url(#clip840)" style="stroke:#000000; stroke-linecap:round; stroke-linejoin:round; stroke-width:8; stroke-opacity:1; fill:none" points="
  874.222,1361.71 874.222,1342.82 
  "/>
<polyline clip-path="url(#clip840)" style="stroke:#000000; stroke-linecap:round; stroke-linejoin:round; stroke-width:8; stroke-opacity:1; fill:none" points="
  1125.78,1361.71 1125.78,1342.82 
  "/>
<polyline clip-path="url(#clip840)" style="stroke:#000000; stroke-linecap:round; stroke-linejoin:round; stroke-width:8; stroke-opacity:1; fill:none" points="
  1377.33,1361.71 1377.33,1342.82 
  "/>
<polyline clip-path="url(#clip840)" style="stroke:#000000; stroke-linecap:round; stroke-linejoin:round; stroke-width:8; stroke-opacity:1; fill:none" points="
  1628.89,1361.71 1628.89,1342.82 
  "/>
<path clip-path="url(#clip840)" d="M477.654 1446.79 L492.931 1446.79 L492.931 1394.06 L476.311 1397.4 L476.311 1388.88 L492.839 1385.54 L502.191 1385.54 L502.191 1446.79 L517.468 1446.79 L517.468 1454.66 L477.654 1454.66 L477.654 1446.79 Z" fill="#000000" fill-rule="evenodd" fill-opacity="1" /><path clip-path="url(#clip840)" d="M737.75 1446.79 L770.389 1446.79 L770.389 1454.66 L726.5 1454.66 L726.5 1446.79 Q731.825 1441.28 740.991 1432.03 Q750.204 1422.72 752.565 1420.03 Q757.056 1414.99 758.815 1411.52 Q760.621 1408 760.621 1404.62 Q760.621 1399.11 756.732 1395.64 Q752.889 1392.16 746.686 1392.16 Q742.287 1392.16 737.38 1393.69 Q732.519 1395.22 726.963 1398.32 L726.963 1388.88 Q732.612 1386.61 737.519 1385.45 Q742.426 1384.29 746.5 1384.29 Q757.241 1384.29 763.63 1389.66 Q770.019 1395.03 770.019 1404.02 Q770.019 1408.28 768.398 1412.12 Q766.824 1415.91 762.611 1421.1 Q761.454 1422.44 755.25 1428.88 Q749.047 1435.27 737.75 1446.79 Z" fill="#000000" fill-rule="evenodd" fill-opacity="1" /><path clip-path="url(#clip840)" d="M1008.5 1417.4 Q1015.21 1418.83 1018.96 1423.37 Q1022.75 1427.9 1022.75 1434.57 Q1022.75 1444.8 1015.72 1450.4 Q1008.68 1456.01 995.718 1456.01 Q991.366 1456.01 986.736 1455.13 Q982.153 1454.29 977.245 1452.58 L977.245 1443.55 Q981.134 1445.82 985.764 1446.98 Q990.394 1448.14 995.44 1448.14 Q1004.24 1448.14 1008.82 1444.66 Q1013.45 1441.19 1013.45 1434.57 Q1013.45 1428.46 1009.14 1425.03 Q1004.88 1421.56 997.245 1421.56 L989.19 1421.56 L989.19 1413.88 L997.616 1413.88 Q1004.51 1413.88 1008.17 1411.15 Q1011.83 1408.37 1011.83 1403.18 Q1011.83 1397.86 1008.03 1395.03 Q1004.28 1392.16 997.245 1392.16 Q993.403 1392.16 989.005 1393 Q984.607 1393.83 979.329 1395.59 L979.329 1387.26 Q984.653 1385.78 989.282 1385.03 Q993.958 1384.29 998.079 1384.29 Q1008.73 1384.29 1014.93 1389.16 Q1021.13 1393.97 1021.13 1402.21 Q1021.13 1407.95 1017.85 1411.93 Q1014.56 1415.87 1008.5 1417.4 Z" fill="#000000" fill-rule="evenodd" fill-opacity="1" /><path clip-path="url(#clip840)" d="M1257.57 1393.69 L1233.96 1430.59 L1257.57 1430.59 L1257.57 1393.69 M1255.12 1385.54 L1266.88 1385.54 L1266.88 1430.59 L1276.74 1430.59 L1276.74 1438.37 L1266.88 1438.37 L1266.88 1454.66 L1257.57 1454.66 L1257.57 1438.37 L1226.37 1438.37 L1226.37 1429.34 L1255.12 1385.54 Z" fill="#000000" fill-rule="evenodd" fill-opacity="1" /><path clip-path="url(#clip840)" d="M1483.67 1385.54 L1520.38 1385.54 L1520.38 1393.41 L1492.23 1393.41 L1492.23 1410.36 Q1494.27 1409.66 1496.3 1409.34 Q1498.34 1408.97 1500.38 1408.97 Q1511.95 1408.97 1518.71 1415.31 Q1525.47 1421.65 1525.47 1432.49 Q1525.47 1443.65 1518.53 1449.85 Q1511.58 1456.01 1498.94 1456.01 Q1494.59 1456.01 1490.05 1455.27 Q1485.56 1454.53 1480.75 1453.04 L1480.75 1443.65 Q1484.92 1445.91 1489.36 1447.03 Q1493.8 1448.14 1498.76 1448.14 Q1506.77 1448.14 1511.44 1443.92 Q1516.12 1439.71 1516.12 1432.49 Q1516.12 1425.27 1511.44 1421.05 Q1506.77 1416.84 1498.76 1416.84 Q1495.01 1416.84 1491.26 1417.67 Q1487.55 1418.51 1483.67 1420.27 L1483.67 1385.54 Z" fill="#000000" fill-rule="evenodd" fill-opacity="1" /><path clip-path="url(#clip840)" d="M1755.48 1416.38 Q1749.18 1416.38 1745.48 1420.68 Q1741.82 1424.99 1741.82 1432.49 Q1741.82 1439.94 1745.48 1444.29 Q1749.18 1448.6 1755.48 1448.6 Q1761.77 1448.6 1765.43 1444.29 Q1769.13 1439.94 1769.13 1432.49 Q1769.13 1424.99 1765.43 1420.68 Q1761.77 1416.38 1755.48 1416.38 M1774.04 1387.07 L1774.04 1395.59 Q1770.52 1393.92 1766.91 1393.04 Q1763.35 1392.16 1759.83 1392.16 Q1750.57 1392.16 1745.66 1398.41 Q1740.8 1404.66 1740.11 1417.3 Q1742.84 1413.28 1746.96 1411.15 Q1751.08 1408.97 1756.03 1408.97 Q1766.45 1408.97 1772.47 1415.31 Q1778.53 1421.61 1778.53 1432.49 Q1778.53 1443.14 1772.23 1449.57 Q1765.94 1456.01 1755.48 1456.01 Q1743.49 1456.01 1737.14 1446.84 Q1730.8 1437.63 1730.8 1420.17 Q1730.8 1403.78 1738.58 1394.06 Q1746.36 1384.29 1759.46 1384.29 Q1762.98 1384.29 1766.54 1384.99 Q1770.15 1385.68 1774.04 1387.07 Z" fill="#000000" fill-rule="evenodd" fill-opacity="1" /><path clip-path="url(#clip840)" d="M1003.99 1503.23 Q1003.99 1506.84 1001.74 1508.9 Q999.485 1510.89 996.908 1510.89 Q994.461 1510.89 993.172 1509.48 Q991.884 1508.06 991.884 1506.26 Q991.884 1503.81 993.688 1501.68 Q995.491 1499.56 998.197 1499.11 Q995.556 1497.43 991.627 1497.43 Q989.05 1497.43 986.796 1498.78 Q984.606 1500.14 983.253 1501.88 Q981.965 1503.62 980.805 1506.13 Q979.71 1508.57 979.26 1510.06 Q978.873 1511.47 978.551 1513.02 L974.042 1531.05 Q971.852 1539.62 971.852 1542.65 Q971.852 1546.38 973.656 1548.9 Q975.459 1551.34 979.066 1551.34 Q980.483 1551.34 982.094 1550.96 Q983.704 1550.51 985.765 1549.35 Q987.891 1548.12 989.759 1546.32 Q991.691 1544.45 993.559 1541.3 Q995.427 1538.14 996.651 1534.08 Q997.037 1532.66 998.325 1532.66 Q999.936 1532.66 999.936 1533.95 Q999.936 1535.05 999.034 1537.37 Q998.197 1539.62 996.329 1542.58 Q994.525 1545.48 992.142 1548.12 Q989.759 1550.7 986.216 1552.5 Q982.673 1554.31 978.809 1554.31 Q973.269 1554.31 969.598 1551.34 Q965.926 1548.38 964.574 1544.26 Q964.252 1544.84 963.801 1545.61 Q963.35 1546.38 961.997 1548.12 Q960.709 1549.8 959.228 1551.09 Q957.746 1552.31 955.427 1553.28 Q953.173 1554.31 950.725 1554.31 Q947.633 1554.31 944.864 1553.41 Q942.158 1552.5 940.226 1550.44 Q938.294 1548.38 938.294 1545.55 Q938.294 1542.39 940.419 1540.2 Q942.609 1537.95 945.572 1537.95 Q947.44 1537.95 948.922 1539.04 Q950.468 1540.14 950.468 1542.52 Q950.468 1545.16 948.664 1547.16 Q946.86 1549.15 944.284 1549.67 Q946.925 1551.34 950.854 1551.34 Q955.105 1551.34 958.455 1547.61 Q961.804 1543.87 963.414 1537.62 Q967.408 1522.62 968.954 1515.92 Q970.5 1509.15 970.5 1506.26 Q970.5 1503.55 969.791 1501.68 Q969.083 1499.81 967.859 1498.98 Q966.699 1498.08 965.604 1497.75 Q964.574 1497.43 963.414 1497.43 Q961.482 1497.43 959.292 1498.2 Q957.166 1498.98 954.59 1500.78 Q952.078 1502.52 949.695 1506.13 Q947.311 1509.73 945.701 1514.69 Q945.379 1516.18 943.962 1516.18 Q942.416 1516.11 942.416 1514.82 Q942.416 1513.73 943.253 1511.47 Q944.155 1509.15 945.959 1506.26 Q947.827 1503.36 950.21 1500.78 Q952.658 1498.14 956.2 1496.34 Q959.807 1494.53 963.672 1494.53 Q965.411 1494.53 967.086 1494.92 Q968.825 1495.24 970.886 1496.21 Q973.012 1497.17 974.88 1499.3 Q976.747 1501.43 977.907 1504.52 Q978.68 1503.04 979.71 1501.62 Q980.805 1500.2 982.48 1498.46 Q984.219 1496.66 986.602 1495.63 Q989.05 1494.53 991.755 1494.53 Q994.396 1494.53 996.973 1495.24 Q999.549 1495.89 1001.74 1498.01 Q1003.99 1500.07 1003.99 1503.23 Z" fill="#000000" fill-rule="evenodd" fill-opacity="1" /><path clip-path="url(#clip840)" d="M1017.44 1538.14 L1017.44 1535.25 Q1028.53 1535.25 1034.26 1529.34 Q1035.83 1529.34 1036.11 1529.71 Q1036.38 1530.07 1036.38 1531.73 L1036.38 1583.54 Q1036.38 1586.29 1037.73 1587.15 Q1039.08 1588 1044.99 1588 L1047.92 1588 L1047.92 1590.84 Q1044.67 1590.57 1032.95 1590.57 Q1021.23 1590.57 1018.02 1590.84 L1018.02 1588 L1020.96 1588 Q1026.77 1588 1028.17 1587.19 Q1029.57 1586.34 1029.57 1583.54 L1029.57 1535.7 Q1024.74 1538.14 1017.44 1538.14 Z" fill="#000000" fill-rule="evenodd" fill-opacity="1" /><polyline clip-path="url(#clip843)" style="stroke:#000000; stroke-linecap:round; stroke-linejoin:round; stroke-width:6; stroke-opacity:0.3; fill:none" points="
  245.334,1100.71 1754.67,1100.71 
  "/>
<polyline clip-path="url(#clip843)" style="stroke:#000000; stroke-linecap:round; stroke-linejoin:round; stroke-width:6; stroke-opacity:0.3; fill:none" points="
  245.334,849.154 1754.67,849.154 
  "/>
<polyline clip-path="url(#clip843)" style="stroke:#000000; stroke-linecap:round; stroke-linejoin:round; stroke-width:6; stroke-opacity:0.3; fill:none" points="
  245.334,597.599 1754.67,597.599 
  "/>
<polyline clip-path="url(#clip843)" style="stroke:#000000; stroke-linecap:round; stroke-linejoin:round; stroke-width:6; stroke-opacity:0.3; fill:none" points="
  245.334,346.043 1754.67,346.043 
  "/>
<polyline clip-path="url(#clip843)" style="stroke:#000000; stroke-linecap:round; stroke-linejoin:round; stroke-width:6; stroke-opacity:0.3; fill:none" points="
  245.334,94.4882 1754.67,94.4882 
  "/>
<polyline clip-path="url(#clip840)" style="stroke:#000000; stroke-linecap:round; stroke-linejoin:round; stroke-width:8; stroke-opacity:1; fill:none" points="
  245.334,1352.26 245.334,94.4882 
  "/>
<polyline clip-path="url(#clip840)" style="stroke:#000000; stroke-linecap:round; stroke-linejoin:round; stroke-width:8; stroke-opacity:1; fill:none" points="
  231.073,1100.71 259.596,1100.71 
  "/>
<polyline clip-path="url(#clip840)" style="stroke:#000000; stroke-linecap:round; stroke-linejoin:round; stroke-width:8; stroke-opacity:1; fill:none" points="
  231.073,849.154 259.596,849.154 
  "/>
<polyline clip-path="url(#clip840)" style="stroke:#000000; stroke-linecap:round; stroke-linejoin:round; stroke-width:8; stroke-opacity:1; fill:none" points="
  231.073,597.599 259.596,597.599 
  "/>
<polyline clip-path="url(#clip840)" style="stroke:#000000; stroke-linecap:round; stroke-linejoin:round; stroke-width:8; stroke-opacity:1; fill:none" points="
  231.073,346.043 259.596,346.043 
  "/>
<polyline clip-path="url(#clip840)" style="stroke:#000000; stroke-linecap:round; stroke-linejoin:round; stroke-width:8; stroke-opacity:1; fill:none" points="
  231.073,94.4882 259.596,94.4882 
  "/>
<polyline clip-path="url(#clip840)" style="stroke:#000000; stroke-linecap:round; stroke-linejoin:round; stroke-width:8; stroke-opacity:1; fill:none" points="
  238.204,1226.49 252.465,1226.49 
  "/>
<polyline clip-path="url(#clip840)" style="stroke:#000000; stroke-linecap:round; stroke-linejoin:round; stroke-width:8; stroke-opacity:1; fill:none" points="
  238.204,974.931 252.465,974.931 
  "/>
<polyline clip-path="url(#clip840)" style="stroke:#000000; stroke-linecap:round; stroke-linejoin:round; stroke-width:8; stroke-opacity:1; fill:none" points="
  238.204,723.376 252.465,723.376 
  "/>
<polyline clip-path="url(#clip840)" style="stroke:#000000; stroke-linecap:round; stroke-linejoin:round; stroke-width:8; stroke-opacity:1; fill:none" points="
  238.204,471.821 252.465,471.821 
  "/>
<polyline clip-path="url(#clip840)" style="stroke:#000000; stroke-linecap:round; stroke-linejoin:round; stroke-width:8; stroke-opacity:1; fill:none" points="
  238.204,220.266 252.465,220.266 
  "/>
<path clip-path="url(#clip840)" d="M175.52 1127.4 L190.798 1127.4 L190.798 1074.67 L174.177 1078 L174.177 1069.48 L190.705 1066.15 L200.057 1066.15 L200.057 1127.4 L215.334 1127.4 L215.334 1135.27 L175.52 1135.27 L175.52 1127.4 Z" fill="#000000" fill-rule="evenodd" fill-opacity="1" /><path clip-path="url(#clip840)" d="M182.696 875.843 L215.334 875.843 L215.334 883.714 L171.446 883.714 L171.446 875.843 Q176.77 870.334 185.936 861.075 Q195.149 851.769 197.51 849.084 Q202.001 844.038 203.76 840.566 Q205.566 837.047 205.566 833.668 Q205.566 828.158 201.677 824.686 Q197.835 821.214 191.631 821.214 Q187.233 821.214 182.325 822.742 Q177.464 824.27 171.909 827.371 L171.909 817.927 Q177.557 815.659 182.464 814.501 Q187.372 813.344 191.446 813.344 Q202.186 813.344 208.575 818.714 Q214.964 824.084 214.964 833.066 Q214.964 837.325 213.344 841.168 Q211.77 844.964 207.557 850.149 Q206.399 851.492 200.196 857.927 Q193.992 864.316 182.696 875.843 Z" fill="#000000" fill-rule="evenodd" fill-opacity="1" /><path clip-path="url(#clip840)" d="M201.075 594.89 Q207.788 596.325 211.538 600.862 Q215.334 605.399 215.334 612.066 Q215.334 622.297 208.297 627.899 Q201.26 633.501 188.298 633.501 Q183.946 633.501 179.316 632.621 Q174.733 631.788 169.825 630.075 L169.825 621.047 Q173.714 623.316 178.344 624.473 Q182.974 625.631 188.02 625.631 Q196.816 625.631 201.399 622.159 Q206.029 618.686 206.029 612.066 Q206.029 605.955 201.723 602.529 Q197.464 599.057 189.825 599.057 L181.77 599.057 L181.77 591.372 L190.196 591.372 Q197.094 591.372 200.751 588.64 Q204.409 585.862 204.409 580.677 Q204.409 575.353 200.612 572.529 Q196.862 569.659 189.825 569.659 Q185.983 569.659 181.585 570.492 Q177.187 571.326 171.909 573.085 L171.909 564.751 Q177.233 563.27 181.862 562.529 Q186.538 561.789 190.659 561.789 Q201.307 561.789 207.51 566.65 Q213.714 571.464 213.714 579.705 Q213.714 585.446 210.427 589.427 Q207.14 593.362 201.075 594.89 Z" fill="#000000" fill-rule="evenodd" fill-opacity="1" /><path clip-path="url(#clip840)" d="M196.168 319.631 L172.557 356.529 L196.168 356.529 L196.168 319.631 M193.714 311.483 L205.473 311.483 L205.473 356.529 L215.334 356.529 L215.334 364.307 L205.473 364.307 L205.473 380.603 L196.168 380.603 L196.168 364.307 L164.964 364.307 L164.964 355.279 L193.714 311.483 Z" fill="#000000" fill-rule="evenodd" fill-opacity="1" /><path clip-path="url(#clip840)" d="M173.529 59.9282 L210.242 59.9282 L210.242 67.7985 L182.094 67.7985 L182.094 84.7429 Q184.131 84.0484 186.168 83.7244 Q188.205 83.354 190.242 83.354 Q201.816 83.354 208.575 89.6965 Q215.334 96.0391 215.334 106.872 Q215.334 118.03 208.39 124.233 Q201.446 130.391 188.807 130.391 Q184.455 130.391 179.918 129.65 Q175.427 128.909 170.612 127.428 L170.612 118.03 Q174.779 120.298 179.224 121.409 Q183.668 122.52 188.622 122.52 Q196.631 122.52 201.307 118.308 Q205.983 114.095 205.983 106.872 Q205.983 99.6502 201.307 95.4373 Q196.631 91.2243 188.622 91.2243 Q184.872 91.2243 181.122 92.0576 Q177.418 92.891 173.529 94.6502 L173.529 59.9282 Z" fill="#000000" fill-rule="evenodd" fill-opacity="1" /><path clip-path="url(#clip840)" d="M38.201 722.55 Q41.8081 722.55 43.8693 724.804 Q45.866 727.059 45.866 729.635 Q45.866 732.083 44.449 733.371 Q43.0319 734.659 41.2284 734.659 Q38.7807 734.659 36.6551 732.856 Q34.5296 731.052 34.0787 728.347 Q32.404 730.988 32.404 734.917 Q32.404 737.493 33.7566 739.748 Q35.1093 741.938 36.8484 743.29 Q38.5875 744.579 41.0996 745.738 Q43.5472 746.833 45.0287 747.284 Q46.4457 747.67 47.9916 747.992 L66.0269 752.501 Q74.5937 754.691 77.621 754.691 Q81.3569 754.691 83.8689 752.888 Q86.3166 751.084 86.3166 747.477 Q86.3166 746.06 85.9301 744.45 Q85.4792 742.839 84.3198 740.778 Q83.096 738.653 81.2925 736.785 Q79.4245 734.852 76.2684 732.984 Q73.1122 731.117 69.0542 729.893 Q67.6372 729.506 67.6372 728.218 Q67.6372 726.608 68.9254 726.608 Q70.0204 726.608 72.3392 727.509 Q74.5937 728.347 77.5566 730.215 Q80.4551 732.018 83.096 734.402 Q85.6725 736.785 87.476 740.327 Q89.2795 743.87 89.2795 747.735 Q89.2795 753.274 86.3166 756.946 Q83.3536 760.617 79.2313 761.97 Q79.811 762.292 80.5839 762.743 Q81.3569 763.194 83.096 764.546 Q84.7707 765.834 86.0589 767.316 Q87.2828 768.797 88.2489 771.116 Q89.2795 773.371 89.2795 775.818 Q89.2795 778.91 88.3778 781.68 Q87.476 784.385 85.4148 786.317 Q83.3536 788.25 80.5195 788.25 Q77.3634 788.25 75.1734 786.124 Q72.9189 783.934 72.9189 780.971 Q72.9189 779.103 74.0139 777.622 Q75.1089 776.076 77.4922 776.076 Q80.1331 776.076 82.1298 777.879 Q84.1266 779.683 84.6419 782.259 Q86.3166 779.619 86.3166 775.689 Q86.3166 771.438 82.5807 768.089 Q78.8448 764.739 72.5969 763.129 Q57.589 759.136 50.8901 757.59 Q44.1269 756.044 41.2284 756.044 Q38.5231 756.044 36.6551 756.752 Q34.7872 757.461 33.9499 758.685 Q33.0481 759.844 32.726 760.939 Q32.404 761.97 32.404 763.129 Q32.404 765.062 33.1769 767.252 Q33.9499 769.377 35.7534 771.954 Q37.4925 774.466 41.0996 776.849 Q44.7066 779.232 49.6663 780.842 Q51.1478 781.164 51.1478 782.582 Q51.0834 784.127 49.7951 784.127 Q48.7001 784.127 46.4457 783.29 Q44.1269 782.388 41.2284 780.585 Q38.3299 778.717 35.7534 776.334 Q33.1125 773.886 31.309 770.343 Q29.5054 766.736 29.5054 762.872 Q29.5054 761.132 29.8919 759.458 Q30.214 757.719 31.1802 755.657 Q32.1463 753.532 34.2719 751.664 Q36.3975 749.796 39.4893 748.637 Q38.0078 747.864 36.5907 746.833 Q35.1737 745.738 33.4346 744.063 Q31.631 742.324 30.6004 739.941 Q29.5054 737.493 29.5054 734.788 Q29.5054 732.147 30.214 729.571 Q30.8581 726.994 32.9837 724.804 Q35.0449 722.55 38.201 722.55 Z" fill="#000000" fill-rule="evenodd" fill-opacity="1" /><path clip-path="url(#clip840)" d="M125.817 709.105 Q124.149 709.105 123.653 708.969 Q123.157 708.789 122.39 708.068 L102.642 690.348 Q91.7304 680.654 82.2168 680.654 Q76.0397 680.654 71.621 683.9 Q67.2024 687.102 67.2024 693.008 Q67.2024 697.066 69.6823 700.493 Q72.1621 703.919 76.5807 705.498 Q76.4906 705.227 76.4906 704.28 Q76.4906 701.981 77.9334 700.718 Q79.3762 699.411 81.315 699.411 Q83.7949 699.411 85.0122 701.034 Q86.1845 702.612 86.1845 704.19 Q86.1845 704.821 86.0493 705.678 Q85.914 706.49 84.6515 707.797 Q83.344 709.105 81.0445 709.105 Q74.5969 709.105 69.4568 704.235 Q64.3168 699.321 64.3168 691.836 Q64.3168 683.359 69.3666 677.813 Q74.3714 672.222 82.2168 672.222 Q84.9672 672.222 87.4921 673.079 Q89.9719 673.891 91.9107 675.018 Q93.8495 676.1 96.9606 679.076 Q100.072 682.052 102.281 684.441 Q104.49 686.831 109.18 692.197 L118.693 701.981 L118.693 685.343 Q118.693 677.227 117.972 676.596 Q116.664 675.694 109.766 674.567 L109.766 672.222 L125.817 674.838 L125.817 709.105 Z" fill="#000000" fill-rule="evenodd" fill-opacity="1" /><path clip-path="url(#clip843)" d="
M245.334 849.154 L270.49 849.154 L295.646 849.154 L320.801 849.154 L345.957 849.154 L371.112 849.154 L396.268 849.154 L421.423 849.154 L446.579 849.154 L471.734 849.154 
  L496.89 849.154 L522.045 849.154 L547.201 849.154 L572.356 849.154 L597.512 849.154 L622.667 849.154 L647.823 849.154 L672.978 849.154 L698.134 849.154 L723.289 849.154 
  L748.445 849.154 L773.6 849.154 L798.756 849.154 L823.911 849.154 L849.067 849.154 L874.222 849.154 L899.378 849.154 L924.533 849.154 L949.689 849.154 L974.844 849.154 
  L1000 849.154 L1025.16 849.154 L1050.31 849.154 L1075.47 849.154 L1100.62 849.154 L1125.78 849.154 L1150.93 849.154 L1176.09 849.154 L1201.24 849.154 L1226.4 849.154 
  L1251.56 849.154 L1276.71 849.154 L1301.87 849.154 L1327.02 849.154 L1352.18 849.154 L1377.33 849.154 L1402.49 849.154 L1427.64 849.154 L1452.8 849.154 L1477.95 849.154 
  L1503.11 849.154 L1528.27 849.154 L1553.42 849.154 L1578.58 849.154 L1603.73 849.154 L1628.89 849.154 L1654.04 849.154 L1679.2 849.154 L1679.2 874.309 L1654.04 798.843 
  L1628.89 723.376 L1603.73 673.065 L1578.58 664.68 L1553.42 656.295 L1528.27 647.91 L1503.11 639.524 L1477.95 631.139 L1452.8 622.754 L1427.64 614.369 L1402.49 605.984 
  L1377.33 597.599 L1352.18 589.213 L1327.02 580.828 L1301.87 572.443 L1276.71 564.058 L1251.56 555.673 L1226.4 547.288 L1201.24 538.902 L1176.09 530.517 L1150.93 522.132 
  L1125.78 513.747 L1100.62 505.362 L1075.47 496.976 L1050.31 488.591 L1025.16 480.206 L1000 471.821 L974.844 463.436 L949.689 455.051 L924.533 446.665 L899.378 438.28 
  L874.222 429.895 L849.067 421.51 L823.911 413.125 L798.756 404.74 L773.6 396.354 L748.445 387.969 L723.289 379.584 L698.134 371.199 L672.978 362.814 L647.823 354.429 
  L622.667 346.043 L597.512 337.658 L572.356 329.273 L547.201 320.888 L522.045 312.503 L496.89 304.118 L471.734 295.732 L446.579 287.347 L421.423 278.962 L396.268 270.577 
  L371.112 262.192 L345.957 253.806 L320.801 245.421 L295.646 237.036 L270.49 228.651 L245.334 220.266  Z
  " fill="#add8e6" fill-rule="evenodd" fill-opacity="1"/>
<polyline clip-path="url(#clip843)" style="stroke:#add8e6; stroke-linecap:round; stroke-linejoin:round; stroke-width:8; stroke-opacity:1; fill:none" points="
  245.334,849.154 270.49,849.154 295.646,849.154 320.801,849.154 345.957,849.154 371.112,849.154 396.268,849.154 421.423,849.154 446.579,849.154 471.734,849.154 
  496.89,849.154 522.045,849.154 547.201,849.154 572.356,849.154 597.512,849.154 622.667,849.154 647.823,849.154 672.978,849.154 698.134,849.154 723.289,849.154 
  748.445,849.154 773.6,849.154 798.756,849.154 823.911,849.154 849.067,849.154 874.222,849.154 899.378,849.154 924.533,849.154 949.689,849.154 974.844,849.154 
  1000,849.154 1025.16,849.154 1050.31,849.154 1075.47,849.154 1100.62,849.154 1125.78,849.154 1150.93,849.154 1176.09,849.154 1201.24,849.154 1226.4,849.154 
  1251.56,849.154 1276.71,849.154 1301.87,849.154 1327.02,849.154 1352.18,849.154 1377.33,849.154 1402.49,849.154 1427.64,849.154 1452.8,849.154 1477.95,849.154 
  1503.11,849.154 1528.27,849.154 1553.42,849.154 1578.58,849.154 1603.73,849.154 1628.89,849.154 1654.04,849.154 1679.2,849.154 
  "/>
<polyline clip-path="url(#clip843)" style="stroke:#ff0000; stroke-linecap:round; stroke-linejoin:round; stroke-width:24; stroke-opacity:1; fill:none" points="
  -1264,849.154 3264,849.154 
  "/>
<polyline clip-path="url(#clip843)" style="stroke:#800080; stroke-linecap:round; stroke-linejoin:round; stroke-width:24; stroke-opacity:1; fill:none" points="
  -257.776,52.5623 -232.62,60.9475 -207.465,69.3327 -182.309,77.7178 -157.154,86.103 -131.998,94.4882 -106.843,102.873 -81.6873,111.259 -56.5317,119.644 -31.3762,128.029 
  -6.2207,136.414 18.9348,144.799 44.0903,153.184 69.2459,161.57 94.4014,169.955 119.557,178.34 144.712,186.725 169.868,195.11 195.023,203.495 220.179,211.881 
  245.334,220.266 270.49,228.651 295.646,237.036 320.801,245.421 345.957,253.806 371.112,262.192 396.268,270.577 421.423,278.962 446.579,287.347 471.734,295.732 
  496.89,304.118 522.045,312.503 547.201,320.888 572.356,329.273 597.512,337.658 622.667,346.043 647.823,354.429 672.978,362.814 698.134,371.199 723.289,379.584 
  748.445,387.969 773.6,396.354 798.756,404.74 823.911,413.125 849.067,421.51 874.222,429.895 899.378,438.28 924.533,446.665 949.689,455.051 974.844,463.436 
  1000,471.821 1025.16,480.206 1050.31,488.591 1075.47,496.976 1100.62,505.362 1125.78,513.747 1150.93,522.132 1176.09,530.517 1201.24,538.902 1226.4,547.288 
  1251.56,555.673 1276.71,564.058 1301.87,572.443 1327.02,580.828 1352.18,589.213 1377.33,597.599 1402.49,605.984 1427.64,614.369 1452.8,622.754 1477.95,631.139 
  1503.11,639.524 1528.27,647.91 1553.42,656.295 1578.58,664.68 1603.73,673.065 1628.89,681.45 1654.04,689.835 1679.2,698.221 1704.35,706.606 1729.51,714.991 
  1754.67,723.376 
  "/>
<polyline clip-path="url(#clip843)" style="stroke:#000000; stroke-linecap:round; stroke-linejoin:round; stroke-width:24; stroke-opacity:1; fill:none" points="
  245.334,2610.04 245.334,-1163.29 
  "/>
<polyline clip-path="url(#clip843)" style="stroke:#0000ff; stroke-linecap:round; stroke-linejoin:round; stroke-width:24; stroke-opacity:1; fill:none" points="
  -257.776,-4936.62 -232.62,-4861.15 -207.465,-4785.68 -182.309,-4710.22 -157.154,-4634.75 -131.998,-4559.28 -106.843,-4483.82 -81.6873,-4408.35 -56.5317,-4332.88 -31.3762,-4257.42 
  -6.2207,-4181.95 18.9348,-4106.48 44.0903,-4031.02 69.2459,-3955.55 94.4014,-3880.08 119.557,-3804.62 144.712,-3729.15 169.868,-3653.68 195.023,-3578.22 220.179,-3502.75 
  245.334,-3427.28 270.49,-3351.82 295.646,-3276.35 320.801,-3200.88 345.957,-3125.42 371.112,-3049.95 396.268,-2974.48 421.423,-2899.02 446.579,-2823.55 471.734,-2748.09 
  496.89,-2672.62 522.045,-2597.15 547.201,-2521.69 572.356,-2446.22 597.512,-2370.75 622.667,-2295.29 647.823,-2219.82 672.978,-2144.35 698.134,-2068.89 723.289,-1993.42 
  748.445,-1917.95 773.6,-1842.49 798.756,-1767.02 823.911,-1691.55 849.067,-1616.09 874.222,-1540.62 899.378,-1465.15 924.533,-1389.69 949.689,-1314.22 974.844,-1238.75 
  1000,-1163.29 1025.16,-1087.82 1050.31,-1012.35 1075.47,-936.888 1100.62,-861.421 1125.78,-785.955 1150.93,-710.488 1176.09,-635.022 1201.24,-559.555 1226.4,-484.089 
  1251.56,-408.622 1276.71,-333.156 1301.87,-257.689 1327.02,-182.223 1352.18,-106.756 1377.33,-31.2894 1402.49,44.1772 1427.64,119.644 1452.8,195.11 1477.95,270.577 
  1503.11,346.043 1528.27,421.51 1553.42,496.976 1578.58,572.443 1603.73,647.91 1628.89,723.376 1654.04,798.843 1679.2,874.309 1704.35,949.776 1729.51,1025.24 
  1754.67,1100.71 
  "/>
<polyline clip-path="url(#clip843)" style="stroke:#000000; stroke-linecap:round; stroke-linejoin:round; stroke-width:16; stroke-opacity:1; fill:none" points="
  1251.56,283.155 1578.58,635.332 
  "/>
<polyline clip-path="url(#clip843)" style="stroke:#000000; stroke-linecap:round; stroke-linejoin:round; stroke-width:16; stroke-opacity:1; fill:none" points="
  1569.16,603.141 1578.58,635.332 1547.17,623.555 
  "/>
<polyline clip-path="url(#clip843)" style="stroke:#000000; stroke-linecap:round; stroke-linejoin:round; stroke-width:16; stroke-opacity:1; fill:none" points="
  1578.58,635.332 1251.56,283.155 
  "/>
<circle clip-path="url(#clip843)" cx="1613.79" cy="675.581" r="36" fill="#ffff00" fill-rule="evenodd" fill-opacity="1" stroke="#000000" stroke-opacity="1" stroke-width="7.2"/>
<circle clip-path="url(#clip843)" cx="1503.11" cy="849.154" r="21.6" fill="#a52a2a" fill-rule="evenodd" fill-opacity="1" stroke="#000000" stroke-opacity="1" stroke-width="7.2"/>
<circle clip-path="url(#clip843)" cx="1251.56" cy="849.154" r="21.6" fill="#a52a2a" fill-rule="evenodd" fill-opacity="1" stroke="#000000" stroke-opacity="1" stroke-width="7.2"/>
<circle clip-path="url(#clip843)" cx="1251.56" cy="597.599" r="21.6" fill="#a52a2a" fill-rule="evenodd" fill-opacity="1" stroke="#000000" stroke-opacity="1" stroke-width="7.2"/>
<circle clip-path="url(#clip843)" cx="1000" cy="849.154" r="21.6" fill="#a52a2a" fill-rule="evenodd" fill-opacity="1" stroke="#000000" stroke-opacity="1" stroke-width="7.2"/>
<circle clip-path="url(#clip843)" cx="1000" cy="597.599" r="21.6" fill="#a52a2a" fill-rule="evenodd" fill-opacity="1" stroke="#000000" stroke-opacity="1" stroke-width="7.2"/>
<circle clip-path="url(#clip843)" cx="748.445" cy="849.154" r="21.6" fill="#a52a2a" fill-rule="evenodd" fill-opacity="1" stroke="#000000" stroke-opacity="1" stroke-width="7.2"/>
<circle clip-path="url(#clip843)" cx="748.445" cy="597.599" r="21.6" fill="#a52a2a" fill-rule="evenodd" fill-opacity="1" stroke="#000000" stroke-opacity="1" stroke-width="7.2"/>
<circle clip-path="url(#clip843)" cx="496.89" cy="849.154" r="21.6" fill="#a52a2a" fill-rule="evenodd" fill-opacity="1" stroke="#000000" stroke-opacity="1" stroke-width="7.2"/>
<circle clip-path="url(#clip843)" cx="496.89" cy="597.599" r="21.6" fill="#a52a2a" fill-rule="evenodd" fill-opacity="1" stroke="#000000" stroke-opacity="1" stroke-width="7.2"/>
<circle clip-path="url(#clip843)" cx="496.89" cy="346.043" r="21.6" fill="#a52a2a" fill-rule="evenodd" fill-opacity="1" stroke="#000000" stroke-opacity="1" stroke-width="7.2"/>
<circle clip-path="url(#clip843)" cx="245.334" cy="849.154" r="21.6" fill="#a52a2a" fill-rule="evenodd" fill-opacity="1" stroke="#000000" stroke-opacity="1" stroke-width="7.2"/>
<circle clip-path="url(#clip843)" cx="245.334" cy="597.599" r="21.6" fill="#a52a2a" fill-rule="evenodd" fill-opacity="1" stroke="#000000" stroke-opacity="1" stroke-width="7.2"/>
<circle clip-path="url(#clip843)" cx="245.334" cy="346.043" r="21.6" fill="#a52a2a" fill-rule="evenodd" fill-opacity="1" stroke="#000000" stroke-opacity="1" stroke-width="7.2"/>
<path clip-path="url(#clip840)" d="M732.17 177.066 L743.86 177.066 L743.86 253.628 L785.932 253.628 L785.932 263.466 L732.17 263.466 L732.17 177.066 Z" fill="#000000" fill-rule="evenodd" fill-opacity="1" /><path clip-path="url(#clip840)" d="M809.89 186.672 L809.89 219.137 L824.589 219.137 Q832.749 219.137 837.205 214.913 Q841.661 210.688 841.661 202.876 Q841.661 195.121 837.205 190.897 Q832.749 186.672 824.589 186.672 L809.89 186.672 M798.2 177.066 L824.589 177.066 Q839.114 177.066 846.522 183.663 Q853.987 190.202 853.987 202.876 Q853.987 215.665 846.522 222.204 Q839.114 228.744 824.589 228.744 L809.89 228.744 L809.89 263.466 L798.2 263.466 L798.2 177.066 Z" fill="#000000" fill-rule="evenodd" fill-opacity="1" /><path clip-path="url(#clip840)" d="M959.137 179.901 L959.137 191.302 Q952.482 188.119 946.579 186.556 Q940.676 184.994 935.179 184.994 Q925.63 184.994 920.422 188.698 Q915.271 192.401 915.271 199.23 Q915.271 204.959 918.686 207.911 Q922.158 210.804 931.764 212.598 L938.824 214.045 Q951.903 216.533 958.095 222.841 Q964.345 229.091 964.345 239.623 Q964.345 252.181 955.896 258.663 Q947.505 265.144 931.243 265.144 Q925.109 265.144 918.165 263.755 Q911.278 262.366 903.871 259.646 L903.871 247.609 Q910.989 251.602 917.818 253.628 Q924.646 255.653 931.243 255.653 Q941.255 255.653 946.695 251.718 Q952.134 247.783 952.134 240.491 Q952.134 234.126 948.199 230.538 Q944.322 226.95 935.41 225.156 L928.292 223.767 Q915.213 221.163 909.369 215.607 Q903.524 210.052 903.524 200.156 Q903.524 188.698 911.568 182.1 Q919.669 175.503 933.848 175.503 Q939.924 175.503 946.232 176.603 Q952.54 177.702 959.137 179.901 Z" fill="#000000" fill-rule="evenodd" fill-opacity="1" /><path clip-path="url(#clip840)" d="M1007.23 206.117 Q998.662 206.117 993.685 212.829 Q988.708 219.485 988.708 231.116 Q988.708 242.748 993.627 249.461 Q998.604 256.116 1007.23 256.116 Q1015.73 256.116 1020.71 249.403 Q1025.69 242.69 1025.69 231.116 Q1025.69 219.6 1020.71 212.887 Q1015.73 206.117 1007.23 206.117 M1007.23 197.089 Q1021.12 197.089 1029.04 206.117 Q1036.97 215.144 1036.97 231.116 Q1036.97 247.031 1029.04 256.116 Q1021.12 265.144 1007.23 265.144 Q993.28 265.144 985.352 256.116 Q977.482 247.031 977.482 231.116 Q977.482 215.144 985.352 206.117 Q993.28 197.089 1007.23 197.089 Z" fill="#000000" fill-rule="evenodd" fill-opacity="1" /><path clip-path="url(#clip840)" d="M1054.62 173.42 L1065.27 173.42 L1065.27 263.466 L1054.62 263.466 L1054.62 173.42 Z" fill="#000000" fill-rule="evenodd" fill-opacity="1" /><path clip-path="url(#clip840)" d="M1086.45 237.887 L1086.45 198.651 L1097.1 198.651 L1097.1 237.482 Q1097.1 246.683 1100.69 251.313 Q1104.27 255.885 1111.45 255.885 Q1120.07 255.885 1125.05 250.387 Q1130.08 244.889 1130.08 235.399 L1130.08 198.651 L1140.73 198.651 L1140.73 263.466 L1130.08 263.466 L1130.08 253.512 Q1126.21 259.415 1121.06 262.308 Q1115.96 265.144 1109.19 265.144 Q1098.02 265.144 1092.24 258.2 Q1086.45 251.255 1086.45 237.887 M1113.24 197.089 L1113.24 197.089 Z" fill="#000000" fill-rule="evenodd" fill-opacity="1" /><path clip-path="url(#clip840)" d="M1173.2 180.249 L1173.2 198.651 L1195.13 198.651 L1195.13 206.927 L1173.2 206.927 L1173.2 242.112 Q1173.2 250.04 1175.34 252.297 Q1177.54 254.554 1184.19 254.554 L1195.13 254.554 L1195.13 263.466 L1184.19 263.466 Q1171.87 263.466 1167.18 258.894 Q1162.49 254.264 1162.49 242.112 L1162.49 206.927 L1154.68 206.927 L1154.68 198.651 L1162.49 198.651 L1162.49 180.249 L1173.2 180.249 Z" fill="#000000" fill-rule="evenodd" fill-opacity="1" /><path clip-path="url(#clip840)" d="M1209.14 198.651 L1219.78 198.651 L1219.78 263.466 L1209.14 263.466 L1209.14 198.651 M1209.14 173.42 L1219.78 173.42 L1219.78 186.904 L1209.14 186.904 L1209.14 173.42 Z" fill="#000000" fill-rule="evenodd" fill-opacity="1" /><path clip-path="url(#clip840)" d="M1267.18 206.117 Q1258.61 206.117 1253.64 212.829 Q1248.66 219.485 1248.66 231.116 Q1248.66 242.748 1253.58 249.461 Q1258.56 256.116 1267.18 256.116 Q1275.69 256.116 1280.66 249.403 Q1285.64 242.69 1285.64 231.116 Q1285.64 219.6 1280.66 212.887 Q1275.69 206.117 1267.18 206.117 M1267.18 197.089 Q1281.07 197.089 1289 206.117 Q1296.92 215.144 1296.92 231.116 Q1296.92 247.031 1289 256.116 Q1281.07 265.144 1267.18 265.144 Q1253.23 265.144 1245.3 256.116 Q1237.43 247.031 1237.43 231.116 Q1237.43 215.144 1245.3 206.117 Q1253.23 197.089 1267.18 197.089 Z" fill="#000000" fill-rule="evenodd" fill-opacity="1" /><path clip-path="url(#clip840)" d="M1368.45 224.346 L1368.45 263.466 L1357.8 263.466 L1357.8 224.693 Q1357.8 215.491 1354.22 210.92 Q1350.63 206.348 1343.45 206.348 Q1334.83 206.348 1329.85 211.846 Q1324.88 217.343 1324.88 226.834 L1324.88 263.466 L1314.17 263.466 L1314.17 198.651 L1324.88 198.651 L1324.88 208.721 Q1328.69 202.876 1333.85 199.982 Q1339.05 197.089 1345.82 197.089 Q1356.99 197.089 1362.72 204.033 Q1368.45 210.92 1368.45 224.346 Z" fill="#000000" fill-rule="evenodd" fill-opacity="1" /></svg>
