<?xml version="1.0" encoding="utf-8"?>
<svg xmlns="http://www.w3.org/2000/svg" xmlns:xlink="http://www.w3.org/1999/xlink" width="350" height="350" viewBox="0 0 1400 1400">
<defs>
  <clipPath id="clip770">
    <rect x="0" y="0" width="1400" height="1400"/>
  </clipPath>
</defs>
<path clip-path="url(#clip770)" d="
M0 1400 L1400 1400 L1400 0 L0 0  Z
  " fill="#ffffff" fill-rule="evenodd" fill-opacity="1"/>
<defs>
  <clipPath id="clip771">
    <rect x="280" y="140" width="981" height="981"/>
  </clipPath>
</defs>
<path clip-path="url(#clip770)" d="
M296.348 1093.42 L1352.76 1093.42 L1352.76 47.2441 L296.348 47.2441  Z
  " fill="#ffffff" fill-rule="evenodd" fill-opacity="1"/>
<defs>
  <clipPath id="clip772">
    <rect x="296" y="47" width="1057" height="1047"/>
  </clipPath>
</defs>
<polyline clip-path="url(#clip770)" style="stroke:#000000; stroke-linecap:butt; stroke-linejoin:round; stroke-width:4; stroke-opacity:1; fill:none" points="
  296.348,1093.42 1352.76,1093.42 
  "/>
<polyline clip-path="url(#clip770)" style="stroke:#000000; stroke-linecap:butt; stroke-linejoin:round; stroke-width:4; stroke-opacity:1; fill:none" points="
  983.013,1093.42 983.013,1074.52 
  "/>
<polyline clip-path="url(#clip770)" style="stroke:#000000; stroke-linecap:butt; stroke-linejoin:round; stroke-width:4; stroke-opacity:1; fill:none" points="
  1299.94,1093.42 1299.94,1074.52 
  "/>
<path clip-path="url(#clip770)" d="M917.915 1125.13 Q911.596 1125.13 908.396 1131.37 Q905.236 1137.56 905.236 1150.04 Q905.236 1162.48 908.396 1168.72 Q911.596 1174.91 917.915 1174.91 Q924.275 1174.91 927.435 1168.72 Q930.635 1162.48 930.635 1150.04 Q930.635 1137.56 927.435 1131.37 Q924.275 1125.13 917.915 1125.13 M917.915 1118.65 Q928.083 1118.65 933.43 1126.71 Q938.818 1134.73 938.818 1150.04 Q938.818 1165.31 933.43 1173.37 Q928.083 1181.39 917.915 1181.39 Q907.747 1181.39 902.36 1173.37 Q897.013 1165.31 897.013 1150.04 Q897.013 1134.73 902.36 1126.71 Q907.747 1118.65 917.915 1118.65 Z" fill="#000000" fill-rule="evenodd" fill-opacity="1" /><path clip-path="url(#clip770)" d="M953.199 1169.93 L961.746 1169.93 L961.746 1180.22 L953.199 1180.22 L953.199 1169.93 Z" fill="#000000" fill-rule="evenodd" fill-opacity="1" /><path clip-path="url(#clip770)" d="M998.083 1146.72 Q992.573 1146.72 989.333 1150.49 Q986.132 1154.25 986.132 1160.82 Q986.132 1167.34 989.333 1171.15 Q992.573 1174.91 998.083 1174.91 Q1003.59 1174.91 1006.79 1171.15 Q1010.03 1167.34 1010.03 1160.82 Q1010.03 1154.25 1006.79 1150.49 Q1003.59 1146.72 998.083 1146.72 M1014.33 1121.08 L1014.33 1128.53 Q1011.25 1127.07 1008.09 1126.3 Q1004.97 1125.53 1001.89 1125.53 Q993.789 1125.53 989.495 1131 Q985.241 1136.47 984.634 1147.53 Q987.024 1144 990.629 1142.14 Q994.234 1140.24 998.569 1140.24 Q1007.68 1140.24 1012.95 1145.79 Q1018.26 1151.3 1018.26 1160.82 Q1018.26 1170.13 1012.75 1175.76 Q1007.24 1181.39 998.083 1181.39 Q987.591 1181.39 982.041 1173.37 Q976.491 1165.31 976.491 1150.04 Q976.491 1135.7 983.297 1127.19 Q990.102 1118.65 1001.57 1118.65 Q1004.65 1118.65 1007.76 1119.25 Q1010.92 1119.86 1014.33 1121.08 Z" fill="#000000" fill-rule="evenodd" fill-opacity="1" /><path clip-path="url(#clip770)" d="M1032.43 1119.74 L1064.56 1119.74 L1064.56 1126.63 L1039.93 1126.63 L1039.93 1141.45 Q1041.71 1140.85 1043.49 1140.56 Q1045.28 1140.24 1047.06 1140.24 Q1057.19 1140.24 1063.1 1145.79 Q1069.01 1151.34 1069.01 1160.82 Q1069.01 1170.58 1062.94 1176.01 Q1056.86 1181.39 1045.8 1181.39 Q1041.99 1181.39 1038.02 1180.75 Q1034.1 1180.1 1029.88 1178.8 L1029.88 1170.58 Q1033.53 1172.56 1037.42 1173.54 Q1041.31 1174.51 1045.64 1174.51 Q1052.65 1174.51 1056.74 1170.82 Q1060.83 1167.14 1060.83 1160.82 Q1060.83 1154.5 1056.74 1150.81 Q1052.65 1147.12 1045.64 1147.12 Q1042.36 1147.12 1039.08 1147.85 Q1035.84 1148.58 1032.43 1150.12 L1032.43 1119.74 Z" fill="#000000" fill-rule="evenodd" fill-opacity="1" /><path clip-path="url(#clip770)" d="M1234.84 1125.13 Q1228.52 1125.13 1225.32 1131.37 Q1222.16 1137.56 1222.16 1150.04 Q1222.16 1162.48 1225.32 1168.72 Q1228.52 1174.91 1234.84 1174.91 Q1241.2 1174.91 1244.36 1168.72 Q1247.56 1162.48 1247.56 1150.04 Q1247.56 1137.56 1244.36 1131.37 Q1241.2 1125.13 1234.84 1125.13 M1234.84 1118.65 Q1245.01 1118.65 1250.35 1126.71 Q1255.74 1134.73 1255.74 1150.04 Q1255.74 1165.31 1250.35 1173.37 Q1245.01 1181.39 1234.84 1181.39 Q1224.67 1181.39 1219.28 1173.37 Q1213.93 1165.31 1213.93 1150.04 Q1213.93 1134.73 1219.28 1126.71 Q1224.67 1118.65 1234.84 1118.65 Z" fill="#000000" fill-rule="evenodd" fill-opacity="1" /><path clip-path="url(#clip770)" d="M1270.12 1169.93 L1278.67 1169.93 L1278.67 1180.22 L1270.12 1180.22 L1270.12 1169.93 Z" fill="#000000" fill-rule="evenodd" fill-opacity="1" /><path clip-path="url(#clip770)" d="M1296.74 1178.96 L1296.74 1171.51 Q1299.81 1172.97 1302.97 1173.74 Q1306.13 1174.51 1309.17 1174.51 Q1317.27 1174.51 1321.53 1169.08 Q1325.82 1163.61 1326.43 1152.51 Q1324.08 1156 1320.47 1157.86 Q1316.87 1159.72 1312.49 1159.72 Q1303.42 1159.72 1298.11 1154.25 Q1292.85 1148.74 1292.85 1139.22 Q1292.85 1129.91 1298.36 1124.28 Q1303.86 1118.65 1313.02 1118.65 Q1323.51 1118.65 1329.02 1126.71 Q1334.57 1134.73 1334.57 1150.04 Q1334.57 1164.34 1327.77 1172.89 Q1321 1181.39 1309.54 1181.39 Q1306.46 1181.39 1303.3 1180.79 Q1300.14 1180.18 1296.74 1178.96 M1313.02 1153.32 Q1318.53 1153.32 1321.73 1149.55 Q1324.97 1145.79 1324.97 1139.22 Q1324.97 1132.7 1321.73 1128.94 Q1318.53 1125.13 1313.02 1125.13 Q1307.51 1125.13 1304.27 1128.94 Q1301.07 1132.7 1301.07 1139.22 Q1301.07 1145.79 1304.27 1149.55 Q1307.51 1153.32 1313.02 1153.32 Z" fill="#000000" fill-rule="evenodd" fill-opacity="1" /><path clip-path="url(#clip770)" d="M1349.36 1119.74 L1381.48 1119.74 L1381.48 1126.63 L1356.85 1126.63 L1356.85 1141.45 Q1358.63 1140.85 1360.42 1140.56 Q1362.2 1140.24 1363.98 1140.24 Q1374.11 1140.24 1380.02 1145.79 Q1385.94 1151.34 1385.94 1160.82 Q1385.94 1170.58 1379.86 1176.01 Q1373.78 1181.39 1362.72 1181.39 Q1358.92 1181.39 1354.95 1180.75 Q1351.02 1180.1 1346.8 1178.8 L1346.8 1170.58 Q1350.45 1172.56 1354.34 1173.54 Q1358.23 1174.51 1362.56 1174.51 Q1369.57 1174.51 1373.66 1170.82 Q1377.75 1167.14 1377.75 1160.82 Q1377.75 1154.5 1373.66 1150.81 Q1369.57 1147.12 1362.56 1147.12 Q1359.28 1147.12 1356 1147.85 Q1352.76 1148.58 1349.36 1150.12 L1349.36 1119.74 Z" fill="#000000" fill-rule="evenodd" fill-opacity="1" /><path clip-path="url(#clip770)" d="M559.73 1221.56 L611.628 1221.56 L611.628 1230.9 L570.835 1230.9 L570.835 1255.2 L609.924 1255.2 L609.924 1264.55 L570.835 1264.55 L570.835 1294.29 L612.617 1294.29 L612.617 1303.64 L559.73 1303.64 L559.73 1221.56 Z" fill="#000000" fill-rule="evenodd" fill-opacity="1" /><path clip-path="url(#clip770)" d="M661.602 1218.09 L661.602 1226.5 L651.926 1226.5 Q646.483 1226.5 644.339 1228.7 Q642.25 1230.9 642.25 1236.62 L642.25 1242.06 L658.908 1242.06 L658.908 1249.92 L642.25 1249.92 L642.25 1303.64 L632.079 1303.64 L632.079 1249.92 L622.403 1249.92 L622.403 1242.06 L632.079 1242.06 L632.079 1237.77 Q632.079 1227.49 636.862 1222.82 Q641.645 1218.09 652.036 1218.09 L661.602 1218.09 Z" fill="#000000" fill-rule="evenodd" fill-opacity="1" /><path clip-path="url(#clip770)" d="M701.24 1218.09 L701.24 1226.5 L691.564 1226.5 Q686.121 1226.5 683.977 1228.7 Q681.888 1230.9 681.888 1236.62 L681.888 1242.06 L698.546 1242.06 L698.546 1249.92 L681.888 1249.92 L681.888 1303.64 L671.717 1303.64 L671.717 1249.92 L662.041 1249.92 L662.041 1242.06 L671.717 1242.06 L671.717 1237.77 Q671.717 1227.49 676.5 1222.82 Q681.283 1218.09 691.674 1218.09 L701.24 1218.09 Z" fill="#000000" fill-rule="evenodd" fill-opacity="1" /><path clip-path="url(#clip770)" d="M709.706 1242.06 L719.822 1242.06 L719.822 1303.64 L709.706 1303.64 L709.706 1242.06 M709.706 1218.09 L719.822 1218.09 L719.822 1230.9 L709.706 1230.9 L709.706 1218.09 Z" fill="#000000" fill-rule="evenodd" fill-opacity="1" /><path clip-path="url(#clip770)" d="M785.299 1244.43 L785.299 1253.88 Q781.011 1251.52 776.668 1250.36 Q772.379 1249.15 767.981 1249.15 Q758.14 1249.15 752.698 1255.42 Q747.255 1261.63 747.255 1272.9 Q747.255 1284.17 752.698 1290.44 Q758.14 1296.65 767.981 1296.65 Q772.379 1296.65 776.668 1295.5 Q781.011 1294.29 785.299 1291.93 L785.299 1301.27 Q781.066 1303.25 776.503 1304.24 Q771.995 1305.23 766.882 1305.23 Q752.973 1305.23 744.781 1296.49 Q736.59 1287.75 736.59 1272.9 Q736.59 1257.84 744.836 1249.21 Q753.138 1240.58 767.541 1240.58 Q772.214 1240.58 776.668 1241.57 Q781.121 1242.5 785.299 1244.43 Z" fill="#000000" fill-rule="evenodd" fill-opacity="1" /><path clip-path="url(#clip770)" d="M802.891 1242.06 L813.007 1242.06 L813.007 1303.64 L802.891 1303.64 L802.891 1242.06 M802.891 1218.09 L813.007 1218.09 L813.007 1230.9 L802.891 1230.9 L802.891 1218.09 Z" fill="#000000" fill-rule="evenodd" fill-opacity="1" /><path clip-path="url(#clip770)" d="M886.841 1270.32 L886.841 1275.27 L840.33 1275.27 Q840.99 1285.71 846.598 1291.21 Q852.26 1296.65 862.321 1296.65 Q868.149 1296.65 873.591 1295.22 Q879.089 1293.8 884.477 1290.94 L884.477 1300.5 Q879.034 1302.81 873.316 1304.02 Q867.599 1305.23 861.716 1305.23 Q846.983 1305.23 838.351 1296.65 Q829.775 1288.08 829.775 1273.45 Q829.775 1258.34 837.911 1249.48 Q846.103 1240.58 859.957 1240.58 Q872.382 1240.58 879.584 1248.6 Q886.841 1256.58 886.841 1270.32 M876.725 1267.35 Q876.615 1259.05 872.052 1254.1 Q867.544 1249.15 860.067 1249.15 Q851.601 1249.15 846.488 1253.94 Q841.43 1258.72 840.66 1267.41 L876.725 1267.35 Z" fill="#000000" fill-rule="evenodd" fill-opacity="1" /><path clip-path="url(#clip770)" d="M954.627 1266.47 L954.627 1303.64 L944.511 1303.64 L944.511 1266.8 Q944.511 1258.06 941.102 1253.72 Q937.694 1249.37 930.877 1249.37 Q922.685 1249.37 917.957 1254.6 Q913.229 1259.82 913.229 1268.84 L913.229 1303.64 L903.059 1303.64 L903.059 1242.06 L913.229 1242.06 L913.229 1251.63 Q916.858 1246.08 921.751 1243.33 Q926.699 1240.58 933.131 1240.58 Q943.741 1240.58 949.184 1247.17 Q954.627 1253.72 954.627 1266.47 Z" fill="#000000" fill-rule="evenodd" fill-opacity="1" /><path clip-path="url(#clip770)" d="M1019.11 1244.43 L1019.11 1253.88 Q1014.83 1251.52 1010.48 1250.36 Q1006.19 1249.15 1001.8 1249.15 Q991.956 1249.15 986.513 1255.42 Q981.07 1261.63 981.07 1272.9 Q981.07 1284.17 986.513 1290.44 Q991.956 1296.65 1001.8 1296.65 Q1006.19 1296.65 1010.48 1295.5 Q1014.83 1294.29 1019.11 1291.93 L1019.11 1301.27 Q1014.88 1303.25 1010.32 1304.24 Q1005.81 1305.23 1000.7 1305.23 Q986.788 1305.23 978.596 1296.49 Q970.405 1287.75 970.405 1272.9 Q970.405 1257.84 978.651 1249.21 Q986.953 1240.58 1001.36 1240.58 Q1006.03 1240.58 1010.48 1241.57 Q1014.94 1242.5 1019.11 1244.43 Z" fill="#000000" fill-rule="evenodd" fill-opacity="1" /><path clip-path="url(#clip770)" d="M1062.33 1309.35 Q1058.04 1320.35 1053.97 1323.7 Q1049.9 1327.06 1043.08 1327.06 L1035 1327.06 L1035 1318.59 L1040.94 1318.59 Q1045.12 1318.59 1047.43 1316.61 Q1049.74 1314.63 1052.54 1307.26 L1054.35 1302.65 L1029.45 1242.06 L1040.17 1242.06 L1059.41 1290.22 L1078.65 1242.06 L1089.37 1242.06 L1062.33 1309.35 Z" fill="#000000" fill-rule="evenodd" fill-opacity="1" /><polyline clip-path="url(#clip770)" style="stroke:#000000; stroke-linecap:butt; stroke-linejoin:round; stroke-width:4; stroke-opacity:1; fill:none" points="
  296.348,1093.42 296.348,47.2441 
  "/>
<path clip-path="url(#clip770)" d="M153.967 624.786 L165.677 624.786 Q160.454 630.394 157.87 636.771 Q155.286 643.093 155.286 650.24 Q155.286 664.314 163.917 671.791 Q172.494 679.268 188.767 679.268 Q204.985 679.268 213.616 671.791 Q222.193 664.314 222.193 650.24 Q222.193 643.093 219.609 636.771 Q217.025 630.394 211.802 624.786 L223.402 624.786 Q227.36 630.614 229.34 637.156 Q231.319 643.643 231.319 650.9 Q231.319 669.537 219.939 680.258 Q208.503 690.978 188.767 690.978 Q168.975 690.978 157.595 680.258 Q146.16 669.537 146.16 650.9 Q146.16 643.533 148.139 637.046 Q150.063 630.504 153.967 624.786 Z" fill="#000000" fill-rule="evenodd" fill-opacity="1" /><path clip-path="url(#clip770)" d="M175.243 584.214 Q175.243 592.35 181.62 597.078 Q187.942 601.806 198.992 601.806 Q210.043 601.806 216.42 597.133 Q222.742 592.405 222.742 584.214 Q222.742 576.132 216.365 571.404 Q209.988 566.676 198.992 566.676 Q188.052 566.676 181.675 571.404 Q175.243 576.132 175.243 584.214 M166.666 584.214 Q166.666 571.019 175.243 563.487 Q183.819 555.956 198.992 555.956 Q214.111 555.956 222.742 563.487 Q231.319 571.019 231.319 584.214 Q231.319 597.463 222.742 604.995 Q214.111 612.471 198.992 612.471 Q183.819 612.471 175.243 604.995 Q166.666 597.463 166.666 584.214 Z" fill="#000000" fill-rule="evenodd" fill-opacity="1" /><path clip-path="url(#clip770)" d="M169.965 499.934 L179.531 499.934 Q177.332 504.223 176.232 508.841 Q175.133 513.459 175.133 518.407 Q175.133 525.938 177.442 529.732 Q179.751 533.47 184.369 533.47 Q187.887 533.47 189.921 530.776 Q191.9 528.082 193.715 519.946 L194.484 516.482 Q196.793 505.707 201.027 501.199 Q205.205 496.636 212.737 496.636 Q221.313 496.636 226.316 503.453 Q231.319 510.215 231.319 522.09 Q231.319 527.038 230.329 532.426 Q229.394 537.758 227.47 543.696 L217.025 543.696 Q219.939 538.088 221.423 532.646 Q222.852 527.203 222.852 521.87 Q222.852 514.723 220.433 510.875 Q217.959 507.026 213.506 507.026 Q209.383 507.026 207.184 509.83 Q204.985 512.579 202.951 521.98 L202.126 525.499 Q200.147 534.9 196.079 539.078 Q191.955 543.256 184.808 543.256 Q176.122 543.256 171.394 537.099 Q166.666 530.941 166.666 519.616 Q166.666 514.008 167.491 509.061 Q168.316 504.113 169.965 499.934 Z" fill="#000000" fill-rule="evenodd" fill-opacity="1" /><path clip-path="url(#clip770)" d="M150.668 470.522 L168.151 470.522 L168.151 449.686 L176.012 449.686 L176.012 470.522 L209.438 470.522 Q216.97 470.522 219.114 468.488 Q221.258 466.399 221.258 460.076 L221.258 449.686 L229.724 449.686 L229.724 460.076 Q229.724 471.786 225.381 476.24 Q220.983 480.693 209.438 480.693 L176.012 480.693 L176.012 488.115 L168.151 488.115 L168.151 480.693 L150.668 480.693 L150.668 470.522 Z" fill="#000000" fill-rule="evenodd" fill-opacity="1" /><polyline clip-path="url(#clip772)" style="stroke:#000000; stroke-linecap:butt; stroke-linejoin:round; stroke-width:12; stroke-opacity:1; fill:none" points="
  296.348,1093.42 401.989,1082.96 507.63,1051.57 613.271,999.264 718.911,926.032 824.552,831.876 930.193,716.797 1035.83,580.794 1141.47,423.867 1247.12,246.017 
  1352.76,47.2441 
  "/>
<circle clip-path="url(#clip772)" cx="983.013" cy="651.411" r="36" fill="#ff0000" fill-rule="evenodd" fill-opacity="1" stroke="#000000" stroke-opacity="1" stroke-width="2.8"/>
<circle clip-path="url(#clip772)" cx="1299.94" cy="149.246" r="36" fill="#ff0000" fill-rule="evenodd" fill-opacity="1" stroke="#000000" stroke-opacity="1" stroke-width="2.8"/>
<polyline clip-path="url(#clip772)" style="stroke:#0000ff; stroke-linecap:butt; stroke-linejoin:round; stroke-width:12; stroke-opacity:1; fill:none" stroke-dasharray="48, 30" points="
  296.348,1739.43 401.989,1572.05 507.63,1404.66 613.271,1237.27 718.911,1069.88 824.552,902.493 930.193,735.105 1035.83,567.717 1141.47,400.328 1247.12,232.94 
  1352.76,65.5522 
  "/>
<polyline clip-path="url(#clip772)" style="stroke:#ff0000; stroke-linecap:butt; stroke-linejoin:round; stroke-width:12; stroke-opacity:1; fill:none" stroke-dasharray="6, 12" points="
  296.348,1417.73 401.989,1281.73 507.63,1145.73 613.271,1009.73 718.911,873.723 824.552,737.72 930.193,601.717 1035.83,465.714 1141.47,329.712 1247.12,193.709 
  1352.76,57.7059 
  "/>
</svg>
