<?xml version="1.0" encoding="utf-8"?>
<svg xmlns="http://www.w3.org/2000/svg" xmlns:xlink="http://www.w3.org/1999/xlink" width="800" height="800" viewBox="0 0 3200 3200">
<defs>
  <clipPath id="clip800">
    <rect x="0" y="0" width="3200" height="3200"/>
  </clipPath>
</defs>
<path clip-path="url(#clip800)" d="
M0 3200 L3200 3200 L3200 0 L0 0  Z
  " fill="#ffffff" fill-rule="evenodd" fill-opacity="1"/>
<defs>
  <clipPath id="clip801">
    <rect x="640" y="320" width="2241" height="2241"/>
  </clipPath>
</defs>
<defs>
  <clipPath id="clip802">
    <rect x="677" y="107" width="2416" height="2392"/>
  </clipPath>
</defs>
<path clip-path="url(#clip800)" d="
M327.841 2873.79 L3152.76 2873.79 L3152.76 48.8746 L327.841 48.8746  Z
  " fill="#ffffff" fill-rule="evenodd" fill-opacity="1"/>
<defs>
  <clipPath id="clip803">
    <rect x="327" y="48" width="2826" height="2826"/>
  </clipPath>
</defs>
<polyline clip-path="url(#clip803)" style="stroke:#000000; stroke-linecap:butt; stroke-linejoin:round; stroke-width:2; stroke-opacity:0.1; fill:none" points="
  1226.68,2873.79 1226.68,48.8746 
  "/>
<polyline clip-path="url(#clip803)" style="stroke:#000000; stroke-linecap:butt; stroke-linejoin:round; stroke-width:2; stroke-opacity:0.1; fill:none" points="
  1868.7,2873.79 1868.7,48.8746 
  "/>
<polyline clip-path="url(#clip803)" style="stroke:#000000; stroke-linecap:butt; stroke-linejoin:round; stroke-width:2; stroke-opacity:0.1; fill:none" points="
  2510.73,2873.79 2510.73,48.8746 
  "/>
<polyline clip-path="url(#clip803)" style="stroke:#000000; stroke-linecap:butt; stroke-linejoin:round; stroke-width:2; stroke-opacity:0.1; fill:none" points="
  3152.76,2873.79 3152.76,48.8746 
  "/>
<polyline clip-path="url(#clip800)" style="stroke:#000000; stroke-linecap:butt; stroke-linejoin:round; stroke-width:4; stroke-opacity:1; fill:none" points="
  327.841,2616.98 3152.76,2616.98 
  "/>
<polyline clip-path="url(#clip800)" style="stroke:#000000; stroke-linecap:butt; stroke-linejoin:round; stroke-width:4; stroke-opacity:1; fill:none" points="
  1226.68,2635.85 1226.68,2598.1 
  "/>
<polyline clip-path="url(#clip800)" style="stroke:#000000; stroke-linecap:butt; stroke-linejoin:round; stroke-width:4; stroke-opacity:1; fill:none" points="
  1868.7,2635.85 1868.7,2598.1 
  "/>
<polyline clip-path="url(#clip800)" style="stroke:#000000; stroke-linecap:butt; stroke-linejoin:round; stroke-width:4; stroke-opacity:1; fill:none" points="
  2510.73,2635.85 2510.73,2598.1 
  "/>
<polyline clip-path="url(#clip800)" style="stroke:#000000; stroke-linecap:butt; stroke-linejoin:round; stroke-width:4; stroke-opacity:1; fill:none" points="
  3152.76,2635.85 3152.76,2598.1 
  "/>
<polyline clip-path="url(#clip800)" style="stroke:#000000; stroke-linecap:butt; stroke-linejoin:round; stroke-width:4; stroke-opacity:1; fill:none" points="
  327.841,2626.42 327.841,2607.54 
  "/>
<polyline clip-path="url(#clip800)" style="stroke:#000000; stroke-linecap:butt; stroke-linejoin:round; stroke-width:4; stroke-opacity:1; fill:none" points="
  456.246,2626.42 456.246,2607.54 
  "/>
<polyline clip-path="url(#clip800)" style="stroke:#000000; stroke-linecap:butt; stroke-linejoin:round; stroke-width:4; stroke-opacity:1; fill:none" points="
  713.057,2626.42 713.057,2607.54 
  "/>
<polyline clip-path="url(#clip800)" style="stroke:#000000; stroke-linecap:butt; stroke-linejoin:round; stroke-width:4; stroke-opacity:1; fill:none" points="
  841.462,2626.42 841.462,2607.54 
  "/>
<polyline clip-path="url(#clip800)" style="stroke:#000000; stroke-linecap:butt; stroke-linejoin:round; stroke-width:4; stroke-opacity:1; fill:none" points="
  969.867,2626.42 969.867,2607.54 
  "/>
<polyline clip-path="url(#clip800)" style="stroke:#000000; stroke-linecap:butt; stroke-linejoin:round; stroke-width:4; stroke-opacity:1; fill:none" points="
  1098.27,2626.42 1098.27,2607.54 
  "/>
<polyline clip-path="url(#clip800)" style="stroke:#000000; stroke-linecap:butt; stroke-linejoin:round; stroke-width:4; stroke-opacity:1; fill:none" points="
  1355.08,2626.42 1355.08,2607.54 
  "/>
<polyline clip-path="url(#clip800)" style="stroke:#000000; stroke-linecap:butt; stroke-linejoin:round; stroke-width:4; stroke-opacity:1; fill:none" points="
  1483.49,2626.42 1483.49,2607.54 
  "/>
<polyline clip-path="url(#clip800)" style="stroke:#000000; stroke-linecap:butt; stroke-linejoin:round; stroke-width:4; stroke-opacity:1; fill:none" points="
  1611.89,2626.42 1611.89,2607.54 
  "/>
<polyline clip-path="url(#clip800)" style="stroke:#000000; stroke-linecap:butt; stroke-linejoin:round; stroke-width:4; stroke-opacity:1; fill:none" points="
  1740.3,2626.42 1740.3,2607.54 
  "/>
<polyline clip-path="url(#clip800)" style="stroke:#000000; stroke-linecap:butt; stroke-linejoin:round; stroke-width:4; stroke-opacity:1; fill:none" points="
  1997.11,2626.42 1997.11,2607.54 
  "/>
<polyline clip-path="url(#clip800)" style="stroke:#000000; stroke-linecap:butt; stroke-linejoin:round; stroke-width:4; stroke-opacity:1; fill:none" points="
  2125.51,2626.42 2125.51,2607.54 
  "/>
<polyline clip-path="url(#clip800)" style="stroke:#000000; stroke-linecap:butt; stroke-linejoin:round; stroke-width:4; stroke-opacity:1; fill:none" points="
  2253.92,2626.42 2253.92,2607.54 
  "/>
<polyline clip-path="url(#clip800)" style="stroke:#000000; stroke-linecap:butt; stroke-linejoin:round; stroke-width:4; stroke-opacity:1; fill:none" points="
  2382.32,2626.42 2382.32,2607.54 
  "/>
<polyline clip-path="url(#clip800)" style="stroke:#000000; stroke-linecap:butt; stroke-linejoin:round; stroke-width:4; stroke-opacity:1; fill:none" points="
  2639.14,2626.42 2639.14,2607.54 
  "/>
<polyline clip-path="url(#clip800)" style="stroke:#000000; stroke-linecap:butt; stroke-linejoin:round; stroke-width:4; stroke-opacity:1; fill:none" points="
  2767.54,2626.42 2767.54,2607.54 
  "/>
<polyline clip-path="url(#clip800)" style="stroke:#000000; stroke-linecap:butt; stroke-linejoin:round; stroke-width:4; stroke-opacity:1; fill:none" points="
  2895.95,2626.42 2895.95,2607.54 
  "/>
<polyline clip-path="url(#clip800)" style="stroke:#000000; stroke-linecap:butt; stroke-linejoin:round; stroke-width:4; stroke-opacity:1; fill:none" points="
  3024.35,2626.42 3024.35,2607.54 
  "/>
<path clip-path="url(#clip800)" d="M1209.66 2657.7 L1241.79 2657.7 L1241.79 2664.59 L1217.16 2664.59 L1217.16 2679.41 Q1218.94 2678.8 1220.72 2678.52 Q1222.51 2678.2 1224.29 2678.2 Q1234.41 2678.2 1240.33 2683.75 Q1246.24 2689.3 1246.24 2698.78 Q1246.24 2708.54 1240.17 2713.97 Q1234.09 2719.35 1223.03 2719.35 Q1219.22 2719.35 1215.25 2718.71 Q1211.32 2718.06 1207.11 2716.76 L1207.11 2708.54 Q1210.76 2710.52 1214.65 2711.49 Q1218.54 2712.47 1222.87 2712.47 Q1229.88 2712.47 1233.97 2708.78 Q1238.06 2705.09 1238.06 2698.78 Q1238.06 2692.46 1233.97 2688.77 Q1229.88 2685.08 1222.87 2685.08 Q1219.59 2685.08 1216.31 2685.81 Q1213.07 2686.54 1209.66 2688.08 L1209.66 2657.7 Z" fill="#000000" fill-rule="evenodd" fill-opacity="1" /><path clip-path="url(#clip800)" d="M1824.41 2711.29 L1837.78 2711.29 L1837.78 2665.15 L1823.23 2668.07 L1823.23 2660.62 L1837.69 2657.7 L1845.88 2657.7 L1845.88 2711.29 L1859.24 2711.29 L1859.24 2718.18 L1824.41 2718.18 L1824.41 2711.29 Z" fill="#000000" fill-rule="evenodd" fill-opacity="1" /><path clip-path="url(#clip800)" d="M1893.27 2663.09 Q1886.95 2663.09 1883.75 2669.33 Q1880.59 2675.52 1880.59 2688 Q1880.59 2700.44 1883.75 2706.67 Q1886.95 2712.87 1893.27 2712.87 Q1899.63 2712.87 1902.79 2706.67 Q1905.99 2700.44 1905.99 2688 Q1905.99 2675.52 1902.79 2669.33 Q1899.63 2663.09 1893.27 2663.09 M1893.27 2656.61 Q1903.44 2656.61 1908.79 2664.67 Q1914.18 2672.69 1914.18 2688 Q1914.18 2703.27 1908.79 2711.33 Q1903.44 2719.35 1893.27 2719.35 Q1883.1 2719.35 1877.72 2711.33 Q1872.37 2703.27 1872.37 2688 Q1872.37 2672.69 1877.72 2664.67 Q1883.1 2656.61 1893.27 2656.61 Z" fill="#000000" fill-rule="evenodd" fill-opacity="1" /><path clip-path="url(#clip800)" d="M2467.3 2711.29 L2480.67 2711.29 L2480.67 2665.15 L2466.13 2668.07 L2466.13 2660.62 L2480.59 2657.7 L2488.77 2657.7 L2488.77 2711.29 L2502.14 2711.29 L2502.14 2718.18 L2467.3 2718.18 L2467.3 2711.29 Z" fill="#000000" fill-rule="evenodd" fill-opacity="1" /><path clip-path="url(#clip800)" d="M2518.75 2657.7 L2550.87 2657.7 L2550.87 2664.59 L2526.24 2664.59 L2526.24 2679.41 Q2528.03 2678.8 2529.81 2678.52 Q2531.59 2678.2 2533.37 2678.2 Q2543.5 2678.2 2549.42 2683.75 Q2555.33 2689.3 2555.33 2698.78 Q2555.33 2708.54 2549.25 2713.97 Q2543.18 2719.35 2532.12 2719.35 Q2528.31 2719.35 2524.34 2718.71 Q2520.41 2718.06 2516.2 2716.76 L2516.2 2708.54 Q2519.84 2710.52 2523.73 2711.49 Q2527.62 2712.47 2531.96 2712.47 Q2538.96 2712.47 2543.06 2708.78 Q2547.15 2705.09 2547.15 2698.78 Q2547.15 2692.46 2543.06 2688.77 Q2538.96 2685.08 2531.96 2685.08 Q2528.68 2685.08 2525.39 2685.81 Q2522.15 2686.54 2518.75 2688.08 L2518.75 2657.7 Z" fill="#000000" fill-rule="evenodd" fill-opacity="1" /><path clip-path="url(#clip800)" d="M3115.61 2711.29 L3144.17 2711.29 L3144.17 2718.18 L3105.77 2718.18 L3105.77 2711.29 Q3110.42 2706.47 3118.44 2698.37 Q3126.51 2690.23 3128.57 2687.88 Q3132.5 2683.46 3134.04 2680.42 Q3135.62 2677.35 3135.62 2674.39 Q3135.62 2669.57 3132.22 2666.53 Q3128.86 2663.49 3123.43 2663.49 Q3119.58 2663.49 3115.29 2664.83 Q3111.03 2666.17 3106.17 2668.88 L3106.17 2660.62 Q3111.11 2658.63 3115.41 2657.62 Q3119.7 2656.61 3123.27 2656.61 Q3132.66 2656.61 3138.25 2661.3 Q3143.84 2666 3143.84 2673.86 Q3143.84 2677.59 3142.43 2680.95 Q3141.05 2684.27 3137.36 2688.81 Q3136.35 2689.98 3130.92 2695.62 Q3125.49 2701.21 3115.61 2711.29 Z" fill="#000000" fill-rule="evenodd" fill-opacity="1" /><path clip-path="url(#clip800)" d="M3178.84 2663.09 Q3172.52 2663.09 3169.32 2669.33 Q3166.16 2675.52 3166.16 2688 Q3166.16 2700.44 3169.32 2706.67 Q3172.52 2712.87 3178.84 2712.87 Q3185.2 2712.87 3188.36 2706.67 Q3191.56 2700.44 3191.56 2688 Q3191.56 2675.52 3188.36 2669.33 Q3185.2 2663.09 3178.84 2663.09 M3178.84 2656.61 Q3189.01 2656.61 3194.36 2664.67 Q3199.75 2672.69 3199.75 2688 Q3199.75 2703.27 3194.36 2711.33 Q3189.01 2719.35 3178.84 2719.35 Q3168.68 2719.35 3163.29 2711.33 Q3157.94 2703.27 3157.94 2688 Q3157.94 2672.69 3163.29 2664.67 Q3168.68 2656.61 3178.84 2656.61 Z" fill="#000000" fill-rule="evenodd" fill-opacity="1" /><path clip-path="url(#clip800)" d="M1764.78 3043.22 Q1764.78 3046.33 1762.83 3048.11 Q1760.89 3049.83 1758.66 3049.83 Q1756.55 3049.83 1755.44 3048.61 Q1754.32 3047.39 1754.32 3045.83 Q1754.32 3043.72 1755.88 3041.88 Q1757.44 3040.04 1759.78 3039.66 Q1757.49 3038.21 1754.1 3038.21 Q1751.88 3038.21 1749.93 3039.38 Q1748.04 3040.55 1746.87 3042.05 Q1745.76 3043.55 1744.76 3045.72 Q1743.81 3047.83 1743.42 3049.11 Q1743.09 3050.34 1742.81 3051.67 L1738.91 3067.25 Q1737.02 3074.65 1737.02 3077.26 Q1737.02 3080.49 1738.58 3082.66 Q1740.14 3084.77 1743.25 3084.77 Q1744.48 3084.77 1745.87 3084.44 Q1747.26 3084.05 1749.04 3083.05 Q1750.87 3081.99 1752.49 3080.43 Q1754.16 3078.82 1755.77 3076.09 Q1757.38 3073.37 1758.44 3069.86 Q1758.77 3068.64 1759.89 3068.64 Q1761.28 3068.64 1761.28 3069.75 Q1761.28 3070.7 1760.5 3072.7 Q1759.78 3074.65 1758.16 3077.2 Q1756.6 3079.71 1754.55 3081.99 Q1752.49 3084.21 1749.43 3085.77 Q1746.37 3087.33 1743.03 3087.33 Q1738.25 3087.33 1735.08 3084.77 Q1731.91 3082.21 1730.74 3078.65 Q1730.46 3079.15 1730.07 3079.82 Q1729.68 3080.49 1728.51 3081.99 Q1727.4 3083.43 1726.12 3084.55 Q1724.84 3085.6 1722.84 3086.44 Q1720.89 3087.33 1718.78 3087.33 Q1716.11 3087.33 1713.71 3086.55 Q1711.38 3085.77 1709.71 3083.99 Q1708.04 3082.21 1708.04 3079.76 Q1708.04 3077.04 1709.88 3075.15 Q1711.77 3073.2 1714.33 3073.2 Q1715.94 3073.2 1717.22 3074.14 Q1718.55 3075.09 1718.55 3077.15 Q1718.55 3079.43 1717 3081.15 Q1715.44 3082.88 1713.21 3083.32 Q1715.49 3084.77 1718.89 3084.77 Q1722.56 3084.77 1725.45 3081.54 Q1728.35 3078.32 1729.74 3072.92 Q1733.18 3059.96 1734.52 3054.17 Q1735.85 3048.33 1735.85 3045.83 Q1735.85 3043.49 1735.24 3041.88 Q1734.63 3040.27 1733.57 3039.54 Q1732.57 3038.76 1731.63 3038.49 Q1730.74 3038.21 1729.74 3038.21 Q1728.07 3038.21 1726.18 3038.88 Q1724.34 3039.54 1722.11 3041.1 Q1719.95 3042.6 1717.89 3045.72 Q1715.83 3048.83 1714.44 3053.12 Q1714.16 3054.4 1712.94 3054.4 Q1711.6 3054.34 1711.6 3053.23 Q1711.6 3052.28 1712.32 3050.34 Q1713.1 3048.33 1714.66 3045.83 Q1716.27 3043.33 1718.33 3041.1 Q1720.45 3038.82 1723.51 3037.26 Q1726.62 3035.71 1729.96 3035.71 Q1731.46 3035.71 1732.91 3036.04 Q1734.41 3036.32 1736.19 3037.15 Q1738.02 3037.99 1739.64 3039.82 Q1741.25 3041.66 1742.25 3044.33 Q1742.92 3043.05 1743.81 3041.82 Q1744.76 3040.6 1746.2 3039.1 Q1747.7 3037.54 1749.76 3036.65 Q1751.88 3035.71 1754.21 3035.71 Q1756.49 3035.71 1758.72 3036.32 Q1760.94 3036.87 1762.83 3038.71 Q1764.78 3040.49 1764.78 3043.22 Z" fill="#000000" fill-rule="evenodd" fill-opacity="1" /><polyline clip-path="url(#clip803)" style="stroke:#000000; stroke-linecap:butt; stroke-linejoin:round; stroke-width:2; stroke-opacity:0.1; fill:none" points="
  327.841,1974.95 3152.76,1974.95 
  "/>
<polyline clip-path="url(#clip803)" style="stroke:#000000; stroke-linecap:butt; stroke-linejoin:round; stroke-width:2; stroke-opacity:0.1; fill:none" points="
  327.841,1332.93 3152.76,1332.93 
  "/>
<polyline clip-path="url(#clip803)" style="stroke:#000000; stroke-linecap:butt; stroke-linejoin:round; stroke-width:2; stroke-opacity:0.1; fill:none" points="
  327.841,690.901 3152.76,690.901 
  "/>
<polyline clip-path="url(#clip803)" style="stroke:#000000; stroke-linecap:butt; stroke-linejoin:round; stroke-width:2; stroke-opacity:0.1; fill:none" points="
  327.841,48.8746 3152.76,48.8746 
  "/>
<polyline clip-path="url(#clip800)" style="stroke:#000000; stroke-linecap:butt; stroke-linejoin:round; stroke-width:4; stroke-opacity:1; fill:none" points="
  584.652,2873.79 584.652,48.8746 
  "/>
<polyline clip-path="url(#clip800)" style="stroke:#000000; stroke-linecap:butt; stroke-linejoin:round; stroke-width:4; stroke-opacity:1; fill:none" points="
  565.754,1974.95 603.549,1974.95 
  "/>
<polyline clip-path="url(#clip800)" style="stroke:#000000; stroke-linecap:butt; stroke-linejoin:round; stroke-width:4; stroke-opacity:1; fill:none" points="
  565.754,1332.93 603.549,1332.93 
  "/>
<polyline clip-path="url(#clip800)" style="stroke:#000000; stroke-linecap:butt; stroke-linejoin:round; stroke-width:4; stroke-opacity:1; fill:none" points="
  565.754,690.901 603.549,690.901 
  "/>
<polyline clip-path="url(#clip800)" style="stroke:#000000; stroke-linecap:butt; stroke-linejoin:round; stroke-width:4; stroke-opacity:1; fill:none" points="
  565.754,48.8746 603.549,48.8746 
  "/>
<polyline clip-path="url(#clip800)" style="stroke:#000000; stroke-linecap:butt; stroke-linejoin:round; stroke-width:4; stroke-opacity:1; fill:none" points="
  575.203,2873.79 594.1,2873.79 
  "/>
<polyline clip-path="url(#clip800)" style="stroke:#000000; stroke-linecap:butt; stroke-linejoin:round; stroke-width:4; stroke-opacity:1; fill:none" points="
  575.203,2745.38 594.1,2745.38 
  "/>
<polyline clip-path="url(#clip800)" style="stroke:#000000; stroke-linecap:butt; stroke-linejoin:round; stroke-width:4; stroke-opacity:1; fill:none" points="
  575.203,2488.57 594.1,2488.57 
  "/>
<polyline clip-path="url(#clip800)" style="stroke:#000000; stroke-linecap:butt; stroke-linejoin:round; stroke-width:4; stroke-opacity:1; fill:none" points="
  575.203,2360.17 594.1,2360.17 
  "/>
<polyline clip-path="url(#clip800)" style="stroke:#000000; stroke-linecap:butt; stroke-linejoin:round; stroke-width:4; stroke-opacity:1; fill:none" points="
  575.203,2231.76 594.1,2231.76 
  "/>
<polyline clip-path="url(#clip800)" style="stroke:#000000; stroke-linecap:butt; stroke-linejoin:round; stroke-width:4; stroke-opacity:1; fill:none" points="
  575.203,2103.36 594.1,2103.36 
  "/>
<polyline clip-path="url(#clip800)" style="stroke:#000000; stroke-linecap:butt; stroke-linejoin:round; stroke-width:4; stroke-opacity:1; fill:none" points="
  575.203,1846.55 594.1,1846.55 
  "/>
<polyline clip-path="url(#clip800)" style="stroke:#000000; stroke-linecap:butt; stroke-linejoin:round; stroke-width:4; stroke-opacity:1; fill:none" points="
  575.203,1718.14 594.1,1718.14 
  "/>
<polyline clip-path="url(#clip800)" style="stroke:#000000; stroke-linecap:butt; stroke-linejoin:round; stroke-width:4; stroke-opacity:1; fill:none" points="
  575.203,1589.74 594.1,1589.74 
  "/>
<polyline clip-path="url(#clip800)" style="stroke:#000000; stroke-linecap:butt; stroke-linejoin:round; stroke-width:4; stroke-opacity:1; fill:none" points="
  575.203,1461.33 594.1,1461.33 
  "/>
<polyline clip-path="url(#clip800)" style="stroke:#000000; stroke-linecap:butt; stroke-linejoin:round; stroke-width:4; stroke-opacity:1; fill:none" points="
  575.203,1204.52 594.1,1204.52 
  "/>
<polyline clip-path="url(#clip800)" style="stroke:#000000; stroke-linecap:butt; stroke-linejoin:round; stroke-width:4; stroke-opacity:1; fill:none" points="
  575.203,1076.12 594.1,1076.12 
  "/>
<polyline clip-path="url(#clip800)" style="stroke:#000000; stroke-linecap:butt; stroke-linejoin:round; stroke-width:4; stroke-opacity:1; fill:none" points="
  575.203,947.711 594.1,947.711 
  "/>
<polyline clip-path="url(#clip800)" style="stroke:#000000; stroke-linecap:butt; stroke-linejoin:round; stroke-width:4; stroke-opacity:1; fill:none" points="
  575.203,819.306 594.1,819.306 
  "/>
<polyline clip-path="url(#clip800)" style="stroke:#000000; stroke-linecap:butt; stroke-linejoin:round; stroke-width:4; stroke-opacity:1; fill:none" points="
  575.203,562.495 594.1,562.495 
  "/>
<polyline clip-path="url(#clip800)" style="stroke:#000000; stroke-linecap:butt; stroke-linejoin:round; stroke-width:4; stroke-opacity:1; fill:none" points="
  575.203,434.09 594.1,434.09 
  "/>
<polyline clip-path="url(#clip800)" style="stroke:#000000; stroke-linecap:butt; stroke-linejoin:round; stroke-width:4; stroke-opacity:1; fill:none" points="
  575.203,305.685 594.1,305.685 
  "/>
<polyline clip-path="url(#clip800)" style="stroke:#000000; stroke-linecap:butt; stroke-linejoin:round; stroke-width:4; stroke-opacity:1; fill:none" points="
  575.203,177.28 594.1,177.28 
  "/>
<path clip-path="url(#clip800)" d="M500.072 1944.71 L532.196 1944.71 L532.196 1951.6 L507.566 1951.6 L507.566 1966.43 Q509.348 1965.82 511.131 1965.53 Q512.913 1965.21 514.696 1965.21 Q524.823 1965.21 530.737 1970.76 Q536.652 1976.31 536.652 1985.79 Q536.652 1995.55 530.575 2000.98 Q524.499 2006.37 513.44 2006.37 Q509.632 2006.37 505.662 2005.72 Q501.733 2005.07 497.52 2003.78 L497.52 1995.55 Q501.166 1997.54 505.055 1998.51 Q508.943 1999.48 513.278 1999.48 Q520.286 1999.48 524.377 1995.79 Q528.469 1992.11 528.469 1985.79 Q528.469 1979.47 524.377 1975.78 Q520.286 1972.1 513.278 1972.1 Q509.997 1972.1 506.715 1972.83 Q503.475 1973.56 500.072 1975.09 L500.072 1944.71 Z" fill="#000000" fill-rule="evenodd" fill-opacity="1" /><path clip-path="url(#clip800)" d="M446.884 1356.28 L460.252 1356.28 L460.252 1310.14 L445.709 1313.06 L445.709 1305.6 L460.17 1302.69 L468.353 1302.69 L468.353 1356.28 L481.721 1356.28 L481.721 1363.17 L446.884 1363.17 L446.884 1356.28 Z" fill="#000000" fill-rule="evenodd" fill-opacity="1" /><path clip-path="url(#clip800)" d="M515.749 1308.07 Q509.429 1308.07 506.229 1314.31 Q503.07 1320.51 503.07 1332.99 Q503.07 1345.42 506.229 1351.66 Q509.429 1357.86 515.749 1357.86 Q522.109 1357.86 525.269 1351.66 Q528.469 1345.42 528.469 1332.99 Q528.469 1320.51 525.269 1314.31 Q522.109 1308.07 515.749 1308.07 M515.749 1301.59 Q525.917 1301.59 531.264 1309.65 Q536.652 1317.68 536.652 1332.99 Q536.652 1348.26 531.264 1356.32 Q525.917 1364.34 515.749 1364.34 Q505.581 1364.34 500.193 1356.32 Q494.846 1348.26 494.846 1332.99 Q494.846 1317.68 500.193 1309.65 Q505.581 1301.59 515.749 1301.59 Z" fill="#000000" fill-rule="evenodd" fill-opacity="1" /><path clip-path="url(#clip800)" d="M448.625 714.254 L461.993 714.254 L461.993 668.114 L447.451 671.031 L447.451 663.577 L461.912 660.661 L470.095 660.661 L470.095 714.254 L483.463 714.254 L483.463 721.141 L448.625 721.141 L448.625 714.254 Z" fill="#000000" fill-rule="evenodd" fill-opacity="1" /><path clip-path="url(#clip800)" d="M500.072 660.661 L532.196 660.661 L532.196 667.547 L507.566 667.547 L507.566 682.374 Q509.348 681.766 511.131 681.482 Q512.913 681.158 514.696 681.158 Q524.823 681.158 530.737 686.708 Q536.652 692.258 536.652 701.737 Q536.652 711.5 530.575 716.928 Q524.499 722.315 513.44 722.315 Q509.632 722.315 505.662 721.667 Q501.733 721.019 497.52 719.723 L497.52 711.5 Q501.166 713.484 505.055 714.457 Q508.943 715.429 513.278 715.429 Q520.286 715.429 524.377 711.743 Q528.469 708.056 528.469 701.737 Q528.469 695.417 524.377 691.731 Q520.286 688.045 513.278 688.045 Q509.997 688.045 506.715 688.774 Q503.475 689.503 500.072 691.042 L500.072 660.661 Z" fill="#000000" fill-rule="evenodd" fill-opacity="1" /><path clip-path="url(#clip800)" d="M452.514 72.228 L481.073 72.228 L481.073 79.1146 L442.671 79.1146 L442.671 72.228 Q447.329 67.4075 455.35 59.3057 Q463.411 51.1633 465.477 48.8138 Q469.407 44.3983 470.946 41.3602 Q472.526 38.2815 472.526 35.3243 Q472.526 30.5037 469.123 27.4656 Q465.761 24.4274 460.333 24.4274 Q456.484 24.4274 452.19 25.7642 Q447.937 27.101 443.076 29.8151 L443.076 21.5512 Q448.018 19.5663 452.312 18.5536 Q456.606 17.5408 460.17 17.5408 Q469.569 17.5408 475.159 22.2399 Q480.749 26.9389 480.749 34.7977 Q480.749 38.5245 479.331 41.8868 Q477.954 45.2085 474.268 49.7455 Q473.255 50.9203 467.827 56.551 Q462.398 62.1413 452.514 72.228 Z" fill="#000000" fill-rule="evenodd" fill-opacity="1" /><path clip-path="url(#clip800)" d="M515.749 24.0223 Q509.429 24.0223 506.229 30.2607 Q503.07 36.4586 503.07 48.9353 Q503.07 61.3716 506.229 67.61 Q509.429 73.8079 515.749 73.8079 Q522.109 73.8079 525.269 67.61 Q528.469 61.3716 528.469 48.9353 Q528.469 36.4586 525.269 30.2607 Q522.109 24.0223 515.749 24.0223 M515.749 17.5408 Q525.917 17.5408 531.264 25.6021 Q536.652 33.6229 536.652 48.9353 Q536.652 64.2073 531.264 72.2686 Q525.917 80.2893 515.749 80.2893 Q505.581 80.2893 500.193 72.2686 Q494.846 64.2073 494.846 48.9353 Q494.846 33.6229 500.193 25.6021 Q505.581 17.5408 515.749 17.5408 Z" fill="#000000" fill-rule="evenodd" fill-opacity="1" /><path clip-path="url(#clip800)" d="M55.9617 1436.39 Q56.7405 1436.39 58.5762 1436.89 L102.078 1447.8 Q111.757 1450.19 118.544 1457.98 Q125.33 1465.71 125.33 1474.5 Q125.33 1479.78 122.493 1483.18 Q119.712 1486.57 115.428 1486.57 Q111.646 1486.57 109.81 1484.57 Q108.03 1482.56 108.03 1480.17 Q108.03 1479.39 108.252 1478.56 Q108.475 1477.72 109.421 1476.83 Q110.366 1475.94 111.979 1475.94 Q114.594 1475.94 116.652 1478.23 Q117.598 1479.34 117.82 1480.4 Q118.043 1481.4 118.043 1483.12 Q119.6 1482.45 120.657 1481.23 Q121.714 1480.01 122.104 1478.61 Q122.549 1477.22 122.66 1476.33 Q122.827 1475.39 122.827 1474.5 Q122.827 1467.38 115.651 1461.93 Q113.481 1460.31 111.312 1459.15 Q109.198 1457.92 106.583 1457.03 Q104.025 1456.14 102.634 1455.75 Q101.243 1455.31 98.0723 1454.53 Q103.246 1459.7 103.246 1466.04 Q103.246 1468.71 102.523 1471.11 Q101.799 1473.44 100.297 1475.5 Q98.7399 1477.56 96.0141 1478.78 Q93.2883 1479.95 89.6725 1479.95 Q85.8341 1479.95 80.6051 1478.45 Q75.376 1476.95 65.7523 1473.33 Q60.3564 1471.38 57.7418 1471.38 Q56.4624 1471.38 55.6836 1471.66 Q54.8491 1471.94 54.571 1472.5 Q54.2372 1473.05 54.1816 1473.39 Q54.126 1473.66 54.126 1474.22 Q54.126 1477.5 57.4637 1480.56 Q60.8014 1483.62 68.2556 1485.74 Q69.6463 1486.18 69.98 1486.46 Q70.3138 1486.74 70.3138 1487.57 Q70.2582 1488.96 69.1456 1488.96 Q68.7006 1488.96 66.9761 1488.46 Q65.196 1487.96 62.5815 1486.79 Q59.9113 1485.57 57.5193 1483.9 Q55.0717 1482.23 53.3472 1479.62 Q51.6227 1476.95 51.6227 1473.89 Q51.6227 1469.71 54.3485 1467.16 Q57.0187 1464.54 60.9683 1464.54 Q62.5815 1464.54 64.0278 1464.99 Q65.4185 1465.38 69.1456 1466.82 Q84.1653 1472.66 91.5082 1472.66 Q93.2883 1472.66 94.7903 1472.38 Q96.2366 1472.05 97.6829 1471.33 Q99.0737 1470.6 99.9081 1469.16 Q100.687 1467.66 100.687 1465.6 Q100.687 1462.98 99.4631 1460.54 Q98.1836 1458.03 96.4591 1456.47 Q94.7346 1454.86 93.2883 1453.92 Q91.7863 1452.91 91.0075 1452.69 L70.5363 1447.57 L61.4133 1445.29 Q56.4624 1444.24 55.2385 1443.74 Q54.0704 1443.07 53.4584 1441.9 Q52.8465 1440.73 52.8465 1439.73 Q52.8465 1438.34 53.681 1437.39 Q54.5154 1436.39 55.9617 1436.39 Z" fill="#000000" fill-rule="evenodd" fill-opacity="1" /><path clip-path="url(#clip803)" d="
M841.462 1461.33 L854.303 1480.59 L867.143 1499.85 L879.984 1519.11 L892.824 1538.38 L905.665 1557.64 L918.505 1576.9 L931.346 1596.16 L944.186 1615.42 L957.027 1634.68 
  L969.867 1653.94 L982.708 1673.2 L995.548 1692.46 L1008.39 1711.72 L1021.23 1730.98 L1034.07 1750.24 L1046.91 1769.5 L1059.75 1788.77 L1072.59 1808.03 L1085.43 1827.29 
  L1098.27 1846.55 L1111.11 1865.81 L1123.95 1885.07 L1136.79 1904.33 L1149.63 1923.59 L1162.48 1942.85 L1175.32 1962.11 L1188.16 1981.37 L1201 2000.63 L1213.84 2019.89 
  L1226.68 2039.16 L1239.52 2058.42 L1252.36 2077.68 L1265.2 2096.94 L1278.04 2116.2 L1290.88 2135.46 L1303.72 2154.72 L1316.56 2173.98 L1329.4 2193.24 L1342.24 2212.5 
  L1355.08 2231.76 L1367.92 2225.34 L1380.76 2218.92 L1393.6 2212.5 L1406.44 2206.08 L1419.29 2199.66 L1432.13 2193.24 L1444.97 2186.82 L1457.81 2180.4 L1470.65 2173.98 
  L1483.49 2167.56 L1496.33 2161.14 L1509.17 2154.72 L1522.01 2148.3 L1534.85 2141.88 L1547.69 2135.46 L1560.53 2129.04 L1573.37 2122.62 L1586.21 2116.2 L1599.05 2109.78 
  L1611.89 2103.36 L1624.73 2096.94 L1637.57 2090.52 L1650.41 2084.1 L1663.26 2077.68 L1676.1 2071.26 L1688.94 2064.84 L1701.78 2058.42 L1714.62 2052 L1727.46 2045.58 
  L1740.3 2039.16 L1753.14 2032.74 L1765.98 2026.31 L1778.82 2019.89 L1791.66 2013.47 L1804.5 2007.05 L1817.34 2000.63 L1830.18 1994.21 L1843.02 1987.79 L1855.86 1981.37 
  L1868.7 1974.95 L1881.54 1968.53 L1894.38 1962.11 L1907.23 1955.69 L1920.07 1949.27 L1932.91 1942.85 L1945.75 1936.43 L1958.59 1930.01 L1971.43 1923.59 L1984.27 1917.17 
  L1997.11 1910.75 L1997.11 1974.95 L1984.27 1962.11 L1971.43 1949.27 L1958.59 1936.43 L1945.75 1923.59 L1932.91 1910.75 L1920.07 1897.91 L1907.23 1885.07 L1894.38 1872.23 
  L1881.54 1859.39 L1868.7 1846.55 L1855.86 1833.71 L1843.02 1820.87 L1830.18 1808.03 L1817.34 1795.19 L1804.5 1782.35 L1791.66 1769.5 L1778.82 1756.66 L1765.98 1743.82 
  L1753.14 1730.98 L1740.3 1718.14 L1727.46 1705.3 L1714.62 1692.46 L1701.78 1679.62 L1688.94 1666.78 L1676.1 1653.94 L1663.26 1641.1 L1650.41 1628.26 L1637.57 1615.42 
  L1624.73 1602.58 L1611.89 1589.74 L1599.05 1576.9 L1586.21 1564.06 L1573.37 1551.22 L1560.53 1538.38 L1547.69 1525.53 L1534.85 1512.69 L1522.01 1499.85 L1509.17 1487.01 
  L1496.33 1474.17 L1483.49 1461.33 L1470.65 1448.49 L1457.81 1435.65 L1444.97 1422.81 L1432.13 1409.97 L1419.29 1397.13 L1406.44 1384.29 L1393.6 1371.45 L1380.76 1358.61 
  L1367.92 1345.77 L1355.08 1332.93 L1342.24 1320.09 L1329.4 1307.25 L1316.56 1294.41 L1303.72 1281.56 L1290.88 1268.72 L1278.04 1255.88 L1265.2 1243.04 L1252.36 1230.2 
  L1239.52 1217.36 L1226.68 1204.52 L1213.84 1191.68 L1201 1178.84 L1188.16 1166 L1175.32 1153.16 L1162.48 1140.32 L1149.63 1127.48 L1136.79 1114.64 L1123.95 1101.8 
  L1111.11 1088.96 L1098.27 1076.12 L1085.43 1063.28 L1072.59 1050.44 L1059.75 1037.59 L1046.91 1024.75 L1034.07 1011.91 L1021.23 999.073 L1008.39 986.233 L995.548 973.392 
  L982.708 960.552 L969.867 947.711 L957.027 941.291 L944.186 999.073 L931.346 1056.86 L918.505 1114.64 L905.665 1172.42 L892.824 1230.2 L879.984 1287.98 L867.143 1345.77 
  L854.303 1403.55 L841.462 1461.33  Z
  " fill="#add8e6" fill-rule="evenodd" fill-opacity="1"/>
<polyline clip-path="url(#clip803)" style="stroke:#add8e6; stroke-linecap:butt; stroke-linejoin:round; stroke-width:4; stroke-opacity:1; fill:none" points="
  841.462,1461.33 854.303,1480.59 867.143,1499.85 879.984,1519.11 892.824,1538.38 905.665,1557.64 918.505,1576.9 931.346,1596.16 944.186,1615.42 957.027,1634.68 
  969.867,1653.94 982.708,1673.2 995.548,1692.46 1008.39,1711.72 1021.23,1730.98 1034.07,1750.24 1046.91,1769.5 1059.75,1788.77 1072.59,1808.03 1085.43,1827.29 
  1098.27,1846.55 1111.11,1865.81 1123.95,1885.07 1136.79,1904.33 1149.63,1923.59 1162.48,1942.85 1175.32,1962.11 1188.16,1981.37 1201,2000.63 1213.84,2019.89 
  1226.68,2039.16 1239.52,2058.42 1252.36,2077.68 1265.2,2096.94 1278.04,2116.2 1290.88,2135.46 1303.72,2154.72 1316.56,2173.98 1329.4,2193.24 1342.24,2212.5 
  1355.08,2231.76 1367.92,2225.34 1380.76,2218.92 1393.6,2212.5 1406.44,2206.08 1419.29,2199.66 1432.13,2193.24 1444.97,2186.82 1457.81,2180.4 1470.65,2173.98 
  1483.49,2167.56 1496.33,2161.14 1509.17,2154.72 1522.01,2148.3 1534.85,2141.88 1547.69,2135.46 1560.53,2129.04 1573.37,2122.62 1586.21,2116.2 1599.05,2109.78 
  1611.89,2103.36 1624.73,2096.94 1637.57,2090.52 1650.41,2084.1 1663.26,2077.68 1676.1,2071.26 1688.94,2064.84 1701.78,2058.42 1714.62,2052 1727.46,2045.58 
  1740.3,2039.16 1753.14,2032.74 1765.98,2026.31 1778.82,2019.89 1791.66,2013.47 1804.5,2007.05 1817.34,2000.63 1830.18,1994.21 1843.02,1987.79 1855.86,1981.37 
  1868.7,1974.95 1881.54,1968.53 1894.38,1962.11 1907.23,1955.69 1920.07,1949.27 1932.91,1942.85 1945.75,1936.43 1958.59,1930.01 1971.43,1923.59 1984.27,1917.17 
  1997.11,1910.75 
  "/>
<polyline clip-path="url(#clip803)" style="stroke:#008000; stroke-linecap:butt; stroke-linejoin:round; stroke-width:12; stroke-opacity:1; fill:none" points="
  327.841,3772.63 340.682,3714.84 353.522,3657.06 366.363,3599.28 379.203,3541.5 392.044,3483.71 404.884,3425.93 417.725,3368.15 430.565,3310.37 443.406,3252.58 
  456.246,3194.8 469.087,3137.02 481.927,3079.24 494.768,3021.46 507.608,2963.67 520.449,2905.89 533.289,2848.11 546.13,2790.33 558.971,2732.54 571.811,2674.76 
  584.652,2616.98 597.492,2559.2 610.333,2501.41 623.173,2443.63 636.014,2385.85 648.854,2328.07 661.695,2270.28 674.535,2212.5 687.376,2154.72 700.216,2096.94 
  713.057,2039.16 725.897,1981.37 738.738,1923.59 751.578,1865.81 764.419,1808.03 777.259,1750.24 790.1,1692.46 802.94,1634.68 815.781,1576.9 828.621,1519.11 
  841.462,1461.33 854.303,1403.55 867.143,1345.77 879.984,1287.98 892.824,1230.2 905.665,1172.42 918.505,1114.64 931.346,1056.86 944.186,999.073 957.027,941.291 
  969.867,883.508 982.708,825.726 995.548,767.944 1008.39,710.161 1021.23,652.379 1034.07,594.597 1046.91,536.814 1059.75,479.032 1072.59,421.25 1085.43,363.467 
  1098.27,305.685 1111.11,247.903 1123.95,190.12 1136.79,132.338 1149.63,74.5556 1162.48,16.7733 1175.32,-41.0091 1188.16,-98.7914 1201,-156.574 1213.84,-214.356 
  1226.68,-272.138 1239.52,-329.921 1252.36,-387.703 1265.2,-445.486 1278.04,-503.268 1290.88,-561.05 1303.72,-618.833 1316.56,-676.615 1329.4,-734.397 1342.24,-792.18 
  1355.08,-849.962 1367.92,-907.744 1380.76,-965.527 1393.6,-1023.31 1406.44,-1081.09 1419.29,-1138.87 1432.13,-1196.66 1444.97,-1254.44 1457.81,-1312.22 1470.65,-1370 
  1483.49,-1427.79 1496.33,-1485.57 1509.17,-1543.35 1522.01,-1601.13 1534.85,-1658.91 1547.69,-1716.7 1560.53,-1774.48 1573.37,-1832.26 1586.21,-1890.04 1599.05,-1947.83 
  1611.89,-2005.61 1624.73,-2063.39 1637.57,-2121.17 1650.41,-2178.96 1663.26,-2236.74 1676.1,-2294.52 1688.94,-2352.3 1701.78,-2410.09 1714.62,-2467.87 1727.46,-2525.65 
  1740.3,-2583.43 1753.14,-2641.21 1765.98,-2699 1778.82,-2756.78 1791.66,-2814.56 1804.5,-2872.34 1817.34,-2930.13 1830.18,-2987.91 1843.02,-3045.69 1855.86,-3103.47 
  1868.7,-3161.26 1881.54,-3219.04 1894.38,-3276.82 1907.23,-3334.6 1920.07,-3392.39 1932.91,-3450.17 1945.75,-3507.95 1958.59,-3565.73 1971.43,-3623.51 1984.27,-3681.3 
  1997.11,-3739.08 2009.95,-3796.86 2022.79,-3854.64 2035.63,-3912.43 2048.47,-3970.21 2061.31,-4027.99 2074.15,-4085.77 2086.99,-4143.56 2099.83,-4201.34 2112.67,-4259.12 
  2125.51,-4316.9 2138.35,-4374.69 2151.2,-4432.47 2164.04,-4490.25 2176.88,-4548.03 2189.72,-4605.81 2202.56,-4663.6 2215.4,-4721.38 2228.24,-4779.16 2241.08,-4836.94 
  2253.92,-4894.73 2266.76,-4952.51 2279.6,-5010.29 2292.44,-5068.07 2305.28,-5125.86 2318.12,-5183.64 2330.96,-5241.42 2343.8,-5299.2 2356.64,-5356.99 2369.48,-5414.77 
  2382.32,-5472.55 2395.17,-5530.33 2408.01,-5588.11 2420.85,-5645.9 2433.69,-5703.68 2446.53,-5761.46 2459.37,-5819.24 2472.21,-5877.03 2485.05,-5934.81 2497.89,-5992.59 
  2510.73,-6050.37 2523.57,-6108.16 2536.41,-6165.94 2549.25,-6223.72 2562.09,-6281.5 2574.93,-6339.28 2587.77,-6397.07 2600.61,-6454.85 2613.45,-6512.63 2626.29,-6570.41 
  2639.14,-6628.2 2651.98,-6685.98 2664.82,-6743.76 2677.66,-6801.54 2690.5,-6859.33 2703.34,-6917.11 2716.18,-6974.89 2729.02,-7032.67 2741.86,-7090.46 2754.7,-7148.24 
  2767.54,-7206.02 2780.38,-7263.8 2793.22,-7321.58 2806.06,-7379.37 2818.9,-7437.15 2831.74,-7494.93 2844.58,-7552.71 2857.42,-7610.5 2870.26,-7668.28 2883.1,-7726.06 
  2895.95,-7783.84 2908.79,-7841.63 2921.63,-7899.41 2934.47,-7957.19 2947.31,-8014.97 2960.15,-8072.76 2972.99,-8130.54 2985.83,-8188.32 2998.67,-8246.1 3011.51,-8303.88 
  3024.35,-8361.67 3037.19,-8419.45 3050.03,-8477.23 3062.87,-8535.01 3075.71,-8592.8 3088.55,-8650.58 3101.39,-8708.36 3114.23,-8766.14 3127.07,-8823.93 3139.92,-8881.71 
  3152.76,-8939.49 
  "/>
<polyline clip-path="url(#clip803)" style="stroke:#ff0000; stroke-linecap:butt; stroke-linejoin:round; stroke-width:12; stroke-opacity:1; fill:none" points="
  327.841,305.685 340.682,318.526 353.522,331.366 366.363,344.207 379.203,357.047 392.044,369.888 404.884,382.728 417.725,395.569 430.565,408.409 443.406,421.25 
  456.246,434.09 469.087,446.931 481.927,459.771 494.768,472.612 507.608,485.452 520.449,498.293 533.289,511.133 546.13,523.974 558.971,536.814 571.811,549.655 
  584.652,562.495 597.492,575.336 610.333,588.176 623.173,601.017 636.014,613.858 648.854,626.698 661.695,639.539 674.535,652.379 687.376,665.22 700.216,678.06 
  713.057,690.901 725.897,703.741 738.738,716.582 751.578,729.422 764.419,742.263 777.259,755.103 790.1,767.944 802.94,780.784 815.781,793.625 828.621,806.465 
  841.462,819.306 854.303,832.146 867.143,844.987 879.984,857.827 892.824,870.668 905.665,883.508 918.505,896.349 931.346,909.19 944.186,922.03 957.027,934.871 
  969.867,947.711 982.708,960.552 995.548,973.392 1008.39,986.233 1021.23,999.073 1034.07,1011.91 1046.91,1024.75 1059.75,1037.59 1072.59,1050.44 1085.43,1063.28 
  1098.27,1076.12 1111.11,1088.96 1123.95,1101.8 1136.79,1114.64 1149.63,1127.48 1162.48,1140.32 1175.32,1153.16 1188.16,1166 1201,1178.84 1213.84,1191.68 
  1226.68,1204.52 1239.52,1217.36 1252.36,1230.2 1265.2,1243.04 1278.04,1255.88 1290.88,1268.72 1303.72,1281.56 1316.56,1294.41 1329.4,1307.25 1342.24,1320.09 
  1355.08,1332.93 1367.92,1345.77 1380.76,1358.61 1393.6,1371.45 1406.44,1384.29 1419.29,1397.13 1432.13,1409.97 1444.97,1422.81 1457.81,1435.65 1470.65,1448.49 
  1483.49,1461.33 1496.33,1474.17 1509.17,1487.01 1522.01,1499.85 1534.85,1512.69 1547.69,1525.53 1560.53,1538.38 1573.37,1551.22 1586.21,1564.06 1599.05,1576.9 
  1611.89,1589.74 1624.73,1602.58 1637.57,1615.42 1650.41,1628.26 1663.26,1641.1 1676.1,1653.94 1688.94,1666.78 1701.78,1679.62 1714.62,1692.46 1727.46,1705.3 
  1740.3,1718.14 1753.14,1730.98 1765.98,1743.82 1778.82,1756.66 1791.66,1769.5 1804.5,1782.35 1817.34,1795.19 1830.18,1808.03 1843.02,1820.87 1855.86,1833.71 
  1868.7,1846.55 1881.54,1859.39 1894.38,1872.23 1907.23,1885.07 1920.07,1897.91 1932.91,1910.75 1945.75,1923.59 1958.59,1936.43 1971.43,1949.27 1984.27,1962.11 
  1997.11,1974.95 2009.95,1987.79 2022.79,2000.63 2035.63,2013.47 2048.47,2026.31 2061.31,2039.16 2074.15,2052 2086.99,2064.84 2099.83,2077.68 2112.67,2090.52 
  2125.51,2103.36 2138.35,2116.2 2151.2,2129.04 2164.04,2141.88 2176.88,2154.72 2189.72,2167.56 2202.56,2180.4 2215.4,2193.24 2228.24,2206.08 2241.08,2218.92 
  2253.92,2231.76 2266.76,2244.6 2279.6,2257.44 2292.44,2270.28 2305.28,2283.13 2318.12,2295.97 2330.96,2308.81 2343.8,2321.65 2356.64,2334.49 2369.48,2347.33 
  2382.32,2360.17 2395.17,2373.01 2408.01,2385.85 2420.85,2398.69 2433.69,2411.53 2446.53,2424.37 2459.37,2437.21 2472.21,2450.05 2485.05,2462.89 2497.89,2475.73 
  2510.73,2488.57 2523.57,2501.41 2536.41,2514.25 2549.25,2527.1 2562.09,2539.94 2574.93,2552.78 2587.77,2565.62 2600.61,2578.46 2613.45,2591.3 2626.29,2604.14 
  2639.14,2616.98 2651.98,2629.82 2664.82,2642.66 2677.66,2655.5 2690.5,2668.34 2703.34,2681.18 2716.18,2694.02 2729.02,2706.86 2741.86,2719.7 2754.7,2732.54 
  2767.54,2745.38 2780.38,2758.22 2793.22,2771.07 2806.06,2783.91 2818.9,2796.75 2831.74,2809.59 2844.58,2822.43 2857.42,2835.27 2870.26,2848.11 2883.1,2860.95 
  2895.95,2873.79 2908.79,2886.63 2921.63,2899.47 2934.47,2912.31 2947.31,2925.15 2960.15,2937.99 2972.99,2950.83 2985.83,2963.67 2998.67,2976.51 3011.51,2989.35 
  3024.35,3002.19 3037.19,3015.04 3050.03,3027.88 3062.87,3040.72 3075.71,3053.56 3088.55,3066.4 3101.39,3079.24 3114.23,3092.08 3127.07,3104.92 3139.92,3117.76 
  3152.76,3130.6 
  "/>
<polyline clip-path="url(#clip803)" style="stroke:#a52a2a; stroke-linecap:butt; stroke-linejoin:round; stroke-width:12; stroke-opacity:1; fill:none" points="
  327.841,690.901 340.682,710.161 353.522,729.422 366.363,748.683 379.203,767.944 392.044,787.205 404.884,806.465 417.725,825.726 430.565,844.987 443.406,864.248 
  456.246,883.508 469.087,902.769 481.927,922.03 494.768,941.291 507.608,960.552 520.449,979.812 533.289,999.073 546.13,1018.33 558.971,1037.59 571.811,1056.86 
  584.652,1076.12 597.492,1095.38 610.333,1114.64 623.173,1133.9 636.014,1153.16 648.854,1172.42 661.695,1191.68 674.535,1210.94 687.376,1230.2 700.216,1249.46 
  713.057,1268.72 725.897,1287.98 738.738,1307.25 751.578,1326.51 764.419,1345.77 777.259,1365.03 790.1,1384.29 802.94,1403.55 815.781,1422.81 828.621,1442.07 
  841.462,1461.33 854.303,1480.59 867.143,1499.85 879.984,1519.11 892.824,1538.38 905.665,1557.64 918.505,1576.9 931.346,1596.16 944.186,1615.42 957.027,1634.68 
  969.867,1653.94 982.708,1673.2 995.548,1692.46 1008.39,1711.72 1021.23,1730.98 1034.07,1750.24 1046.91,1769.5 1059.75,1788.77 1072.59,1808.03 1085.43,1827.29 
  1098.27,1846.55 1111.11,1865.81 1123.95,1885.07 1136.79,1904.33 1149.63,1923.59 1162.48,1942.85 1175.32,1962.11 1188.16,1981.37 1201,2000.63 1213.84,2019.89 
  1226.68,2039.16 1239.52,2058.42 1252.36,2077.68 1265.2,2096.94 1278.04,2116.2 1290.88,2135.46 1303.72,2154.72 1316.56,2173.98 1329.4,2193.24 1342.24,2212.5 
  1355.08,2231.76 1367.92,2251.02 1380.76,2270.28 1393.6,2289.55 1406.44,2308.81 1419.29,2328.07 1432.13,2347.33 1444.97,2366.59 1457.81,2385.85 1470.65,2405.11 
  1483.49,2424.37 1496.33,2443.63 1509.17,2462.89 1522.01,2482.15 1534.85,2501.41 1547.69,2520.68 1560.53,2539.94 1573.37,2559.2 1586.21,2578.46 1599.05,2597.72 
  1611.89,2616.98 1624.73,2636.24 1637.57,2655.5 1650.41,2674.76 1663.26,2694.02 1676.1,2713.28 1688.94,2732.54 1701.78,2751.8 1714.62,2771.07 1727.46,2790.33 
  1740.3,2809.59 1753.14,2828.85 1765.98,2848.11 1778.82,2867.37 1791.66,2886.63 1804.5,2905.89 1817.34,2925.15 1830.18,2944.41 1843.02,2963.67 1855.86,2982.93 
  1868.7,3002.19 1881.54,3021.46 1894.38,3040.72 1907.23,3059.98 1920.07,3079.24 1932.91,3098.5 1945.75,3117.76 1958.59,3137.02 1971.43,3156.28 1984.27,3175.54 
  1997.11,3194.8 2009.95,3214.06 2022.79,3233.32 2035.63,3252.58 2048.47,3271.85 2061.31,3291.11 2074.15,3310.37 2086.99,3329.63 2099.83,3348.89 2112.67,3368.15 
  2125.51,3387.41 2138.35,3406.67 2151.2,3425.93 2164.04,3445.19 2176.88,3464.45 2189.72,3483.71 2202.56,3502.97 2215.4,3522.24 2228.24,3541.5 2241.08,3560.76 
  2253.92,3580.02 2266.76,3599.28 2279.6,3618.54 2292.44,3637.8 2305.28,3657.06 2318.12,3676.32 2330.96,3695.58 2343.8,3714.84 2356.64,3734.1 2369.48,3753.37 
  2382.32,3772.63 2395.17,3791.89 2408.01,3811.15 2420.85,3830.41 2433.69,3849.67 2446.53,3868.93 2459.37,3888.19 2472.21,3907.45 2485.05,3926.71 2497.89,3945.97 
  2510.73,3965.23 2523.57,3984.49 2536.41,4003.76 2549.25,4023.02 2562.09,4042.28 2574.93,4061.54 2587.77,4080.8 2600.61,4100.06 2613.45,4119.32 2626.29,4138.58 
  2639.14,4157.84 2651.98,4177.1 2664.82,4196.36 2677.66,4215.62 2690.5,4234.88 2703.34,4254.15 2716.18,4273.41 2729.02,4292.67 2741.86,4311.93 2754.7,4331.19 
  2767.54,4350.45 2780.38,4369.71 2793.22,4388.97 2806.06,4408.23 2818.9,4427.49 2831.74,4446.75 2844.58,4466.01 2857.42,4485.27 2870.26,4504.54 2883.1,4523.8 
  2895.95,4543.06 2908.79,4562.32 2921.63,4581.58 2934.47,4600.84 2947.31,4620.1 2960.15,4639.36 2972.99,4658.62 2985.83,4677.88 2998.67,4697.14 3011.51,4716.4 
  3024.35,4735.66 3037.19,4754.93 3050.03,4774.19 3062.87,4793.45 3075.71,4812.71 3088.55,4831.97 3101.39,4851.23 3114.23,4870.49 3127.07,4889.75 3139.92,4909.01 
  3152.76,4928.27 
  "/>
<polyline clip-path="url(#clip803)" style="stroke:#800080; stroke-linecap:butt; stroke-linejoin:round; stroke-width:12; stroke-opacity:1; fill:none" points="
  327.841,2745.38 340.682,2738.96 353.522,2732.54 366.363,2726.12 379.203,2719.7 392.044,2713.28 404.884,2706.86 417.725,2700.44 430.565,2694.02 443.406,2687.6 
  456.246,2681.18 469.087,2674.76 481.927,2668.34 494.768,2661.92 507.608,2655.5 520.449,2649.08 533.289,2642.66 546.13,2636.24 558.971,2629.82 571.811,2623.4 
  584.652,2616.98 597.492,2610.56 610.333,2604.14 623.173,2597.72 636.014,2591.3 648.854,2584.88 661.695,2578.46 674.535,2572.04 687.376,2565.62 700.216,2559.2 
  713.057,2552.78 725.897,2546.36 738.738,2539.94 751.578,2533.52 764.419,2527.1 777.259,2520.68 790.1,2514.25 802.94,2507.83 815.781,2501.41 828.621,2494.99 
  841.462,2488.57 854.303,2482.15 867.143,2475.73 879.984,2469.31 892.824,2462.89 905.665,2456.47 918.505,2450.05 931.346,2443.63 944.186,2437.21 957.027,2430.79 
  969.867,2424.37 982.708,2417.95 995.548,2411.53 1008.39,2405.11 1021.23,2398.69 1034.07,2392.27 1046.91,2385.85 1059.75,2379.43 1072.59,2373.01 1085.43,2366.59 
  1098.27,2360.17 1111.11,2353.75 1123.95,2347.33 1136.79,2340.91 1149.63,2334.49 1162.48,2328.07 1175.32,2321.65 1188.16,2315.23 1201,2308.81 1213.84,2302.39 
  1226.68,2295.97 1239.52,2289.55 1252.36,2283.13 1265.2,2276.71 1278.04,2270.28 1290.88,2263.86 1303.72,2257.44 1316.56,2251.02 1329.4,2244.6 1342.24,2238.18 
  1355.08,2231.76 1367.92,2225.34 1380.76,2218.92 1393.6,2212.5 1406.44,2206.08 1419.29,2199.66 1432.13,2193.24 1444.97,2186.82 1457.81,2180.4 1470.65,2173.98 
  1483.49,2167.56 1496.33,2161.14 1509.17,2154.72 1522.01,2148.3 1534.85,2141.88 1547.69,2135.46 1560.53,2129.04 1573.37,2122.62 1586.21,2116.2 1599.05,2109.78 
  1611.89,2103.36 1624.73,2096.94 1637.57,2090.52 1650.41,2084.1 1663.26,2077.68 1676.1,2071.26 1688.94,2064.84 1701.78,2058.42 1714.62,2052 1727.46,2045.58 
  1740.3,2039.16 1753.14,2032.74 1765.98,2026.31 1778.82,2019.89 1791.66,2013.47 1804.5,2007.05 1817.34,2000.63 1830.18,1994.21 1843.02,1987.79 1855.86,1981.37 
  1868.7,1974.95 1881.54,1968.53 1894.38,1962.11 1907.23,1955.69 1920.07,1949.27 1932.91,1942.85 1945.75,1936.43 1958.59,1930.01 1971.43,1923.59 1984.27,1917.17 
  1997.11,1910.75 2009.95,1904.33 2022.79,1897.91 2035.63,1891.49 2048.47,1885.07 2061.31,1878.65 2074.15,1872.23 2086.99,1865.81 2099.83,1859.39 2112.67,1852.97 
  2125.51,1846.55 2138.35,1840.13 2151.2,1833.71 2164.04,1827.29 2176.88,1820.87 2189.72,1814.45 2202.56,1808.03 2215.4,1801.61 2228.24,1795.19 2241.08,1788.77 
  2253.92,1782.35 2266.76,1775.92 2279.6,1769.5 2292.44,1763.08 2305.28,1756.66 2318.12,1750.24 2330.96,1743.82 2343.8,1737.4 2356.64,1730.98 2369.48,1724.56 
  2382.32,1718.14 2395.17,1711.72 2408.01,1705.3 2420.85,1698.88 2433.69,1692.46 2446.53,1686.04 2459.37,1679.62 2472.21,1673.2 2485.05,1666.78 2497.89,1660.36 
  2510.73,1653.94 2523.57,1647.52 2536.41,1641.1 2549.25,1634.68 2562.09,1628.26 2574.93,1621.84 2587.77,1615.42 2600.61,1609 2613.45,1602.58 2626.29,1596.16 
  2639.14,1589.74 2651.98,1583.32 2664.82,1576.9 2677.66,1570.48 2690.5,1564.06 2703.34,1557.64 2716.18,1551.22 2729.02,1544.8 2741.86,1538.38 2754.7,1531.95 
  2767.54,1525.53 2780.38,1519.11 2793.22,1512.69 2806.06,1506.27 2818.9,1499.85 2831.74,1493.43 2844.58,1487.01 2857.42,1480.59 2870.26,1474.17 2883.1,1467.75 
  2895.95,1461.33 2908.79,1454.91 2921.63,1448.49 2934.47,1442.07 2947.31,1435.65 2960.15,1429.23 2972.99,1422.81 2985.83,1416.39 2998.67,1409.97 3011.51,1403.55 
  3024.35,1397.13 3037.19,1390.71 3050.03,1384.29 3062.87,1377.87 3075.71,1371.45 3088.55,1365.03 3101.39,1358.61 3114.23,1352.19 3127.07,1345.77 3139.92,1339.35 
  3152.76,1332.93 
  "/>
</svg>
