<?xml version="1.0" encoding="utf-8"?>
<svg xmlns="http://www.w3.org/2000/svg" xmlns:xlink="http://www.w3.org/1999/xlink" width="600" height="400" viewBox="0 0 2400 1600">
<defs>
  <clipPath id="clip710">
    <rect x="0" y="0" width="2400" height="1600"/>
  </clipPath>
</defs>
<path clip-path="url(#clip710)" d="
M0 1600 L2400 1600 L2400 0 L0 0  Z
  " fill="#ffffff" fill-rule="evenodd" fill-opacity="1"/>
<defs>
  <clipPath id="clip711">
    <rect x="480" y="0" width="1681" height="1600"/>
  </clipPath>
</defs>
<path clip-path="url(#clip710)" d="
M255.308 1454.93 L2352.76 1454.93 L2352.76 47.2441 L255.308 47.2441  Z
  " fill="#ffffff" fill-rule="evenodd" fill-opacity="1"/>
<defs>
  <clipPath id="clip712">
    <rect x="255" y="47" width="2098" height="1409"/>
  </clipPath>
</defs>
<polyline clip-path="url(#clip710)" style="stroke:#000000; stroke-linecap:butt; stroke-linejoin:round; stroke-width:4; stroke-opacity:1; fill:none" points="
  255.308,1454.93 2352.76,1454.93 
  "/>
<path clip-path="url(#clip710)" d="M838.161 1516.47 L838.161 1580.3 L851.575 1580.3 Q868.563 1580.3 876.424 1572.6 Q884.341 1564.9 884.341 1548.3 Q884.341 1531.81 876.424 1524.17 Q868.563 1516.47 851.575 1516.47 L838.161 1516.47 M827.056 1507.34 L849.871 1507.34 Q873.731 1507.34 884.891 1517.29 Q896.051 1527.19 896.051 1548.3 Q896.051 1569.52 884.836 1579.47 Q873.621 1589.42 849.871 1589.42 L827.056 1589.42 L827.056 1507.34 Z" fill="#000000" fill-rule="evenodd" fill-opacity="1" /><path clip-path="url(#clip710)" d="M965.981 1556.11 L965.981 1561.06 L919.471 1561.06 Q920.131 1571.5 925.738 1577 Q931.401 1582.44 941.462 1582.44 Q947.289 1582.44 952.732 1581.01 Q958.23 1579.58 963.617 1576.72 L963.617 1586.29 Q958.175 1588.6 952.457 1589.81 Q946.739 1591.02 940.857 1591.02 Q926.123 1591.02 917.492 1582.44 Q908.916 1573.87 908.916 1559.24 Q908.916 1544.12 917.052 1535.27 Q925.244 1526.37 939.098 1526.37 Q951.522 1526.37 958.724 1534.39 Q965.981 1542.36 965.981 1556.11 M955.866 1553.14 Q955.756 1544.84 951.193 1539.89 Q946.685 1534.94 939.208 1534.94 Q930.741 1534.94 925.628 1539.73 Q920.571 1544.51 919.801 1553.19 L955.866 1553.14 Z" fill="#000000" fill-rule="evenodd" fill-opacity="1" /><path clip-path="url(#clip710)" d="M1026.9 1530.21 L1026.9 1539.67 Q1022.61 1537.31 1018.26 1536.15 Q1013.98 1534.94 1009.58 1534.94 Q999.737 1534.94 994.294 1541.21 Q988.852 1547.42 988.852 1558.69 Q988.852 1569.96 994.294 1576.23 Q999.737 1582.44 1009.58 1582.44 Q1013.98 1582.44 1018.26 1581.29 Q1022.61 1580.08 1026.9 1577.71 L1026.9 1587.06 Q1022.66 1589.04 1018.1 1590.03 Q1013.59 1591.02 1008.48 1591.02 Q994.569 1591.02 986.378 1582.28 Q978.186 1573.54 978.186 1558.69 Q978.186 1543.63 986.433 1535 Q994.734 1526.37 1009.14 1526.37 Q1013.81 1526.37 1018.26 1527.36 Q1022.72 1528.29 1026.9 1530.21 Z" fill="#000000" fill-rule="evenodd" fill-opacity="1" /><path clip-path="url(#clip710)" d="M1044.49 1527.85 L1054.6 1527.85 L1054.6 1589.42 L1044.49 1589.42 L1044.49 1527.85 M1044.49 1503.88 L1054.6 1503.88 L1054.6 1516.69 L1044.49 1516.69 L1044.49 1503.88 Z" fill="#000000" fill-rule="evenodd" fill-opacity="1" /><path clip-path="url(#clip710)" d="M1115.02 1529.66 L1115.02 1539.23 Q1110.73 1537.03 1106.12 1535.93 Q1101.5 1534.83 1096.55 1534.83 Q1089.02 1534.83 1085.23 1537.14 Q1081.49 1539.45 1081.49 1544.07 Q1081.49 1547.59 1084.18 1549.62 Q1086.87 1551.6 1095.01 1553.41 L1098.47 1554.18 Q1109.25 1556.49 1113.76 1560.73 Q1118.32 1564.9 1118.32 1572.44 Q1118.32 1581.01 1111.5 1586.02 Q1104.74 1591.02 1092.87 1591.02 Q1087.92 1591.02 1082.53 1590.03 Q1077.2 1589.09 1071.26 1587.17 L1071.26 1576.72 Q1076.87 1579.64 1082.31 1581.12 Q1087.75 1582.55 1093.09 1582.55 Q1100.23 1582.55 1104.08 1580.13 Q1107.93 1577.66 1107.93 1573.21 Q1107.93 1569.08 1105.13 1566.88 Q1102.38 1564.68 1092.98 1562.65 L1089.46 1561.83 Q1080.06 1559.85 1075.88 1555.78 Q1071.7 1551.65 1071.7 1544.51 Q1071.7 1535.82 1077.86 1531.09 Q1084.02 1526.37 1095.34 1526.37 Q1100.95 1526.37 1105.9 1527.19 Q1110.84 1528.02 1115.02 1529.66 Z" fill="#000000" fill-rule="evenodd" fill-opacity="1" /><path clip-path="url(#clip710)" d="M1134.43 1527.85 L1144.55 1527.85 L1144.55 1589.42 L1134.43 1589.42 L1134.43 1527.85 M1134.43 1503.88 L1144.55 1503.88 L1144.55 1516.69 L1134.43 1516.69 L1134.43 1503.88 Z" fill="#000000" fill-rule="evenodd" fill-opacity="1" /><path clip-path="url(#clip710)" d="M1189.57 1534.94 Q1181.43 1534.94 1176.71 1541.32 Q1171.98 1547.64 1171.98 1558.69 Q1171.98 1569.74 1176.65 1576.12 Q1181.38 1582.44 1189.57 1582.44 Q1197.65 1582.44 1202.38 1576.06 Q1207.11 1569.69 1207.11 1558.69 Q1207.11 1547.75 1202.38 1541.37 Q1197.65 1534.94 1189.57 1534.94 M1189.57 1526.37 Q1202.77 1526.37 1210.3 1534.94 Q1217.83 1543.52 1217.83 1558.69 Q1217.83 1573.81 1210.3 1582.44 Q1202.77 1591.02 1189.57 1591.02 Q1176.32 1591.02 1168.79 1582.44 Q1161.31 1573.81 1161.31 1558.69 Q1161.31 1543.52 1168.79 1534.94 Q1176.32 1526.37 1189.57 1526.37 Z" fill="#000000" fill-rule="evenodd" fill-opacity="1" /><path clip-path="url(#clip710)" d="M1285.78 1552.26 L1285.78 1589.42 L1275.66 1589.42 L1275.66 1552.59 Q1275.66 1543.85 1272.26 1539.51 Q1268.85 1535.16 1262.03 1535.16 Q1253.84 1535.16 1249.11 1540.38 Q1244.38 1545.61 1244.38 1554.62 L1244.38 1589.42 L1234.21 1589.42 L1234.21 1527.85 L1244.38 1527.85 L1244.38 1537.42 Q1248.01 1531.86 1252.9 1529.11 Q1257.85 1526.37 1264.28 1526.37 Q1274.89 1526.37 1280.34 1532.96 Q1285.78 1539.51 1285.78 1552.26 Z" fill="#000000" fill-rule="evenodd" fill-opacity="1" /><path clip-path="url(#clip710)" d="M1363.35 1589.42 L1332.02 1507.34 L1343.62 1507.34 L1369.62 1576.45 L1395.68 1507.34 L1407.22 1507.34 L1375.94 1589.42 L1363.35 1589.42 Z" fill="#000000" fill-rule="evenodd" fill-opacity="1" /><path clip-path="url(#clip710)" d="M1438.01 1558.47 Q1425.75 1558.47 1421.02 1561.28 Q1416.29 1564.08 1416.29 1570.84 Q1416.29 1576.23 1419.81 1579.42 Q1423.39 1582.55 1429.49 1582.55 Q1437.9 1582.55 1442.96 1576.61 Q1448.07 1570.62 1448.07 1560.73 L1448.07 1558.47 L1438.01 1558.47 M1458.19 1554.29 L1458.19 1589.42 L1448.07 1589.42 L1448.07 1580.08 Q1444.61 1585.69 1439.44 1588.38 Q1434.27 1591.02 1426.79 1591.02 Q1417.34 1591.02 1411.73 1585.74 Q1406.18 1580.41 1406.18 1571.5 Q1406.18 1561.11 1413.11 1555.83 Q1420.09 1550.56 1433.89 1550.56 L1448.07 1550.56 L1448.07 1549.57 Q1448.07 1542.58 1443.45 1538.79 Q1438.89 1534.94 1430.59 1534.94 Q1425.31 1534.94 1420.31 1536.21 Q1415.3 1537.47 1410.69 1540 L1410.69 1530.65 Q1416.24 1528.51 1421.46 1527.47 Q1426.68 1526.37 1431.63 1526.37 Q1444.99 1526.37 1451.59 1533.29 Q1458.19 1540.22 1458.19 1554.29 Z" fill="#000000" fill-rule="evenodd" fill-opacity="1" /><path clip-path="url(#clip710)" d="M1514.7 1537.31 Q1513 1536.32 1510.96 1535.88 Q1508.98 1535.38 1506.57 1535.38 Q1497.99 1535.38 1493.37 1540.99 Q1488.81 1546.54 1488.81 1556.99 L1488.81 1589.42 L1478.64 1589.42 L1478.64 1527.85 L1488.81 1527.85 L1488.81 1537.42 Q1492 1531.81 1497.11 1529.11 Q1502.22 1526.37 1509.53 1526.37 Q1510.58 1526.37 1511.84 1526.53 Q1513.11 1526.64 1514.65 1526.92 L1514.7 1537.31 Z" fill="#000000" fill-rule="evenodd" fill-opacity="1" /><path clip-path="url(#clip710)" d="M1525.31 1527.85 L1535.43 1527.85 L1535.43 1589.42 L1525.31 1589.42 L1525.31 1527.85 M1525.31 1503.88 L1535.43 1503.88 L1535.43 1516.69 L1525.31 1516.69 L1525.31 1503.88 Z" fill="#000000" fill-rule="evenodd" fill-opacity="1" /><path clip-path="url(#clip710)" d="M1584.58 1558.47 Q1572.32 1558.47 1567.59 1561.28 Q1562.86 1564.08 1562.86 1570.84 Q1562.86 1576.23 1566.38 1579.42 Q1569.95 1582.55 1576.06 1582.55 Q1584.47 1582.55 1589.53 1576.61 Q1594.64 1570.62 1594.64 1560.73 L1594.64 1558.47 L1584.58 1558.47 M1604.75 1554.29 L1604.75 1589.42 L1594.64 1589.42 L1594.64 1580.08 Q1591.17 1585.69 1586.01 1588.38 Q1580.84 1591.02 1573.36 1591.02 Q1563.91 1591.02 1558.3 1585.74 Q1552.75 1580.41 1552.75 1571.5 Q1552.75 1561.11 1559.67 1555.83 Q1566.66 1550.56 1580.45 1550.56 L1594.64 1550.56 L1594.64 1549.57 Q1594.64 1542.58 1590.02 1538.79 Q1585.46 1534.94 1577.16 1534.94 Q1571.88 1534.94 1566.88 1536.21 Q1561.87 1537.47 1557.25 1540 L1557.25 1530.65 Q1562.81 1528.51 1568.03 1527.47 Q1573.25 1526.37 1578.2 1526.37 Q1591.56 1526.37 1598.16 1533.29 Q1604.75 1540.22 1604.75 1554.29 Z" fill="#000000" fill-rule="evenodd" fill-opacity="1" /><path clip-path="url(#clip710)" d="M1669.79 1558.69 Q1669.79 1547.53 1665.17 1541.21 Q1660.61 1534.83 1652.58 1534.83 Q1644.56 1534.83 1639.94 1541.21 Q1635.38 1547.53 1635.38 1558.69 Q1635.38 1569.85 1639.94 1576.23 Q1644.56 1582.55 1652.58 1582.55 Q1660.61 1582.55 1665.17 1576.23 Q1669.79 1569.85 1669.79 1558.69 M1635.38 1537.2 Q1638.56 1531.7 1643.4 1529.06 Q1648.3 1526.37 1655.06 1526.37 Q1666.27 1526.37 1673.25 1535.27 Q1680.29 1544.18 1680.29 1558.69 Q1680.29 1573.21 1673.25 1582.11 Q1666.27 1591.02 1655.06 1591.02 Q1648.3 1591.02 1643.4 1588.38 Q1638.56 1585.69 1635.38 1580.19 L1635.38 1589.42 L1625.21 1589.42 L1625.21 1503.88 L1635.38 1503.88 L1635.38 1537.2 Z" fill="#000000" fill-rule="evenodd" fill-opacity="1" /><path clip-path="url(#clip710)" d="M1697.06 1503.88 L1707.18 1503.88 L1707.18 1589.42 L1697.06 1589.42 L1697.06 1503.88 Z" fill="#000000" fill-rule="evenodd" fill-opacity="1" /><path clip-path="url(#clip710)" d="M1781.01 1556.11 L1781.01 1561.06 L1734.5 1561.06 Q1735.16 1571.5 1740.77 1577 Q1746.43 1582.44 1756.49 1582.44 Q1762.32 1582.44 1767.76 1581.01 Q1773.26 1579.58 1778.64 1576.72 L1778.64 1586.29 Q1773.2 1588.6 1767.48 1589.81 Q1761.77 1591.02 1755.88 1591.02 Q1741.15 1591.02 1732.52 1582.44 Q1723.94 1573.87 1723.94 1559.24 Q1723.94 1544.12 1732.08 1535.27 Q1740.27 1526.37 1754.13 1526.37 Q1766.55 1526.37 1773.75 1534.39 Q1781.01 1542.36 1781.01 1556.11 M1770.89 1553.14 Q1770.78 1544.84 1766.22 1539.89 Q1761.71 1534.94 1754.24 1534.94 Q1745.77 1534.94 1740.66 1539.73 Q1735.6 1544.51 1734.83 1553.19 L1770.89 1553.14 Z" fill="#000000" fill-rule="evenodd" fill-opacity="1" /><polyline clip-path="url(#clip710)" style="stroke:#000000; stroke-linecap:butt; stroke-linejoin:round; stroke-width:4; stroke-opacity:1; fill:none" points="
  255.308,1454.93 255.308,47.2441 
  "/>
<path clip-path="url(#clip710)" d="M84.1361 973.824 Q84.1361 985.918 93.1523 993.065 Q102.168 1000.16 117.727 1000.16 Q133.23 1000.16 142.246 993.065 Q151.263 985.918 151.263 973.824 Q151.263 961.729 142.246 954.692 Q133.23 947.6 117.727 947.6 Q102.168 947.6 93.1523 954.692 Q84.1361 961.729 84.1361 973.824 M75.12 973.824 Q75.12 956.561 86.72 946.225 Q98.2651 935.89 117.727 935.89 Q137.134 935.89 148.734 946.225 Q160.279 956.561 160.279 973.824 Q160.279 991.141 148.734 1001.53 Q137.189 1011.87 117.727 1011.87 Q98.2651 1011.87 86.72 1001.53 Q75.12 991.141 75.12 973.824 Z" fill="#000000" fill-rule="evenodd" fill-opacity="1" /><path clip-path="url(#clip710)" d="M127.952 874.756 Q116.792 874.756 110.47 879.374 Q104.093 883.937 104.093 891.963 Q104.093 899.99 110.47 904.608 Q116.792 909.171 127.952 909.171 Q139.113 909.171 145.49 904.608 Q151.812 899.99 151.812 891.963 Q151.812 883.937 145.49 879.374 Q139.113 874.756 127.952 874.756 M106.457 909.171 Q100.959 905.982 98.3201 901.144 Q95.6262 896.252 95.6262 889.489 Q95.6262 878.274 104.532 871.292 Q113.439 864.255 127.952 864.255 Q142.466 864.255 151.372 871.292 Q160.279 878.274 160.279 889.489 Q160.279 896.252 157.64 901.144 Q154.946 905.982 149.448 909.171 L158.684 909.171 L158.684 919.342 L73.1408 919.342 L73.1408 909.171 L106.457 909.171 Z" fill="#000000" fill-rule="evenodd" fill-opacity="1" /><path clip-path="url(#clip710)" d="M97.1106 847.487 L97.1106 837.372 L159.784 837.372 Q171.549 837.372 176.827 841.88 Q182.104 846.333 182.104 856.284 L182.104 860.132 L173.528 860.132 L173.528 857.438 Q173.528 851.666 170.834 849.576 Q168.195 847.487 159.784 847.487 L97.1106 847.487 M73.1408 847.487 L73.1408 837.372 L85.9504 837.372 L85.9504 847.487 L73.1408 847.487 Z" fill="#000000" fill-rule="evenodd" fill-opacity="1" /><path clip-path="url(#clip710)" d="M125.369 763.538 L130.316 763.538 L130.316 810.048 Q140.762 809.389 146.26 803.781 Q151.702 798.118 151.702 788.058 Q151.702 782.23 150.273 776.788 Q148.844 771.29 145.985 765.902 L155.551 765.902 Q157.86 771.345 159.069 777.062 Q160.279 782.78 160.279 788.662 Q160.279 803.396 151.702 812.027 Q143.126 820.604 128.502 820.604 Q113.384 820.604 104.532 812.467 Q95.6262 804.276 95.6262 790.422 Q95.6262 777.997 103.653 770.795 Q111.624 763.538 125.369 763.538 M122.4 773.654 Q114.098 773.764 109.15 778.327 Q104.203 782.835 104.203 790.312 Q104.203 798.778 108.986 803.891 Q113.768 808.949 122.455 809.718 L122.4 773.654 Z" fill="#000000" fill-rule="evenodd" fill-opacity="1" /><path clip-path="url(#clip710)" d="M99.4746 702.624 L108.931 702.624 Q106.567 706.912 105.412 711.255 Q104.203 715.544 104.203 719.942 Q104.203 729.783 110.47 735.225 Q116.682 740.668 127.952 740.668 Q139.223 740.668 145.49 735.225 Q151.702 729.783 151.702 719.942 Q151.702 715.544 150.548 711.255 Q149.338 706.912 146.974 702.624 L156.32 702.624 Q158.3 706.857 159.289 711.42 Q160.279 715.928 160.279 721.041 Q160.279 734.95 151.537 743.142 Q142.796 751.333 127.952 751.333 Q112.889 751.333 104.258 743.087 Q95.6262 734.785 95.6262 720.382 Q95.6262 715.709 96.6158 711.255 Q97.5504 706.802 99.4746 702.624 Z" fill="#000000" fill-rule="evenodd" fill-opacity="1" /><path clip-path="url(#clip710)" d="M79.6281 675.026 L97.1106 675.026 L97.1106 654.19 L104.972 654.19 L104.972 675.026 L138.398 675.026 Q145.93 675.026 148.074 672.992 Q150.218 670.903 150.218 664.58 L150.218 654.19 L158.684 654.19 L158.684 664.58 Q158.684 676.29 154.341 680.743 Q149.943 685.197 138.398 685.197 L104.972 685.197 L104.972 692.618 L97.1106 692.618 L97.1106 685.197 L79.6281 685.197 L79.6281 675.026 Z" fill="#000000" fill-rule="evenodd" fill-opacity="1" /><path clip-path="url(#clip710)" d="M97.1106 640.885 L97.1106 630.77 L158.684 630.77 L158.684 640.885 L97.1106 640.885 M73.1408 640.885 L73.1408 630.77 L85.9504 630.77 L85.9504 640.885 L73.1408 640.885 Z" fill="#000000" fill-rule="evenodd" fill-opacity="1" /><path clip-path="url(#clip710)" d="M97.1106 616.861 L97.1106 606.14 L148.789 586.898 L97.1106 567.657 L97.1106 556.936 L158.684 580.026 L158.684 593.771 L97.1106 616.861 Z" fill="#000000" fill-rule="evenodd" fill-opacity="1" /><path clip-path="url(#clip710)" d="M125.369 490.305 L130.316 490.305 L130.316 536.815 Q140.762 536.155 146.26 530.548 Q151.702 524.885 151.702 514.824 Q151.702 508.997 150.273 503.554 Q148.844 498.056 145.985 492.669 L155.551 492.669 Q157.86 498.111 159.069 503.829 Q160.279 509.546 160.279 515.429 Q160.279 530.163 151.702 538.794 Q143.126 547.37 128.502 547.37 Q113.384 547.37 104.532 539.234 Q95.6262 531.042 95.6262 517.188 Q95.6262 504.764 103.653 497.562 Q111.624 490.305 125.369 490.305 M122.4 500.42 Q114.098 500.53 109.15 505.093 Q104.203 509.601 104.203 517.078 Q104.203 525.545 108.986 530.657 Q113.768 535.715 122.455 536.485 L122.4 500.42 Z" fill="#000000" fill-rule="evenodd" fill-opacity="1" /><polyline clip-path="url(#clip712)" style="stroke:#009af9; stroke-linecap:butt; stroke-linejoin:round; stroke-width:12; stroke-opacity:1; fill:none" points="
  255.308,-29.173 257.639,-10.8408 259.969,7.31533 262.3,25.2963 264.63,43.1029 266.961,60.7362 269.291,78.1969 271.622,95.486 273.952,112.604 276.283,129.553 
  278.613,146.332 280.944,162.943 283.274,179.387 285.605,195.665 287.935,211.777 290.266,227.725 292.596,243.508 294.927,259.129 297.257,274.588 299.588,289.885 
  301.918,305.022 304.249,320 306.579,334.819 308.91,349.48 311.24,363.984 313.571,378.333 315.901,392.525 318.232,406.564 320.562,420.449 322.893,434.181 
  325.223,447.762 327.554,461.191 329.884,474.47 332.215,487.6 334.545,500.581 336.876,513.414 339.206,526.101 341.537,538.641 343.867,551.036 346.198,563.287 
  348.528,575.394 350.859,587.359 353.189,599.181 355.52,610.862 357.85,622.403 360.181,633.804 362.511,645.067 364.842,656.191 367.172,667.179 369.503,678.03 
  371.833,688.746 374.164,699.327 376.494,709.774 378.825,720.087 381.155,730.269 383.486,740.319 385.816,750.238 388.147,760.027 390.477,769.687 392.808,779.218 
  395.138,788.622 397.469,797.899 399.799,807.05 402.13,816.075 404.46,824.976 406.791,833.754 409.121,842.408 411.452,850.94 413.782,859.35 416.113,867.64 
  418.443,875.81 420.774,883.861 423.104,891.793 425.435,899.607 427.765,907.305 430.096,914.886 432.426,922.352 434.757,929.704 437.087,936.941 439.418,944.065 
  441.748,951.077 444.079,957.977 446.409,964.766 448.74,971.445 451.07,978.014 453.401,984.474 455.731,990.827 458.062,997.072 460.392,1003.21 462.723,1009.24 
  465.053,1015.17 467.384,1020.99 469.714,1026.71 472.045,1032.33 474.375,1037.84 476.706,1043.26 479.036,1048.57 481.367,1053.78 483.697,1058.89 486.028,1063.9 
  488.358,1068.82 490.689,1073.64 493.019,1078.36 495.35,1082.99 497.68,1087.52 500.011,1091.95 502.341,1096.29 504.672,1100.54 507.002,1104.7 509.333,1108.76 
  511.663,1112.74 513.994,1116.62 516.324,1120.41 518.655,1124.12 520.985,1127.73 523.316,1131.26 525.646,1134.7 527.977,1138.05 530.307,1141.32 532.638,1144.51 
  534.968,1147.61 537.299,1150.62 539.629,1153.55 541.96,1156.4 544.29,1159.17 546.621,1161.86 548.951,1164.47 551.282,1166.99 553.612,1169.44 555.942,1171.81 
  558.273,1174.1 560.603,1176.32 562.934,1178.45 565.264,1180.52 567.595,1182.5 569.925,1184.41 572.256,1186.25 574.586,1188.02 576.917,1189.71 579.247,1191.33 
  581.578,1192.88 583.908,1194.35 586.239,1195.76 588.569,1197.1 590.9,1198.37 593.23,1199.57 595.561,1200.7 597.891,1201.76 600.222,1202.76 602.552,1203.69 
  604.883,1204.56 607.213,1205.36 609.544,1206.1 611.874,1206.78 614.205,1207.39 616.535,1207.94 618.866,1208.42 621.196,1208.85 623.527,1209.22 625.857,1209.52 
  628.188,1209.77 630.518,1209.96 632.849,1210.09 635.179,1210.16 637.51,1210.17 639.84,1210.13 642.171,1210.03 644.501,1209.88 646.832,1209.67 649.162,1209.41 
  651.493,1209.09 653.823,1208.72 656.154,1208.3 658.484,1207.83 660.815,1207.3 663.145,1206.73 665.476,1206.1 667.806,1205.43 670.137,1204.7 672.467,1203.93 
  674.798,1203.11 677.128,1202.24 679.459,1201.32 681.789,1200.36 684.12,1199.35 686.45,1198.3 688.781,1197.2 691.111,1196.06 693.442,1194.87 695.772,1193.64 
  698.103,1192.37 700.433,1191.06 702.764,1189.7 705.094,1188.3 707.425,1186.86 709.755,1185.39 712.086,1183.87 714.416,1182.31 716.747,1180.72 719.077,1179.08 
  721.408,1177.41 723.738,1175.71 726.069,1173.96 728.399,1172.18 730.73,1170.37 733.06,1168.51 735.391,1166.63 737.721,1164.71 740.052,1162.76 742.382,1160.77 
  744.713,1158.75 747.043,1156.7 749.374,1154.62 751.704,1152.51 754.035,1150.37 756.365,1148.19 758.696,1145.99 761.026,1143.76 763.357,1141.5 765.687,1139.21 
  768.018,1136.89 770.348,1134.55 772.679,1132.18 775.009,1129.78 777.34,1127.36 779.67,1124.91 782.001,1122.43 784.331,1119.94 786.662,1117.41 788.992,1114.87 
  791.323,1112.3 793.653,1109.71 795.984,1107.1 798.314,1104.46 800.645,1101.8 802.975,1099.13 805.306,1096.43 807.636,1093.71 809.967,1090.97 812.297,1088.22 
  814.628,1085.44 816.958,1082.65 819.289,1079.84 821.619,1077.01 823.95,1074.16 826.28,1071.3 828.611,1068.42 830.941,1065.53 833.272,1062.62 835.602,1059.69 
  837.933,1056.75 840.263,1053.8 842.594,1050.83 844.924,1047.85 847.255,1044.86 849.585,1041.86 851.916,1038.84 854.246,1035.81 856.577,1032.77 858.907,1029.72 
  861.238,1026.66 863.568,1023.59 865.899,1020.5 868.229,1017.41 870.56,1014.31 872.89,1011.21 875.221,1008.09 877.551,1004.97 879.882,1001.83 882.212,998.697 
  884.543,995.552 886.873,992.4 889.204,989.243 891.534,986.081 893.865,982.913 896.195,979.74 898.526,976.563 900.856,973.382 903.187,970.198 905.517,967.009 
  907.848,963.818 910.178,960.625 912.509,957.429 914.839,954.231 917.17,951.031 919.5,947.83 921.831,944.629 924.161,941.426 926.492,938.224 928.822,935.022 
  931.153,931.82 933.483,928.619 935.814,925.419 938.144,922.22 940.475,919.023 942.805,915.829 945.136,912.636 947.466,909.447 949.797,906.261 952.127,903.078 
  954.458,899.898 956.788,896.723 959.119,893.552 961.449,890.386 963.78,887.224 966.11,884.068 968.441,880.918 970.771,877.773 973.102,874.635 975.432,871.503 
  977.763,868.377 980.093,865.259 982.424,862.148 984.754,859.045 987.084,855.95 989.415,852.863 991.745,849.784 994.076,846.715 996.406,843.654 998.737,840.603 
  1001.07,837.561 1003.4,834.529 1005.73,831.508 1008.06,828.497 1010.39,825.496 1012.72,822.507 1015.05,819.529 1017.38,816.562 1019.71,813.608 1022.04,810.665 
  1024.37,807.734 1026.7,804.817 1029.03,801.911 1031.36,799.019 1033.69,796.141 1036.02,793.276 1038.36,790.424 1040.69,787.587 1043.02,784.764 1045.35,781.956 
  1047.68,779.162 1050.01,776.384 1052.34,773.621 1054.67,770.873 1057,768.141 1059.33,765.425 1061.66,762.725 1063.99,760.041 1066.32,757.374 1068.65,754.724 
  1070.98,752.091 1073.31,749.476 1075.64,746.878 1077.97,744.297 1080.3,741.735 1082.63,739.191 1084.97,736.665 1087.3,734.157 1089.63,731.668 1091.96,729.199 
  1094.29,726.748 1096.62,724.317 1098.95,721.906 1101.28,719.514 1103.61,717.142 1105.94,714.79 1108.27,712.459 1110.6,710.148 1112.93,707.858 1115.26,705.589 
  1117.59,703.341 1119.92,701.114 1122.25,698.908 1124.58,696.724 1126.91,694.562 1129.24,692.422 1131.58,690.304 1133.91,688.208 1136.24,686.135 1138.57,684.084 
  1140.9,682.056 1143.23,680.051 1145.56,678.07 1147.89,676.111 1150.22,674.176 1152.55,672.264 1154.88,670.376 1157.21,668.512 1159.54,666.672 1161.87,664.856 
  1164.2,663.065 1166.53,661.298 1168.86,659.555 1171.19,657.837 1173.52,656.144 1175.85,654.476 1178.19,652.833 1180.52,651.215 1182.85,649.623 1185.18,648.056 
  1187.51,646.515 1189.84,645 1192.17,643.51 1194.5,642.047 1196.83,640.609 1199.16,639.198 1201.49,637.813 1203.82,636.454 1206.15,635.122 1208.48,633.817 
  1210.81,632.538 1213.14,631.286 1215.47,630.061 1217.8,628.864 1220.13,627.693 1222.46,626.55 1224.8,625.434 1227.13,624.345 1229.46,623.284 1231.79,622.25 
  1234.12,621.244 1236.45,620.266 1238.78,619.316 1241.11,618.394 1243.44,617.5 1245.77,616.633 1248.1,615.795 1250.43,614.985 1252.76,614.204 1255.09,613.451 
  1257.42,612.726 1259.75,612.03 1262.08,611.362 1264.41,610.723 1266.74,610.112 1269.07,609.531 1271.41,608.978 1273.74,608.454 1276.07,607.959 1278.4,607.492 
  1280.73,607.055 1283.06,606.647 1285.39,606.268 1287.72,605.917 1290.05,605.596 1292.38,605.305 1294.71,605.042 1297.04,604.809 1299.37,604.605 1301.7,604.43 
  1304.03,604.285 1306.36,604.169 1308.69,604.082 1311.02,604.025 1313.35,603.997 1315.68,603.999 1318.02,604.03 1320.35,604.09 1322.68,604.18 1325.01,604.3 
  1327.34,604.449 1329.67,604.627 1332,604.835 1334.33,605.073 1336.66,605.34 1338.99,605.637 1341.32,605.963 1343.65,606.318 1345.98,606.703 1348.31,607.118 
  1350.64,607.562 1352.97,608.035 1355.3,608.538 1357.63,609.07 1359.96,609.632 1362.29,610.223 1364.63,610.844 1366.96,611.494 1369.29,612.173 1371.62,612.881 
  1373.95,613.619 1376.28,614.386 1378.61,615.182 1380.94,616.007 1383.27,616.861 1385.6,617.745 1387.93,618.657 1390.26,619.598 1392.59,620.569 1394.92,621.568 
  1397.25,622.596 1399.58,623.653 1401.91,624.738 1404.24,625.852 1406.57,626.995 1408.9,628.166 1411.24,629.366 1413.57,630.595 1415.9,631.851 1418.23,633.136 
  1420.56,634.449 1422.89,635.791 1425.22,637.16 1427.55,638.557 1429.88,639.983 1432.21,641.436 1434.54,642.917 1436.87,644.425 1439.2,645.962 1441.53,647.525 
  1443.86,649.117 1446.19,650.735 1448.52,652.381 1450.85,654.054 1453.18,655.754 1455.51,657.48 1457.84,659.234 1460.18,661.015 1462.51,662.822 1464.84,664.655 
  1467.17,666.516 1469.5,668.402 1471.83,670.315 1474.16,672.253 1476.49,674.218 1478.82,676.209 1481.15,678.225 1483.48,680.267 1485.81,682.334 1488.14,684.427 
  1490.47,686.545 1492.8,688.688 1495.13,690.856 1497.46,693.049 1499.79,695.267 1502.12,697.509 1504.45,699.776 1506.79,702.067 1509.12,704.382 1511.45,706.721 
  1513.78,709.084 1516.11,711.471 1518.44,713.881 1520.77,716.315 1523.1,718.772 1525.43,721.252 1527.76,723.755 1530.09,726.28 1532.42,728.829 1534.75,731.4 
  1537.08,733.993 1539.41,736.608 1541.74,739.245 1544.07,741.904 1546.4,744.585 1548.73,747.287 1551.06,750.01 1553.4,752.754 1555.73,755.52 1558.06,758.305 
  1560.39,761.112 1562.72,763.939 1565.05,766.786 1567.38,769.653 1569.71,772.539 1572.04,775.445 1574.37,778.371 1576.7,781.316 1579.03,784.279 1581.36,787.262 
  1583.69,790.263 1586.02,793.282 1588.35,796.32 1590.68,799.376 1593.01,802.449 1595.34,805.539 1597.67,808.647 1600.01,811.773 1602.34,814.915 1604.67,818.073 
  1607,821.248 1609.33,824.439 1611.66,827.646 1613.99,830.869 1616.32,834.108 1618.65,837.361 1620.98,840.63 1623.31,843.913 1625.64,847.211 1627.97,850.524 
  1630.3,853.85 1632.63,857.19 1634.96,860.544 1637.29,863.911 1639.62,867.291 1641.95,870.684 1644.28,874.09 1646.62,877.508 1648.95,880.938 1651.28,884.379 
  1653.61,887.832 1655.94,891.297 1658.27,894.772 1660.6,898.259 1662.93,901.755 1665.26,905.262 1667.59,908.779 1669.92,912.305 1672.25,915.841 1674.58,919.386 
  1676.91,922.939 1679.24,926.501 1681.57,930.072 1683.9,933.65 1686.23,937.236 1688.56,940.829 1690.89,944.429 1693.23,948.037 1695.56,951.65 1697.89,955.27 
  1700.22,958.896 1702.55,962.527 1704.88,966.163 1707.21,969.805 1709.54,973.451 1711.87,977.101 1714.2,980.755 1716.53,984.413 1718.86,988.075 1721.19,991.739 
  1723.52,995.407 1725.85,999.077 1728.18,1002.75 1730.51,1006.42 1732.84,1010.1 1735.17,1013.77 1737.5,1017.45 1739.84,1021.13 1742.17,1024.81 1744.5,1028.48 
  1746.83,1032.16 1749.16,1035.84 1751.49,1039.51 1753.82,1043.18 1756.15,1046.85 1758.48,1050.52 1760.81,1054.19 1763.14,1057.85 1765.47,1061.51 1767.8,1065.17 
  1770.13,1068.82 1772.46,1072.47 1774.79,1076.11 1777.12,1079.75 1779.45,1083.38 1781.78,1087.01 1784.11,1090.63 1786.45,1094.24 1788.78,1097.85 1791.11,1101.45 
  1793.44,1105.04 1795.77,1108.62 1798.1,1112.19 1800.43,1115.76 1802.76,1119.32 1805.09,1122.86 1807.42,1126.4 1809.75,1129.93 1812.08,1133.44 1814.41,1136.95 
  1816.74,1140.44 1819.07,1143.92 1821.4,1147.39 1823.73,1150.84 1826.06,1154.28 1828.39,1157.71 1830.72,1161.13 1833.06,1164.53 1835.39,1167.91 1837.72,1171.28 
  1840.05,1174.63 1842.38,1177.97 1844.71,1181.29 1847.04,1184.6 1849.37,1187.88 1851.7,1191.15 1854.03,1194.4 1856.36,1197.63 1858.69,1200.85 1861.02,1204.04 
  1863.35,1207.21 1865.68,1210.36 1868.01,1213.5 1870.34,1216.61 1872.67,1219.69 1875,1222.76 1877.33,1225.8 1879.66,1228.82 1882,1231.82 1884.33,1234.79 
  1886.66,1237.74 1888.99,1240.67 1891.32,1243.56 1893.65,1246.44 1895.98,1249.28 1898.31,1252.1 1900.64,1254.89 1902.97,1257.66 1905.3,1260.39 1907.63,1263.1 
  1909.96,1265.78 1912.29,1268.43 1914.62,1271.05 1916.95,1273.63 1919.28,1276.19 1921.61,1278.72 1923.94,1281.21 1926.27,1283.67 1928.61,1286.1 1930.94,1288.49 
  1933.27,1290.85 1935.6,1293.18 1937.93,1295.47 1940.26,1297.72 1942.59,1299.94 1944.92,1302.13 1947.25,1304.27 1949.58,1306.38 1951.91,1308.45 1954.24,1310.48 
  1956.57,1312.47 1958.9,1314.43 1961.23,1316.34 1963.56,1318.21 1965.89,1320.04 1968.22,1321.83 1970.55,1323.58 1972.88,1325.29 1975.22,1326.95 1977.55,1328.56 
  1979.88,1330.14 1982.21,1331.67 1984.54,1333.15 1986.87,1334.59 1989.2,1335.98 1991.53,1337.32 1993.86,1338.62 1996.19,1339.87 1998.52,1341.07 2000.85,1342.22 
  2003.18,1343.32 2005.51,1344.37 2007.84,1345.37 2010.17,1346.32 2012.5,1347.21 2014.83,1348.06 2017.16,1348.85 2019.49,1349.59 2021.83,1350.27 2024.16,1350.9 
  2026.49,1351.47 2028.82,1351.99 2031.15,1352.45 2033.48,1352.85 2035.81,1353.2 2038.14,1353.48 2040.47,1353.71 2042.8,1353.88 2045.13,1353.99 2047.46,1354.04 
  2049.79,1354.03 2052.12,1353.95 2054.45,1353.82 2056.78,1353.62 2059.11,1353.36 2061.44,1353.03 2063.77,1352.64 2066.1,1352.18 2068.44,1351.66 2070.77,1351.07 
  2073.1,1350.41 2075.43,1349.68 2077.76,1348.89 2080.09,1348.03 2082.42,1347.1 2084.75,1346.09 2087.08,1345.02 2089.41,1343.88 2091.74,1342.66 2094.07,1341.37 
  2096.4,1340.01 2098.73,1338.57 2101.06,1337.06 2103.39,1335.47 2105.72,1333.81 2108.05,1332.07 2110.38,1330.25 2112.71,1328.36 2115.05,1326.39 2117.38,1324.34 
  2119.71,1322.2 2122.04,1319.99 2124.37,1317.7 2126.7,1315.32 2129.03,1312.87 2131.36,1310.33 2133.69,1307.7 2136.02,1304.99 2138.35,1302.2 2140.68,1299.32 
  2143.01,1296.35 2145.34,1293.3 2147.67,1290.16 2150,1286.93 2152.33,1283.61 2154.66,1280.21 2156.99,1276.71 2159.32,1273.12 2161.66,1269.44 2163.99,1265.66 
  2166.32,1261.8 2168.65,1257.84 2170.98,1253.78 2173.31,1249.63 2175.64,1245.38 2177.97,1241.04 2180.3,1236.6 2182.63,1232.06 2184.96,1227.43 2187.29,1222.69 
  2189.62,1217.85 2191.95,1212.92 2194.28,1207.88 2196.61,1202.74 2198.94,1197.49 2201.27,1192.14 2203.6,1186.69 2205.93,1181.13 2208.27,1175.47 2210.6,1169.7 
  2212.93,1163.82 2215.26,1157.84 2217.59,1151.74 2219.92,1145.54 2222.25,1139.22 2224.58,1132.8 2226.91,1126.26 2229.24,1119.61 2231.57,1112.85 2233.9,1105.98 
  2236.23,1098.98 2238.56,1091.88 2240.89,1084.66 2243.22,1077.32 2245.55,1069.86 2247.88,1062.28 2250.21,1054.59 2252.54,1046.77 2254.88,1038.84 2257.21,1030.78 
  2259.54,1022.6 2261.87,1014.3 2264.2,1005.88 2266.53,997.325 2268.86,988.649 2271.19,979.847 2273.52,970.918 2275.85,961.862 2278.18,952.677 2280.51,943.363 
  2282.84,933.919 2285.17,924.344 2287.5,914.638 2289.83,904.799 2292.16,894.827 2294.49,884.722 2296.82,874.481 2299.15,864.105 2301.48,853.593 2303.82,842.943 
  2306.15,832.156 2308.48,821.229 2310.81,810.164 2313.14,798.958 2315.47,787.61 2317.8,776.121 2320.13,764.489 2322.46,752.713 2324.79,740.793 2327.12,728.728 
  2329.45,716.516 2331.78,704.158 2334.11,691.652 2336.44,678.998 2338.77,666.194 2341.1,653.239 2343.43,640.134 2345.76,626.877 2348.09,613.467 2350.43,599.904 
  2352.76,586.186 
  "/>
<circle clip-path="url(#clip712)" cx="637.51" cy="1210.17" r="28.8" fill="#0000ff" fill-rule="evenodd" fill-opacity="1" stroke="#000000" stroke-opacity="1" stroke-width="3.2"/>
<circle clip-path="url(#clip712)" cx="2047.46" cy="1354.04" r="43.2" fill="#ff0000" fill-rule="evenodd" fill-opacity="1" stroke="#000000" stroke-opacity="1" stroke-width="3.2"/>
<path clip-path="url(#clip710)" d="
M1382.73 366.327 L2282.84 366.327 L2282.84 94.1669 L1382.73 94.1669  Z
  " fill="#ffffff" fill-rule="evenodd" fill-opacity="1"/>
<polyline clip-path="url(#clip710)" style="stroke:#000000; stroke-linecap:butt; stroke-linejoin:round; stroke-width:4; stroke-opacity:1; fill:none" points="
  1382.73,366.327 2282.84,366.327 2282.84,94.1669 1382.73,94.1669 1382.73,366.327 
  "/>
<circle clip-path="url(#clip710)" cx="1475.95" cy="184.887" r="40.32" fill="#0000ff" fill-rule="evenodd" fill-opacity="1" stroke="#000000" stroke-opacity="1" stroke-width="4.48"/>
<path clip-path="url(#clip710)" d="M1569.17 154.647 L1577.35 154.647 L1577.35 208.24 L1606.8 208.24 L1606.8 215.127 L1569.17 215.127 L1569.17 154.647 Z" fill="#000000" fill-rule="evenodd" fill-opacity="1" /><path clip-path="url(#clip710)" d="M1631.19 174.982 Q1625.19 174.982 1621.71 179.681 Q1618.23 184.34 1618.23 192.482 Q1618.23 200.625 1621.67 205.324 Q1625.15 209.982 1631.19 209.982 Q1637.14 209.982 1640.63 205.283 Q1644.11 200.584 1644.11 192.482 Q1644.11 184.421 1640.63 179.722 Q1637.14 174.982 1631.19 174.982 M1631.19 168.663 Q1640.91 168.663 1646.46 174.982 Q1652.01 181.302 1652.01 192.482 Q1652.01 203.622 1646.46 209.982 Q1640.91 216.302 1631.19 216.302 Q1621.43 216.302 1615.88 209.982 Q1610.37 203.622 1610.37 192.482 Q1610.37 181.302 1615.88 174.982 Q1621.43 168.663 1631.19 168.663 Z" fill="#000000" fill-rule="evenodd" fill-opacity="1" /><path clip-path="url(#clip710)" d="M1697.02 171.499 L1697.02 178.466 Q1693.86 176.724 1690.66 175.874 Q1687.5 174.982 1684.25 174.982 Q1677 174.982 1672.99 179.6 Q1668.98 184.178 1668.98 192.482 Q1668.98 200.787 1672.99 205.405 Q1677 209.982 1684.25 209.982 Q1687.5 209.982 1690.66 209.132 Q1693.86 208.24 1697.02 206.498 L1697.02 213.385 Q1693.9 214.843 1690.53 215.572 Q1687.21 216.302 1683.44 216.302 Q1673.2 216.302 1667.16 209.861 Q1661.12 203.42 1661.12 192.482 Q1661.12 181.383 1667.2 175.023 Q1673.32 168.663 1683.93 168.663 Q1687.37 168.663 1690.66 169.392 Q1693.94 170.081 1697.02 171.499 Z" fill="#000000" fill-rule="evenodd" fill-opacity="1" /><path clip-path="url(#clip710)" d="M1730.6 192.32 Q1721.56 192.32 1718.08 194.386 Q1714.6 196.452 1714.6 201.435 Q1714.6 205.405 1717.19 207.754 Q1719.82 210.063 1724.32 210.063 Q1730.52 210.063 1734.24 205.688 Q1738.01 201.273 1738.01 193.981 L1738.01 192.32 L1730.6 192.32 M1745.46 189.242 L1745.46 215.127 L1738.01 215.127 L1738.01 208.24 Q1735.46 212.372 1731.65 214.357 Q1727.84 216.302 1722.33 216.302 Q1715.37 216.302 1711.23 212.413 Q1707.14 208.483 1707.14 201.921 Q1707.14 194.265 1712.25 190.376 Q1717.39 186.487 1727.56 186.487 L1738.01 186.487 L1738.01 185.758 Q1738.01 180.613 1734.61 177.818 Q1731.25 174.982 1725.13 174.982 Q1721.24 174.982 1717.55 175.914 Q1713.87 176.846 1710.46 178.709 L1710.46 171.823 Q1714.56 170.243 1718.4 169.473 Q1722.25 168.663 1725.9 168.663 Q1735.74 168.663 1740.6 173.767 Q1745.46 178.871 1745.46 189.242 Z" fill="#000000" fill-rule="evenodd" fill-opacity="1" /><path clip-path="url(#clip710)" d="M1760.82 152.095 L1768.27 152.095 L1768.27 215.127 L1760.82 215.127 L1760.82 152.095 Z" fill="#000000" fill-rule="evenodd" fill-opacity="1" /><path clip-path="url(#clip710)" d="M1835.11 160.197 Q1826.2 160.197 1820.93 166.84 Q1815.71 173.484 1815.71 184.948 Q1815.71 196.371 1820.93 203.015 Q1826.2 209.658 1835.11 209.658 Q1844.02 209.658 1849.21 203.015 Q1854.43 196.371 1854.43 184.948 Q1854.43 173.484 1849.21 166.84 Q1844.02 160.197 1835.11 160.197 M1835.11 153.553 Q1847.83 153.553 1855.45 162.101 Q1863.06 170.607 1863.06 184.948 Q1863.06 199.247 1855.45 207.795 Q1847.83 216.302 1835.11 216.302 Q1822.35 216.302 1814.69 207.795 Q1807.08 199.288 1807.08 184.948 Q1807.08 170.607 1814.69 162.101 Q1822.35 153.553 1835.11 153.553 Z" fill="#000000" fill-rule="evenodd" fill-opacity="1" /><path clip-path="url(#clip710)" d="M1882.75 208.321 L1882.75 232.384 L1875.25 232.384 L1875.25 169.757 L1882.75 169.757 L1882.75 176.643 Q1885.1 172.592 1888.66 170.648 Q1892.27 168.663 1897.25 168.663 Q1905.52 168.663 1910.66 175.225 Q1915.85 181.788 1915.85 192.482 Q1915.85 203.177 1910.66 209.739 Q1905.52 216.302 1897.25 216.302 Q1892.27 216.302 1888.66 214.357 Q1885.1 212.372 1882.75 208.321 M1908.11 192.482 Q1908.11 184.259 1904.71 179.6 Q1901.34 174.901 1895.43 174.901 Q1889.51 174.901 1886.11 179.6 Q1882.75 184.259 1882.75 192.482 Q1882.75 200.706 1886.11 205.405 Q1889.51 210.063 1895.43 210.063 Q1901.34 210.063 1904.71 205.405 Q1908.11 200.706 1908.11 192.482 Z" fill="#000000" fill-rule="evenodd" fill-opacity="1" /><path clip-path="url(#clip710)" d="M1935.57 156.875 L1935.57 169.757 L1950.93 169.757 L1950.93 175.55 L1935.57 175.55 L1935.57 200.179 Q1935.57 205.729 1937.07 207.309 Q1938.61 208.888 1943.27 208.888 L1950.93 208.888 L1950.93 215.127 L1943.27 215.127 Q1934.64 215.127 1931.36 211.927 Q1928.08 208.686 1928.08 200.179 L1928.08 175.55 L1922.61 175.55 L1922.61 169.757 L1928.08 169.757 L1928.08 156.875 L1935.57 156.875 Z" fill="#000000" fill-rule="evenodd" fill-opacity="1" /><path clip-path="url(#clip710)" d="M1960.73 169.757 L1968.18 169.757 L1968.18 215.127 L1960.73 215.127 L1960.73 169.757 M1960.73 152.095 L1968.18 152.095 L1968.18 161.533 L1960.73 161.533 L1960.73 152.095 Z" fill="#000000" fill-rule="evenodd" fill-opacity="1" /><path clip-path="url(#clip710)" d="M2019.1 178.466 Q2021.9 173.443 2025.79 171.053 Q2029.68 168.663 2034.94 168.663 Q2042.03 168.663 2045.88 173.646 Q2049.73 178.588 2049.73 187.743 L2049.73 215.127 L2042.23 215.127 L2042.23 187.986 Q2042.23 181.464 2039.92 178.304 Q2037.62 175.144 2032.88 175.144 Q2027.08 175.144 2023.72 178.993 Q2020.36 182.841 2020.36 189.485 L2020.36 215.127 L2012.86 215.127 L2012.86 187.986 Q2012.86 181.423 2010.56 178.304 Q2008.25 175.144 2003.43 175.144 Q1997.71 175.144 1994.35 179.033 Q1990.99 182.882 1990.99 189.485 L1990.99 215.127 L1983.5 215.127 L1983.5 169.757 L1990.99 169.757 L1990.99 176.805 Q1993.54 172.633 1997.11 170.648 Q2000.67 168.663 2005.57 168.663 Q2010.51 168.663 2013.96 171.175 Q2017.44 173.686 2019.1 178.466 Z" fill="#000000" fill-rule="evenodd" fill-opacity="1" /><path clip-path="url(#clip710)" d="M2063.82 197.222 L2063.82 169.757 L2071.28 169.757 L2071.28 196.938 Q2071.28 203.379 2073.79 206.62 Q2076.3 209.82 2081.32 209.82 Q2087.36 209.82 2090.84 205.972 Q2094.37 202.123 2094.37 195.48 L2094.37 169.757 L2101.82 169.757 L2101.82 215.127 L2094.37 215.127 L2094.37 208.159 Q2091.65 212.291 2088.05 214.317 Q2084.48 216.302 2079.74 216.302 Q2071.93 216.302 2067.88 211.441 Q2063.82 206.579 2063.82 197.222 M2082.58 168.663 L2082.58 168.663 Z" fill="#000000" fill-rule="evenodd" fill-opacity="1" /><path clip-path="url(#clip710)" d="M2152.5 178.466 Q2155.29 173.443 2159.18 171.053 Q2163.07 168.663 2168.34 168.663 Q2175.43 168.663 2179.28 173.646 Q2183.12 178.588 2183.12 187.743 L2183.12 215.127 L2175.63 215.127 L2175.63 187.986 Q2175.63 181.464 2173.32 178.304 Q2171.01 175.144 2166.27 175.144 Q2160.48 175.144 2157.12 178.993 Q2153.75 182.841 2153.75 189.485 L2153.75 215.127 L2146.26 215.127 L2146.26 187.986 Q2146.26 181.423 2143.95 178.304 Q2141.64 175.144 2136.82 175.144 Q2131.11 175.144 2127.75 179.033 Q2124.39 182.882 2124.39 189.485 L2124.39 215.127 L2116.89 215.127 L2116.89 169.757 L2124.39 169.757 L2124.39 176.805 Q2126.94 172.633 2130.5 170.648 Q2134.07 168.663 2138.97 168.663 Q2143.91 168.663 2147.35 171.175 Q2150.84 173.686 2152.5 178.466 Z" fill="#000000" fill-rule="evenodd" fill-opacity="1" /><circle clip-path="url(#clip710)" cx="1475.95" cy="275.607" r="40.32" fill="#ff0000" fill-rule="evenodd" fill-opacity="1" stroke="#000000" stroke-opacity="1" stroke-width="2.98667"/>
<path clip-path="url(#clip710)" d="M1613.89 297.218 L1613.89 280.974 L1600.52 280.974 L1600.52 274.25 L1621.99 274.25 L1621.99 300.216 Q1617.25 303.578 1611.54 305.32 Q1605.83 307.022 1599.35 307.022 Q1585.17 307.022 1577.15 298.758 Q1569.17 290.453 1569.17 275.668 Q1569.17 260.841 1577.15 252.577 Q1585.17 244.273 1599.35 244.273 Q1605.26 244.273 1610.57 245.731 Q1615.92 247.19 1620.41 250.025 L1620.41 258.735 Q1615.88 254.887 1610.77 252.942 Q1605.67 250.998 1600.04 250.998 Q1588.94 250.998 1583.35 257.196 Q1577.8 263.393 1577.8 275.668 Q1577.8 287.901 1583.35 294.099 Q1588.94 300.297 1600.04 300.297 Q1604.37 300.297 1607.77 299.568 Q1611.18 298.798 1613.89 297.218 Z" fill="#000000" fill-rule="evenodd" fill-opacity="1" /><path clip-path="url(#clip710)" d="M1636.62 242.815 L1644.07 242.815 L1644.07 305.847 L1636.62 305.847 L1636.62 242.815 Z" fill="#000000" fill-rule="evenodd" fill-opacity="1" /><path clip-path="url(#clip710)" d="M1677.25 265.702 Q1671.25 265.702 1667.77 270.401 Q1664.28 275.06 1664.28 283.202 Q1664.28 291.345 1667.73 296.044 Q1671.21 300.702 1677.25 300.702 Q1683.2 300.702 1686.69 296.003 Q1690.17 291.304 1690.17 283.202 Q1690.17 275.141 1686.69 270.442 Q1683.2 265.702 1677.25 265.702 M1677.25 259.383 Q1686.97 259.383 1692.52 265.702 Q1698.07 272.022 1698.07 283.202 Q1698.07 294.342 1692.52 300.702 Q1686.97 307.022 1677.25 307.022 Q1667.48 307.022 1661.93 300.702 Q1656.43 294.342 1656.43 283.202 Q1656.43 272.022 1661.93 265.702 Q1667.48 259.383 1677.25 259.383 Z" fill="#000000" fill-rule="evenodd" fill-opacity="1" /><path clip-path="url(#clip710)" d="M1742.99 283.202 Q1742.99 274.979 1739.59 270.32 Q1736.23 265.621 1730.31 265.621 Q1724.4 265.621 1721 270.32 Q1717.63 274.979 1717.63 283.202 Q1717.63 291.426 1721 296.125 Q1724.4 300.783 1730.31 300.783 Q1736.23 300.783 1739.59 296.125 Q1742.99 291.426 1742.99 283.202 M1717.63 267.363 Q1719.98 263.312 1723.55 261.368 Q1727.15 259.383 1732.14 259.383 Q1740.4 259.383 1745.55 265.945 Q1750.73 272.508 1750.73 283.202 Q1750.73 293.897 1745.55 300.459 Q1740.4 307.022 1732.14 307.022 Q1727.15 307.022 1723.55 305.077 Q1719.98 303.092 1717.63 299.041 L1717.63 305.847 L1710.14 305.847 L1710.14 242.815 L1717.63 242.815 L1717.63 267.363 Z" fill="#000000" fill-rule="evenodd" fill-opacity="1" /><path clip-path="url(#clip710)" d="M1783.7 283.04 Q1774.67 283.04 1771.19 285.106 Q1767.7 287.172 1767.7 292.155 Q1767.7 296.125 1770.3 298.474 Q1772.93 300.783 1777.43 300.783 Q1783.62 300.783 1787.35 296.408 Q1791.12 291.993 1791.12 284.701 L1791.12 283.04 L1783.7 283.04 M1798.57 279.962 L1798.57 305.847 L1791.12 305.847 L1791.12 298.96 Q1788.57 303.092 1784.76 305.077 Q1780.95 307.022 1775.44 307.022 Q1768.47 307.022 1764.34 303.133 Q1760.25 299.203 1760.25 292.641 Q1760.25 284.985 1765.35 281.096 Q1770.5 277.207 1780.67 277.207 L1791.12 277.207 L1791.12 276.478 Q1791.12 271.333 1787.71 268.538 Q1784.35 265.702 1778.24 265.702 Q1774.35 265.702 1770.66 266.634 Q1766.97 267.566 1763.57 269.429 L1763.57 262.543 Q1767.66 260.963 1771.51 260.193 Q1775.36 259.383 1779.01 259.383 Q1788.85 259.383 1793.71 264.487 Q1798.57 269.591 1798.57 279.962 Z" fill="#000000" fill-rule="evenodd" fill-opacity="1" /><path clip-path="url(#clip710)" d="M1813.92 242.815 L1821.38 242.815 L1821.38 305.847 L1813.92 305.847 L1813.92 242.815 Z" fill="#000000" fill-rule="evenodd" fill-opacity="1" /><path clip-path="url(#clip710)" d="M1888.22 250.917 Q1879.31 250.917 1874.04 257.56 Q1868.81 264.204 1868.81 275.668 Q1868.81 287.091 1874.04 293.735 Q1879.31 300.378 1888.22 300.378 Q1897.13 300.378 1902.32 293.735 Q1907.54 287.091 1907.54 275.668 Q1907.54 264.204 1902.32 257.56 Q1897.13 250.917 1888.22 250.917 M1888.22 244.273 Q1900.94 244.273 1908.55 252.821 Q1916.17 261.327 1916.17 275.668 Q1916.17 289.967 1908.55 298.515 Q1900.94 307.022 1888.22 307.022 Q1875.46 307.022 1867.8 298.515 Q1860.19 290.008 1860.19 275.668 Q1860.19 261.327 1867.8 252.821 Q1875.46 244.273 1888.22 244.273 Z" fill="#000000" fill-rule="evenodd" fill-opacity="1" /><path clip-path="url(#clip710)" d="M1935.86 299.041 L1935.86 323.104 L1928.36 323.104 L1928.36 260.477 L1935.86 260.477 L1935.86 267.363 Q1938.21 263.312 1941.77 261.368 Q1945.38 259.383 1950.36 259.383 Q1958.62 259.383 1963.77 265.945 Q1968.95 272.508 1968.95 283.202 Q1968.95 293.897 1963.77 300.459 Q1958.62 307.022 1950.36 307.022 Q1945.38 307.022 1941.77 305.077 Q1938.21 303.092 1935.86 299.041 M1961.22 283.202 Q1961.22 274.979 1957.81 270.32 Q1954.45 265.621 1948.54 265.621 Q1942.62 265.621 1939.22 270.32 Q1935.86 274.979 1935.86 283.202 Q1935.86 291.426 1939.22 296.125 Q1942.62 300.783 1948.54 300.783 Q1954.45 300.783 1957.81 296.125 Q1961.22 291.426 1961.22 283.202 Z" fill="#000000" fill-rule="evenodd" fill-opacity="1" /><path clip-path="url(#clip710)" d="M1988.68 247.595 L1988.68 260.477 L2004.03 260.477 L2004.03 266.27 L1988.68 266.27 L1988.68 290.899 Q1988.68 296.449 1990.18 298.029 Q1991.72 299.608 1996.38 299.608 L2004.03 299.608 L2004.03 305.847 L1996.38 305.847 Q1987.75 305.847 1984.47 302.647 Q1981.19 299.406 1981.19 290.899 L1981.19 266.27 L1975.72 266.27 L1975.72 260.477 L1981.19 260.477 L1981.19 247.595 L1988.68 247.595 Z" fill="#000000" fill-rule="evenodd" fill-opacity="1" /><path clip-path="url(#clip710)" d="M2013.84 260.477 L2021.29 260.477 L2021.29 305.847 L2013.84 305.847 L2013.84 260.477 M2013.84 242.815 L2021.29 242.815 L2021.29 252.253 L2013.84 252.253 L2013.84 242.815 Z" fill="#000000" fill-rule="evenodd" fill-opacity="1" /><path clip-path="url(#clip710)" d="M2072.21 269.186 Q2075.01 264.163 2078.89 261.773 Q2082.78 259.383 2088.05 259.383 Q2095.14 259.383 2098.99 264.366 Q2102.83 269.308 2102.83 278.463 L2102.83 305.847 L2095.34 305.847 L2095.34 278.706 Q2095.34 272.184 2093.03 269.024 Q2090.72 265.864 2085.98 265.864 Q2080.19 265.864 2076.83 269.713 Q2073.47 273.561 2073.47 280.205 L2073.47 305.847 L2065.97 305.847 L2065.97 278.706 Q2065.97 272.143 2063.66 269.024 Q2061.35 265.864 2056.53 265.864 Q2050.82 265.864 2047.46 269.753 Q2044.1 273.602 2044.1 280.205 L2044.1 305.847 L2036.6 305.847 L2036.6 260.477 L2044.1 260.477 L2044.1 267.525 Q2046.65 263.353 2050.21 261.368 Q2053.78 259.383 2058.68 259.383 Q2063.62 259.383 2067.07 261.895 Q2070.55 264.406 2072.21 269.186 Z" fill="#000000" fill-rule="evenodd" fill-opacity="1" /><path clip-path="url(#clip710)" d="M2116.93 287.942 L2116.93 260.477 L2124.39 260.477 L2124.39 287.658 Q2124.39 294.099 2126.9 297.34 Q2129.41 300.54 2134.43 300.54 Q2140.47 300.54 2143.95 296.692 Q2147.48 292.843 2147.48 286.2 L2147.48 260.477 L2154.93 260.477 L2154.93 305.847 L2147.48 305.847 L2147.48 298.879 Q2144.76 303.011 2141.16 305.037 Q2137.59 307.022 2132.85 307.022 Q2125.03 307.022 2120.98 302.161 Q2116.93 297.299 2116.93 287.942 M2135.69 259.383 L2135.69 259.383 Z" fill="#000000" fill-rule="evenodd" fill-opacity="1" /><path clip-path="url(#clip710)" d="M2205.61 269.186 Q2208.4 264.163 2212.29 261.773 Q2216.18 259.383 2221.45 259.383 Q2228.53 259.383 2232.38 264.366 Q2236.23 269.308 2236.23 278.463 L2236.23 305.847 L2228.74 305.847 L2228.74 278.706 Q2228.74 272.184 2226.43 269.024 Q2224.12 265.864 2219.38 265.864 Q2213.59 265.864 2210.22 269.713 Q2206.86 273.561 2206.86 280.205 L2206.86 305.847 L2199.37 305.847 L2199.37 278.706 Q2199.37 272.143 2197.06 269.024 Q2194.75 265.864 2189.93 265.864 Q2184.22 265.864 2180.86 269.753 Q2177.49 273.602 2177.49 280.205 L2177.49 305.847 L2170 305.847 L2170 260.477 L2177.49 260.477 L2177.49 267.525 Q2180.04 263.353 2183.61 261.368 Q2187.17 259.383 2192.08 259.383 Q2197.02 259.383 2200.46 261.895 Q2203.95 264.406 2205.61 269.186 Z" fill="#000000" fill-rule="evenodd" fill-opacity="1" /></svg>
