<?xml version="1.0" encoding="utf-8"?>
<svg xmlns="http://www.w3.org/2000/svg" xmlns:xlink="http://www.w3.org/1999/xlink" width="500" height="400" viewBox="0 0 2000 1600">
<defs>
  <clipPath id="clip370">
    <rect x="0" y="0" width="2000" height="1600"/>
  </clipPath>
</defs>
<path clip-path="url(#clip370)" d="
M0 1600 L2000 1600 L2000 0 L0 0  Z
  " fill="#ffffff" fill-rule="evenodd" fill-opacity="1"/>
<defs>
  <clipPath id="clip371">
    <rect x="400" y="0" width="1401" height="1401"/>
  </clipPath>
</defs>
<path clip-path="url(#clip370)" d="
M47.2441 1406.76 L1952.76 1406.76 L1952.76 47.2441 L47.2441 47.2441  Z
  " fill="#ffffff" fill-rule="evenodd" fill-opacity="1"/>
<defs>
  <clipPath id="clip372">
    <rect x="47" y="47" width="1907" height="1361"/>
  </clipPath>
</defs>
<polyline clip-path="url(#clip370)" style="stroke:#000000; stroke-linecap:butt; stroke-linejoin:round; stroke-width:4; stroke-opacity:1; fill:none" points="
  47.2441,1406.76 1952.76,1406.76 
  "/>
<polyline clip-path="url(#clip370)" style="stroke:#000000; stroke-linecap:butt; stroke-linejoin:round; stroke-width:4; stroke-opacity:1; fill:none" points="
  101.174,1406.76 101.174,1387.87 
  "/>
<polyline clip-path="url(#clip370)" style="stroke:#000000; stroke-linecap:butt; stroke-linejoin:round; stroke-width:4; stroke-opacity:1; fill:none" points="
  550.587,1406.76 550.587,1387.87 
  "/>
<polyline clip-path="url(#clip370)" style="stroke:#000000; stroke-linecap:butt; stroke-linejoin:round; stroke-width:4; stroke-opacity:1; fill:none" points="
  1000,1406.76 1000,1387.87 
  "/>
<polyline clip-path="url(#clip370)" style="stroke:#000000; stroke-linecap:butt; stroke-linejoin:round; stroke-width:4; stroke-opacity:1; fill:none" points="
  1449.41,1406.76 1449.41,1387.87 
  "/>
<polyline clip-path="url(#clip370)" style="stroke:#000000; stroke-linecap:butt; stroke-linejoin:round; stroke-width:4; stroke-opacity:1; fill:none" points="
  1898.83,1406.76 1898.83,1387.87 
  "/>
<path clip-path="url(#clip370)" d="M55.2364 1449.14 L84.9122 1449.14 L84.9122 1453.07 L55.2364 1453.07 L55.2364 1449.14 Z" fill="#000000" fill-rule="evenodd" fill-opacity="1" /><path clip-path="url(#clip370)" d="M95.8149 1462.03 L103.454 1462.03 L103.454 1435.66 L95.1436 1437.33 L95.1436 1433.07 L103.407 1431.4 L108.083 1431.4 L108.083 1462.03 L115.722 1462.03 L115.722 1465.96 L95.8149 1465.96 L95.8149 1462.03 Z" fill="#000000" fill-rule="evenodd" fill-opacity="1" /><path clip-path="url(#clip370)" d="M135.167 1434.48 Q131.555 1434.48 129.727 1438.05 Q127.921 1441.59 127.921 1448.72 Q127.921 1455.83 129.727 1459.39 Q131.555 1462.93 135.167 1462.93 Q138.801 1462.93 140.606 1459.39 Q142.435 1455.83 142.435 1448.72 Q142.435 1441.59 140.606 1438.05 Q138.801 1434.48 135.167 1434.48 M135.167 1430.78 Q140.977 1430.78 144.032 1435.39 Q147.111 1439.97 147.111 1448.72 Q147.111 1457.45 144.032 1462.05 Q140.977 1466.64 135.167 1466.64 Q129.356 1466.64 126.278 1462.05 Q123.222 1457.45 123.222 1448.72 Q123.222 1439.97 126.278 1435.39 Q129.356 1430.78 135.167 1430.78 Z" fill="#000000" fill-rule="evenodd" fill-opacity="1" /><path clip-path="url(#clip370)" d="M520.228 1449.14 L549.904 1449.14 L549.904 1453.07 L520.228 1453.07 L520.228 1449.14 Z" fill="#000000" fill-rule="evenodd" fill-opacity="1" /><path clip-path="url(#clip370)" d="M560.043 1431.4 L578.399 1431.4 L578.399 1435.34 L564.325 1435.34 L564.325 1443.81 Q565.344 1443.46 566.362 1443.3 Q567.381 1443.12 568.399 1443.12 Q574.186 1443.12 577.566 1446.29 Q580.945 1449.46 580.945 1454.88 Q580.945 1460.45 577.473 1463.56 Q574.001 1466.64 567.682 1466.64 Q565.506 1466.64 563.237 1466.26 Q560.992 1465.89 558.584 1465.15 L558.584 1460.45 Q560.668 1461.59 562.89 1462.14 Q565.112 1462.7 567.589 1462.7 Q571.594 1462.7 573.932 1460.59 Q576.27 1458.49 576.27 1454.88 Q576.27 1451.26 573.932 1449.16 Q571.594 1447.05 567.589 1447.05 Q565.714 1447.05 563.839 1447.47 Q561.987 1447.89 560.043 1448.76 L560.043 1431.4 Z" fill="#000000" fill-rule="evenodd" fill-opacity="1" /><path clip-path="url(#clip370)" d="M1000 1434.48 Q996.389 1434.48 994.56 1438.05 Q992.755 1441.59 992.755 1448.72 Q992.755 1455.83 994.56 1459.39 Q996.389 1462.93 1000 1462.93 Q1003.63 1462.93 1005.44 1459.39 Q1007.27 1455.83 1007.27 1448.72 Q1007.27 1441.59 1005.44 1438.05 Q1003.63 1434.48 1000 1434.48 M1000 1430.78 Q1005.81 1430.78 1008.87 1435.39 Q1011.94 1439.97 1011.94 1448.72 Q1011.94 1457.45 1008.87 1462.05 Q1005.81 1466.64 1000 1466.64 Q994.19 1466.64 991.111 1462.05 Q988.056 1457.45 988.056 1448.72 Q988.056 1439.97 991.111 1435.39 Q994.19 1430.78 1000 1430.78 Z" fill="#000000" fill-rule="evenodd" fill-opacity="1" /><path clip-path="url(#clip370)" d="M1439.69 1431.4 L1458.05 1431.4 L1458.05 1435.34 L1443.97 1435.34 L1443.97 1443.81 Q1444.99 1443.46 1446.01 1443.3 Q1447.03 1443.12 1448.05 1443.12 Q1453.83 1443.12 1457.21 1446.29 Q1460.59 1449.46 1460.59 1454.88 Q1460.59 1460.45 1457.12 1463.56 Q1453.65 1466.64 1447.33 1466.64 Q1445.15 1466.64 1442.89 1466.26 Q1440.64 1465.89 1438.23 1465.15 L1438.23 1460.45 Q1440.32 1461.59 1442.54 1462.14 Q1444.76 1462.7 1447.24 1462.7 Q1451.24 1462.7 1453.58 1460.59 Q1455.92 1458.49 1455.92 1454.88 Q1455.92 1451.26 1453.58 1449.16 Q1451.24 1447.05 1447.24 1447.05 Q1445.36 1447.05 1443.49 1447.47 Q1441.64 1447.89 1439.69 1448.76 L1439.69 1431.4 Z" fill="#000000" fill-rule="evenodd" fill-opacity="1" /><path clip-path="url(#clip370)" d="M1873.51 1462.03 L1881.15 1462.03 L1881.15 1435.66 L1872.84 1437.33 L1872.84 1433.07 L1881.11 1431.4 L1885.78 1431.4 L1885.78 1462.03 L1893.42 1462.03 L1893.42 1465.96 L1873.51 1465.96 L1873.51 1462.03 Z" fill="#000000" fill-rule="evenodd" fill-opacity="1" /><path clip-path="url(#clip370)" d="M1912.87 1434.48 Q1909.25 1434.48 1907.43 1438.05 Q1905.62 1441.59 1905.62 1448.72 Q1905.62 1455.83 1907.43 1459.39 Q1909.25 1462.93 1912.87 1462.93 Q1916.5 1462.93 1918.31 1459.39 Q1920.13 1455.83 1920.13 1448.72 Q1920.13 1441.59 1918.31 1438.05 Q1916.5 1434.48 1912.87 1434.48 M1912.87 1430.78 Q1918.68 1430.78 1921.73 1435.39 Q1924.81 1439.97 1924.81 1448.72 Q1924.81 1457.45 1921.73 1462.05 Q1918.68 1466.64 1912.87 1466.64 Q1907.06 1466.64 1903.98 1462.05 Q1900.92 1457.45 1900.92 1448.72 Q1900.92 1439.97 1903.98 1435.39 Q1907.06 1430.78 1912.87 1430.78 Z" fill="#000000" fill-rule="evenodd" fill-opacity="1" /><path clip-path="url(#clip370)" d="M930.63 1545.63 L912.487 1498.11 L919.203 1498.11 L934.258 1538.12 L949.345 1498.11 L956.029 1498.11 L937.918 1545.63 L930.63 1545.63 Z" fill="#000000" fill-rule="evenodd" fill-opacity="1" /><path clip-path="url(#clip370)" d="M973.853 1527.71 Q966.755 1527.71 964.018 1529.33 Q961.281 1530.95 961.281 1534.87 Q961.281 1537.99 963.318 1539.84 Q965.386 1541.65 968.919 1541.65 Q973.789 1541.65 976.717 1538.21 Q979.677 1534.74 979.677 1529.01 L979.677 1527.71 L973.853 1527.71 M985.534 1525.29 L985.534 1545.63 L979.677 1545.63 L979.677 1540.22 Q977.672 1543.46 974.68 1545.02 Q971.689 1546.55 967.36 1546.55 Q961.885 1546.55 958.639 1543.5 Q955.424 1540.41 955.424 1535.25 Q955.424 1529.24 959.435 1526.18 Q963.477 1523.13 971.466 1523.13 L979.677 1523.13 L979.677 1522.55 Q979.677 1518.51 977.004 1516.31 Q974.362 1514.09 969.556 1514.09 Q966.5 1514.09 963.604 1514.82 Q960.708 1515.55 958.034 1517.01 L958.034 1511.6 Q961.249 1510.36 964.272 1509.76 Q967.296 1509.12 970.161 1509.12 Q977.895 1509.12 981.715 1513.13 Q985.534 1517.14 985.534 1525.29 Z" fill="#000000" fill-rule="evenodd" fill-opacity="1" /><path clip-path="url(#clip370)" d="M997.597 1496.1 L1003.45 1496.1 L1003.45 1545.63 L997.597 1545.63 L997.597 1496.1 Z" fill="#000000" fill-rule="evenodd" fill-opacity="1" /><path clip-path="url(#clip370)" d="M1015.1 1531.56 L1015.1 1509.98 L1020.96 1509.98 L1020.96 1531.34 Q1020.96 1536.4 1022.93 1538.94 Q1024.91 1541.46 1028.85 1541.46 Q1033.6 1541.46 1036.33 1538.43 Q1039.1 1535.41 1039.1 1530.19 L1039.1 1509.98 L1044.96 1509.98 L1044.96 1545.63 L1039.1 1545.63 L1039.1 1540.15 Q1036.97 1543.4 1034.14 1544.99 Q1031.34 1546.55 1027.61 1546.55 Q1021.47 1546.55 1018.29 1542.73 Q1015.1 1538.91 1015.1 1531.56 M1029.84 1509.12 L1029.84 1509.12 Z" fill="#000000" fill-rule="evenodd" fill-opacity="1" /><path clip-path="url(#clip370)" d="M1087.51 1526.34 L1087.51 1529.2 L1060.59 1529.2 Q1060.97 1535.25 1064.21 1538.43 Q1067.49 1541.59 1073.32 1541.59 Q1076.69 1541.59 1079.84 1540.76 Q1083.02 1539.93 1086.14 1538.28 L1086.14 1543.81 Q1082.99 1545.15 1079.68 1545.85 Q1076.37 1546.55 1072.97 1546.55 Q1064.44 1546.55 1059.44 1541.59 Q1054.47 1536.62 1054.47 1528.15 Q1054.47 1519.4 1059.19 1514.28 Q1063.93 1509.12 1071.95 1509.12 Q1079.14 1509.12 1083.31 1513.77 Q1087.51 1518.38 1087.51 1526.34 M1081.66 1524.62 Q1081.59 1519.81 1078.95 1516.95 Q1076.34 1514.09 1072.01 1514.09 Q1067.11 1514.09 1064.15 1516.85 Q1061.22 1519.62 1060.78 1524.65 L1081.66 1524.62 Z" fill="#000000" fill-rule="evenodd" fill-opacity="1" /><polyline clip-path="url(#clip372)" style="stroke:#0000ff; stroke-linecap:butt; stroke-linejoin:round; stroke-width:4; stroke-opacity:1; fill:none" points="
  101.174,1368.29 119.332,1368.28 137.49,1368.28 155.648,1368.27 173.806,1368.26 191.964,1368.24 210.122,1368.21 228.28,1368.16 246.439,1368.1 264.597,1367.99 
  282.755,1367.84 300.913,1367.62 319.071,1367.31 337.229,1366.86 355.387,1366.22 373.545,1365.33 391.703,1364.1 409.862,1362.42 428.02,1360.16 446.178,1357.13 
  464.336,1353.14 482.494,1347.92 500.652,1341.18 518.81,1332.58 536.968,1321.74 555.126,1308.21 573.284,1291.54 591.443,1271.24 609.601,1246.82 627.759,1217.79 
  645.917,1183.72 664.075,1144.23 682.233,1099.06 700.391,1048.07 718.549,991.287 736.707,928.939 754.866,861.477 773.024,789.592 791.182,714.217 809.34,636.53 
  827.498,557.927 845.656,479.989 863.814,404.441 881.972,333.084 900.13,267.73 918.289,210.128 936.447,161.883 954.605,124.385 972.763,98.7407 990.921,85.7211 
  1009.08,85.7211 1027.24,98.7407 1045.4,124.385 1063.55,161.883 1081.71,210.128 1099.87,267.73 1118.03,333.084 1136.19,404.441 1154.34,479.989 1172.5,557.927 
  1190.66,636.53 1208.82,714.217 1226.98,789.592 1245.13,861.477 1263.29,928.939 1281.45,991.287 1299.61,1048.07 1317.77,1099.06 1335.92,1144.23 1354.08,1183.72 
  1372.24,1217.79 1390.4,1246.82 1408.56,1271.24 1426.72,1291.54 1444.87,1308.21 1463.03,1321.74 1481.19,1332.58 1499.35,1341.18 1517.51,1347.92 1535.66,1353.14 
  1553.82,1357.13 1571.98,1360.16 1590.14,1362.42 1608.3,1364.1 1626.45,1365.33 1644.61,1366.22 1662.77,1366.86 1680.93,1367.31 1699.09,1367.62 1717.25,1367.84 
  1735.4,1367.99 1753.56,1368.1 1771.72,1368.16 1789.88,1368.21 1808.04,1368.24 1826.19,1368.26 1844.35,1368.27 1862.51,1368.28 1880.67,1368.28 1898.83,1368.29 
  
  "/>
</svg>
