<?xml version="1.0" encoding="utf-8"?>
<svg xmlns="http://www.w3.org/2000/svg" xmlns:xlink="http://www.w3.org/1999/xlink" width="500" height="400" viewBox="0 0 2000 1600">
<defs>
  <clipPath id="clip340">
    <rect x="0" y="0" width="2000" height="1600"/>
  </clipPath>
</defs>
<path clip-path="url(#clip340)" d="
M0 1600 L2000 1600 L2000 0 L0 0  Z
  " fill="#ffffff" fill-rule="evenodd" fill-opacity="1"/>
<defs>
  <clipPath id="clip341">
    <rect x="400" y="0" width="1401" height="1401"/>
  </clipPath>
</defs>
<path clip-path="url(#clip340)" d="
M237.893 1406.76 L1952.76 1406.76 L1952.76 47.2441 L237.893 47.2441  Z
  " fill="#ffffff" fill-rule="evenodd" fill-opacity="1"/>
<defs>
  <clipPath id="clip342">
    <rect x="237" y="47" width="1716" height="1361"/>
  </clipPath>
</defs>
<polyline clip-path="url(#clip340)" style="stroke:#000000; stroke-linecap:butt; stroke-linejoin:round; stroke-width:4; stroke-opacity:1; fill:none" points="
  237.893,1406.76 1952.76,1406.76 
  "/>
<polyline clip-path="url(#clip340)" style="stroke:#000000; stroke-linecap:butt; stroke-linejoin:round; stroke-width:4; stroke-opacity:1; fill:none" points="
  618.38,1406.76 618.38,1387.87 
  "/>
<polyline clip-path="url(#clip340)" style="stroke:#000000; stroke-linecap:butt; stroke-linejoin:round; stroke-width:4; stroke-opacity:1; fill:none" points="
  999.936,1406.76 999.936,1387.87 
  "/>
<polyline clip-path="url(#clip340)" style="stroke:#000000; stroke-linecap:butt; stroke-linejoin:round; stroke-width:4; stroke-opacity:1; fill:none" points="
  1381.49,1406.76 1381.49,1387.87 
  "/>
<polyline clip-path="url(#clip340)" style="stroke:#000000; stroke-linecap:butt; stroke-linejoin:round; stroke-width:4; stroke-opacity:1; fill:none" points="
  1763.05,1406.76 1763.05,1387.87 
  "/>
<path clip-path="url(#clip340)" d="M588.323 1449.14 L617.998 1449.14 L617.998 1453.07 L588.323 1453.07 L588.323 1449.14 Z" fill="#000000" fill-rule="evenodd" fill-opacity="1" /><path clip-path="url(#clip340)" d="M632.119 1462.03 L648.438 1462.03 L648.438 1465.96 L626.494 1465.96 L626.494 1462.03 Q629.156 1459.27 633.739 1454.64 Q638.346 1449.99 639.526 1448.65 Q641.771 1446.13 642.651 1444.39 Q643.554 1442.63 643.554 1440.94 Q643.554 1438.19 641.609 1436.45 Q639.688 1434.71 636.586 1434.71 Q634.387 1434.71 631.934 1435.48 Q629.503 1436.24 626.725 1437.79 L626.725 1433.07 Q629.549 1431.94 632.003 1431.36 Q634.457 1430.78 636.494 1430.78 Q641.864 1430.78 645.058 1433.46 Q648.253 1436.15 648.253 1440.64 Q648.253 1442.77 647.443 1444.69 Q646.656 1446.59 644.549 1449.18 Q643.971 1449.85 640.869 1453.07 Q637.767 1456.26 632.119 1462.03 Z" fill="#000000" fill-rule="evenodd" fill-opacity="1" /><path clip-path="url(#clip340)" d="M999.936 1434.48 Q996.325 1434.48 994.496 1438.05 Q992.69 1441.59 992.69 1448.72 Q992.69 1455.83 994.496 1459.39 Q996.325 1462.93 999.936 1462.93 Q1003.57 1462.93 1005.38 1459.39 Q1007.2 1455.83 1007.2 1448.72 Q1007.2 1441.59 1005.38 1438.05 Q1003.57 1434.48 999.936 1434.48 M999.936 1430.78 Q1005.75 1430.78 1008.8 1435.39 Q1011.88 1439.97 1011.88 1448.72 Q1011.88 1457.45 1008.8 1462.05 Q1005.75 1466.64 999.936 1466.64 Q994.126 1466.64 991.047 1462.05 Q987.991 1457.45 987.991 1448.72 Q987.991 1439.97 991.047 1435.39 Q994.126 1430.78 999.936 1430.78 Z" fill="#000000" fill-rule="evenodd" fill-opacity="1" /><path clip-path="url(#clip340)" d="M1376.14 1462.03 L1392.46 1462.03 L1392.46 1465.96 L1370.52 1465.96 L1370.52 1462.03 Q1373.18 1459.27 1377.76 1454.64 Q1382.37 1449.99 1383.55 1448.65 Q1385.8 1446.13 1386.68 1444.39 Q1387.58 1442.63 1387.58 1440.94 Q1387.58 1438.19 1385.63 1436.45 Q1383.71 1434.71 1380.61 1434.71 Q1378.41 1434.71 1375.96 1435.48 Q1373.53 1436.24 1370.75 1437.79 L1370.75 1433.07 Q1373.57 1431.94 1376.03 1431.36 Q1378.48 1430.78 1380.52 1430.78 Q1385.89 1430.78 1389.08 1433.46 Q1392.28 1436.15 1392.28 1440.64 Q1392.28 1442.77 1391.47 1444.69 Q1390.68 1446.59 1388.57 1449.18 Q1388 1449.85 1384.89 1453.07 Q1381.79 1456.26 1376.14 1462.03 Z" fill="#000000" fill-rule="evenodd" fill-opacity="1" /><path clip-path="url(#clip340)" d="M1766.06 1435.48 L1754.25 1453.93 L1766.06 1453.93 L1766.06 1435.48 M1764.83 1431.4 L1770.71 1431.4 L1770.71 1453.93 L1775.64 1453.93 L1775.64 1457.82 L1770.71 1457.82 L1770.71 1465.96 L1766.06 1465.96 L1766.06 1457.82 L1750.45 1457.82 L1750.45 1453.3 L1764.83 1431.4 Z" fill="#000000" fill-rule="evenodd" fill-opacity="1" /><path clip-path="url(#clip340)" d="M1025.95 1545.63 L1007.81 1498.11 L1014.53 1498.11 L1029.58 1538.12 L1044.67 1498.11 L1051.35 1498.11 L1033.24 1545.63 L1025.95 1545.63 Z" fill="#000000" fill-rule="evenodd" fill-opacity="1" /><path clip-path="url(#clip340)" d="M1069.18 1527.71 Q1062.08 1527.71 1059.34 1529.33 Q1056.61 1530.95 1056.61 1534.87 Q1056.61 1537.99 1058.64 1539.84 Q1060.71 1541.65 1064.24 1541.65 Q1069.11 1541.65 1072.04 1538.21 Q1075 1534.74 1075 1529.01 L1075 1527.71 L1069.18 1527.71 M1080.86 1525.29 L1080.86 1545.63 L1075 1545.63 L1075 1540.22 Q1073 1543.46 1070.01 1545.02 Q1067.01 1546.55 1062.68 1546.55 Q1057.21 1546.55 1053.96 1543.5 Q1050.75 1540.41 1050.75 1535.25 Q1050.75 1529.24 1054.76 1526.18 Q1058.8 1523.13 1066.79 1523.13 L1075 1523.13 L1075 1522.55 Q1075 1518.51 1072.33 1516.31 Q1069.69 1514.09 1064.88 1514.09 Q1061.83 1514.09 1058.93 1514.82 Q1056.03 1515.55 1053.36 1517.01 L1053.36 1511.6 Q1056.57 1510.36 1059.6 1509.76 Q1062.62 1509.12 1065.49 1509.12 Q1073.22 1509.12 1077.04 1513.13 Q1080.86 1517.14 1080.86 1525.29 Z" fill="#000000" fill-rule="evenodd" fill-opacity="1" /><path clip-path="url(#clip340)" d="M1092.92 1496.1 L1098.78 1496.1 L1098.78 1545.63 L1092.92 1545.63 L1092.92 1496.1 Z" fill="#000000" fill-rule="evenodd" fill-opacity="1" /><path clip-path="url(#clip340)" d="M1110.43 1531.56 L1110.43 1509.98 L1116.28 1509.98 L1116.28 1531.34 Q1116.28 1536.4 1118.26 1538.94 Q1120.23 1541.46 1124.18 1541.46 Q1128.92 1541.46 1131.66 1538.43 Q1134.43 1535.41 1134.43 1530.19 L1134.43 1509.98 L1140.28 1509.98 L1140.28 1545.63 L1134.43 1545.63 L1134.43 1540.15 Q1132.29 1543.4 1129.46 1544.99 Q1126.66 1546.55 1122.94 1546.55 Q1116.79 1546.55 1113.61 1542.73 Q1110.43 1538.91 1110.43 1531.56 M1125.16 1509.12 L1125.16 1509.12 Z" fill="#000000" fill-rule="evenodd" fill-opacity="1" /><path clip-path="url(#clip340)" d="M1182.84 1526.34 L1182.84 1529.2 L1155.91 1529.2 Q1156.29 1535.25 1159.54 1538.43 Q1162.82 1541.59 1168.64 1541.59 Q1172.02 1541.59 1175.17 1540.76 Q1178.35 1539.93 1181.47 1538.28 L1181.47 1543.81 Q1178.32 1545.15 1175.01 1545.85 Q1171.7 1546.55 1168.29 1546.55 Q1159.76 1546.55 1154.76 1541.59 Q1149.8 1536.62 1149.8 1528.15 Q1149.8 1519.4 1154.51 1514.28 Q1159.25 1509.12 1167.27 1509.12 Q1174.47 1509.12 1178.64 1513.77 Q1182.84 1518.38 1182.84 1526.34 M1176.98 1524.62 Q1176.92 1519.81 1174.28 1516.95 Q1171.67 1514.09 1167.34 1514.09 Q1162.44 1514.09 1159.48 1516.85 Q1156.55 1519.62 1156.1 1524.65 L1176.98 1524.62 Z" fill="#000000" fill-rule="evenodd" fill-opacity="1" /><polyline clip-path="url(#clip340)" style="stroke:#000000; stroke-linecap:butt; stroke-linejoin:round; stroke-width:4; stroke-opacity:1; fill:none" points="
  237.893,1406.76 237.893,47.2441 
  "/>
<polyline clip-path="url(#clip340)" style="stroke:#000000; stroke-linecap:butt; stroke-linejoin:round; stroke-width:4; stroke-opacity:1; fill:none" points="
  237.893,1368.29 256.791,1368.29 
  "/>
<polyline clip-path="url(#clip340)" style="stroke:#000000; stroke-linecap:butt; stroke-linejoin:round; stroke-width:4; stroke-opacity:1; fill:none" points="
  237.893,1017.86 256.791,1017.86 
  "/>
<polyline clip-path="url(#clip340)" style="stroke:#000000; stroke-linecap:butt; stroke-linejoin:round; stroke-width:4; stroke-opacity:1; fill:none" points="
  237.893,667.431 256.791,667.431 
  "/>
<polyline clip-path="url(#clip340)" style="stroke:#000000; stroke-linecap:butt; stroke-linejoin:round; stroke-width:4; stroke-opacity:1; fill:none" points="
  237.893,317.003 256.791,317.003 
  "/>
<path clip-path="url(#clip340)" d="M195.949 1354.09 Q192.338 1354.09 190.509 1357.65 Q188.704 1361.19 188.704 1368.32 Q188.704 1375.43 190.509 1378.99 Q192.338 1382.53 195.949 1382.53 Q199.583 1382.53 201.389 1378.99 Q203.217 1375.43 203.217 1368.32 Q203.217 1361.19 201.389 1357.65 Q199.583 1354.09 195.949 1354.09 M195.949 1350.38 Q201.759 1350.38 204.815 1354.99 Q207.893 1359.57 207.893 1368.32 Q207.893 1377.05 204.815 1381.65 Q201.759 1386.24 195.949 1386.24 Q190.139 1386.24 187.06 1381.65 Q184.005 1377.05 184.005 1368.32 Q184.005 1359.57 187.06 1354.99 Q190.139 1350.38 195.949 1350.38 Z" fill="#000000" fill-rule="evenodd" fill-opacity="1" /><path clip-path="url(#clip340)" d="M155.833 1000.58 L174.19 1000.58 L174.19 1004.51 L160.116 1004.51 L160.116 1012.99 Q161.134 1012.64 162.153 1012.48 Q163.171 1012.29 164.19 1012.29 Q169.977 1012.29 173.356 1015.46 Q176.736 1018.63 176.736 1024.05 Q176.736 1029.63 173.264 1032.73 Q169.792 1035.81 163.472 1035.81 Q161.296 1035.81 159.028 1035.44 Q156.783 1035.07 154.375 1034.33 L154.375 1029.63 Q156.458 1030.76 158.681 1031.32 Q160.903 1031.88 163.38 1031.88 Q167.384 1031.88 169.722 1029.77 Q172.06 1027.66 172.06 1024.05 Q172.06 1020.44 169.722 1018.33 Q167.384 1016.23 163.38 1016.23 Q161.505 1016.23 159.63 1016.64 Q157.778 1017.06 155.833 1017.94 L155.833 1000.58 Z" fill="#000000" fill-rule="evenodd" fill-opacity="1" /><path clip-path="url(#clip340)" d="M195.949 1003.66 Q192.338 1003.66 190.509 1007.22 Q188.704 1010.76 188.704 1017.89 Q188.704 1025 190.509 1028.57 Q192.338 1032.11 195.949 1032.11 Q199.583 1032.11 201.389 1028.57 Q203.217 1025 203.217 1017.89 Q203.217 1010.76 201.389 1007.22 Q199.583 1003.66 195.949 1003.66 M195.949 999.954 Q201.759 999.954 204.815 1004.56 Q207.893 1009.14 207.893 1017.89 Q207.893 1026.62 204.815 1031.23 Q201.759 1035.81 195.949 1035.81 Q190.139 1035.81 187.06 1031.23 Q184.005 1026.62 184.005 1017.89 Q184.005 1009.14 187.06 1004.56 Q190.139 999.954 195.949 999.954 Z" fill="#000000" fill-rule="evenodd" fill-opacity="1" /><path clip-path="url(#clip340)" d="M126.435 680.776 L134.074 680.776 L134.074 654.41 L125.764 656.077 L125.764 651.818 L134.028 650.151 L138.704 650.151 L138.704 680.776 L146.343 680.776 L146.343 684.711 L126.435 684.711 L126.435 680.776 Z" fill="#000000" fill-rule="evenodd" fill-opacity="1" /><path clip-path="url(#clip340)" d="M165.787 653.23 Q162.176 653.23 160.347 656.795 Q158.542 660.336 158.542 667.466 Q158.542 674.572 160.347 678.137 Q162.176 681.679 165.787 681.679 Q169.421 681.679 171.227 678.137 Q173.056 674.572 173.056 667.466 Q173.056 660.336 171.227 656.795 Q169.421 653.23 165.787 653.23 M165.787 649.526 Q171.597 649.526 174.653 654.133 Q177.731 658.716 177.731 667.466 Q177.731 676.193 174.653 680.799 Q171.597 685.383 165.787 685.383 Q159.977 685.383 156.898 680.799 Q153.843 676.193 153.843 667.466 Q153.843 658.716 156.898 654.133 Q159.977 649.526 165.787 649.526 Z" fill="#000000" fill-rule="evenodd" fill-opacity="1" /><path clip-path="url(#clip340)" d="M195.949 653.23 Q192.338 653.23 190.509 656.795 Q188.704 660.336 188.704 667.466 Q188.704 674.572 190.509 678.137 Q192.338 681.679 195.949 681.679 Q199.583 681.679 201.389 678.137 Q203.217 674.572 203.217 667.466 Q203.217 660.336 201.389 656.795 Q199.583 653.23 195.949 653.23 M195.949 649.526 Q201.759 649.526 204.815 654.133 Q207.893 658.716 207.893 667.466 Q207.893 676.193 204.815 680.799 Q201.759 685.383 195.949 685.383 Q190.139 685.383 187.06 680.799 Q184.005 676.193 184.005 667.466 Q184.005 658.716 187.06 654.133 Q190.139 649.526 195.949 649.526 Z" fill="#000000" fill-rule="evenodd" fill-opacity="1" /><path clip-path="url(#clip340)" d="M126.435 330.348 L134.074 330.348 L134.074 303.983 L125.764 305.649 L125.764 301.39 L134.028 299.723 L138.704 299.723 L138.704 330.348 L146.343 330.348 L146.343 334.283 L126.435 334.283 L126.435 330.348 Z" fill="#000000" fill-rule="evenodd" fill-opacity="1" /><path clip-path="url(#clip340)" d="M155.833 299.723 L174.19 299.723 L174.19 303.659 L160.116 303.659 L160.116 312.131 Q161.134 311.784 162.153 311.622 Q163.171 311.436 164.19 311.436 Q169.977 311.436 173.356 314.608 Q176.736 317.779 176.736 323.196 Q176.736 328.774 173.264 331.876 Q169.792 334.955 163.472 334.955 Q161.296 334.955 159.028 334.584 Q156.783 334.214 154.375 333.473 L154.375 328.774 Q156.458 329.908 158.681 330.464 Q160.903 331.02 163.38 331.02 Q167.384 331.02 169.722 328.913 Q172.06 326.807 172.06 323.196 Q172.06 319.584 169.722 317.478 Q167.384 315.371 163.38 315.371 Q161.505 315.371 159.63 315.788 Q157.778 316.205 155.833 317.084 L155.833 299.723 Z" fill="#000000" fill-rule="evenodd" fill-opacity="1" /><path clip-path="url(#clip340)" d="M195.949 302.802 Q192.338 302.802 190.509 306.367 Q188.704 309.909 188.704 317.038 Q188.704 324.145 190.509 327.709 Q192.338 331.251 195.949 331.251 Q199.583 331.251 201.389 327.709 Q203.217 324.145 203.217 317.038 Q203.217 309.909 201.389 306.367 Q199.583 302.802 195.949 302.802 M195.949 299.098 Q201.759 299.098 204.815 303.705 Q207.893 308.288 207.893 317.038 Q207.893 325.765 204.815 330.371 Q201.759 334.955 195.949 334.955 Q190.139 334.955 187.06 330.371 Q184.005 325.765 184.005 317.038 Q184.005 308.288 187.06 303.705 Q190.139 299.098 195.949 299.098 Z" fill="#000000" fill-rule="evenodd" fill-opacity="1" /><path clip-path="url(#clip340)" d="M37.6484 782.863 L44.4279 782.863 Q41.4042 786.11 39.9083 789.802 Q38.4123 793.462 38.4123 797.6 Q38.4123 805.748 43.4094 810.076 Q48.3747 814.405 57.7959 814.405 Q67.1853 814.405 72.1824 810.076 Q77.1476 805.748 77.1476 797.6 Q77.1476 793.462 75.6517 789.802 Q74.1558 786.11 71.1321 782.863 L77.8479 782.863 Q80.1395 786.237 81.2854 790.024 Q82.4312 793.78 82.4312 797.982 Q82.4312 808.771 75.8427 814.978 Q69.2223 821.185 57.7959 821.185 Q46.3376 821.185 39.7491 814.978 Q33.1288 808.771 33.1288 797.982 Q33.1288 793.717 34.2746 789.961 Q35.3886 786.173 37.6484 782.863 Z" fill="#000000" fill-rule="evenodd" fill-opacity="1" /><path clip-path="url(#clip340)" d="M49.9661 759.374 Q49.9661 764.084 53.6582 766.821 Q57.3185 769.559 63.716 769.559 Q70.1135 769.559 73.8057 766.853 Q77.4659 764.116 77.4659 759.374 Q77.4659 754.695 73.7738 751.958 Q70.0817 749.22 63.716 749.22 Q57.3821 749.22 53.69 751.958 Q49.9661 754.695 49.9661 759.374 M45.0008 759.374 Q45.0008 751.735 49.9661 747.374 Q54.9313 743.014 63.716 743.014 Q72.4689 743.014 77.4659 747.374 Q82.4312 751.735 82.4312 759.374 Q82.4312 767.044 77.4659 771.405 Q72.4689 775.733 63.716 775.733 Q54.9313 775.733 49.9661 771.405 Q45.0008 767.044 45.0008 759.374 Z" fill="#000000" fill-rule="evenodd" fill-opacity="1" /><path clip-path="url(#clip340)" d="M67.4399 733.911 L45.8602 733.911 L45.8602 728.054 L67.2171 728.054 Q72.2779 728.054 74.8242 726.081 Q77.3386 724.108 77.3386 720.161 Q77.3386 715.418 74.3149 712.681 Q71.2912 709.912 66.0713 709.912 L45.8602 709.912 L45.8602 704.056 L81.5082 704.056 L81.5082 709.912 L76.0336 709.912 Q79.2802 712.045 80.8716 714.877 Q82.4312 717.678 82.4312 721.402 Q82.4312 727.545 78.6118 730.728 Q74.7923 733.911 67.4399 733.911 M45.0008 719.174 L45.0008 719.174 Z" fill="#000000" fill-rule="evenodd" fill-opacity="1" /><path clip-path="url(#clip340)" d="M59.9921 662.36 L81.5082 662.36 L81.5082 668.217 L60.183 668.217 Q55.1223 668.217 52.6078 670.19 Q50.0934 672.163 50.0934 676.11 Q50.0934 680.853 53.1171 683.59 Q56.1408 686.327 61.3607 686.327 L81.5082 686.327 L81.5082 692.215 L45.8602 692.215 L45.8602 686.327 L51.3984 686.327 Q48.1837 684.226 46.5923 681.394 Q45.0008 678.529 45.0008 674.805 Q45.0008 668.662 48.8203 665.511 Q52.6078 662.36 59.9921 662.36 Z" fill="#000000" fill-rule="evenodd" fill-opacity="1" /><path clip-path="url(#clip340)" d="M35.7387 644.886 L45.8602 644.886 L45.8602 632.823 L50.4117 632.823 L50.4117 644.886 L69.7634 644.886 Q74.1239 644.886 75.3653 643.709 Q76.6066 642.499 76.6066 638.839 L76.6066 632.823 L81.5082 632.823 L81.5082 638.839 Q81.5082 645.618 78.9937 648.197 Q76.4474 650.775 69.7634 650.775 L50.4117 650.775 L50.4117 655.071 L45.8602 655.071 L45.8602 650.775 L35.7387 650.775 L35.7387 644.886 Z" fill="#000000" fill-rule="evenodd" fill-opacity="1" /><path clip-path="url(#clip342)" d="
M332.214 1354.27 L332.214 1368.29 L427.603 1368.29 L427.603 1354.27 L332.214 1354.27 L332.214 1354.27  Z
  " fill="#009af9" fill-rule="evenodd" fill-opacity="1"/>
<polyline clip-path="url(#clip342)" style="stroke:#000000; stroke-linecap:butt; stroke-linejoin:round; stroke-width:4; stroke-opacity:1; fill:none" points="
  332.214,1354.27 332.214,1368.29 427.603,1368.29 427.603,1354.27 332.214,1354.27 
  "/>
<path clip-path="url(#clip342)" d="
M427.603 1333.24 L427.603 1368.29 L522.992 1368.29 L522.992 1333.24 L427.603 1333.24 L427.603 1333.24  Z
  " fill="#009af9" fill-rule="evenodd" fill-opacity="1"/>
<polyline clip-path="url(#clip342)" style="stroke:#000000; stroke-linecap:butt; stroke-linejoin:round; stroke-width:4; stroke-opacity:1; fill:none" points="
  427.603,1333.24 427.603,1368.29 522.992,1368.29 522.992,1333.24 427.603,1333.24 
  "/>
<path clip-path="url(#clip342)" d="
M522.992 1277.18 L522.992 1368.29 L618.38 1368.29 L618.38 1277.18 L522.992 1277.18 L522.992 1277.18  Z
  " fill="#009af9" fill-rule="evenodd" fill-opacity="1"/>
<polyline clip-path="url(#clip342)" style="stroke:#000000; stroke-linecap:butt; stroke-linejoin:round; stroke-width:4; stroke-opacity:1; fill:none" points="
  522.992,1277.18 522.992,1368.29 618.38,1368.29 618.38,1277.18 522.992,1277.18 
  "/>
<path clip-path="url(#clip342)" d="
M618.38 1059.91 L618.38 1368.29 L713.769 1368.29 L713.769 1059.91 L618.38 1059.91 L618.38 1059.91  Z
  " fill="#009af9" fill-rule="evenodd" fill-opacity="1"/>
<polyline clip-path="url(#clip342)" style="stroke:#000000; stroke-linecap:butt; stroke-linejoin:round; stroke-width:4; stroke-opacity:1; fill:none" points="
  618.38,1059.91 618.38,1368.29 713.769,1368.29 713.769,1059.91 618.38,1059.91 
  "/>
<path clip-path="url(#clip342)" d="
M713.769 723.5 L713.769 1368.29 L809.158 1368.29 L809.158 723.5 L713.769 723.5 L713.769 723.5  Z
  " fill="#009af9" fill-rule="evenodd" fill-opacity="1"/>
<polyline clip-path="url(#clip342)" style="stroke:#000000; stroke-linecap:butt; stroke-linejoin:round; stroke-width:4; stroke-opacity:1; fill:none" points="
  713.769,723.5 713.769,1368.29 809.158,1368.29 809.158,723.5 713.769,723.5 
  "/>
<path clip-path="url(#clip342)" d="
M809.158 302.986 L809.158 1368.29 L904.547 1368.29 L904.547 302.986 L809.158 302.986 L809.158 302.986  Z
  " fill="#009af9" fill-rule="evenodd" fill-opacity="1"/>
<polyline clip-path="url(#clip342)" style="stroke:#000000; stroke-linecap:butt; stroke-linejoin:round; stroke-width:4; stroke-opacity:1; fill:none" points="
  809.158,302.986 809.158,1368.29 904.547,1368.29 904.547,302.986 809.158,302.986 
  "/>
<path clip-path="url(#clip342)" d="
M904.547 85.7211 L904.547 1368.29 L999.936 1368.29 L999.936 85.7211 L904.547 85.7211 L904.547 85.7211  Z
  " fill="#009af9" fill-rule="evenodd" fill-opacity="1"/>
<polyline clip-path="url(#clip342)" style="stroke:#000000; stroke-linecap:butt; stroke-linejoin:round; stroke-width:4; stroke-opacity:1; fill:none" points="
  904.547,85.7211 904.547,1368.29 999.936,1368.29 999.936,85.7211 904.547,85.7211 
  "/>
<path clip-path="url(#clip342)" d="
M999.936 106.747 L999.936 1368.29 L1095.32 1368.29 L1095.32 106.747 L999.936 106.747 L999.936 106.747  Z
  " fill="#009af9" fill-rule="evenodd" fill-opacity="1"/>
<polyline clip-path="url(#clip342)" style="stroke:#000000; stroke-linecap:butt; stroke-linejoin:round; stroke-width:4; stroke-opacity:1; fill:none" points="
  999.936,106.747 999.936,1368.29 1095.32,1368.29 1095.32,106.747 999.936,106.747 
  "/>
<path clip-path="url(#clip342)" d="
M1095.32 288.969 L1095.32 1368.29 L1190.71 1368.29 L1190.71 288.969 L1095.32 288.969 L1095.32 288.969  Z
  " fill="#009af9" fill-rule="evenodd" fill-opacity="1"/>
<polyline clip-path="url(#clip342)" style="stroke:#000000; stroke-linecap:butt; stroke-linejoin:round; stroke-width:4; stroke-opacity:1; fill:none" points="
  1095.32,288.969 1095.32,1368.29 1190.71,1368.29 1190.71,288.969 1095.32,288.969 
  "/>
<path clip-path="url(#clip342)" d="
M1190.71 744.525 L1190.71 1368.29 L1286.1 1368.29 L1286.1 744.525 L1190.71 744.525 L1190.71 744.525  Z
  " fill="#009af9" fill-rule="evenodd" fill-opacity="1"/>
<polyline clip-path="url(#clip342)" style="stroke:#000000; stroke-linecap:butt; stroke-linejoin:round; stroke-width:4; stroke-opacity:1; fill:none" points="
  1190.71,744.525 1190.71,1368.29 1286.1,1368.29 1286.1,744.525 1190.71,744.525 
  "/>
<path clip-path="url(#clip342)" d="
M1286.1 954.782 L1286.1 1368.29 L1381.49 1368.29 L1381.49 954.782 L1286.1 954.782 L1286.1 954.782  Z
  " fill="#009af9" fill-rule="evenodd" fill-opacity="1"/>
<polyline clip-path="url(#clip342)" style="stroke:#000000; stroke-linecap:butt; stroke-linejoin:round; stroke-width:4; stroke-opacity:1; fill:none" points="
  1286.1,954.782 1286.1,1368.29 1381.49,1368.29 1381.49,954.782 1286.1,954.782 
  "/>
<path clip-path="url(#clip342)" d="
M1381.49 1242.13 L1381.49 1368.29 L1476.88 1368.29 L1476.88 1242.13 L1381.49 1242.13 L1381.49 1242.13  Z
  " fill="#009af9" fill-rule="evenodd" fill-opacity="1"/>
<polyline clip-path="url(#clip342)" style="stroke:#000000; stroke-linecap:butt; stroke-linejoin:round; stroke-width:4; stroke-opacity:1; fill:none" points="
  1381.49,1242.13 1381.49,1368.29 1476.88,1368.29 1476.88,1242.13 1381.49,1242.13 
  "/>
<path clip-path="url(#clip342)" d="
M1476.88 1319.23 L1476.88 1368.29 L1572.27 1368.29 L1572.27 1319.23 L1476.88 1319.23 L1476.88 1319.23  Z
  " fill="#009af9" fill-rule="evenodd" fill-opacity="1"/>
<polyline clip-path="url(#clip342)" style="stroke:#000000; stroke-linecap:butt; stroke-linejoin:round; stroke-width:4; stroke-opacity:1; fill:none" points="
  1476.88,1319.23 1476.88,1368.29 1572.27,1368.29 1572.27,1319.23 1476.88,1319.23 
  "/>
<path clip-path="url(#clip342)" d="
M1572.27 1361.28 L1572.27 1368.29 L1667.66 1368.29 L1667.66 1361.28 L1572.27 1361.28 L1572.27 1361.28  Z
  " fill="#009af9" fill-rule="evenodd" fill-opacity="1"/>
<polyline clip-path="url(#clip342)" style="stroke:#000000; stroke-linecap:butt; stroke-linejoin:round; stroke-width:4; stroke-opacity:1; fill:none" points="
  1572.27,1361.28 1572.27,1368.29 1667.66,1368.29 1667.66,1361.28 1572.27,1361.28 
  "/>
<path clip-path="url(#clip342)" d="
M1667.66 1368.29 L1667.66 1368.29 L1763.05 1368.29 L1763.05 1368.29 L1667.66 1368.29 L1667.66 1368.29  Z
  " fill="#009af9" fill-rule="evenodd" fill-opacity="1"/>
<polyline clip-path="url(#clip342)" style="stroke:#000000; stroke-linecap:butt; stroke-linejoin:round; stroke-width:4; stroke-opacity:1; fill:none" points="
  1667.66,1368.29 1667.66,1368.29 1763.05,1368.29 1667.66,1368.29 
  "/>
<path clip-path="url(#clip342)" d="
M1763.05 1361.28 L1763.05 1368.29 L1858.44 1368.29 L1858.44 1361.28 L1763.05 1361.28 L1763.05 1361.28  Z
  " fill="#009af9" fill-rule="evenodd" fill-opacity="1"/>
<polyline clip-path="url(#clip342)" style="stroke:#000000; stroke-linecap:butt; stroke-linejoin:round; stroke-width:4; stroke-opacity:1; fill:none" points="
  1763.05,1361.28 1763.05,1368.29 1858.44,1368.29 1858.44,1361.28 1763.05,1361.28 
  "/>
<circle clip-path="url(#clip342)" style="fill:#009af9; stroke:none; fill-opacity:0" cx="379.908" cy="1354.27" r="2"/>
<circle clip-path="url(#clip342)" style="fill:#009af9; stroke:none; fill-opacity:0" cx="475.297" cy="1333.24" r="2"/>
<circle clip-path="url(#clip342)" style="fill:#009af9; stroke:none; fill-opacity:0" cx="570.686" cy="1277.18" r="2"/>
<circle clip-path="url(#clip342)" style="fill:#009af9; stroke:none; fill-opacity:0" cx="666.075" cy="1059.91" r="2"/>
<circle clip-path="url(#clip342)" style="fill:#009af9; stroke:none; fill-opacity:0" cx="761.464" cy="723.5" r="2"/>
<circle clip-path="url(#clip342)" style="fill:#009af9; stroke:none; fill-opacity:0" cx="856.853" cy="302.986" r="2"/>
<circle clip-path="url(#clip342)" style="fill:#009af9; stroke:none; fill-opacity:0" cx="952.241" cy="85.7211" r="2"/>
<circle clip-path="url(#clip342)" style="fill:#009af9; stroke:none; fill-opacity:0" cx="1047.63" cy="106.747" r="2"/>
<circle clip-path="url(#clip342)" style="fill:#009af9; stroke:none; fill-opacity:0" cx="1143.02" cy="288.969" r="2"/>
<circle clip-path="url(#clip342)" style="fill:#009af9; stroke:none; fill-opacity:0" cx="1238.41" cy="744.525" r="2"/>
<circle clip-path="url(#clip342)" style="fill:#009af9; stroke:none; fill-opacity:0" cx="1333.8" cy="954.782" r="2"/>
<circle clip-path="url(#clip342)" style="fill:#009af9; stroke:none; fill-opacity:0" cx="1429.19" cy="1242.13" r="2"/>
<circle clip-path="url(#clip342)" style="fill:#009af9; stroke:none; fill-opacity:0" cx="1524.57" cy="1319.23" r="2"/>
<circle clip-path="url(#clip342)" style="fill:#009af9; stroke:none; fill-opacity:0" cx="1619.96" cy="1361.28" r="2"/>
<circle clip-path="url(#clip342)" style="fill:#009af9; stroke:none; fill-opacity:0" cx="1715.35" cy="1368.29" r="2"/>
<circle clip-path="url(#clip342)" style="fill:#009af9; stroke:none; fill-opacity:0" cx="1810.74" cy="1361.28" r="2"/>
</svg>
