<?xml version="1.0" encoding="utf-8"?>
<svg xmlns="http://www.w3.org/2000/svg" xmlns:xlink="http://www.w3.org/1999/xlink" width="600" height="400" viewBox="0 0 2400 1600">
<defs>
  <clipPath id="clip390">
    <rect x="0" y="0" width="2400" height="1600"/>
  </clipPath>
</defs>
<path clip-path="url(#clip390)" d="
M0 1600 L2400 1600 L2400 0 L0 0  Z
  " fill="#ffffff" fill-rule="evenodd" fill-opacity="1"/>
<defs>
  <clipPath id="clip391">
    <rect x="480" y="0" width="1681" height="1600"/>
  </clipPath>
</defs>
<path clip-path="url(#clip390)" d="
M188.292 686.448 L2352.76 686.448 L2352.76 123.472 L188.292 123.472  Z
  " fill="#ffffff" fill-rule="evenodd" fill-opacity="1"/>
<defs>
  <clipPath id="clip392">
    <rect x="188" y="123" width="2165" height="564"/>
  </clipPath>
</defs>
<polyline clip-path="url(#clip392)" style="stroke:#000000; stroke-linecap:round; stroke-linejoin:round; stroke-width:2; stroke-opacity:0.1; fill:none" points="
  510.117,686.448 510.117,123.472 
  "/>
<polyline clip-path="url(#clip392)" style="stroke:#000000; stroke-linecap:round; stroke-linejoin:round; stroke-width:2; stroke-opacity:0.1; fill:none" points="
  1017.05,686.448 1017.05,123.472 
  "/>
<polyline clip-path="url(#clip392)" style="stroke:#000000; stroke-linecap:round; stroke-linejoin:round; stroke-width:2; stroke-opacity:0.1; fill:none" points="
  1523.99,686.448 1523.99,123.472 
  "/>
<polyline clip-path="url(#clip392)" style="stroke:#000000; stroke-linecap:round; stroke-linejoin:round; stroke-width:2; stroke-opacity:0.1; fill:none" points="
  2030.93,686.448 2030.93,123.472 
  "/>
<polyline clip-path="url(#clip390)" style="stroke:#000000; stroke-linecap:round; stroke-linejoin:round; stroke-width:4; stroke-opacity:1; fill:none" points="
  188.292,686.448 2352.76,686.448 
  "/>
<polyline clip-path="url(#clip390)" style="stroke:#000000; stroke-linecap:round; stroke-linejoin:round; stroke-width:4; stroke-opacity:1; fill:none" points="
  510.117,686.448 510.117,667.55 
  "/>
<polyline clip-path="url(#clip390)" style="stroke:#000000; stroke-linecap:round; stroke-linejoin:round; stroke-width:4; stroke-opacity:1; fill:none" points="
  1017.05,686.448 1017.05,667.55 
  "/>
<polyline clip-path="url(#clip390)" style="stroke:#000000; stroke-linecap:round; stroke-linejoin:round; stroke-width:4; stroke-opacity:1; fill:none" points="
  1523.99,686.448 1523.99,667.55 
  "/>
<polyline clip-path="url(#clip390)" style="stroke:#000000; stroke-linecap:round; stroke-linejoin:round; stroke-width:4; stroke-opacity:1; fill:none" points="
  2030.93,686.448 2030.93,667.55 
  "/>
<path clip-path="url(#clip390)" d="M519.298 716.776 L512.669 743.455 Q512.482 744.298 512.482 744.509 Q512.482 744.79 512.552 744.907 Q512.646 745.047 513.161 745.164 Q513.7 745.282 514.777 745.282 Q515.175 745.282 515.316 745.282 Q515.456 745.282 515.667 745.328 Q515.878 745.375 515.948 745.492 Q516.018 745.61 516.018 745.797 Q516.018 746.757 515.175 746.757 Q514.379 746.757 512.716 746.687 Q511.053 746.617 510.233 746.617 Q509.437 746.617 507.821 746.687 Q506.204 746.757 505.432 746.757 Q505.15 746.757 504.986 746.617 Q504.823 746.5 504.823 746.359 L504.799 746.242 Q504.799 745.586 505.057 745.422 Q505.314 745.282 505.9 745.282 Q507.914 745.258 508.5 744.977 Q509.085 744.696 509.366 743.689 L511.521 735.116 Q508.64 737.997 505.853 737.997 Q503.16 737.997 501.333 735.889 Q499.529 733.758 499.529 730.315 Q499.529 727.762 500.536 725.185 Q501.567 722.609 503.16 720.665 Q504.776 718.721 506.884 717.503 Q508.992 716.261 511.076 716.261 Q512.411 716.261 513.606 717.034 Q514.824 717.807 515.55 719.611 Q516.159 718.58 517.283 717.456 Q518.408 716.308 518.806 716.308 Q519.04 716.308 519.157 716.472 Q519.298 716.613 519.298 716.776 M514.871 721.531 Q514.871 721.297 514.683 720.711 Q514.519 720.126 514.145 719.33 Q513.793 718.51 512.974 717.924 Q512.154 717.315 511.076 717.315 Q509.53 717.315 507.867 718.814 Q506.228 720.29 505.15 722.866 Q504.471 724.553 503.698 727.691 Q502.925 730.83 502.925 732.423 Q502.925 732.797 502.949 733.219 Q502.996 733.641 503.183 734.343 Q503.37 735.046 503.651 735.585 Q503.956 736.123 504.565 736.522 Q505.174 736.92 505.994 736.92 Q507.774 736.92 509.554 735.397 Q511.334 733.875 512.083 732.516 Q512.177 732.376 513.512 727.059 Q514.871 721.742 514.871 721.531 Z" fill="#000000" fill-rule="evenodd" fill-opacity="1" /><path clip-path="url(#clip390)" d="M1024.53 734.241 Q1024.53 737.613 1022.82 740.916 Q1021.14 744.195 1018.42 746.256 Q1015.73 748.318 1012.96 748.318 Q1010.27 748.318 1008.56 746.256 Q1006.87 744.172 1006.87 740.776 Q1006.87 739.581 1007.01 738.738 Q1007.15 737.895 1007.65 735.927 L1011.58 720.281 Q1012.26 717.353 1012.26 717.33 Q1012.26 717.049 1012.14 716.908 Q1012.05 716.744 1011.49 716.627 Q1010.93 716.51 1009.85 716.51 Q1009.4 716.51 1009.19 716.486 Q1009 716.463 1008.84 716.346 Q1008.7 716.205 1008.7 715.924 Q1008.7 715.526 1008.86 715.315 Q1009.05 715.081 1009.19 715.034 Q1009.33 714.987 1009.61 714.964 Q1010.01 714.941 1011.35 714.823 Q1012.68 714.683 1013.83 714.589 Q1014.98 714.496 1015.47 714.496 Q1015.75 714.496 1015.89 714.636 Q1016.05 714.753 1016.05 714.894 L1016.08 715.011 L1012.54 729.462 Q1015.33 726.581 1018.16 726.581 Q1021 726.581 1022.75 728.76 Q1024.53 730.938 1024.53 734.241 M1021.07 732.133 Q1021.07 729.907 1020.22 728.783 Q1019.4 727.636 1018.05 727.636 Q1016.9 727.636 1015.4 728.502 Q1013.9 729.369 1012.31 731.477 Q1012 731.875 1011.89 732.109 Q1011.79 732.343 1011.58 733.14 L1010.53 737.567 Q1009.75 740.588 1009.75 742.415 Q1009.75 744.898 1010.67 746.069 Q1011.58 747.24 1012.96 747.24 Q1014.42 747.24 1015.94 745.952 Q1017.46 744.664 1018.63 742.321 Q1019.36 740.776 1020.2 737.45 Q1021.07 734.1 1021.07 732.133 Z" fill="#000000" fill-rule="evenodd" fill-opacity="1" /><path clip-path="url(#clip390)" d="M1459.31 751.255 Q1457.5 755.885 1455.79 757.297 Q1454.07 758.709 1451.2 758.709 L1447.8 758.709 L1447.8 755.144 L1450.3 755.144 Q1452.06 755.144 1453.03 754.311 Q1454.01 753.477 1455.19 750.376 L1455.95 748.431 L1445.46 722.922 L1449.98 722.922 L1458.08 743.2 L1466.18 722.922 L1470.69 722.922 L1459.31 751.255 Z" fill="#000000" fill-rule="evenodd" fill-opacity="1" /><path clip-path="url(#clip390)" d="M1496.76 727.899 Q1498.36 725.029 1500.58 723.663 Q1502.8 722.297 1505.81 722.297 Q1509.86 722.297 1512.06 725.144 Q1514.26 727.968 1514.26 733.2 L1514.26 748.848 L1509.98 748.848 L1509.98 733.339 Q1509.98 729.612 1508.66 727.806 Q1507.34 726.001 1504.63 726.001 Q1501.32 726.001 1499.4 728.2 Q1497.48 730.399 1497.48 734.195 L1497.48 748.848 L1493.19 748.848 L1493.19 733.339 Q1493.19 729.589 1491.88 727.806 Q1490.56 726.001 1487.8 726.001 Q1484.54 726.001 1482.62 728.223 Q1480.69 730.422 1480.69 734.195 L1480.69 748.848 L1476.41 748.848 L1476.41 722.922 L1480.69 722.922 L1480.69 726.95 Q1482.15 724.566 1484.19 723.431 Q1486.23 722.297 1489.03 722.297 Q1491.85 722.297 1493.82 723.732 Q1495.81 725.167 1496.76 727.899 Z" fill="#000000" fill-rule="evenodd" fill-opacity="1" /><path clip-path="url(#clip390)" d="M1544.93 734.82 L1544.93 736.903 L1525.35 736.903 Q1525.63 741.302 1527.99 743.616 Q1530.37 745.908 1534.61 745.908 Q1537.06 745.908 1539.35 745.306 Q1541.67 744.704 1543.94 743.501 L1543.94 747.528 Q1541.64 748.501 1539.24 749.01 Q1536.83 749.519 1534.35 749.519 Q1528.15 749.519 1524.51 745.908 Q1520.9 742.297 1520.9 736.14 Q1520.9 729.774 1524.33 726.047 Q1527.78 722.297 1533.61 722.297 Q1538.84 722.297 1541.87 725.677 Q1544.93 729.033 1544.93 734.82 M1540.67 733.57 Q1540.62 730.075 1538.7 727.992 Q1536.81 725.908 1533.66 725.908 Q1530.09 725.908 1527.94 727.922 Q1525.81 729.936 1525.49 733.593 L1540.67 733.57 Z" fill="#000000" fill-rule="evenodd" fill-opacity="1" /><path clip-path="url(#clip390)" d="M1563.7 735.816 Q1558.54 735.816 1556.55 736.996 Q1554.56 738.177 1554.56 741.024 Q1554.56 743.292 1556.04 744.635 Q1557.55 745.954 1560.12 745.954 Q1563.66 745.954 1565.79 743.454 Q1567.94 740.931 1567.94 736.765 L1567.94 735.816 L1563.7 735.816 M1572.2 734.056 L1572.2 748.848 L1567.94 748.848 L1567.94 744.913 Q1566.48 747.274 1564.31 748.408 Q1562.13 749.519 1558.98 749.519 Q1555 749.519 1552.64 747.297 Q1550.3 745.052 1550.3 741.302 Q1550.3 736.927 1553.22 734.704 Q1556.16 732.482 1561.97 732.482 L1567.94 732.482 L1567.94 732.066 Q1567.94 729.126 1566 727.529 Q1564.07 725.908 1560.58 725.908 Q1558.36 725.908 1556.25 726.441 Q1554.14 726.973 1552.2 728.038 L1552.2 724.103 Q1554.54 723.2 1556.74 722.76 Q1558.94 722.297 1561.02 722.297 Q1566.64 722.297 1569.42 725.214 Q1572.2 728.13 1572.2 734.056 Z" fill="#000000" fill-rule="evenodd" fill-opacity="1" /><path clip-path="url(#clip390)" d="M1602.52 733.2 L1602.52 748.848 L1598.26 748.848 L1598.26 733.339 Q1598.26 729.658 1596.83 727.829 Q1595.39 726.001 1592.52 726.001 Q1589.07 726.001 1587.08 728.2 Q1585.09 730.399 1585.09 734.195 L1585.09 748.848 L1580.81 748.848 L1580.81 722.922 L1585.09 722.922 L1585.09 726.95 Q1586.62 724.612 1588.68 723.454 Q1590.76 722.297 1593.47 722.297 Q1597.94 722.297 1600.23 725.075 Q1602.52 727.829 1602.52 733.2 Z" fill="#000000" fill-rule="evenodd" fill-opacity="1" /><path clip-path="url(#clip390)" d="M1996.92 751.255 Q1995.11 755.885 1993.4 757.297 Q1991.68 758.709 1988.81 758.709 L1985.41 758.709 L1985.41 755.144 L1987.91 755.144 Q1989.67 755.144 1990.64 754.311 Q1991.61 753.477 1992.79 750.376 L1993.56 748.431 L1983.07 722.922 L1987.59 722.922 L1995.69 743.2 L2003.79 722.922 L2008.3 722.922 L1996.92 751.255 Z" fill="#000000" fill-rule="evenodd" fill-opacity="1" /><path clip-path="url(#clip390)" d="M2030.71 723.686 L2030.71 727.714 Q2028.91 726.788 2026.96 726.325 Q2025.02 725.862 2022.93 725.862 Q2019.76 725.862 2018.17 726.834 Q2016.59 727.806 2016.59 729.751 Q2016.59 731.232 2017.73 732.089 Q2018.86 732.922 2022.29 733.686 L2023.74 734.01 Q2028.28 734.982 2030.18 736.765 Q2032.1 738.524 2032.1 741.695 Q2032.1 745.306 2029.23 747.413 Q2026.38 749.519 2021.38 749.519 Q2019.3 749.519 2017.03 749.103 Q2014.79 748.709 2012.29 747.899 L2012.29 743.501 Q2014.65 744.728 2016.94 745.353 Q2019.23 745.954 2021.48 745.954 Q2024.48 745.954 2026.1 744.936 Q2027.73 743.894 2027.73 742.019 Q2027.73 740.283 2026.54 739.357 Q2025.39 738.431 2021.43 737.575 L2019.95 737.228 Q2015.99 736.394 2014.23 734.681 Q2012.47 732.945 2012.47 729.936 Q2012.47 726.279 2015.06 724.288 Q2017.66 722.297 2022.42 722.297 Q2024.79 722.297 2026.87 722.644 Q2028.95 722.992 2030.71 723.686 Z" fill="#000000" fill-rule="evenodd" fill-opacity="1" /><path clip-path="url(#clip390)" d="M2043.1 715.561 L2043.1 722.922 L2051.87 722.922 L2051.87 726.232 L2043.1 726.232 L2043.1 740.306 Q2043.1 743.478 2043.95 744.38 Q2044.83 745.283 2047.49 745.283 L2051.87 745.283 L2051.87 748.848 L2047.49 748.848 Q2042.56 748.848 2040.69 747.019 Q2038.81 745.167 2038.81 740.306 L2038.81 726.232 L2035.69 726.232 L2035.69 722.922 L2038.81 722.922 L2038.81 715.561 L2043.1 715.561 Z" fill="#000000" fill-rule="evenodd" fill-opacity="1" /><path clip-path="url(#clip390)" d="M2074.53 726.857 L2074.53 712.83 L2078.79 712.83 L2078.79 748.848 L2074.53 748.848 L2074.53 744.959 Q2073.19 747.274 2071.13 748.408 Q2069.09 749.519 2066.22 749.519 Q2061.52 749.519 2058.56 745.769 Q2055.62 742.019 2055.62 735.908 Q2055.62 729.797 2058.56 726.047 Q2061.52 722.297 2066.22 722.297 Q2069.09 722.297 2071.13 723.431 Q2073.19 724.542 2074.53 726.857 M2060.02 735.908 Q2060.02 740.607 2061.94 743.292 Q2063.88 745.954 2067.26 745.954 Q2070.64 745.954 2072.59 743.292 Q2074.53 740.607 2074.53 735.908 Q2074.53 731.209 2072.59 728.547 Q2070.64 725.862 2067.26 725.862 Q2063.88 725.862 2061.94 728.547 Q2060.02 731.209 2060.02 735.908 Z" fill="#000000" fill-rule="evenodd" fill-opacity="1" /><polyline clip-path="url(#clip392)" style="stroke:#000000; stroke-linecap:round; stroke-linejoin:round; stroke-width:2; stroke-opacity:0.1; fill:none" points="
  188.292,670.515 2352.76,670.515 
  "/>
<polyline clip-path="url(#clip392)" style="stroke:#000000; stroke-linecap:round; stroke-linejoin:round; stroke-width:2; stroke-opacity:0.1; fill:none" points="
  188.292,496.366 2352.76,496.366 
  "/>
<polyline clip-path="url(#clip392)" style="stroke:#000000; stroke-linecap:round; stroke-linejoin:round; stroke-width:2; stroke-opacity:0.1; fill:none" points="
  188.292,322.218 2352.76,322.218 
  "/>
<polyline clip-path="url(#clip392)" style="stroke:#000000; stroke-linecap:round; stroke-linejoin:round; stroke-width:2; stroke-opacity:0.1; fill:none" points="
  188.292,148.069 2352.76,148.069 
  "/>
<polyline clip-path="url(#clip390)" style="stroke:#000000; stroke-linecap:round; stroke-linejoin:round; stroke-width:4; stroke-opacity:1; fill:none" points="
  188.292,686.448 188.292,123.472 
  "/>
<polyline clip-path="url(#clip390)" style="stroke:#000000; stroke-linecap:round; stroke-linejoin:round; stroke-width:4; stroke-opacity:1; fill:none" points="
  188.292,670.515 207.19,670.515 
  "/>
<polyline clip-path="url(#clip390)" style="stroke:#000000; stroke-linecap:round; stroke-linejoin:round; stroke-width:4; stroke-opacity:1; fill:none" points="
  188.292,496.366 207.19,496.366 
  "/>
<polyline clip-path="url(#clip390)" style="stroke:#000000; stroke-linecap:round; stroke-linejoin:round; stroke-width:4; stroke-opacity:1; fill:none" points="
  188.292,322.218 207.19,322.218 
  "/>
<polyline clip-path="url(#clip390)" style="stroke:#000000; stroke-linecap:round; stroke-linejoin:round; stroke-width:4; stroke-opacity:1; fill:none" points="
  188.292,148.069 207.19,148.069 
  "/>
<path clip-path="url(#clip390)" d="M140.348 656.313 Q136.737 656.313 134.908 659.878 Q133.103 663.42 133.103 670.549 Q133.103 677.656 134.908 681.221 Q136.737 684.762 140.348 684.762 Q143.982 684.762 145.788 681.221 Q147.616 677.656 147.616 670.549 Q147.616 663.42 145.788 659.878 Q143.982 656.313 140.348 656.313 M140.348 652.61 Q146.158 652.61 149.214 657.216 Q152.292 661.799 152.292 670.549 Q152.292 679.276 149.214 683.883 Q146.158 688.466 140.348 688.466 Q134.538 688.466 131.459 683.883 Q128.403 679.276 128.403 670.549 Q128.403 661.799 131.459 657.216 Q134.538 652.61 140.348 652.61 Z" fill="#000000" fill-rule="evenodd" fill-opacity="1" /><path clip-path="url(#clip390)" d="M131.39 479.086 L149.746 479.086 L149.746 483.021 L135.672 483.021 L135.672 491.494 Q136.69 491.146 137.709 490.984 Q138.727 490.799 139.746 490.799 Q145.533 490.799 148.913 493.97 Q152.292 497.142 152.292 502.558 Q152.292 508.137 148.82 511.239 Q145.348 514.317 139.028 514.317 Q136.852 514.317 134.584 513.947 Q132.339 513.577 129.931 512.836 L129.931 508.137 Q132.015 509.271 134.237 509.827 Q136.459 510.382 138.936 510.382 Q142.94 510.382 145.278 508.276 Q147.616 506.169 147.616 502.558 Q147.616 498.947 145.278 496.841 Q142.94 494.734 138.936 494.734 Q137.061 494.734 135.186 495.151 Q133.334 495.568 131.39 496.447 L131.39 479.086 Z" fill="#000000" fill-rule="evenodd" fill-opacity="1" /><path clip-path="url(#clip390)" d="M100.996 335.563 L108.635 335.563 L108.635 309.197 L100.325 310.864 L100.325 306.604 L108.589 304.938 L113.265 304.938 L113.265 335.563 L120.903 335.563 L120.903 339.498 L100.996 339.498 L100.996 335.563 Z" fill="#000000" fill-rule="evenodd" fill-opacity="1" /><path clip-path="url(#clip390)" d="M140.348 308.016 Q136.737 308.016 134.908 311.581 Q133.103 315.123 133.103 322.252 Q133.103 329.359 134.908 332.924 Q136.737 336.465 140.348 336.465 Q143.982 336.465 145.788 332.924 Q147.616 329.359 147.616 322.252 Q147.616 315.123 145.788 311.581 Q143.982 308.016 140.348 308.016 M140.348 304.313 Q146.158 304.313 149.214 308.919 Q152.292 313.502 152.292 322.252 Q152.292 330.979 149.214 335.586 Q146.158 340.169 140.348 340.169 Q134.538 340.169 131.459 335.586 Q128.403 330.979 128.403 322.252 Q128.403 313.502 131.459 308.919 Q134.538 304.313 140.348 304.313 Z" fill="#000000" fill-rule="evenodd" fill-opacity="1" /><path clip-path="url(#clip390)" d="M101.992 161.414 L109.63 161.414 L109.63 135.049 L101.32 136.715 L101.32 132.456 L109.584 130.789 L114.26 130.789 L114.26 161.414 L121.899 161.414 L121.899 165.349 L101.992 165.349 L101.992 161.414 Z" fill="#000000" fill-rule="evenodd" fill-opacity="1" /><path clip-path="url(#clip390)" d="M131.39 130.789 L149.746 130.789 L149.746 134.724 L135.672 134.724 L135.672 143.197 Q136.69 142.849 137.709 142.687 Q138.727 142.502 139.746 142.502 Q145.533 142.502 148.913 145.673 Q152.292 148.845 152.292 154.261 Q152.292 159.84 148.82 162.942 Q145.348 166.021 139.028 166.021 Q136.852 166.021 134.584 165.65 Q132.339 165.28 129.931 164.539 L129.931 159.84 Q132.015 160.974 134.237 161.53 Q136.459 162.085 138.936 162.085 Q142.94 162.085 145.278 159.979 Q147.616 157.872 147.616 154.261 Q147.616 150.65 145.278 148.544 Q142.94 146.437 138.936 146.437 Q137.061 146.437 135.186 146.854 Q133.334 147.271 131.39 148.15 L131.39 130.789 Z" fill="#000000" fill-rule="evenodd" fill-opacity="1" /><path clip-path="url(#clip390)" d="M823.061 14.0809 L823.061 22.0612 Q818.403 19.8332 814.271 18.7395 Q810.139 17.6457 806.29 17.6457 Q799.606 17.6457 795.961 20.2383 Q792.355 22.8309 792.355 27.611 Q792.355 31.6214 794.745 33.6873 Q797.176 35.7128 803.9 36.9686 L808.843 37.9813 Q817.998 39.7232 822.332 44.1387 Q826.707 48.5136 826.707 55.8863 Q826.707 64.6767 820.793 69.2137 Q814.919 73.7508 803.536 73.7508 Q799.242 73.7508 794.381 72.7785 Q789.56 71.8063 784.375 69.9024 L784.375 61.4765 Q789.358 64.2716 794.138 65.6895 Q798.918 67.1073 803.536 67.1073 Q810.544 67.1073 814.352 64.3527 Q818.16 61.598 818.16 56.4939 Q818.16 52.0379 815.405 49.5264 Q812.691 47.0148 806.452 45.759 L801.47 44.7868 Q792.315 42.9639 788.223 39.075 Q784.132 35.1862 784.132 28.2591 Q784.132 20.2383 789.763 15.6203 Q795.434 11.0023 805.359 11.0023 Q809.612 11.0023 814.028 11.7719 Q818.443 12.5416 823.061 14.0809 Z" fill="#000000" fill-rule="evenodd" fill-opacity="1" /><path clip-path="url(#clip390)" d="M877.951 48.0275 L877.951 51.6733 L843.68 51.6733 Q844.166 59.3701 848.298 63.421 Q852.471 67.4314 859.884 67.4314 Q864.178 67.4314 868.188 66.3781 Q872.239 65.3249 876.209 63.2184 L876.209 70.267 Q872.199 71.9684 867.986 72.8596 Q863.773 73.7508 859.438 73.7508 Q848.582 73.7508 842.222 67.4314 Q835.903 61.1119 835.903 50.3365 Q835.903 39.1965 841.898 32.6746 Q847.934 26.1121 858.142 26.1121 Q867.297 26.1121 872.604 32.0264 Q877.951 37.9003 877.951 48.0275 M870.497 45.84 Q870.416 39.7232 867.054 36.0774 Q863.732 32.4315 858.223 32.4315 Q851.985 32.4315 848.217 35.9558 Q844.49 39.4801 843.923 45.8805 L870.497 45.84 Z" fill="#000000" fill-rule="evenodd" fill-opacity="1" /><path clip-path="url(#clip390)" d="M927.899 45.1919 L927.899 72.576 L920.445 72.576 L920.445 45.4349 Q920.445 38.994 917.933 35.7938 Q915.422 32.5936 910.399 32.5936 Q904.363 32.5936 900.879 36.4419 Q897.395 40.2903 897.395 46.9338 L897.395 72.576 L889.901 72.576 L889.901 27.2059 L897.395 27.2059 L897.395 34.2544 Q900.069 30.163 903.674 28.1376 Q907.32 26.1121 912.06 26.1121 Q919.878 26.1121 923.888 30.9732 Q927.899 35.7938 927.899 45.1919 Z" fill="#000000" fill-rule="evenodd" fill-opacity="1" /><path clip-path="url(#clip390)" d="M971.689 28.5427 L971.689 35.5912 Q968.529 33.9709 965.126 33.1607 Q961.724 32.3505 958.078 32.3505 Q952.528 32.3505 949.733 34.0519 Q946.978 35.7533 946.978 39.156 Q946.978 41.7486 948.963 43.2475 Q950.948 44.7058 956.944 46.0426 L959.496 46.6097 Q967.435 48.3111 970.757 51.4303 Q974.119 54.509 974.119 60.0587 Q974.119 66.3781 969.096 70.0644 Q964.114 73.7508 955.364 73.7508 Q951.718 73.7508 947.748 73.0216 Q943.819 72.3329 939.444 70.9151 L939.444 63.2184 Q943.576 65.3654 947.586 66.4591 Q951.596 67.5124 955.526 67.5124 Q960.792 67.5124 963.628 65.73 Q966.463 63.9071 966.463 60.6258 Q966.463 57.5877 964.397 55.9673 Q962.372 54.3469 955.445 52.8481 L952.852 52.2405 Q945.925 50.7821 942.846 47.7845 Q939.768 44.7463 939.768 39.4801 Q939.768 33.0797 944.305 29.5959 Q948.842 26.1121 957.187 26.1121 Q961.319 26.1121 964.964 26.7198 Q968.61 27.3274 971.689 28.5427 Z" fill="#000000" fill-rule="evenodd" fill-opacity="1" /><path clip-path="url(#clip390)" d="M985.989 27.2059 L993.442 27.2059 L993.442 72.576 L985.989 72.576 L985.989 27.2059 M985.989 9.54393 L993.442 9.54393 L993.442 18.9825 L985.989 18.9825 L985.989 9.54393 Z" fill="#000000" fill-rule="evenodd" fill-opacity="1" /><path clip-path="url(#clip390)" d="M1016.41 14.324 L1016.41 27.2059 L1031.76 27.2059 L1031.76 32.9987 L1016.41 32.9987 L1016.41 57.6282 Q1016.41 63.1779 1017.91 64.7578 Q1019.45 66.3376 1024.11 66.3376 L1031.76 66.3376 L1031.76 72.576 L1024.11 72.576 Q1015.48 72.576 1012.2 69.3758 Q1008.92 66.1351 1008.92 57.6282 L1008.92 32.9987 L1003.45 32.9987 L1003.45 27.2059 L1008.92 27.2059 L1008.92 14.324 L1016.41 14.324 Z" fill="#000000" fill-rule="evenodd" fill-opacity="1" /><path clip-path="url(#clip390)" d="M1041.57 27.2059 L1049.02 27.2059 L1049.02 72.576 L1041.57 72.576 L1041.57 27.2059 M1041.57 9.54393 L1049.02 9.54393 L1049.02 18.9825 L1041.57 18.9825 L1041.57 9.54393 Z" fill="#000000" fill-rule="evenodd" fill-opacity="1" /><path clip-path="url(#clip390)" d="M1059.27 27.2059 L1067.17 27.2059 L1081.35 65.2844 L1095.53 27.2059 L1103.42 27.2059 L1086.41 72.576 L1076.28 72.576 L1059.27 27.2059 Z" fill="#000000" fill-rule="evenodd" fill-opacity="1" /><path clip-path="url(#clip390)" d="M1113.71 27.2059 L1121.17 27.2059 L1121.17 72.576 L1113.71 72.576 L1113.71 27.2059 M1113.71 9.54393 L1121.17 9.54393 L1121.17 18.9825 L1113.71 18.9825 L1113.71 9.54393 Z" fill="#000000" fill-rule="evenodd" fill-opacity="1" /><path clip-path="url(#clip390)" d="M1144.14 14.324 L1144.14 27.2059 L1159.49 27.2059 L1159.49 32.9987 L1144.14 32.9987 L1144.14 57.6282 Q1144.14 63.1779 1145.63 64.7578 Q1147.17 66.3376 1151.83 66.3376 L1159.49 66.3376 L1159.49 72.576 L1151.83 72.576 Q1143.2 72.576 1139.92 69.3758 Q1136.64 66.1351 1136.64 57.6282 L1136.64 32.9987 L1131.17 32.9987 L1131.17 27.2059 L1136.64 27.2059 L1136.64 14.324 L1144.14 14.324 Z" fill="#000000" fill-rule="evenodd" fill-opacity="1" /><path clip-path="url(#clip390)" d="M1188.17 76.7889 Q1185.01 84.8907 1182.01 87.3618 Q1179.01 89.8329 1173.99 89.8329 L1168.04 89.8329 L1168.04 83.5945 L1172.41 83.5945 Q1175.49 83.5945 1177.19 82.1361 Q1178.89 80.6778 1180.96 75.2496 L1182.3 71.8468 L1163.94 27.2059 L1171.84 27.2059 L1186.02 62.6918 L1200.2 27.2059 L1208.1 27.2059 L1188.17 76.7889 Z" fill="#000000" fill-rule="evenodd" fill-opacity="1" /><path clip-path="url(#clip390)" d="M1245.08 12.096 L1253.27 12.096 L1253.27 72.576 L1245.08 72.576 L1245.08 12.096 Z" fill="#000000" fill-rule="evenodd" fill-opacity="1" /><path clip-path="url(#clip390)" d="M1306.94 45.1919 L1306.94 72.576 L1299.49 72.576 L1299.49 45.4349 Q1299.49 38.994 1296.98 35.7938 Q1294.46 32.5936 1289.44 32.5936 Q1283.41 32.5936 1279.92 36.4419 Q1276.44 40.2903 1276.44 46.9338 L1276.44 72.576 L1268.94 72.576 L1268.94 27.2059 L1276.44 27.2059 L1276.44 34.2544 Q1279.11 30.163 1282.72 28.1376 Q1286.36 26.1121 1291.1 26.1121 Q1298.92 26.1121 1302.93 30.9732 Q1306.94 35.7938 1306.94 45.1919 Z" fill="#000000" fill-rule="evenodd" fill-opacity="1" /><path clip-path="url(#clip390)" d="M1351.66 34.0924 L1351.66 9.54393 L1359.12 9.54393 L1359.12 72.576 L1351.66 72.576 L1351.66 65.7705 Q1349.31 69.8214 1345.71 71.8063 Q1342.14 73.7508 1337.12 73.7508 Q1328.9 73.7508 1323.71 67.1883 Q1318.57 60.6258 1318.57 49.9314 Q1318.57 39.2371 1323.71 32.6746 Q1328.9 26.1121 1337.12 26.1121 Q1342.14 26.1121 1345.71 28.0971 Q1349.31 30.0415 1351.66 34.0924 M1326.26 49.9314 Q1326.26 58.1548 1329.63 62.8538 Q1333.03 67.5124 1338.94 67.5124 Q1344.86 67.5124 1348.26 62.8538 Q1351.66 58.1548 1351.66 49.9314 Q1351.66 41.7081 1348.26 37.0496 Q1344.86 32.3505 1338.94 32.3505 Q1333.03 32.3505 1329.63 37.0496 Q1326.26 41.7081 1326.26 49.9314 Z" fill="#000000" fill-rule="evenodd" fill-opacity="1" /><path clip-path="url(#clip390)" d="M1413.28 48.0275 L1413.28 51.6733 L1379.01 51.6733 Q1379.49 59.3701 1383.63 63.421 Q1387.8 67.4314 1395.21 67.4314 Q1399.5 67.4314 1403.52 66.3781 Q1407.57 65.3249 1411.54 63.2184 L1411.54 70.267 Q1407.53 71.9684 1403.31 72.8596 Q1399.1 73.7508 1394.77 73.7508 Q1383.91 73.7508 1377.55 67.4314 Q1371.23 61.1119 1371.23 50.3365 Q1371.23 39.1965 1377.22 32.6746 Q1383.26 26.1121 1393.47 26.1121 Q1402.62 26.1121 1407.93 32.0264 Q1413.28 37.9003 1413.28 48.0275 M1405.82 45.84 Q1405.74 39.7232 1402.38 36.0774 Q1399.06 32.4315 1393.55 32.4315 Q1387.31 32.4315 1383.54 35.9558 Q1379.82 39.4801 1379.25 45.8805 L1405.82 45.84 Z" fill="#000000" fill-rule="evenodd" fill-opacity="1" /><path clip-path="url(#clip390)" d="M1461.77 27.2059 L1445.36 49.2833 L1462.62 72.576 L1453.83 72.576 L1440.62 54.752 L1427.42 72.576 L1418.63 72.576 L1436.25 48.8377 L1420.12 27.2059 L1428.91 27.2059 L1440.95 43.369 L1452.98 27.2059 L1461.77 27.2059 Z" fill="#000000" fill-rule="evenodd" fill-opacity="1" /><path clip-path="url(#clip390)" d="M1499.85 12.096 L1512.04 12.096 L1527.47 53.2532 L1542.99 12.096 L1555.18 12.096 L1555.18 72.576 L1547.2 72.576 L1547.2 19.4686 L1531.6 60.9499 L1523.38 60.9499 L1507.79 19.4686 L1507.79 72.576 L1499.85 72.576 L1499.85 12.096 Z" fill="#000000" fill-rule="evenodd" fill-opacity="1" /><path clip-path="url(#clip390)" d="M1609.91 48.0275 L1609.91 51.6733 L1575.64 51.6733 Q1576.12 59.3701 1580.26 63.421 Q1584.43 67.4314 1591.84 67.4314 Q1596.14 67.4314 1600.15 66.3781 Q1604.2 65.3249 1608.17 63.2184 L1608.17 70.267 Q1604.16 71.9684 1599.94 72.8596 Q1595.73 73.7508 1591.4 73.7508 Q1580.54 73.7508 1574.18 67.4314 Q1567.86 61.1119 1567.86 50.3365 Q1567.86 39.1965 1573.86 32.6746 Q1579.89 26.1121 1590.1 26.1121 Q1599.25 26.1121 1604.56 32.0264 Q1609.91 37.9003 1609.91 48.0275 M1602.46 45.84 Q1602.37 39.7232 1599.01 36.0774 Q1595.69 32.4315 1590.18 32.4315 Q1583.94 32.4315 1580.18 35.9558 Q1576.45 39.4801 1575.88 45.8805 L1602.46 45.84 Z" fill="#000000" fill-rule="evenodd" fill-opacity="1" /><path clip-path="url(#clip390)" d="M1642.76 49.7694 Q1633.73 49.7694 1630.24 51.8354 Q1626.76 53.9013 1626.76 58.8839 Q1626.76 62.8538 1629.35 65.2034 Q1631.99 67.5124 1636.48 67.5124 Q1642.68 67.5124 1646.41 63.1374 Q1650.17 58.7219 1650.17 51.4303 L1650.17 49.7694 L1642.76 49.7694 M1657.63 46.6907 L1657.63 72.576 L1650.17 72.576 L1650.17 65.6895 Q1647.62 69.8214 1643.81 71.8063 Q1640.01 73.7508 1634.5 73.7508 Q1627.53 73.7508 1623.4 69.8619 Q1619.31 65.9325 1619.31 59.3701 Q1619.31 51.7138 1624.41 47.825 Q1629.56 43.9361 1639.72 43.9361 L1650.17 43.9361 L1650.17 43.2069 Q1650.17 38.0623 1646.77 35.2672 Q1643.41 32.4315 1637.29 32.4315 Q1633.4 32.4315 1629.72 33.3632 Q1626.03 34.295 1622.63 36.1584 L1622.63 29.2718 Q1626.72 27.692 1630.57 26.9223 Q1634.42 26.1121 1638.06 26.1121 Q1647.91 26.1121 1652.77 31.2163 Q1657.63 36.3204 1657.63 46.6907 Z" fill="#000000" fill-rule="evenodd" fill-opacity="1" /><path clip-path="url(#clip390)" d="M1710.7 45.1919 L1710.7 72.576 L1703.24 72.576 L1703.24 45.4349 Q1703.24 38.994 1700.73 35.7938 Q1698.22 32.5936 1693.2 32.5936 Q1687.16 32.5936 1683.68 36.4419 Q1680.19 40.2903 1680.19 46.9338 L1680.19 72.576 L1672.7 72.576 L1672.7 27.2059 L1680.19 27.2059 L1680.19 34.2544 Q1682.87 30.163 1686.47 28.1376 Q1690.12 26.1121 1694.86 26.1121 Q1702.67 26.1121 1706.68 30.9732 Q1710.7 35.7938 1710.7 45.1919 Z" fill="#000000" fill-rule="evenodd" fill-opacity="1" /><path clip-path="url(#clip390)" d="M1754.49 28.5427 L1754.49 35.5912 Q1751.33 33.9709 1747.92 33.1607 Q1744.52 32.3505 1740.87 32.3505 Q1735.32 32.3505 1732.53 34.0519 Q1729.78 35.7533 1729.78 39.156 Q1729.78 41.7486 1731.76 43.2475 Q1733.74 44.7058 1739.74 46.0426 L1742.29 46.6097 Q1750.23 48.3111 1753.55 51.4303 Q1756.92 54.509 1756.92 60.0587 Q1756.92 66.3781 1751.89 70.0644 Q1746.91 73.7508 1738.16 73.7508 Q1734.51 73.7508 1730.54 73.0216 Q1726.62 72.3329 1722.24 70.9151 L1722.24 63.2184 Q1726.37 65.3654 1730.38 66.4591 Q1734.39 67.5124 1738.32 67.5124 Q1743.59 67.5124 1746.42 65.73 Q1749.26 63.9071 1749.26 60.6258 Q1749.26 57.5877 1747.19 55.9673 Q1745.17 54.3469 1738.24 52.8481 L1735.65 52.2405 Q1728.72 50.7821 1725.64 47.7845 Q1722.56 44.7463 1722.56 39.4801 Q1722.56 33.0797 1727.1 29.5959 Q1731.64 26.1121 1739.98 26.1121 Q1744.12 26.1121 1747.76 26.7198 Q1751.41 27.3274 1754.49 28.5427 Z" fill="#000000" fill-rule="evenodd" fill-opacity="1" /><path clip-path="url(#clip392)" d="
M307.342 670.482 L307.342 670.515 L712.892 670.515 L712.892 670.482 L307.342 670.482 L307.342 670.482  Z
  " fill="#009af9" fill-rule="evenodd" fill-opacity="1"/>
<polyline clip-path="url(#clip392)" style="stroke:#000000; stroke-linecap:round; stroke-linejoin:round; stroke-width:4; stroke-opacity:1; fill:none" points="
  307.342,670.482 307.342,670.515 712.892,670.515 712.892,670.482 307.342,670.482 
  "/>
<path clip-path="url(#clip392)" d="
M814.28 139.405 L814.28 670.515 L1219.83 670.515 L1219.83 139.405 L814.28 139.405 L814.28 139.405  Z
  " fill="#009af9" fill-rule="evenodd" fill-opacity="1"/>
<polyline clip-path="url(#clip392)" style="stroke:#000000; stroke-linecap:round; stroke-linejoin:round; stroke-width:4; stroke-opacity:1; fill:none" points="
  814.28,139.405 814.28,670.515 1219.83,670.515 1219.83,139.405 814.28,139.405 
  "/>
<path clip-path="url(#clip392)" d="
M1321.22 649.907 L1321.22 670.515 L1726.77 670.515 L1726.77 649.907 L1321.22 649.907 L1321.22 649.907  Z
  " fill="#009af9" fill-rule="evenodd" fill-opacity="1"/>
<polyline clip-path="url(#clip392)" style="stroke:#000000; stroke-linecap:round; stroke-linejoin:round; stroke-width:4; stroke-opacity:1; fill:none" points="
  1321.22,649.907 1321.22,670.515 1726.77,670.515 1726.77,649.907 1321.22,649.907 
  "/>
<path clip-path="url(#clip392)" d="
M1828.16 654.916 L1828.16 670.515 L2233.71 670.515 L2233.71 654.916 L1828.16 654.916 L1828.16 654.916  Z
  " fill="#009af9" fill-rule="evenodd" fill-opacity="1"/>
<polyline clip-path="url(#clip392)" style="stroke:#000000; stroke-linecap:round; stroke-linejoin:round; stroke-width:4; stroke-opacity:1; fill:none" points="
  1828.16,654.916 1828.16,670.515 2233.71,670.515 2233.71,654.916 1828.16,654.916 
  "/>
<circle clip-path="url(#clip392)" style="fill:#009af9; stroke:none; fill-opacity:0" cx="510.117" cy="670.482" r="2"/>
<circle clip-path="url(#clip392)" style="fill:#009af9; stroke:none; fill-opacity:0" cx="1017.05" cy="139.405" r="2"/>
<circle clip-path="url(#clip392)" style="fill:#009af9; stroke:none; fill-opacity:0" cx="1523.99" cy="649.907" r="2"/>
<circle clip-path="url(#clip392)" style="fill:#009af9; stroke:none; fill-opacity:0" cx="2030.93" cy="654.916" r="2"/>
<path clip-path="url(#clip390)" d="
M188.292 1486.45 L2352.76 1486.45 L2352.76 923.472 L188.292 923.472  Z
  " fill="#ffffff" fill-rule="evenodd" fill-opacity="1"/>
<defs>
  <clipPath id="clip393">
    <rect x="188" y="923" width="2165" height="564"/>
  </clipPath>
</defs>
<polyline clip-path="url(#clip393)" style="stroke:#000000; stroke-linecap:round; stroke-linejoin:round; stroke-width:2; stroke-opacity:0.1; fill:none" points="
  510.117,1486.45 510.117,923.472 
  "/>
<polyline clip-path="url(#clip393)" style="stroke:#000000; stroke-linecap:round; stroke-linejoin:round; stroke-width:2; stroke-opacity:0.1; fill:none" points="
  1017.05,1486.45 1017.05,923.472 
  "/>
<polyline clip-path="url(#clip393)" style="stroke:#000000; stroke-linecap:round; stroke-linejoin:round; stroke-width:2; stroke-opacity:0.1; fill:none" points="
  1523.99,1486.45 1523.99,923.472 
  "/>
<polyline clip-path="url(#clip393)" style="stroke:#000000; stroke-linecap:round; stroke-linejoin:round; stroke-width:2; stroke-opacity:0.1; fill:none" points="
  2030.93,1486.45 2030.93,923.472 
  "/>
<polyline clip-path="url(#clip390)" style="stroke:#000000; stroke-linecap:round; stroke-linejoin:round; stroke-width:4; stroke-opacity:1; fill:none" points="
  188.292,1486.45 2352.76,1486.45 
  "/>
<polyline clip-path="url(#clip390)" style="stroke:#000000; stroke-linecap:round; stroke-linejoin:round; stroke-width:4; stroke-opacity:1; fill:none" points="
  510.117,1486.45 510.117,1467.55 
  "/>
<polyline clip-path="url(#clip390)" style="stroke:#000000; stroke-linecap:round; stroke-linejoin:round; stroke-width:4; stroke-opacity:1; fill:none" points="
  1017.05,1486.45 1017.05,1467.55 
  "/>
<polyline clip-path="url(#clip390)" style="stroke:#000000; stroke-linecap:round; stroke-linejoin:round; stroke-width:4; stroke-opacity:1; fill:none" points="
  1523.99,1486.45 1523.99,1467.55 
  "/>
<polyline clip-path="url(#clip390)" style="stroke:#000000; stroke-linecap:round; stroke-linejoin:round; stroke-width:4; stroke-opacity:1; fill:none" points="
  2030.93,1486.45 2030.93,1467.55 
  "/>
<path clip-path="url(#clip390)" d="M519.298 1516.78 L512.669 1543.45 Q512.482 1544.3 512.482 1544.51 Q512.482 1544.79 512.552 1544.91 Q512.646 1545.05 513.161 1545.16 Q513.7 1545.28 514.777 1545.28 Q515.175 1545.28 515.316 1545.28 Q515.456 1545.28 515.667 1545.33 Q515.878 1545.38 515.948 1545.49 Q516.018 1545.61 516.018 1545.8 Q516.018 1546.76 515.175 1546.76 Q514.379 1546.76 512.716 1546.69 Q511.053 1546.62 510.233 1546.62 Q509.437 1546.62 507.821 1546.69 Q506.204 1546.76 505.432 1546.76 Q505.15 1546.76 504.986 1546.62 Q504.823 1546.5 504.823 1546.36 L504.799 1546.24 Q504.799 1545.59 505.057 1545.42 Q505.314 1545.28 505.9 1545.28 Q507.914 1545.26 508.5 1544.98 Q509.085 1544.7 509.366 1543.69 L511.521 1535.12 Q508.64 1538 505.853 1538 Q503.16 1538 501.333 1535.89 Q499.529 1533.76 499.529 1530.31 Q499.529 1527.76 500.536 1525.19 Q501.567 1522.61 503.16 1520.66 Q504.776 1518.72 506.884 1517.5 Q508.992 1516.26 511.076 1516.26 Q512.411 1516.26 513.606 1517.03 Q514.824 1517.81 515.55 1519.61 Q516.159 1518.58 517.283 1517.46 Q518.408 1516.31 518.806 1516.31 Q519.04 1516.31 519.157 1516.47 Q519.298 1516.61 519.298 1516.78 M514.871 1521.53 Q514.871 1521.3 514.683 1520.71 Q514.519 1520.13 514.145 1519.33 Q513.793 1518.51 512.974 1517.92 Q512.154 1517.32 511.076 1517.32 Q509.53 1517.32 507.867 1518.81 Q506.228 1520.29 505.15 1522.87 Q504.471 1524.55 503.698 1527.69 Q502.925 1530.83 502.925 1532.42 Q502.925 1532.8 502.949 1533.22 Q502.996 1533.64 503.183 1534.34 Q503.37 1535.05 503.651 1535.58 Q503.956 1536.12 504.565 1536.52 Q505.174 1536.92 505.994 1536.92 Q507.774 1536.92 509.554 1535.4 Q511.334 1533.87 512.083 1532.52 Q512.177 1532.38 513.512 1527.06 Q514.871 1521.74 514.871 1521.53 Z" fill="#000000" fill-rule="evenodd" fill-opacity="1" /><path clip-path="url(#clip390)" d="M1024.53 1534.24 Q1024.53 1537.61 1022.82 1540.92 Q1021.14 1544.2 1018.42 1546.26 Q1015.73 1548.32 1012.96 1548.32 Q1010.27 1548.32 1008.56 1546.26 Q1006.87 1544.17 1006.87 1540.78 Q1006.87 1539.58 1007.01 1538.74 Q1007.15 1537.89 1007.65 1535.93 L1011.58 1520.28 Q1012.26 1517.35 1012.26 1517.33 Q1012.26 1517.05 1012.14 1516.91 Q1012.05 1516.74 1011.49 1516.63 Q1010.93 1516.51 1009.85 1516.51 Q1009.4 1516.51 1009.19 1516.49 Q1009 1516.46 1008.84 1516.35 Q1008.7 1516.21 1008.7 1515.92 Q1008.7 1515.53 1008.86 1515.32 Q1009.05 1515.08 1009.19 1515.03 Q1009.33 1514.99 1009.61 1514.96 Q1010.01 1514.94 1011.35 1514.82 Q1012.68 1514.68 1013.83 1514.59 Q1014.98 1514.5 1015.47 1514.5 Q1015.75 1514.5 1015.89 1514.64 Q1016.05 1514.75 1016.05 1514.89 L1016.08 1515.01 L1012.54 1529.46 Q1015.33 1526.58 1018.16 1526.58 Q1021 1526.58 1022.75 1528.76 Q1024.53 1530.94 1024.53 1534.24 M1021.07 1532.13 Q1021.07 1529.91 1020.22 1528.78 Q1019.4 1527.64 1018.05 1527.64 Q1016.9 1527.64 1015.4 1528.5 Q1013.9 1529.37 1012.31 1531.48 Q1012 1531.87 1011.89 1532.11 Q1011.79 1532.34 1011.58 1533.14 L1010.53 1537.57 Q1009.75 1540.59 1009.75 1542.42 Q1009.75 1544.9 1010.67 1546.07 Q1011.58 1547.24 1012.96 1547.24 Q1014.42 1547.24 1015.94 1545.95 Q1017.46 1544.66 1018.63 1542.32 Q1019.36 1540.78 1020.2 1537.45 Q1021.07 1534.1 1021.07 1532.13 Z" fill="#000000" fill-rule="evenodd" fill-opacity="1" /><path clip-path="url(#clip390)" d="M1459.31 1551.26 Q1457.5 1555.88 1455.79 1557.3 Q1454.07 1558.71 1451.2 1558.71 L1447.8 1558.71 L1447.8 1555.14 L1450.3 1555.14 Q1452.06 1555.14 1453.03 1554.31 Q1454.01 1553.48 1455.19 1550.38 L1455.95 1548.43 L1445.46 1522.92 L1449.98 1522.92 L1458.08 1543.2 L1466.18 1522.92 L1470.69 1522.92 L1459.31 1551.26 Z" fill="#000000" fill-rule="evenodd" fill-opacity="1" /><path clip-path="url(#clip390)" d="M1496.76 1527.9 Q1498.36 1525.03 1500.58 1523.66 Q1502.8 1522.3 1505.81 1522.3 Q1509.86 1522.3 1512.06 1525.14 Q1514.26 1527.97 1514.26 1533.2 L1514.26 1548.85 L1509.98 1548.85 L1509.98 1533.34 Q1509.98 1529.61 1508.66 1527.81 Q1507.34 1526 1504.63 1526 Q1501.32 1526 1499.4 1528.2 Q1497.48 1530.4 1497.48 1534.2 L1497.48 1548.85 L1493.19 1548.85 L1493.19 1533.34 Q1493.19 1529.59 1491.88 1527.81 Q1490.56 1526 1487.8 1526 Q1484.54 1526 1482.62 1528.22 Q1480.69 1530.42 1480.69 1534.2 L1480.69 1548.85 L1476.41 1548.85 L1476.41 1522.92 L1480.69 1522.92 L1480.69 1526.95 Q1482.15 1524.57 1484.19 1523.43 Q1486.23 1522.3 1489.03 1522.3 Q1491.85 1522.3 1493.82 1523.73 Q1495.81 1525.17 1496.76 1527.9 Z" fill="#000000" fill-rule="evenodd" fill-opacity="1" /><path clip-path="url(#clip390)" d="M1544.93 1534.82 L1544.93 1536.9 L1525.35 1536.9 Q1525.63 1541.3 1527.99 1543.62 Q1530.37 1545.91 1534.61 1545.91 Q1537.06 1545.91 1539.35 1545.31 Q1541.67 1544.7 1543.94 1543.5 L1543.94 1547.53 Q1541.64 1548.5 1539.24 1549.01 Q1536.83 1549.52 1534.35 1549.52 Q1528.15 1549.52 1524.51 1545.91 Q1520.9 1542.3 1520.9 1536.14 Q1520.9 1529.77 1524.33 1526.05 Q1527.78 1522.3 1533.61 1522.3 Q1538.84 1522.3 1541.87 1525.68 Q1544.93 1529.03 1544.93 1534.82 M1540.67 1533.57 Q1540.62 1530.07 1538.7 1527.99 Q1536.81 1525.91 1533.66 1525.91 Q1530.09 1525.91 1527.94 1527.92 Q1525.81 1529.94 1525.49 1533.59 L1540.67 1533.57 Z" fill="#000000" fill-rule="evenodd" fill-opacity="1" /><path clip-path="url(#clip390)" d="M1563.7 1535.82 Q1558.54 1535.82 1556.55 1537 Q1554.56 1538.18 1554.56 1541.02 Q1554.56 1543.29 1556.04 1544.63 Q1557.55 1545.95 1560.12 1545.95 Q1563.66 1545.95 1565.79 1543.45 Q1567.94 1540.93 1567.94 1536.76 L1567.94 1535.82 L1563.7 1535.82 M1572.2 1534.06 L1572.2 1548.85 L1567.94 1548.85 L1567.94 1544.91 Q1566.48 1547.27 1564.31 1548.41 Q1562.13 1549.52 1558.98 1549.52 Q1555 1549.52 1552.64 1547.3 Q1550.3 1545.05 1550.3 1541.3 Q1550.3 1536.93 1553.22 1534.7 Q1556.16 1532.48 1561.97 1532.48 L1567.94 1532.48 L1567.94 1532.07 Q1567.94 1529.13 1566 1527.53 Q1564.07 1525.91 1560.58 1525.91 Q1558.36 1525.91 1556.25 1526.44 Q1554.14 1526.97 1552.2 1528.04 L1552.2 1524.1 Q1554.54 1523.2 1556.74 1522.76 Q1558.94 1522.3 1561.02 1522.3 Q1566.64 1522.3 1569.42 1525.21 Q1572.2 1528.13 1572.2 1534.06 Z" fill="#000000" fill-rule="evenodd" fill-opacity="1" /><path clip-path="url(#clip390)" d="M1602.52 1533.2 L1602.52 1548.85 L1598.26 1548.85 L1598.26 1533.34 Q1598.26 1529.66 1596.83 1527.83 Q1595.39 1526 1592.52 1526 Q1589.07 1526 1587.08 1528.2 Q1585.09 1530.4 1585.09 1534.2 L1585.09 1548.85 L1580.81 1548.85 L1580.81 1522.92 L1585.09 1522.92 L1585.09 1526.95 Q1586.62 1524.61 1588.68 1523.45 Q1590.76 1522.3 1593.47 1522.3 Q1597.94 1522.3 1600.23 1525.07 Q1602.52 1527.83 1602.52 1533.2 Z" fill="#000000" fill-rule="evenodd" fill-opacity="1" /><path clip-path="url(#clip390)" d="M1996.92 1551.26 Q1995.11 1555.88 1993.4 1557.3 Q1991.68 1558.71 1988.81 1558.71 L1985.41 1558.71 L1985.41 1555.14 L1987.91 1555.14 Q1989.67 1555.14 1990.64 1554.31 Q1991.61 1553.48 1992.79 1550.38 L1993.56 1548.43 L1983.07 1522.92 L1987.59 1522.92 L1995.69 1543.2 L2003.79 1522.92 L2008.3 1522.92 L1996.92 1551.26 Z" fill="#000000" fill-rule="evenodd" fill-opacity="1" /><path clip-path="url(#clip390)" d="M2030.71 1523.69 L2030.71 1527.71 Q2028.91 1526.79 2026.96 1526.32 Q2025.02 1525.86 2022.93 1525.86 Q2019.76 1525.86 2018.17 1526.83 Q2016.59 1527.81 2016.59 1529.75 Q2016.59 1531.23 2017.73 1532.09 Q2018.86 1532.92 2022.29 1533.69 L2023.74 1534.01 Q2028.28 1534.98 2030.18 1536.76 Q2032.1 1538.52 2032.1 1541.7 Q2032.1 1545.31 2029.23 1547.41 Q2026.38 1549.52 2021.38 1549.52 Q2019.3 1549.52 2017.03 1549.1 Q2014.79 1548.71 2012.29 1547.9 L2012.29 1543.5 Q2014.65 1544.73 2016.94 1545.35 Q2019.23 1545.95 2021.48 1545.95 Q2024.48 1545.95 2026.1 1544.94 Q2027.73 1543.89 2027.73 1542.02 Q2027.73 1540.28 2026.54 1539.36 Q2025.39 1538.43 2021.43 1537.57 L2019.95 1537.23 Q2015.99 1536.39 2014.23 1534.68 Q2012.47 1532.95 2012.47 1529.94 Q2012.47 1526.28 2015.06 1524.29 Q2017.66 1522.3 2022.42 1522.3 Q2024.79 1522.3 2026.87 1522.64 Q2028.95 1522.99 2030.71 1523.69 Z" fill="#000000" fill-rule="evenodd" fill-opacity="1" /><path clip-path="url(#clip390)" d="M2043.1 1515.56 L2043.1 1522.92 L2051.87 1522.92 L2051.87 1526.23 L2043.1 1526.23 L2043.1 1540.31 Q2043.1 1543.48 2043.95 1544.38 Q2044.83 1545.28 2047.49 1545.28 L2051.87 1545.28 L2051.87 1548.85 L2047.49 1548.85 Q2042.56 1548.85 2040.69 1547.02 Q2038.81 1545.17 2038.81 1540.31 L2038.81 1526.23 L2035.69 1526.23 L2035.69 1522.92 L2038.81 1522.92 L2038.81 1515.56 L2043.1 1515.56 Z" fill="#000000" fill-rule="evenodd" fill-opacity="1" /><path clip-path="url(#clip390)" d="M2074.53 1526.86 L2074.53 1512.83 L2078.79 1512.83 L2078.79 1548.85 L2074.53 1548.85 L2074.53 1544.96 Q2073.19 1547.27 2071.13 1548.41 Q2069.09 1549.52 2066.22 1549.52 Q2061.52 1549.52 2058.56 1545.77 Q2055.62 1542.02 2055.62 1535.91 Q2055.62 1529.8 2058.56 1526.05 Q2061.52 1522.3 2066.22 1522.3 Q2069.09 1522.3 2071.13 1523.43 Q2073.19 1524.54 2074.53 1526.86 M2060.02 1535.91 Q2060.02 1540.61 2061.94 1543.29 Q2063.88 1545.95 2067.26 1545.95 Q2070.64 1545.95 2072.59 1543.29 Q2074.53 1540.61 2074.53 1535.91 Q2074.53 1531.21 2072.59 1528.55 Q2070.64 1525.86 2067.26 1525.86 Q2063.88 1525.86 2061.94 1528.55 Q2060.02 1531.21 2060.02 1535.91 Z" fill="#000000" fill-rule="evenodd" fill-opacity="1" /><polyline clip-path="url(#clip393)" style="stroke:#000000; stroke-linecap:round; stroke-linejoin:round; stroke-width:2; stroke-opacity:0.1; fill:none" points="
  188.292,1468.68 2352.76,1468.68 
  "/>
<polyline clip-path="url(#clip393)" style="stroke:#000000; stroke-linecap:round; stroke-linejoin:round; stroke-width:2; stroke-opacity:0.1; fill:none" points="
  188.292,1161.7 2352.76,1161.7 
  "/>
<polyline clip-path="url(#clip390)" style="stroke:#000000; stroke-linecap:round; stroke-linejoin:round; stroke-width:4; stroke-opacity:1; fill:none" points="
  188.292,1486.45 188.292,923.472 
  "/>
<polyline clip-path="url(#clip390)" style="stroke:#000000; stroke-linecap:round; stroke-linejoin:round; stroke-width:4; stroke-opacity:1; fill:none" points="
  188.292,1468.68 207.19,1468.68 
  "/>
<polyline clip-path="url(#clip390)" style="stroke:#000000; stroke-linecap:round; stroke-linejoin:round; stroke-width:4; stroke-opacity:1; fill:none" points="
  188.292,1161.7 207.19,1161.7 
  "/>
<path clip-path="url(#clip390)" d="M51.6634 1488.47 L59.3023 1488.47 L59.3023 1462.1 L50.9921 1463.77 L50.9921 1459.51 L59.256 1457.85 L63.9319 1457.85 L63.9319 1488.47 L71.5707 1488.47 L71.5707 1492.41 L51.6634 1492.41 L51.6634 1488.47 Z" fill="#000000" fill-rule="evenodd" fill-opacity="1" /><path clip-path="url(#clip390)" d="M91.0151 1460.92 Q87.404 1460.92 85.5753 1464.49 Q83.7697 1468.03 83.7697 1475.16 Q83.7697 1482.27 85.5753 1485.83 Q87.404 1489.37 91.0151 1489.37 Q94.6493 1489.37 96.4548 1485.83 Q98.2835 1482.27 98.2835 1475.16 Q98.2835 1468.03 96.4548 1464.49 Q94.6493 1460.92 91.0151 1460.92 M91.0151 1457.22 Q96.8252 1457.22 99.8808 1461.83 Q102.959 1466.41 102.959 1475.16 Q102.959 1483.89 99.8808 1488.49 Q96.8252 1493.08 91.0151 1493.08 Q85.2049 1493.08 82.1262 1488.49 Q79.0707 1483.89 79.0707 1475.16 Q79.0707 1466.41 82.1262 1461.83 Q85.2049 1457.22 91.0151 1457.22 Z" fill="#000000" fill-rule="evenodd" fill-opacity="1" /><path clip-path="url(#clip390)" d="M102.959 1451.32 L127.071 1451.32 L127.071 1454.52 L102.959 1454.52 L102.959 1451.32 Z" fill="#000000" fill-rule="evenodd" fill-opacity="1" /><path clip-path="url(#clip390)" d="M135.309 1436.91 L150.223 1436.91 L150.223 1440.11 L138.788 1440.11 L138.788 1447 Q139.616 1446.71 140.443 1446.58 Q141.271 1446.43 142.098 1446.43 Q146.8 1446.43 149.546 1449.01 Q152.292 1451.58 152.292 1455.99 Q152.292 1460.52 149.471 1463.04 Q146.65 1465.54 141.515 1465.54 Q139.747 1465.54 137.904 1465.24 Q136.08 1464.94 134.124 1464.34 L134.124 1460.52 Q135.817 1461.44 137.622 1461.89 Q139.428 1462.34 141.44 1462.34 Q144.694 1462.34 146.593 1460.63 Q148.493 1458.92 148.493 1455.99 Q148.493 1453.05 146.593 1451.34 Q144.694 1449.63 141.44 1449.63 Q139.917 1449.63 138.393 1449.97 Q136.889 1450.31 135.309 1451.02 L135.309 1436.91 Z" fill="#000000" fill-rule="evenodd" fill-opacity="1" /><path clip-path="url(#clip390)" d="M81.5866 1181.49 L89.2254 1181.49 L89.2254 1155.12 L80.9153 1156.79 L80.9153 1152.53 L89.1791 1150.86 L93.855 1150.86 L93.855 1181.49 L101.494 1181.49 L101.494 1185.42 L81.5866 1185.42 L81.5866 1181.49 Z" fill="#000000" fill-rule="evenodd" fill-opacity="1" /><path clip-path="url(#clip390)" d="M120.938 1153.94 Q117.327 1153.94 115.498 1157.51 Q113.693 1161.05 113.693 1168.18 Q113.693 1175.28 115.498 1178.85 Q117.327 1182.39 120.938 1182.39 Q124.572 1182.39 126.378 1178.85 Q128.207 1175.28 128.207 1168.18 Q128.207 1161.05 126.378 1157.51 Q124.572 1153.94 120.938 1153.94 M120.938 1150.24 Q126.748 1150.24 129.804 1154.84 Q132.883 1159.43 132.883 1168.18 Q132.883 1176.9 129.804 1181.51 Q126.748 1186.09 120.938 1186.09 Q115.128 1186.09 112.049 1181.51 Q108.994 1176.9 108.994 1168.18 Q108.994 1159.43 112.049 1154.84 Q115.128 1150.24 120.938 1150.24 Z" fill="#000000" fill-rule="evenodd" fill-opacity="1" /><path clip-path="url(#clip390)" d="M142.587 1132.43 Q139.653 1132.43 138.168 1135.33 Q136.701 1138.21 136.701 1144 Q136.701 1149.78 138.168 1152.67 Q139.653 1155.55 142.587 1155.55 Q145.54 1155.55 147.007 1152.67 Q148.493 1149.78 148.493 1144 Q148.493 1138.21 147.007 1135.33 Q145.54 1132.43 142.587 1132.43 M142.587 1129.43 Q147.308 1129.43 149.791 1133.17 Q152.292 1136.89 152.292 1144 Q152.292 1151.09 149.791 1154.83 Q147.308 1158.56 142.587 1158.56 Q137.867 1158.56 135.365 1154.83 Q132.883 1151.09 132.883 1144 Q132.883 1136.89 135.365 1133.17 Q137.867 1129.43 142.587 1129.43 Z" fill="#000000" fill-rule="evenodd" fill-opacity="1" /><path clip-path="url(#clip390)" d="M756.89 814.081 L756.89 822.061 Q752.231 819.833 748.099 818.739 Q743.967 817.646 740.119 817.646 Q733.435 817.646 729.789 820.238 Q726.184 822.831 726.184 827.611 Q726.184 831.621 728.574 833.687 Q731.004 835.713 737.729 836.969 L742.671 837.981 Q751.826 839.723 756.16 844.139 Q760.535 848.514 760.535 855.886 Q760.535 864.677 754.621 869.214 Q748.747 873.751 737.364 873.751 Q733.07 873.751 728.209 872.779 Q723.389 871.806 718.204 869.902 L718.204 861.477 Q723.186 864.272 727.966 865.689 Q732.746 867.107 737.364 867.107 Q744.372 867.107 748.18 864.353 Q751.988 861.598 751.988 856.494 Q751.988 852.038 749.233 849.526 Q746.519 847.015 740.281 845.759 L735.298 844.787 Q726.143 842.964 722.052 839.075 Q717.96 835.186 717.96 828.259 Q717.96 820.238 723.591 815.62 Q729.262 811.002 739.187 811.002 Q743.441 811.002 747.856 811.772 Q752.272 812.542 756.89 814.081 Z" fill="#000000" fill-rule="evenodd" fill-opacity="1" /><path clip-path="url(#clip390)" d="M811.779 848.028 L811.779 851.673 L777.509 851.673 Q777.995 859.37 782.127 863.421 Q786.299 867.431 793.712 867.431 Q798.006 867.431 802.017 866.378 Q806.068 865.325 810.038 863.218 L810.038 870.267 Q806.027 871.968 801.814 872.86 Q797.601 873.751 793.267 873.751 Q782.41 873.751 776.05 867.431 Q769.731 861.112 769.731 850.337 Q769.731 839.197 775.726 832.675 Q781.762 826.112 791.97 826.112 Q801.126 826.112 806.432 832.026 Q811.779 837.9 811.779 848.028 M804.326 845.84 Q804.245 839.723 800.882 836.077 Q797.561 832.432 792.052 832.432 Q785.813 832.432 782.046 835.956 Q778.319 839.48 777.752 845.881 L804.326 845.84 Z" fill="#000000" fill-rule="evenodd" fill-opacity="1" /><path clip-path="url(#clip390)" d="M861.727 845.192 L861.727 872.576 L854.273 872.576 L854.273 845.435 Q854.273 838.994 851.762 835.794 Q849.25 832.594 844.227 832.594 Q838.191 832.594 834.708 836.442 Q831.224 840.29 831.224 846.934 L831.224 872.576 L823.73 872.576 L823.73 827.206 L831.224 827.206 L831.224 834.254 Q833.897 830.163 837.503 828.138 Q841.148 826.112 845.888 826.112 Q853.706 826.112 857.717 830.973 Q861.727 835.794 861.727 845.192 Z" fill="#000000" fill-rule="evenodd" fill-opacity="1" /><path clip-path="url(#clip390)" d="M905.517 828.543 L905.517 835.591 Q902.358 833.971 898.955 833.161 Q895.552 832.351 891.906 832.351 Q886.357 832.351 883.561 834.052 Q880.807 835.753 880.807 839.156 Q880.807 841.749 882.792 843.247 Q884.777 844.706 890.772 846.043 L893.324 846.61 Q901.264 848.311 904.586 851.43 Q907.948 854.509 907.948 860.059 Q907.948 866.378 902.925 870.064 Q897.942 873.751 889.192 873.751 Q885.546 873.751 881.576 873.022 Q877.647 872.333 873.272 870.915 L873.272 863.218 Q877.404 865.365 881.414 866.459 Q885.425 867.512 889.354 867.512 Q894.62 867.512 897.456 865.73 Q900.292 863.907 900.292 860.626 Q900.292 857.588 898.226 855.967 Q896.2 854.347 889.273 852.848 L886.681 852.24 Q879.754 850.782 876.675 847.784 Q873.596 844.746 873.596 839.48 Q873.596 833.08 878.133 829.596 Q882.67 826.112 891.015 826.112 Q895.147 826.112 898.793 826.72 Q902.439 827.327 905.517 828.543 Z" fill="#000000" fill-rule="evenodd" fill-opacity="1" /><path clip-path="url(#clip390)" d="M919.817 827.206 L927.271 827.206 L927.271 872.576 L919.817 872.576 L919.817 827.206 M919.817 809.544 L927.271 809.544 L927.271 818.983 L919.817 818.983 L919.817 809.544 Z" fill="#000000" fill-rule="evenodd" fill-opacity="1" /><path clip-path="url(#clip390)" d="M950.239 814.324 L950.239 827.206 L965.592 827.206 L965.592 832.999 L950.239 832.999 L950.239 857.628 Q950.239 863.178 951.738 864.758 Q953.277 866.338 957.936 866.338 L965.592 866.338 L965.592 872.576 L957.936 872.576 Q949.308 872.576 946.026 869.376 Q942.745 866.135 942.745 857.628 L942.745 832.999 L937.276 832.999 L937.276 827.206 L942.745 827.206 L942.745 814.324 L950.239 814.324 Z" fill="#000000" fill-rule="evenodd" fill-opacity="1" /><path clip-path="url(#clip390)" d="M975.395 827.206 L982.849 827.206 L982.849 872.576 L975.395 872.576 L975.395 827.206 M975.395 809.544 L982.849 809.544 L982.849 818.983 L975.395 818.983 L975.395 809.544 Z" fill="#000000" fill-rule="evenodd" fill-opacity="1" /><path clip-path="url(#clip390)" d="M993.098 827.206 L1001 827.206 L1015.18 865.284 L1029.35 827.206 L1037.25 827.206 L1020.24 872.576 L1010.11 872.576 L993.098 827.206 Z" fill="#000000" fill-rule="evenodd" fill-opacity="1" /><path clip-path="url(#clip390)" d="M1047.54 827.206 L1055 827.206 L1055 872.576 L1047.54 872.576 L1047.54 827.206 M1047.54 809.544 L1055 809.544 L1055 818.983 L1047.54 818.983 L1047.54 809.544 Z" fill="#000000" fill-rule="evenodd" fill-opacity="1" /><path clip-path="url(#clip390)" d="M1077.96 814.324 L1077.96 827.206 L1093.32 827.206 L1093.32 832.999 L1077.96 832.999 L1077.96 857.628 Q1077.96 863.178 1079.46 864.758 Q1081 866.338 1085.66 866.338 L1093.32 866.338 L1093.32 872.576 L1085.66 872.576 Q1077.03 872.576 1073.75 869.376 Q1070.47 866.135 1070.47 857.628 L1070.47 832.999 L1065 832.999 L1065 827.206 L1070.47 827.206 L1070.47 814.324 L1077.96 814.324 Z" fill="#000000" fill-rule="evenodd" fill-opacity="1" /><path clip-path="url(#clip390)" d="M1122 876.789 Q1118.84 884.891 1115.84 887.362 Q1112.84 889.833 1107.82 889.833 L1101.86 889.833 L1101.86 883.594 L1106.24 883.594 Q1109.32 883.594 1111.02 882.136 Q1112.72 880.678 1114.79 875.25 L1116.12 871.847 L1097.77 827.206 L1105.67 827.206 L1119.85 862.692 L1134.03 827.206 L1141.93 827.206 L1122 876.789 Z" fill="#000000" fill-rule="evenodd" fill-opacity="1" /><path clip-path="url(#clip390)" d="M1178.91 812.096 L1187.1 812.096 L1187.1 872.576 L1178.91 872.576 L1178.91 812.096 Z" fill="#000000" fill-rule="evenodd" fill-opacity="1" /><path clip-path="url(#clip390)" d="M1240.77 845.192 L1240.77 872.576 L1233.32 872.576 L1233.32 845.435 Q1233.32 838.994 1230.8 835.794 Q1228.29 832.594 1223.27 832.594 Q1217.23 832.594 1213.75 836.442 Q1210.27 840.29 1210.27 846.934 L1210.27 872.576 L1202.77 872.576 L1202.77 827.206 L1210.27 827.206 L1210.27 834.254 Q1212.94 830.163 1216.55 828.138 Q1220.19 826.112 1224.93 826.112 Q1232.75 826.112 1236.76 830.973 Q1240.77 835.794 1240.77 845.192 Z" fill="#000000" fill-rule="evenodd" fill-opacity="1" /><path clip-path="url(#clip390)" d="M1285.49 834.092 L1285.49 809.544 L1292.95 809.544 L1292.95 872.576 L1285.49 872.576 L1285.49 865.77 Q1283.14 869.821 1279.54 871.806 Q1275.97 873.751 1270.95 873.751 Q1262.73 873.751 1257.54 867.188 Q1252.4 860.626 1252.4 849.931 Q1252.4 839.237 1257.54 832.675 Q1262.73 826.112 1270.95 826.112 Q1275.97 826.112 1279.54 828.097 Q1283.14 830.042 1285.49 834.092 M1260.09 849.931 Q1260.09 858.155 1263.46 862.854 Q1266.86 867.512 1272.77 867.512 Q1278.69 867.512 1282.09 862.854 Q1285.49 858.155 1285.49 849.931 Q1285.49 841.708 1282.09 837.05 Q1278.69 832.351 1272.77 832.351 Q1266.86 832.351 1263.46 837.05 Q1260.09 841.708 1260.09 849.931 Z" fill="#000000" fill-rule="evenodd" fill-opacity="1" /><path clip-path="url(#clip390)" d="M1347.11 848.028 L1347.11 851.673 L1312.84 851.673 Q1313.32 859.37 1317.45 863.421 Q1321.63 867.431 1329.04 867.431 Q1333.33 867.431 1337.34 866.378 Q1341.39 865.325 1345.36 863.218 L1345.36 870.267 Q1341.35 871.968 1337.14 872.86 Q1332.93 873.751 1328.59 873.751 Q1317.74 873.751 1311.38 867.431 Q1305.06 861.112 1305.06 850.337 Q1305.06 839.197 1311.05 832.675 Q1317.09 826.112 1327.3 826.112 Q1336.45 826.112 1341.76 832.026 Q1347.11 837.9 1347.11 848.028 M1339.65 845.84 Q1339.57 839.723 1336.21 836.077 Q1332.89 832.432 1327.38 832.432 Q1321.14 832.432 1317.37 835.956 Q1313.65 839.48 1313.08 845.881 L1339.65 845.84 Z" fill="#000000" fill-rule="evenodd" fill-opacity="1" /><path clip-path="url(#clip390)" d="M1395.6 827.206 L1379.19 849.283 L1396.45 872.576 L1387.66 872.576 L1374.45 854.752 L1361.24 872.576 L1352.45 872.576 L1370.08 848.838 L1353.95 827.206 L1362.74 827.206 L1374.77 843.369 L1386.81 827.206 L1395.6 827.206 Z" fill="#000000" fill-rule="evenodd" fill-opacity="1" /><path clip-path="url(#clip390)" d="M1449.27 872.576 L1426.18 812.096 L1434.73 812.096 L1453.89 863.016 L1473.09 812.096 L1481.6 812.096 L1458.55 872.576 L1449.27 872.576 Z" fill="#000000" fill-rule="evenodd" fill-opacity="1" /><path clip-path="url(#clip390)" d="M1504.28 849.769 Q1495.25 849.769 1491.76 851.835 Q1488.28 853.901 1488.28 858.884 Q1488.28 862.854 1490.87 865.203 Q1493.51 867.512 1498 867.512 Q1504.2 867.512 1507.93 863.137 Q1511.69 858.722 1511.69 851.43 L1511.69 849.769 L1504.28 849.769 M1519.15 846.691 L1519.15 872.576 L1511.69 872.576 L1511.69 865.689 Q1509.14 869.821 1505.33 871.806 Q1501.53 873.751 1496.02 873.751 Q1489.05 873.751 1484.92 869.862 Q1480.83 865.933 1480.83 859.37 Q1480.83 851.714 1485.93 847.825 Q1491.08 843.936 1501.24 843.936 L1511.69 843.936 L1511.69 843.207 Q1511.69 838.062 1508.29 835.267 Q1504.93 832.432 1498.81 832.432 Q1494.92 832.432 1491.24 833.363 Q1487.55 834.295 1484.15 836.158 L1484.15 829.272 Q1488.24 827.692 1492.09 826.922 Q1495.94 826.112 1499.58 826.112 Q1509.43 826.112 1514.29 831.216 Q1519.15 836.32 1519.15 846.691 Z" fill="#000000" fill-rule="evenodd" fill-opacity="1" /><path clip-path="url(#clip390)" d="M1560.79 834.173 Q1559.54 833.444 1558.04 833.12 Q1556.58 832.756 1554.8 832.756 Q1548.48 832.756 1545.07 836.888 Q1541.71 840.979 1541.71 848.676 L1541.71 872.576 L1534.22 872.576 L1534.22 827.206 L1541.71 827.206 L1541.71 834.254 Q1544.06 830.123 1547.83 828.138 Q1551.6 826.112 1556.98 826.112 Q1557.75 826.112 1558.69 826.234 Q1559.62 826.315 1560.75 826.517 L1560.79 834.173 Z" fill="#000000" fill-rule="evenodd" fill-opacity="1" /><path clip-path="url(#clip390)" d="M1568.61 827.206 L1576.06 827.206 L1576.06 872.576 L1568.61 872.576 L1568.61 827.206 M1568.61 809.544 L1576.06 809.544 L1576.06 818.983 L1568.61 818.983 L1568.61 809.544 Z" fill="#000000" fill-rule="evenodd" fill-opacity="1" /><path clip-path="url(#clip390)" d="M1612.28 849.769 Q1603.25 849.769 1599.76 851.835 Q1596.28 853.901 1596.28 858.884 Q1596.28 862.854 1598.87 865.203 Q1601.5 867.512 1606 867.512 Q1612.2 867.512 1615.92 863.137 Q1619.69 858.722 1619.69 851.43 L1619.69 849.769 L1612.28 849.769 M1627.15 846.691 L1627.15 872.576 L1619.69 872.576 L1619.69 865.689 Q1617.14 869.821 1613.33 871.806 Q1609.52 873.751 1604.01 873.751 Q1597.05 873.751 1592.92 869.862 Q1588.82 865.933 1588.82 859.37 Q1588.82 851.714 1593.93 847.825 Q1599.07 843.936 1609.24 843.936 L1619.69 843.936 L1619.69 843.207 Q1619.69 838.062 1616.29 835.267 Q1612.93 832.432 1606.81 832.432 Q1602.92 832.432 1599.23 833.363 Q1595.55 834.295 1592.15 836.158 L1592.15 829.272 Q1596.24 827.692 1600.09 826.922 Q1603.93 826.112 1607.58 826.112 Q1617.42 826.112 1622.28 831.216 Q1627.15 836.32 1627.15 846.691 Z" fill="#000000" fill-rule="evenodd" fill-opacity="1" /><path clip-path="url(#clip390)" d="M1680.21 845.192 L1680.21 872.576 L1672.76 872.576 L1672.76 845.435 Q1672.76 838.994 1670.25 835.794 Q1667.74 832.594 1662.71 832.594 Q1656.68 832.594 1653.19 836.442 Q1649.71 840.29 1649.71 846.934 L1649.71 872.576 L1642.21 872.576 L1642.21 827.206 L1649.71 827.206 L1649.71 834.254 Q1652.38 830.163 1655.99 828.138 Q1659.63 826.112 1664.37 826.112 Q1672.19 826.112 1676.2 830.973 Q1680.21 835.794 1680.21 845.192 Z" fill="#000000" fill-rule="evenodd" fill-opacity="1" /><path clip-path="url(#clip390)" d="M1727.73 828.948 L1727.73 835.915 Q1724.57 834.173 1721.37 833.323 Q1718.21 832.432 1714.97 832.432 Q1707.72 832.432 1703.71 837.05 Q1699.7 841.627 1699.7 849.931 Q1699.7 858.236 1703.71 862.854 Q1707.72 867.431 1714.97 867.431 Q1718.21 867.431 1721.37 866.581 Q1724.57 865.689 1727.73 863.948 L1727.73 870.834 Q1724.61 872.292 1721.25 873.022 Q1717.93 873.751 1714.16 873.751 Q1703.91 873.751 1697.87 867.31 Q1691.84 860.869 1691.84 849.931 Q1691.84 838.832 1697.91 832.472 Q1704.03 826.112 1714.64 826.112 Q1718.09 826.112 1721.37 826.841 Q1724.65 827.53 1727.73 828.948 Z" fill="#000000" fill-rule="evenodd" fill-opacity="1" /><path clip-path="url(#clip390)" d="M1779.5 848.028 L1779.5 851.673 L1745.23 851.673 Q1745.72 859.37 1749.85 863.421 Q1754.02 867.431 1761.43 867.431 Q1765.73 867.431 1769.74 866.378 Q1773.79 865.325 1777.76 863.218 L1777.76 870.267 Q1773.75 871.968 1769.53 872.86 Q1765.32 873.751 1760.99 873.751 Q1750.13 873.751 1743.77 867.431 Q1737.45 861.112 1737.45 850.337 Q1737.45 839.197 1743.45 832.675 Q1749.48 826.112 1759.69 826.112 Q1768.85 826.112 1774.15 832.026 Q1779.5 837.9 1779.5 848.028 M1772.05 845.84 Q1771.97 839.723 1768.6 836.077 Q1765.28 832.432 1759.77 832.432 Q1753.53 832.432 1749.77 835.956 Q1746.04 839.48 1745.47 845.881 L1772.05 845.84 Z" fill="#000000" fill-rule="evenodd" fill-opacity="1" /><path clip-path="url(#clip390)" d="M1820.66 828.543 L1820.66 835.591 Q1817.5 833.971 1814.09 833.161 Q1810.69 832.351 1807.05 832.351 Q1801.5 832.351 1798.7 834.052 Q1795.95 835.753 1795.95 839.156 Q1795.95 841.749 1797.93 843.247 Q1799.92 844.706 1805.91 846.043 L1808.46 846.61 Q1816.4 848.311 1819.73 851.43 Q1823.09 854.509 1823.09 860.059 Q1823.09 866.378 1818.06 870.064 Q1813.08 873.751 1804.33 873.751 Q1800.69 873.751 1796.72 873.022 Q1792.79 872.333 1788.41 870.915 L1788.41 863.218 Q1792.54 865.365 1796.55 866.459 Q1800.56 867.512 1804.49 867.512 Q1809.76 867.512 1812.6 865.73 Q1815.43 863.907 1815.43 860.626 Q1815.43 857.588 1813.37 855.967 Q1811.34 854.347 1804.41 852.848 L1801.82 852.24 Q1794.89 850.782 1791.81 847.784 Q1788.74 844.746 1788.74 839.48 Q1788.74 833.08 1793.27 829.596 Q1797.81 826.112 1806.15 826.112 Q1810.29 826.112 1813.93 826.72 Q1817.58 827.327 1820.66 828.543 Z" fill="#000000" fill-rule="evenodd" fill-opacity="1" /><path clip-path="url(#clip393)" d="
M307.342 1452.03 L307.342 1470.51 L712.892 1470.51 L712.892 1452.03 L307.342 1452.03 L307.342 1452.03  Z
  " fill="#009af9" fill-rule="evenodd" fill-opacity="1"/>
<polyline clip-path="url(#clip393)" style="stroke:#000000; stroke-linecap:round; stroke-linejoin:round; stroke-width:4; stroke-opacity:1; fill:none" points="
  307.342,1452.03 307.342,1470.51 712.892,1470.51 712.892,1452.03 307.342,1452.03 
  "/>
<path clip-path="url(#clip393)" d="
M814.28 939.405 L814.28 1470.51 L1219.83 1470.51 L1219.83 939.405 L814.28 939.405 L814.28 939.405  Z
  " fill="#009af9" fill-rule="evenodd" fill-opacity="1"/>
<polyline clip-path="url(#clip393)" style="stroke:#000000; stroke-linecap:round; stroke-linejoin:round; stroke-width:4; stroke-opacity:1; fill:none" points="
  814.28,939.405 814.28,1470.51 1219.83,1470.51 1219.83,939.405 814.28,939.405 
  "/>
<path clip-path="url(#clip393)" d="
M1321.22 1093.92 L1321.22 1470.51 L1726.77 1470.51 L1726.77 1093.92 L1321.22 1093.92 L1321.22 1093.92  Z
  " fill="#009af9" fill-rule="evenodd" fill-opacity="1"/>
<polyline clip-path="url(#clip393)" style="stroke:#000000; stroke-linecap:round; stroke-linejoin:round; stroke-width:4; stroke-opacity:1; fill:none" points="
  1321.22,1093.92 1321.22,1470.51 1726.77,1470.51 1726.77,1093.92 1321.22,1093.92 
  "/>
<path clip-path="url(#clip393)" d="
M1828.16 1132.28 L1828.16 1470.51 L2233.71 1470.51 L2233.71 1132.28 L1828.16 1132.28 L1828.16 1132.28  Z
  " fill="#009af9" fill-rule="evenodd" fill-opacity="1"/>
<polyline clip-path="url(#clip393)" style="stroke:#000000; stroke-linecap:round; stroke-linejoin:round; stroke-width:4; stroke-opacity:1; fill:none" points="
  1828.16,1132.28 1828.16,1470.51 2233.71,1470.51 2233.71,1132.28 1828.16,1132.28 
  "/>
<circle clip-path="url(#clip393)" style="fill:#009af9; stroke:none; fill-opacity:0" cx="510.117" cy="1452.03" r="2"/>
<circle clip-path="url(#clip393)" style="fill:#009af9; stroke:none; fill-opacity:0" cx="1017.05" cy="939.405" r="2"/>
<circle clip-path="url(#clip393)" style="fill:#009af9; stroke:none; fill-opacity:0" cx="1523.99" cy="1093.92" r="2"/>
<circle clip-path="url(#clip393)" style="fill:#009af9; stroke:none; fill-opacity:0" cx="2030.93" cy="1132.28" r="2"/>
</svg>
